<svg width="24" height="24" viewBox="0 0 24 24" fill="none" xmlns="http://www.w3.org/2000/svg">
<path d="M12.1527 2L2 14.18L12.1527 23L22 14.1418L12.1527 2ZM11.9618 7.47909C12.7923 7.47909 13.4695 8.15652 13.4695 8.98727C13.4695 9.35834 13.3295 9.6986 13.1069 9.96091L15.3397 12.5573C15.5902 12.3707 15.9003 12.2709 16.2366 12.2709C17.0671 12.2709 17.7443 12.9483 17.7443 13.7791C17.7443 14.6098 17.0671 15.2682 16.2366 15.2682C15.7472 15.2682 15.328 15.0386 15.0534 14.6764L13.2977 16.2227C13.4018 16.4273 13.4695 16.6457 13.4695 16.8909C13.4695 17.7217 12.7923 18.3991 11.9618 18.3991C11.1314 18.3991 10.4542 17.7217 10.4542 16.8909C10.4542 16.5545 10.573 16.2442 10.7595 15.9936L9.44275 14.7909C9.16812 15.0872 8.77166 15.2682 8.33588 15.2682C7.50543 15.2682 6.82824 14.6098 6.82824 13.7791C6.82824 12.9483 7.50543 12.2709 8.33588 12.2709C8.52273 12.2709 8.70517 12.3041 8.87022 12.3664L10.8168 9.96091C10.5941 9.6986 10.4542 9.35834 10.4542 8.98727C10.4542 8.15652 11.1314 7.47909 11.9618 7.47909ZM11.2366 10.3045L9.34733 12.6718C9.64742 12.9468 9.84351 13.3399 9.84351 13.7791C9.84351 13.9868 9.80509 14.1719 9.729 14.3518L11.1221 15.65C11.3621 15.4878 11.6504 15.3827 11.9618 15.3827C12.3867 15.3827 12.7762 15.5574 13.0496 15.8409L14.8244 14.2564C14.7711 14.1021 14.7481 13.9515 14.7481 13.7791C14.7481 13.4824 14.8289 13.1912 14.9771 12.9582L12.6679 10.3045C12.4566 10.4179 12.2184 10.4955 11.9618 10.4955C11.6994 10.4955 11.4514 10.4227 11.2366 10.3045Z" fill="#00BCF2"/>
</svg>
