<svg width="58" height="24" viewBox="0 0 58 24" fill="none" xmlns="http://www.w3.org/2000/svg">
<g clip-path="url(#clip0_2_5)">
<path d="M17.5552 17.611H15.2706L17.2498 13.5937H17.2742L17.5552 17.611ZM17.6529 19.4359L17.7873 21.0281H20.3041L19.461 11.7565H15.7104L10.9824 21.0281H13.548L14.3421 19.4359H17.6529ZM23.8226 16.9618H24.2013L26.0094 14.5245H28.3185L25.8262 17.6354L27.3656 21.0035H24.8977L23.8959 18.3825H23.5416L22.9797 21.0035H20.8416L22.7963 11.7688H24.9221L23.8226 16.9618ZM31.0429 18.3336C31.7393 18.3336 32.2035 18.3825 32.0691 18.9215C31.9103 19.6195 31.6293 19.7176 30.7375 19.7176C30.4077 19.7176 29.8089 19.7176 29.9679 19.0194C30.09 18.4315 30.5298 18.3336 31.0429 18.3336ZM31.6293 21.0035H33.7307L34.5737 16.9618C35.0624 14.7205 34.1827 14.4633 32.0325 14.4633C30.5176 14.4633 29.0515 14.4387 28.6117 16.4719H30.7131C30.8475 15.884 31.2018 15.7738 31.7149 15.7738C32.6433 15.7738 32.6189 16.1657 32.4601 16.7536L32.2524 17.7824H32.1547C32.0814 17.0353 31.1529 17.0598 30.542 17.0598C29.0026 17.0598 28.0986 17.5497 27.7687 19.0929C27.4144 20.7464 28.2085 21.1016 29.6746 21.1016C30.4199 21.1016 31.3972 20.9423 31.7515 20.0727H31.8248L31.6293 21.0035ZM38.0311 14.5245L37.8479 15.4553H37.9212C38.3366 14.6838 39.1795 14.4755 39.9003 14.4755C40.8289 14.4755 41.7207 14.6347 41.5985 15.737H41.6963C42.0017 14.8062 42.9546 14.4755 43.7731 14.4755C45.2637 14.4755 45.899 15.0879 45.5691 16.5822L44.6162 21.0158H42.5148L43.3089 17.2558C43.4066 16.5576 43.5166 16.0678 42.7225 16.0678C41.9284 16.0678 41.623 16.6066 41.4886 17.3048L40.7189 20.9913H38.6175L39.4361 17.072C39.5338 16.4841 39.5949 16.0678 38.8497 16.0678C37.9823 16.0678 37.7135 16.5331 37.5669 17.3048L36.7971 20.9913H34.6959L36.0886 14.5H38.0434V14.5245H38.0311ZM48.8922 18.3336C49.5885 18.3336 50.0528 18.3825 49.9184 18.9215C49.784 19.6195 49.4786 19.7176 48.5867 19.7176C48.2813 19.7176 47.6583 19.7176 47.8171 19.0194C47.9393 18.4315 48.3546 18.3336 48.8922 18.3336ZM49.4541 21.0035H51.5555L52.3985 16.9618C52.8872 14.7205 52.0075 14.4633 49.8573 14.4633C48.3424 14.4633 46.8763 14.4387 46.4365 16.4719H48.5379C48.6723 15.884 49.0266 15.7738 49.5397 15.7738C50.4681 15.7738 50.4437 16.1657 50.2849 16.7536L50.0772 17.7824H49.9795C49.9062 17.0353 48.9777 17.0598 48.3668 17.0598C46.8274 17.0598 45.9234 17.5497 45.5935 19.0929C45.2392 20.7464 46.0333 21.1016 47.4995 21.1016C48.2447 21.1016 49.222 20.9423 49.5763 20.0727H49.6496L49.4541 21.0035ZM54.6465 21.0035H52.5451L53.9011 14.5122H56.0025L54.6465 21.0035ZM56.4912 12.7486C56.4912 13.3977 55.9537 13.9366 55.3062 13.9366C54.6587 13.9366 54.1211 13.3977 54.1211 12.7486C54.1211 12.075 54.6587 11.5606 55.3062 11.5606C55.9537 11.5606 56.4912 12.075 56.4912 12.7486Z" fill="#F79838"/>
<path d="M12.0818 23.2449C7.37825 21.7998 3.96967 17.4518 3.96967 12.3322C3.96967 7.1269 7.46377 2.75446 12.2406 1.33371C12.7294 1.19899 12.5949 0.868304 12.0085 0.868304C5.66785 0.868304 0.5 5.98786 0.5 12.2954C0.5 18.6031 5.6312 23.7226 12.0085 23.7226C12.5949 23.7593 12.6195 23.4287 12.0818 23.2449ZM6.15653 14.9777C6.1321 14.6715 6.10767 14.3654 6.10767 14.0469C6.10767 9.02532 10.1638 4.95905 15.1728 4.95905C19.9009 4.95905 21.3424 7.06567 21.489 6.94319C21.6723 6.78398 19.7665 2.59523 14.2199 2.59523C9.21082 2.59523 5.15473 6.6615 5.15473 11.6831C5.15473 12.8466 5.38686 13.9489 5.76559 14.9777C5.92442 15.4186 6.18097 15.4186 6.15653 14.9777ZM9.93163 8.43742C12.2651 7.40861 15.2461 7.38411 18.1538 8.38842C20.1085 9.08655 21.2325 10.0419 21.3424 10.0051C21.5013 9.93165 20.2063 7.89851 17.8728 7.01667C15.0506 5.96337 12.0207 6.50227 9.80946 8.2537C9.56512 8.43742 9.63842 8.57215 9.93163 8.43742Z" fill="#0098CC"/>
</g>
<defs>
<clipPath id="clip0_2_5">
<rect width="57" height="24" fill="white" transform="translate(0.5)"/>
</clipPath>
</defs>
</svg>
