<svg width="50" height="21" viewBox="0 0 50 21" fill="none" xmlns="http://www.w3.org/2000/svg">
<path d="M14.9607 15.4096H12.9567L14.6928 11.8945H14.7142L14.9607 15.4096ZM15.0464 17.0064L15.1643 18.3996H17.372L16.6325 10.2869H13.3425L9.19507 18.3996H11.4456L12.1422 17.0064H15.0464ZM20.4584 14.8416H20.7906L22.3767 12.7089H24.4022L22.216 15.431L23.5663 18.3781H21.4015L20.5227 16.0847H20.2119L19.719 18.3781H17.8435L19.5582 10.2977H21.4229L20.4584 14.8416ZM26.792 16.0419C27.4029 16.0419 27.8101 16.0847 27.6922 16.5563C27.5529 17.1671 27.3064 17.2529 26.5241 17.2529C26.2348 17.2529 25.7096 17.2529 25.849 16.642C25.9561 16.1276 26.3419 16.0419 26.792 16.0419ZM27.3064 18.3781H29.1497L29.8892 14.8416C30.3179 12.8804 29.5462 12.6554 27.6601 12.6554C26.3312 12.6554 25.0452 12.6339 24.6594 14.4129H26.5027C26.6206 13.8985 26.9314 13.8021 27.3815 13.8021C28.1959 13.8021 28.1745 14.145 28.0352 14.6594L27.853 15.5596H27.7673C27.703 14.9059 26.8885 14.9273 26.3526 14.9273C25.0023 14.9273 24.2093 15.356 23.9199 16.7063C23.6091 18.1531 24.3057 18.4639 25.5918 18.4639C26.2455 18.4639 27.1028 18.3245 27.4136 17.5636H27.4779L27.3064 18.3781ZM32.922 12.7089L32.7613 13.5234H32.8256C33.19 12.8483 33.9294 12.6661 34.5617 12.6661C35.3762 12.6661 36.1585 12.8054 36.0513 13.7699H36.1371C36.405 12.9554 37.2409 12.6661 37.9589 12.6661C39.2664 12.6661 39.8237 13.2019 39.5343 14.5094L38.6984 18.3888H36.8551L37.5517 15.0988C37.6374 14.4879 37.7339 14.0593 37.0373 14.0593C36.3407 14.0593 36.0728 14.5308 35.9549 15.1417L35.2797 18.3674H33.4364L34.1545 14.938C34.2402 14.4236 34.2938 14.0593 33.6401 14.0593C32.8792 14.0593 32.6434 14.4665 32.5148 15.1417L31.8396 18.3674H29.9964L31.2181 12.6875H32.9328V12.7089H32.922ZM42.4493 16.0419C43.0601 16.0419 43.4674 16.0847 43.3495 16.5563C43.2316 17.1671 42.9637 17.2529 42.1813 17.2529C41.9134 17.2529 41.3669 17.2529 41.5062 16.642C41.6134 16.1276 41.9777 16.0419 42.4493 16.0419ZM42.9422 18.3781H44.7855L45.525 14.8416C45.9537 12.8804 45.182 12.6554 43.2959 12.6554C41.967 12.6554 40.681 12.6339 40.2952 14.4129H42.1385C42.2564 13.8985 42.5672 13.8021 43.0173 13.8021C43.8317 13.8021 43.8103 14.145 43.671 14.6594L43.4888 15.5596H43.4031C43.3388 14.9059 42.5243 14.9273 41.9884 14.9273C40.6381 14.9273 39.8451 15.356 39.5557 16.7063C39.2449 18.1531 39.9415 18.4639 41.2276 18.4639C41.8813 18.4639 42.7386 18.3245 43.0494 17.5636H43.1137L42.9422 18.3781ZM47.4969 18.3781H45.6536L46.8431 12.6982H48.6864L47.4969 18.3781ZM49.1151 11.155C49.1151 11.723 48.6436 12.1945 48.0756 12.1945C47.5076 12.1945 47.0361 11.723 47.0361 11.155C47.0361 10.5656 47.5076 10.1155 48.0756 10.1155C48.6436 10.1155 49.1151 10.5656 49.1151 11.155Z" fill="#F79838"/>
<path d="M10.1595 20.3393C6.03355 19.0748 3.04357 15.2703 3.04357 10.7907C3.04357 6.23604 6.10857 2.41015 10.2988 1.167C10.7275 1.04912 10.6096 0.759766 10.0952 0.759766C4.5332 0.759766 0 5.23938 0 10.7585C0 16.2777 4.50105 20.7573 10.0952 20.7573C10.6096 20.7894 10.6311 20.5001 10.1595 20.3393ZM4.96187 13.1055C4.94044 12.8376 4.91901 12.5697 4.91901 12.291C4.91901 7.89715 8.47698 4.33917 12.8709 4.33917C17.0183 4.33917 18.2828 6.18246 18.4114 6.07529C18.5722 5.93598 16.9004 2.27083 12.035 2.27083C7.64107 2.27083 4.0831 5.82881 4.0831 10.2227C4.0831 11.2408 4.28672 12.2053 4.61894 13.1055C4.75826 13.4913 4.98331 13.4913 4.96187 13.1055ZM8.27336 7.38274C10.3203 6.48253 12.9352 6.4611 15.4858 7.33987C17.2004 7.95073 18.1864 8.78664 18.2828 8.75449C18.4222 8.69019 17.2862 6.9112 15.2393 6.13959C12.7637 5.21795 10.1059 5.68949 8.16619 7.22199C7.95186 7.38274 8.01616 7.50063 8.27336 7.38274Z" fill="#0098CC"/>
</svg>
