<svg width="22" height="24" viewBox="0 0 22 24" fill="none" xmlns="http://www.w3.org/2000/svg">
<g clip-path="url(#clip0_2_8)">
<path d="M10.8459 0L0.120468 3.88684L1.81538 18.358L10.8571 23.4758L19.9455 18.2887L21.6399 3.81802L10.8459 0Z" fill="#BDBDBD"/>
<path d="M20.522 4.54924L10.8803 1.13885V22.2457L18.9921 17.6157L20.522 4.54924Z" fill="#B71C1C"/>
<path d="M10.85 1.12873L1.23792 4.61221L2.76836 17.6834L10.8551 22.2601L10.8802 22.2463V1.1394L10.85 1.12873Z" fill="#DD2C00"/>
<path d="M10.8803 2.13175V7.20465L15.2754 17.0731H17.5344L10.8803 2.13175Z" fill="#BDBDBD"/>
<path d="M4.22603 17.0731H6.48505L10.8801 7.20465V2.13175L4.22603 17.0731Z" fill="#EEEEEE"/>
<path d="M10.8803 11.738H13.9545V13.8721H10.8803V11.738Z" fill="#BDBDBD"/>
<path d="M7.80598 11.738H10.8801V13.8721H7.80598V11.738Z" fill="#EEEEEE"/>
</g>
<defs>
<clipPath id="clip0_2_8">
<rect width="22" height="24" fill="white"/>
</clipPath>
</defs>
</svg>
