<svg width="21" height="22" viewBox="0 0 21 22" fill="none" xmlns="http://www.w3.org/2000/svg">
<path d="M10.3529 0L0.11499 3.56294L1.73286 16.8282L10.3636 21.5195L19.0389 16.7646L20.6563 3.49985L10.3529 0Z" fill="#BDBDBD"/>
<path d="M19.5892 4.17014L10.3857 1.04395V20.3919L18.1288 16.1477L19.5892 4.17014Z" fill="#B71C1C"/>
<path d="M10.3568 1.03467L1.18164 4.22786L2.64252 16.2098L10.3617 20.4051L10.3856 20.3924V1.04445L10.3568 1.03467Z" fill="#DD2C00"/>
<path d="M10.3857 1.9541V6.60426L14.5811 15.6503H16.7374L10.3857 1.9541Z" fill="#BDBDBD"/>
<path d="M4.03394 15.6503H6.19028L10.3856 6.60426V1.9541L4.03394 15.6503Z" fill="#EEEEEE"/>
<path d="M10.3857 10.7598H13.3202V12.7161H10.3857V10.7598Z" fill="#BDBDBD"/>
<path d="M7.45117 10.7598H10.3856V12.7161H7.45117V10.7598Z" fill="#EEEEEE"/>
</svg>
