<svg width="24" height="24" viewBox="0 0 24 24" fill="none" xmlns="http://www.w3.org/2000/svg">
<g clip-path="url(#clip0_2_25)">
<path d="M24 8.77001H21.532V16.335H20.107V8.77001H17.645V7.53001H24V8.77001ZM17.148 16.335H12.327V7.53001H16.957V8.77001H13.752V11.264H16.705V12.498H13.752V15.102H17.148V16.335ZM10.44 16.335H8.882L4.78 9.86301C4.67739 9.70193 4.59097 9.5311 4.522 9.35301H4.486C4.518 9.54201 4.534 9.94501 4.534 10.563V16.335H3.157V7.53001H4.816L8.781 13.85C8.948 14.111 9.056 14.292 9.104 14.39H9.128C9.088 14.157 9.068 13.761 9.068 13.205V7.52901H10.44V16.335ZM1.737 15.642C1.737 15.751 1.71452 15.8588 1.67083 15.9595C1.62715 16.0601 1.56312 16.1515 1.48241 16.2285C1.40171 16.3055 1.3059 16.3666 1.20048 16.4082C1.09505 16.4498 0.982071 16.4711 0.868 16.471C0.753924 16.471 0.640967 16.4495 0.535588 16.4078C0.43021 16.3661 0.334475 16.3049 0.253861 16.2278C0.173246 16.1508 0.109331 16.0593 0.0657715 15.9586C0.022212 15.8579 -0.000137928 15.75 -3.22106e-07 15.641C0.000277153 15.4213 0.0918494 15.2107 0.254601 15.0555C0.417352 14.9002 0.637973 14.813 0.868 14.813C0.982071 14.8129 1.09505 14.8342 1.20048 14.8758C1.3059 14.9174 1.40171 14.9785 1.48241 15.0555C1.56312 15.1325 1.62715 15.2239 1.67083 15.3245C1.71452 15.4252 1.737 15.5331 1.737 15.642Z" fill="#512BD4"/>
</g>
<defs>
<clipPath id="clip0_2_25">
<rect width="24" height="24" fill="white"/>
</clipPath>
</defs>
</svg>
