<svg width="24" height="24" viewBox="0 0 24 24" fill="none" xmlns="http://www.w3.org/2000/svg">
<g clip-path="url(#clip0_2_27)">
<path d="M11.978 0.805001C11.4371 1.45263 10.7493 1.96175 9.972 2.29C10.7496 2.61883 11.4373 3.12864 11.978 3.777C12.5186 3.12828 13.2063 2.61811 13.984 2.289C13.2067 1.96075 12.5189 1.45263 11.978 0.805001ZM22.578 18.074L19.45 19.22V12.345C19.45 11.889 19.82 11.519 20.275 11.519H21.754C22.208 11.519 22.578 11.889 22.578 12.345V18.074ZM18.028 12.344V19.743L14.163 21.159V7.159C14.163 6.939 14.25 6.729 14.406 6.574C14.4822 6.49787 14.5726 6.43749 14.6721 6.39631C14.7716 6.35513 14.8783 6.33396 14.986 6.334H14.994L17.207 6.353C17.4243 6.35536 17.6318 6.44313 17.7849 6.59732C17.938 6.75151 18.0242 6.95974 18.025 7.177V12.263H18.029L18.028 12.344ZM21.755 10.098H20.275C19.984 10.098 19.705 10.153 19.449 10.255V7.178C19.449 5.948 18.449 4.941 17.219 4.931L15.006 4.914H14.987C14.6934 4.91304 14.4026 4.97005 14.1311 5.08177C13.8596 5.19348 13.6129 5.3577 13.405 5.565C13.1938 5.77333 13.0263 6.02171 12.9123 6.29558C12.7982 6.56946 12.74 6.86334 12.741 7.16V23.197L24 19.068V12.343C23.9989 11.7475 23.7618 11.1767 23.3406 10.7557C22.9194 10.3346 22.3485 10.0978 21.753 10.097M9.839 21.159L5.974 19.743V12.345L5.973 12.265H5.976V7.176C5.976 6.726 6.343 6.356 6.794 6.352L9.008 6.334H9.015C9.1227 6.33396 9.22936 6.35513 9.32887 6.39631C9.42839 6.43749 9.51882 6.49787 9.595 6.574C9.67245 6.65044 9.73392 6.74154 9.77581 6.84197C9.8177 6.94241 9.83918 7.05018 9.839 7.159V21.159ZM4.551 19.22L1.424 18.074V12.344C1.424 11.888 1.794 11.518 2.248 11.518H3.727C4.181 11.518 4.551 11.888 4.551 12.344V19.22ZM9.015 4.913H8.997L6.783 4.931C6.19058 4.93731 5.62446 5.1766 5.20713 5.59712C4.7898 6.01763 4.55481 6.58555 4.553 7.178V10.254C4.29032 10.1491 4.00987 10.0957 3.727 10.097H2.247C1.65113 10.0978 1.07991 10.3349 0.658655 10.7564C0.237404 11.1778 0.000529134 11.7491 0 12.345L0 19.069L11.262 23.196V7.157C11.2627 6.86044 11.2043 6.56671 11.0901 6.29301C10.9759 6.0193 10.8083 5.77113 10.597 5.563C10.3892 5.35552 10.1425 5.19112 9.87102 5.07923C9.59954 4.96734 9.30863 4.91017 9.015 4.911" fill="#0071B5"/>
</g>
<defs>
<clipPath id="clip0_2_27">
<rect width="24" height="24" fill="white"/>
</clipPath>
</defs>
</svg>
