<svg width="24" height="24" viewBox="0 0 24 24" fill="none" xmlns="http://www.w3.org/2000/svg">
<g clip-path="url(#clip0_2_65)">
<path d="M12.645 13.6632H15.672C16.533 13.6632 17.078 13.1892 17.078 12.4282C17.078 11.7112 16.533 11.1942 15.672 11.1942H12.645C12.545 11.1942 12.458 11.2802 12.458 11.3662V13.4912C12.473 13.5912 12.544 13.6632 12.645 13.6632ZM12.645 18.5592H15.773C16.734 18.5592 17.308 18.0712 17.308 17.2092C17.308 16.4632 16.763 15.8592 15.773 15.8592H12.645C12.545 15.8592 12.458 15.9462 12.458 16.0322V18.3722C12.473 18.4872 12.544 18.5592 12.645 18.5592ZM23.72 0.0531981L14.767 8.9832H16.231C18.512 8.9832 19.861 10.4182 19.861 11.9832C19.861 13.2182 19.029 14.1232 18.139 14.5242C17.996 14.5822 17.996 14.7832 18.153 14.8402C19.186 15.2422 19.918 16.3202 19.918 17.5822C19.918 19.3622 18.728 20.7842 16.418 20.7842H10.076C9.97605 20.7842 9.88905 20.6982 9.88905 20.6122V13.8502L0.0620472 23.6402C-0.0679528 23.7702 0.0190472 23.9992 0.205047 23.9992H23.836C23.8778 23.9987 23.9177 23.9819 23.9472 23.9523C23.9767 23.9228 23.9935 23.8829 23.994 23.8412V0.182198C24.037 0.0241981 23.836 -0.0618019 23.721 0.0521981L23.72 0.0531981Z" fill="#121118"/>
</g>
<defs>
<clipPath id="clip0_2_65">
<rect width="24" height="24" fill="white"/>
</clipPath>
</defs>
</svg>
