<svg width="52" height="24" viewBox="0 0 52 24" fill="none" xmlns="http://www.w3.org/2000/svg">
<path d="M47.2381 16.1228L46.5161 13.4958L50.906 12.6871L46.5481 11.7163L50.6495 9.96389L46.1822 9.97563L49.7835 7.36747L45.4327 8.36167L48.3548 5.02577L44.3352 6.95311L46.434 3.05614L42.9502 5.81923L44.1203 1.55838L41.3481 5.01989L41.5239 0.608788L39.6019 4.59147L38.7838 0.251953L37.8026 4.55976L36.0281 0.507841L36.04 4.9213L34.1265 5.42367L31.0301 2.77443L32.9814 6.74537L29.0394 4.67244L31.8342 8.11164L27.5225 6.95899L31.0228 9.69979L26.5627 9.52255L30.5917 11.4241L26.2006 12.2328L30.5596 13.2024L28.1544 14.2306H18.8708V19.6594H39.4618L44.8532 20.2463L44.6475 19.6594H44.8532V18.556L45.4648 18.8777H46.9566L45.2736 16.8071L49.5851 17.9609L47.2381 16.1228Z" fill="#FDD835"/>
<path d="M43.9802 12.9557C42.9303 12.9557 41.9516 13.2116 41.0654 13.6283L44.1108 19.2191L39.3598 14.6706L21.5434 19.8059L37.8752 13.6436L28.8184 10.2689L39.557 12.7139L39.8681 12.7761C39.8776 12.809 39.9096 12.3465 39.9096 11.8735C39.9096 5.71108 34.8415 0.716614 28.5869 0.716614C23.3915 0.716614 19.017 4.16521 17.6855 8.86976C16.7995 8.04692 15.6093 7.53868 14.3004 7.53868C11.565 7.53868 9.35217 9.72311 9.35217 12.4146C9.35217 12.9545 9.44363 13.4781 9.60872 13.9617C9.38068 13.9429 9.14669 13.9288 8.91269 13.9288C5.14629 13.93 2.09375 16.936 2.09375 20.6452C2.09375 21.3225 2.19946 21.9786 2.3895 22.5937H50.1055C50.5414 21.7098 50.7921 20.7192 50.7921 19.6745C50.7921 15.9594 47.7418 12.9557 43.9802 12.9557Z" fill="#F57C00"/>
<path d="M28.8186 7.33537C32.205 7.33537 35.2956 8.55964 37.6829 10.5762C37.2411 6.12284 33.4402 2.64023 28.8186 2.64023C24.1971 2.64023 20.3963 6.12284 19.9544 10.5762C22.3418 8.55964 25.4324 7.33537 28.8186 7.33537ZM16.0348 10.8873C15.6286 10.1724 14.8613 9.68296 13.9717 9.68296C12.6604 9.68296 11.5961 10.7347 11.5961 12.0305C11.5961 12.5763 11.7921 13.0729 12.1093 13.472C12.8421 12.0153 14.3066 11.0011 16.0348 10.8873ZM6.90446 22.5946C7.20259 19.3855 9.8525 16.8489 13.1509 16.7374C12.234 16.0073 11.083 15.5519 9.8145 15.5519C6.86291 15.5519 4.46955 17.9171 4.46955 20.834C4.46955 21.4549 4.59071 22.0441 4.79143 22.5946H6.90446Z" fill="#FFB74D"/>
</svg>
