<svg width="21" height="10" viewBox="0 0 21 10" fill="none" xmlns="http://www.w3.org/2000/svg">
<path d="M19.2451 6.71782L18.9478 5.62326L20.7554 5.28628L18.961 4.88181L20.6498 4.15162L18.8103 4.15651L20.2932 3.06978L18.5017 3.48403L19.7049 2.09407L18.0498 2.89713L18.914 1.27339L17.4795 2.42468L17.9613 0.649326L16.8198 2.09162L16.8922 0.253661L16.1008 1.91311L15.7639 0.10498L15.3599 1.8999L14.6292 0.2116L14.6341 2.05054L13.8462 2.25986L12.5712 1.15601L13.3747 2.81057L11.7515 1.94685L12.9023 3.37985L11.1269 2.89958L12.5682 4.04158L10.7317 3.96773L12.3907 4.76003L10.5826 5.09701L12.3775 5.50099L11.3871 5.92942H7.56445V8.19141H16.0431L18.2631 8.43595L18.1784 8.19141H18.2631V7.73168L18.5149 7.86569H19.1292L18.4362 7.00295L20.2115 7.48372L19.2451 6.71782Z" fill="#FDD835"/>
<path d="M17.9036 5.39821C17.4713 5.39821 17.0683 5.50483 16.7034 5.67845L17.9574 8.00794L16.0011 6.11275L8.66492 8.25247L15.3898 5.68481L11.6605 4.27871L16.0823 5.29746L16.2104 5.32338C16.2143 5.33707 16.2275 5.14438 16.2275 4.94728C16.2275 2.37961 14.1406 0.298584 11.5652 0.298584C9.42593 0.298584 7.62465 1.7355 7.07639 3.69573C6.71154 3.35288 6.22148 3.14111 5.68252 3.14111C4.55617 3.14111 3.64501 4.05129 3.64501 5.17274C3.64501 5.39772 3.68267 5.61585 3.75065 5.81735C3.65675 5.80953 3.5604 5.80366 3.46405 5.80366C1.91318 5.80415 0.65625 7.05668 0.65625 8.60217C0.65625 8.88437 0.699778 9.15776 0.778031 9.41404H20.4258C20.6053 9.04576 20.7085 8.63298 20.7085 8.1977C20.7085 6.64976 19.4525 5.39821 17.9036 5.39821Z" fill="#F57C00"/>
<path d="M11.6606 3.05641C13.055 3.05641 14.3276 3.56652 15.3106 4.40676C15.1287 2.55119 13.5636 1.1001 11.6606 1.1001C9.75763 1.1001 8.19258 2.55119 8.01064 4.40676C8.99369 3.56652 10.2663 3.05641 11.6606 3.05641ZM6.39668 4.53637C6.22942 4.23852 5.91347 4.03457 5.54715 4.03457C5.00721 4.03457 4.569 4.47279 4.569 5.01273C4.569 5.24015 4.64969 5.44703 4.78028 5.61332C5.08204 5.00637 5.68507 4.58381 6.39668 4.53637ZM2.63713 9.41444C2.75989 8.0773 3.85103 7.0204 5.2092 6.97394C4.83163 6.66973 4.35771 6.47997 3.83538 6.47997C2.62002 6.47997 1.63452 7.46546 1.63452 8.68082C1.63452 8.93954 1.68441 9.18506 1.76706 9.41444H2.63713Z" fill="#FFB74D"/>
</svg>
