<svg width="237" height="237" viewBox="0 0 237 237" fill="none" xmlns="http://www.w3.org/2000/svg">
<path d="M118.494 70C146.17 70 160.085 84.193 160.085 84.193C160.085 84.193 161.677 94.6988 160.661 115.852C159.127 147.807 118.5 167 118.5 167C118.5 167 77.8733 147.807 76.3389 115.852C75.3231 94.6988 76.9145 84.193 76.9145 84.193C76.9145 84.193 90.8175 70 118.494 70Z" fill="#ED2E26"/>
<path d="M98.1 111.89C98.1 100.384 107.251 91.0229 118.5 91.0229C129.758 91.0229 138.916 100.127 138.916 111.317C138.916 120.25 131.191 127.6 125.236 131.377C127.547 132.687 132.644 134.063 137.525 134.507C144.653 129.024 149 120.549 149 111.317C149 94.6 135.318 81 118.5 81C101.682 81 88 94.6 88 111.317C88 121.413 92.2294 130.382 100.23 137.255C107.711 143.68 118.653 147.969 131.112 150C133.811 148.517 138.427 144.14 140.158 141.578C129.753 140.247 119.905 137.725 113.304 134.283C103.216 129.023 98.1 121.488 98.1 111.89Z" fill="white"/>
<path fill-rule="evenodd" clip-rule="evenodd" d="M107.938 0.225791C91.0551 1.9392 75.8346 6.56028 61.8165 14.2291C58.6329 15.9707 57.4535 16.6952 52.2328 20.1151C39.5163 28.4451 26.4684 41.814 18.4893 54.6887C17.7205 55.9296 16.757 57.4838 16.3482 58.1424C13.8546 62.1626 10.214 69.5267 8.43023 74.1598C6.00075 80.4688 3.17774 89.6217 2.56647 93.171C2.48142 93.665 2.26249 94.8102 2.0801 95.7158C1.89771 96.6215 1.67878 97.834 1.59402 98.4103C1.50927 98.9866 1.38737 99.616 1.32328 99.8085C1.25889 100.001 0.914176 102.831 0.556882 106.096C-0.00526518 111.233 -0.0729512 113.161 0.054932 120.415C0.21546 129.504 0.62756 133.734 2.08219 141.223C5.6153 159.415 13.6507 177.094 24.7912 191.187C28.8065 196.266 30.4082 198.059 35.13 202.755C49.7796 217.323 68.1658 227.866 88.3216 233.255C92.4564 234.361 99.6717 235.753 103.296 236.145C105.026 236.332 107.519 236.598 108.837 236.737C112.201 237.092 124.66 237.086 128.603 236.728C152.704 234.537 174.241 225.883 193.144 210.794C200.587 204.853 209.459 195.422 215.361 187.179C226.46 171.676 233.658 153.294 236.321 133.651C236.866 129.634 236.982 127.304 236.999 120.116C237.017 112.338 236.742 104.619 236.429 104.112C236.365 104.008 236.244 103.39 236.161 102.739C235.815 100.035 235.026 95.1949 234.772 94.2189C234.622 93.6425 234.011 91.1687 233.414 88.7215C230.462 76.6175 225.103 64.4913 217.782 53.3522C212.934 45.9758 208.935 41.1104 202.145 34.3305C183.704 15.9165 160.127 4.30378 134.038 0.785349C128.862 0.0871726 112.715 -0.258921 107.938 0.225791ZM132.197 6.01629C145.28 7.76322 156.106 10.929 167.51 16.3413C185.249 24.7605 201.723 39.0596 212.736 55.5976C223.607 71.9224 229.71 89.4472 231.503 109.488C232.207 117.347 231.611 129.702 230.113 138.332C226.148 161.181 214.597 182.895 197.598 199.456C179.504 217.084 157.827 227.495 132.047 230.939C126.947 231.62 111.211 231.714 106.291 231.091C92.079 229.294 80.9541 226.063 69.0043 220.262C61.0504 216.4 53.2816 211.386 46.2429 205.571C40.0839 200.482 30.7777 190.537 26.6513 184.635C23.6402 180.328 22.5926 178.703 20.477 175.061C12.2074 160.825 7.11936 144.61 5.6782 127.9C5.28287 123.316 5.27448 113.302 5.66233 109.039C7.52337 88.5814 14.1478 70.3378 25.828 53.5019C32.6888 43.6127 43.6589 32.6686 53.8551 25.541C69.7429 14.4348 88.4186 7.63 108.537 5.6163C112.738 5.19596 127.985 5.45373 132.197 6.01629ZM105.842 15.2638C103.536 15.4219 101.603 15.5923 101.547 15.6423C101.362 15.8072 102.79 36.2819 103.004 36.5301C103.12 36.6639 105.837 36.5696 109.044 36.3205C115.364 35.8295 117.155 35.3831 119.436 33.7314C122.21 31.7225 123.486 28.8361 123.311 24.9671C123.085 19.9828 120.216 16.4419 115.501 15.3309C113.443 14.8456 112.076 14.836 105.842 15.2638ZM128.749 15.2414C128.746 15.4545 127.952 20.1424 126.984 25.6586C126.015 31.1749 125.242 35.7113 125.267 35.7394C125.477 35.9819 141.18 38.5022 141.353 38.3213C141.478 38.1905 141.673 37.322 141.786 36.3918C142.03 34.3871 142.631 34.6834 136.091 33.5799C133.455 33.135 131.205 32.6865 131.09 32.5832C130.764 32.2886 131.513 28.0538 131.891 28.0538C132.077 28.0538 134.108 28.39 136.406 28.801C138.703 29.2118 140.738 29.5486 140.928 29.5495C141.308 29.5507 141.996 26.2248 141.679 25.9113C141.571 25.8035 139.474 25.3679 137.019 24.9437C134.565 24.5195 132.506 24.1207 132.442 24.0578C132.38 23.9946 132.487 22.9791 132.682 21.801C132.966 20.0786 133.13 19.6846 133.515 19.79C134.818 20.146 143.747 21.5471 143.879 21.4163C144.069 21.2259 144.701 17.8497 144.571 17.7194C144.518 17.6664 142.049 17.2054 139.085 16.6946C136.12 16.1839 133.088 15.6423 132.347 15.4911C129.371 14.8839 128.753 14.8411 128.749 15.2414ZM91.7658 18.1437C90.4228 18.5161 89.9895 18.7655 90.0512 19.1313C90.2102 20.0783 95.1842 38.9057 95.3078 39.0294C95.4351 39.1569 99.6894 38.0462 99.9072 37.8288C99.9727 37.763 99.4172 35.3685 98.6726 32.5072C94.5235 16.5641 94.8281 17.5724 94.1722 17.6102C93.837 17.6296 92.7541 17.8694 91.7658 18.1437ZM115.649 20.1412C119.001 22.4692 119.251 28.2032 116.102 30.5399C114.713 31.5713 113.586 31.88 110.343 32.1177L107.489 32.3272V31.5437C107.489 30.5956 106.932 22.0612 106.768 20.51C106.653 19.4095 106.659 19.402 107.894 19.2733C108.577 19.202 110.315 19.1691 111.756 19.2002C114.123 19.2508 114.498 19.3415 115.649 20.1412ZM150.922 20.2568C150.417 21.2004 142.829 38.5788 142.83 38.7896C142.832 39.1539 147.054 40.7167 147.305 40.4464C147.443 40.2994 148.602 37.7806 149.882 34.8493C151.185 31.8632 152.302 29.6714 152.422 29.8651C152.54 30.0552 153.563 33.5535 154.696 37.6387L156.756 45.0669L158.394 45.7665C159.296 46.1513 160.14 46.5117 160.27 46.5674C160.537 46.6809 160.595 46.5563 165.425 35.561C167.336 31.2096 168.859 27.5262 168.809 27.3753C168.738 27.1643 164.929 25.3593 164.554 25.3593C164.511 25.3593 163.348 27.9466 161.97 31.109L159.465 36.8585L158.804 34.6269C158.441 33.3994 157.438 29.8567 156.574 26.7544L155.004 21.1139L153.372 20.3924C151.4 19.5209 151.319 19.5164 150.922 20.2568ZM77.5399 23.1186C73.6689 24.8332 70.5252 26.3418 70.5533 26.4715C70.8151 27.6628 78.8127 45.2896 79.1215 45.3552C79.3455 45.4028 80.4255 45.0393 81.5216 44.5477L83.5144 43.6541L82.0245 40.3117C81.2051 38.4731 80.5348 36.872 80.5348 36.7531C80.5348 36.6343 82.489 35.6882 84.8774 34.6505C87.2659 33.6128 89.2201 32.6835 89.2201 32.5853C89.2201 31.9985 87.8523 29.2513 87.56 29.2513C87.3665 29.2513 85.3485 30.0654 83.0757 31.0605C80.8028 32.0554 78.8529 32.7629 78.7423 32.6323C78.4503 32.2871 76.5959 27.9963 76.7016 27.9109C76.751 27.8711 78.8801 26.9293 81.4333 25.8182C83.9864 24.7072 86.1934 23.6878 86.3378 23.5527C86.6645 23.2477 85.3384 19.9645 84.8972 19.9855C84.7217 19.9939 81.4108 21.4037 77.5399 23.1186ZM61.8914 31.2306C60.9441 31.9746 60.1693 32.6835 60.1693 32.8063C60.1693 32.9287 61.7851 35.167 63.7602 37.7797C65.7351 40.3928 67.2987 42.5825 67.2349 42.6463C67.1715 42.7101 63.7917 41.9451 59.7246 40.9467C55.6575 39.9482 52.1205 39.1312 51.8647 39.1312C51.4382 39.1312 48.4891 41.182 48.4891 41.4787C48.4891 41.6458 51.5317 45.7447 56.5227 52.3013C58.7174 55.1847 60.6248 57.7394 60.7614 57.9787C61.0184 58.4283 61.8914 57.9502 64.1774 56.1072L65.0406 55.4111L62.0202 51.3876C60.3589 49.1748 58.6467 46.9264 58.2151 46.3914C57.7836 45.8564 57.5784 45.4184 57.759 45.4184C57.9399 45.4184 61.3829 46.2267 65.4104 47.2147C69.438 48.2027 72.9499 49.011 73.2143 49.011C73.4791 49.011 74.3245 48.5105 75.0936 47.8988C75.8624 47.2872 76.5303 46.7656 76.5779 46.7399C76.6252 46.7141 74.0816 43.2741 70.9256 39.095C67.7695 34.9161 64.9091 31.1261 64.5689 30.6734C64.2283 30.2207 63.8743 29.8564 63.7818 29.8642C63.6893 29.872 62.8387 30.4869 61.8914 31.2306ZM172.064 31.5716L170.994 32.9937L171.845 33.7422C172.313 34.1538 173.456 35.0625 174.385 35.7615C175.313 36.4603 176.072 37.1339 176.07 37.2585C176.069 37.3827 173.849 40.4485 171.138 44.0711C168.427 47.6937 166.239 50.752 166.274 50.8675C166.439 51.3987 169.953 53.7333 170.229 53.4953C170.396 53.3519 172.689 50.3376 175.324 46.7968C178.003 43.1972 180.278 40.4132 180.484 40.4817C180.687 40.5494 181.844 41.3509 183.056 42.2631C184.269 43.175 185.406 43.9214 185.583 43.9214C185.913 43.9214 188.214 40.9736 188.014 40.8075C186.328 39.4087 173.68 30.1495 173.456 30.1495C173.279 30.1495 172.654 30.7893 172.064 31.5716ZM183.333 51.4834C179.34 55.4776 176.073 58.8846 176.073 59.0541C176.073 59.4448 178.838 62.1842 179.233 62.1842C179.394 62.1842 182.881 58.9169 186.98 54.9234L194.434 47.6626L192.86 45.9417C191.995 44.9953 191.131 44.2208 190.94 44.2208C190.749 44.2208 187.327 47.4889 183.333 51.4834ZM110.499 44.8639C105.42 45.3941 98.3189 47.0776 92.814 49.0568C88.5513 50.5891 81.8996 54.0046 77.6525 56.8419C62.1436 67.2014 51.3244 82.5088 46.6853 100.656C45.1501 106.661 44.7688 110.124 44.7568 118.17C44.7449 126.159 44.9653 128.555 46.2444 134.337C50.3226 152.775 61.464 169.188 77.0086 179.655C86.3075 185.917 95.3522 189.535 106.74 191.55C111.265 192.35 120.51 192.642 125.604 192.145C152.986 189.472 176.958 171.631 187.163 146.327C191.17 136.392 192.785 127.136 192.459 115.97C192.166 105.91 190.168 97.1732 186.092 88.1308C175.294 64.1796 152.127 47.4279 126.23 44.8462C122.454 44.4699 114.186 44.4792 110.499 44.8639ZM126.507 47.8201C141.736 49.5212 156.069 56.209 167.38 66.8903C179.62 78.4491 187.341 93.865 189.238 110.536C189.681 114.424 189.619 123.17 189.121 127.184C185.35 157.573 162.444 182.186 132.347 188.19C127.651 189.127 124.378 189.42 118.559 189.422C107.076 189.428 97.5301 187.239 87.2734 182.248C65.6914 171.746 50.5676 150.297 47.8967 126.403C47.5011 122.863 47.5071 113.581 47.9072 110.392C50.5598 89.2427 61.6887 71.1081 79.2497 59.3172C85.4764 55.1363 93.1617 51.6576 100.301 49.788C103.182 49.0335 109.038 47.9287 111.233 47.7255C113.921 47.4767 123.991 47.5392 126.507 47.8201ZM42.9485 50.3182C39.3591 51.2053 36.3759 53.7354 34.6059 57.3939C33.7523 59.158 33.6643 59.6061 33.6655 62.1842C33.6666 64.6814 33.7676 65.2338 34.4933 66.7128C36.1701 70.13 39.8745 72.6529 43.5712 72.8954C46.2531 73.0712 48.3954 72.4757 50.5934 70.9434C55.4939 67.5268 57.4631 61.1441 55.0983 56.3422C52.8581 51.7933 47.5766 49.1745 42.9485 50.3182ZM47.5906 55.6072C51.0447 57.3757 52.3801 61.1674 50.7206 64.4961C49.1201 67.7067 45.481 69.057 42.3495 67.6022C40.1411 66.5762 38.0069 63.6275 38.0069 61.6022C38.0069 60.1708 38.9847 57.984 40.142 56.8272C42.2139 54.756 45.0279 54.295 47.5906 55.6072ZM191.292 60.0525C185.414 61.148 180.522 62.1276 180.421 62.2288C180.319 62.33 180.863 63.3093 181.629 64.4048C182.608 65.8047 183.169 66.3541 183.516 66.2535C184.56 65.9508 187.775 65.4014 187.86 65.5116C188.573 66.4412 193.144 73.2706 193.144 73.4071C193.144 73.5098 192.605 74.3873 191.946 75.3573C191.287 76.3274 190.748 77.2725 190.748 77.4578C190.748 77.6432 191.359 78.6503 192.105 79.6961C192.852 80.7418 193.341 81.6723 193.192 81.7643C192.991 81.8888 198.257 95.8221 198.665 96.2427C198.758 96.3388 201.895 95.0865 202.198 94.8323C202.388 94.673 201.72 92.8369 199.127 86.3907L198.568 84.9995L206.263 81.9487C210.496 80.2709 214.061 78.8009 214.186 78.682C214.404 78.4746 213.1 74.8627 212.628 74.3678C212.502 74.2352 208.313 75.7507 203.32 77.7354C198.326 79.7203 194.182 81.2846 194.109 81.2122C194.009 81.1125 202.719 66.6654 205.319 62.618C205.672 62.0683 205.567 61.7929 204.317 59.9983C203.534 58.8747 202.713 58.0077 202.45 58.0266C202.191 58.0454 197.17 58.9571 191.292 60.0525ZM199.667 63.4695C198.87 64.8964 195.683 69.6662 195.526 69.6674C195.312 69.6695 192.273 65.2966 192.173 64.8416C192.124 64.6191 193.469 64.1871 195.839 63.6644C197.898 63.2105 199.688 62.8264 199.817 62.8108C199.946 62.7955 199.879 63.0919 199.667 63.4695ZM28.4231 70.1381C26.5759 71.1928 25.2737 72.5071 24.2111 74.3897C20.7073 80.5958 22.7849 87.6805 28.9568 90.5723C30.4411 91.2678 31.0485 91.3741 33.5145 91.3699C35.8937 91.3663 36.5942 91.2498 37.7913 90.6591C42.3567 88.4071 45.3834 82.7406 44.5981 77.9159C44.3127 76.1633 43.8476 75.0579 43.3957 75.0579C43.2414 75.0579 42.3543 75.3945 41.4244 75.8055C39.9251 76.4684 39.7574 76.6294 39.9434 77.2276C40.5181 79.0748 40.4651 80.9394 39.7937 82.4996C38.4274 85.6752 35.2917 87.2293 32.1401 86.2937C28.0766 85.0875 26.2096 81.8649 27.3342 77.9982C27.8691 76.1588 29.4145 74.3406 31.009 73.6748L31.9988 73.261L31.3333 71.394C30.9643 70.3593 30.4678 69.4917 30.2192 69.4477C29.9727 69.4043 29.1644 69.7147 28.4231 70.1381ZM22.2629 110.93C17.6567 112.522 15.5746 117.381 17.5896 121.837C18.9023 124.74 21.5666 126.383 24.979 126.393C26.7433 126.398 27.327 126.26 28.6633 125.522C33.5528 122.82 34.3034 116.473 30.1997 112.531C28.1057 110.52 25.1665 109.927 22.2629 110.93ZM209.88 110.799C206.203 112.113 204.01 115.32 204.303 118.959C204.671 123.551 208.498 126.873 212.955 126.469C217.513 126.056 220.953 121.718 220.28 117.232C219.571 112.503 214.277 109.229 209.88 110.799ZM29.9206 145.078C26.4312 146.199 23.9035 148.6 22.7373 151.903C21.3449 155.845 22.6331 161.062 25.7813 164.232C27.067 165.527 28.914 166.671 29.7172 166.671C30.0793 166.671 31.4181 163.827 31.4181 163.058C31.4181 162.911 30.896 162.525 30.2578 162.2C27.8352 160.964 26.4228 158.248 26.7178 155.39C27.2614 150.127 34.1979 147.641 37.9302 151.371C39.7395 153.18 40.4106 155.993 39.6915 158.752C39.4579 159.648 39.4885 159.68 41.3319 160.476C43.3975 161.367 43.4645 161.341 43.994 159.486C45.1797 155.329 43.1824 149.548 39.6352 146.871C36.7326 144.68 33.1926 144.027 29.9206 145.078ZM214.003 148.639C213.775 149.088 212.879 151.241 212.011 153.423C211.144 155.605 210.268 157.39 210.065 157.39C209.861 157.39 206.409 156.04 202.393 154.391C198.377 152.742 194.907 151.428 194.682 151.472C194.366 151.534 192.453 155.596 192.65 155.786C192.92 156.047 212.088 163.701 212.197 163.592C212.471 163.318 218.052 149.557 217.936 149.441C217.874 149.378 217.056 148.988 216.12 148.574L214.417 147.821L214.003 148.639ZM41.9138 163.402C40.593 163.664 37.9766 164.834 37.1072 165.551C36.8595 165.756 36.0839 166.582 35.3836 167.389C33.9781 169.007 32.9131 171.849 32.9191 173.963C32.9317 178.378 36.1201 183.204 40.3271 185.175C41.7985 185.864 42.4436 185.982 44.7455 185.982C47.0378 185.982 47.6952 185.862 49.1405 185.185C52.5589 183.584 54.7245 180.783 55.4065 177.083C56.7854 169.603 49.2373 161.95 41.9138 163.402ZM186.742 165.072C184.743 167.813 184.376 166.691 190.752 177.319C193.908 182.577 196.592 186.987 196.717 187.118C196.93 187.341 199.264 184.525 199.608 183.63C199.694 183.406 199.204 182.329 198.519 181.237L197.274 179.252L197.829 178.408C198.135 177.944 199.374 176.144 200.583 174.408L202.78 171.251L205.075 171.795C206.337 172.094 207.397 172.344 207.429 172.349C207.462 172.355 208.103 171.5 208.852 170.45C210.119 168.675 210.486 167.869 210.025 167.869C209.79 167.869 189.349 163.994 188.449 163.779C187.933 163.656 187.579 163.924 186.742 165.072ZM47.3283 168.794C49.4661 169.868 50.8899 172.224 50.8785 174.67C50.8698 176.572 50.0453 178.293 48.5173 179.601C45.3546 182.307 40.9536 181.721 38.6834 178.292C37.9623 177.203 37.8571 176.753 37.8571 174.755C37.8571 172.763 37.9635 172.305 38.6742 171.231C39.5307 169.938 41.5891 168.538 43.1977 168.157C44.4163 167.868 45.9566 168.105 47.3283 168.794ZM194.97 169.535C196.843 169.958 198.424 170.352 198.484 170.412C198.587 170.516 197.57 172.084 195.811 174.532L195.003 175.657L192.875 172.366C191.705 170.556 190.748 169.006 190.748 168.921C190.748 168.644 191.516 168.756 194.97 169.535ZM176.885 176.786C176.109 177.574 175.474 178.353 175.474 178.518C175.474 178.855 189.676 193.106 190.182 193.277C190.553 193.402 193.443 190.659 193.443 190.182C193.443 189.776 179.011 175.353 178.605 175.353C178.435 175.353 177.661 175.998 176.885 176.786ZM56.5152 183.2C54.308 186.048 51.3975 189.813 50.0474 191.569L47.5924 194.761L49.5748 196.318C51.0965 197.513 51.6152 197.781 51.8075 197.469C51.9456 197.246 53.6476 194.999 55.5898 192.476C58.7357 188.389 59.1292 187.98 59.1948 188.731C59.2355 189.195 59.3858 192.864 59.529 196.884C59.7863 204.102 59.7985 204.2 60.5036 204.716C60.8962 205.003 61.5413 205.519 61.9372 205.864C62.8815 206.686 63.0049 206.664 63.8884 205.517C64.3008 204.982 65.9576 202.839 67.5701 200.755C72.6716 194.162 75.5902 190.306 75.6866 190.03C75.7798 189.763 72.4952 187.03 72.0819 187.03C71.8855 187.03 71.0235 188.115 66.066 194.602L64.512 196.635L64.3221 195.5C64.2179 194.875 64.1166 192.95 64.0975 191.221C64.0783 189.492 63.9762 186.356 63.8701 184.252L63.6779 180.426L62.4476 179.481C61.771 178.961 61.0624 178.421 60.8731 178.28C60.6407 178.108 59.2205 179.711 56.5152 183.2ZM172.312 181.443C171.149 182.317 168.003 184.627 165.32 186.578C162.636 188.529 160.376 190.296 160.296 190.504C160.139 190.912 161.97 193.585 162.419 193.605C162.569 193.611 163.684 192.87 164.896 191.958C166.108 191.046 167.282 190.23 167.503 190.145C167.752 190.05 168.518 190.825 169.511 192.178C174.929 199.559 177.888 203.496 178.016 203.496C178.286 203.496 181.763 200.761 181.755 200.555C181.75 200.444 179.521 197.333 176.801 193.643C174.081 189.953 171.962 186.841 172.093 186.729C172.223 186.615 173.44 185.689 174.797 184.669L177.265 182.815L176.156 181.33C175.546 180.513 174.907 179.847 174.736 179.85C174.565 179.853 173.474 180.57 172.312 181.443ZM157.579 191.624C156.385 192.123 155.408 192.614 155.408 192.714C155.408 192.815 156.472 195.384 157.773 198.421C159.074 201.46 160.096 203.991 160.043 204.047C159.99 204.102 158.96 203.616 157.752 202.966C156.545 202.316 153.334 200.629 150.616 199.218L145.674 196.652L143.806 197.454C142.779 197.896 141.971 198.342 142.009 198.445C143.405 202.155 150.249 217.567 150.502 217.567C150.699 217.567 151.744 217.171 152.826 216.686L154.792 215.804L154.375 214.815C154.146 214.27 153.069 211.751 151.981 209.217C150.893 206.682 150.054 204.557 150.116 204.495C150.179 204.432 153.33 206.001 157.119 207.98C160.907 209.96 164.193 211.58 164.419 211.58C165.08 211.58 167.987 210.297 167.987 210.005C167.987 209.752 160.34 191.732 159.94 191.043C159.813 190.824 159.031 191.017 157.579 191.624ZM75.8927 196.072C71.2841 206.28 69.7531 209.765 69.7531 210.049C69.7531 210.208 70.4826 210.672 71.3745 211.08C74.3021 212.42 73.9897 212.583 75.6126 208.871C76.4114 207.045 77.138 205.507 77.2275 205.454C77.317 205.401 79.3281 206.218 81.6968 207.271C84.0655 208.323 86.055 209.185 86.1179 209.185C86.4 209.185 87.7115 205.762 87.5049 205.565C87.3776 205.443 85.454 204.526 83.2302 203.527C80.1158 202.127 79.2006 201.588 79.2458 201.181C79.2781 200.89 79.7157 199.747 80.2176 198.641L81.1308 196.63L82.4051 197.186C83.1059 197.492 85.353 198.498 87.3986 199.421C89.4441 200.344 91.1452 201.067 91.179 201.026C91.3444 200.825 92.2629 198.918 92.5205 198.242C92.8023 197.501 92.7313 197.436 90.492 196.408C88.1919 195.352 79.1904 191.295 78.5593 191.031C78.3713 190.952 77.2317 193.106 75.8927 196.072ZM94.4935 197.756C94.3402 198.003 89.3078 216.569 89.168 217.402C89.0859 217.892 89.4264 218.087 91.3165 218.633C92.8972 219.09 93.6196 219.183 93.7547 218.949C94.0419 218.449 99.1033 199.754 99.1033 199.192C99.1033 198.924 99.0341 198.706 98.9497 198.706C98.8652 198.706 97.8568 198.446 96.7086 198.127C95.5603 197.809 94.5636 197.642 94.4935 197.756ZM131.673 199.987C125.83 200.973 124.561 201.273 124.566 201.668C124.575 202.525 127.797 221.801 127.958 221.962C128.092 222.096 143.69 219.67 143.987 219.469C144.1 219.392 143.509 215.752 143.359 215.602C143.312 215.556 140.917 215.908 138.035 216.386C135.154 216.864 132.642 217.257 132.453 217.261C132.154 217.267 131.448 214.296 131.448 213.034C131.448 212.694 132.503 212.43 136.016 211.892C138.528 211.507 140.674 211.111 140.786 211.012C140.965 210.853 140.63 208.373 140.313 207.519C140.235 207.306 138.636 207.467 135.498 208.004C132.204 208.568 130.768 208.708 130.689 208.472C130.466 207.803 129.955 204.59 130.056 204.489C130.112 204.433 132.482 203.995 135.321 203.517C138.161 203.038 140.554 202.577 140.64 202.491C140.726 202.405 140.701 201.519 140.585 200.52C140.33 198.324 141.212 198.377 131.673 199.987ZM101.969 201.775C101.352 207.397 100.442 221.16 100.687 221.16C100.785 221.16 103.298 221.365 106.273 221.616C114.08 222.274 116.959 221.627 119.763 218.587C121.824 216.352 122.314 214.947 122.314 211.28C122.314 208.362 122.251 208.023 121.434 206.549C119.895 203.771 117.129 201.817 113.778 201.139C111.996 200.778 105.675 200.203 103.491 200.203H102.141L101.969 201.775ZM113.931 205.636C114.734 206.023 115.803 206.858 116.306 207.491C117.17 208.576 117.223 208.79 117.223 211.255C117.223 213.606 117.14 213.994 116.399 215.113C115.946 215.798 115.002 216.664 114.302 217.037C113.156 217.649 112.675 217.71 109.466 217.647C107.506 217.609 105.865 217.541 105.82 217.496C105.776 217.451 105.957 214.534 106.223 211.014L106.707 204.613L109.589 204.772C111.768 204.892 112.827 205.102 113.931 205.636Z" fill="#ED2E26"/>
</svg>
