<svg width="24" height="24" viewBox="0 0 24 24" fill="none" xmlns="http://www.w3.org/2000/svg">
<g clip-path="url(#clip0_2_56)">
<path d="M23.9016 0.0983887H0.0983963V23.9016H23.9016V0.0983887Z" fill="#EE2844"/>
<path d="M16.272 4.16638V9.08638C15.1488 8.01118 13.6272 7.34638 11.9496 7.34638C8.4984 7.34638 5.7 10.1424 5.7 13.5888C5.7 17.0352 8.4984 19.8312 11.9496 19.8312C13.6272 19.8312 15.1488 19.1664 16.272 18.0912V19.4424H18.3V4.16638H16.272ZM11.9496 8.92078C13.9008 8.92078 15.5712 10.1136 16.272 11.8104V15.3696C15.5712 17.0664 13.9008 18.2592 11.9496 18.2592C9.3672 18.2592 7.2744 16.1664 7.2744 13.5888C7.2744 11.0136 9.3696 8.92078 11.9496 8.92078Z" fill="white"/>
</g>
<defs>
<clipPath id="clip0_2_56">
<rect width="24" height="24" fill="white"/>
</clipPath>
</defs>
</svg>
