<svg width="20" height="24" viewBox="0 0 20 24" fill="none" xmlns="http://www.w3.org/2000/svg">
<g clip-path="url(#clip0_2_36)">
<path d="M14.1519 5.68634C12.4829 4.12153 10.8998 2.59786 10.429 0.868317C9.9582 2.59786 8.37501 4.12188 6.70615 5.68669C4.22432 8.07521 1.40032 10.7931 1.40032 14.87C1.27189 19.647 5.2514 23.6417 10.2151 23.7241C15.1787 23.8066 19.3294 20.0178 19.4151 15.2408V14.8702C19.4576 10.7931 16.6336 8.07504 14.1519 5.68634ZM6.02161 15.6522C5.76494 15.9817 5.50826 16.3524 5.3369 16.723C5.29397 16.7642 5.25122 16.8465 5.1659 16.8465L5.12315 16.8462C4.90922 16.8462 4.69511 16.4756 4.69511 16.4756C4.65218 16.3932 4.56668 16.2698 4.52411 16.1874L4.48118 16.1053C3.92471 14.9519 4.3955 13.3462 4.3955 13.3462C4.60925 12.5639 4.99455 11.7812 5.46533 11.1224C5.76476 10.7104 6.10729 10.2988 6.44947 9.88687L6.8775 10.2988L8.88873 12.2756C8.9744 12.3581 8.9744 12.4813 8.88873 12.5638L6.79183 14.8288L6.02161 15.6522ZM10.5147 21.3353C8.80305 21.3353 7.39104 19.9761 7.43362 18.329C7.43362 17.5877 7.73305 16.8879 8.20401 16.3524C8.84598 15.6109 9.65894 14.8698 10.5576 13.8815C11.5845 14.9522 12.2692 15.6522 12.9112 16.4761C12.9541 16.5174 12.9969 16.5997 13.0396 16.682C13.382 17.176 13.5957 17.7527 13.5957 18.3705C13.6383 20.0176 12.2264 21.3353 10.5147 21.3353ZM16.377 16.5581C16.334 16.6818 16.206 16.7639 16.0775 16.805L16.0346 16.8054C15.9062 16.7641 15.8209 16.6818 15.7352 16.5996C15.179 15.8173 14.5801 15.0759 13.8954 14.4169L13.0825 13.5934L10.3438 10.8755C9.78772 10.3815 9.23126 9.80475 8.71773 9.26938C8.71773 9.22824 8.67498 9.22824 8.67498 9.22824C8.5893 9.10464 8.50398 8.98121 8.46105 8.8163V8.73384C8.37537 8.28075 8.54673 7.82783 8.88908 7.49834C9.40244 7.00429 9.9589 6.46874 10.4723 5.93354C11.0284 6.51006 11.6274 7.08657 12.2268 7.66309C13.4249 8.73384 14.4947 9.92818 15.4789 11.2048C16.2916 12.3166 16.7197 13.5934 16.7197 14.9525C16.6339 15.4465 16.548 16.0229 16.377 16.5581Z" fill="#009CDE"/>
</g>
<defs>
<clipPath id="clip0_2_36">
<rect width="19" height="24" fill="white" transform="translate(0.5)"/>
</clipPath>
</defs>
</svg>
