<svg width="16" height="21" viewBox="0 0 16 21" fill="none" xmlns="http://www.w3.org/2000/svg">
<path d="M11.4963 4.97554C10.0909 3.60633 8.7577 2.27312 8.36125 0.759766C7.9648 2.27312 6.63159 3.60663 5.22623 4.97584C3.13627 7.0658 0.758161 9.44391 0.758161 13.0112C0.650011 17.1911 4.00118 20.6865 8.1811 20.7586C12.361 20.8308 15.8563 17.5156 15.9285 13.3357V13.0114C15.9643 9.44391 13.5862 7.0658 11.4963 4.97569V4.97554ZM4.64978 13.6957C4.43363 13.984 4.21748 14.3083 4.07318 14.6326C4.03703 14.6687 4.00103 14.7407 3.92918 14.7407L3.89318 14.7404C3.71303 14.7404 3.53272 14.4161 3.53272 14.4161C3.49657 14.344 3.42457 14.2361 3.38872 14.164L3.35257 14.0921C2.88397 13.0829 3.28042 11.6779 3.28042 11.6779C3.46042 10.9934 3.78488 10.3085 4.18133 9.73206C4.43348 9.37161 4.72193 9.01146 5.01008 8.651L5.37053 9.01145L7.06419 10.7411C7.13634 10.8133 7.13634 10.9211 7.06419 10.9933L5.29838 12.9752L4.64963 13.6955L4.64978 13.6957ZM8.4334 18.6684C6.99204 18.6684 5.80298 17.4791 5.83884 16.0379C5.83884 15.3892 6.09099 14.7769 6.48759 14.3083C7.02819 13.6595 7.71279 13.0111 8.46955 12.1463C9.3343 13.0832 9.9109 13.6957 10.4515 14.4166C10.4877 14.4527 10.5237 14.5247 10.5597 14.5967C10.848 15.029 11.028 15.5336 11.028 16.0742C11.0638 17.5154 9.8749 18.6687 8.4334 18.6687V18.6684ZM13.3701 14.4883C13.3339 14.5966 13.2261 14.6684 13.1179 14.7044L13.0818 14.7047C12.9736 14.6686 12.9018 14.5966 12.8296 14.5246C12.3613 13.8401 11.8569 13.1914 11.2803 12.6148L10.5958 11.8942L8.28955 9.51606C7.82124 9.08376 7.35264 8.57915 6.92019 8.1107C6.92019 8.0747 6.88419 8.0747 6.88419 8.0747C6.81204 7.96655 6.74019 7.85855 6.70404 7.71425V7.6421C6.63189 7.24565 6.77619 6.84934 7.06449 6.56104C7.49679 6.12874 7.96539 5.66014 8.3977 5.19184C8.866 5.69629 9.37045 6.20074 9.8752 6.70519C10.8841 7.6421 11.785 8.68715 12.6138 9.80421C13.2982 10.777 13.6587 11.8942 13.6587 13.0834C13.5864 13.5157 13.5142 14.0201 13.3702 14.4884L13.3701 14.4883Z" fill="#009CDE"/>
</svg>
