<svg width="24" height="24" viewBox="0 0 24 24" fill="none" xmlns="http://www.w3.org/2000/svg">
<g clip-path="url(#clip0_2_54)">
<path d="M0 0V24H24V0H0ZM12.29 4.38C13.95 4.35 15.12 4.8 16.13 6.23C18.38 11.81 10.13 14.63 10.13 14.63C10.13 14.63 9.9 16.11 12.15 16.05C14.93 16.05 17.85 13.9 18.96 12.99C19.0884 12.8827 19.2528 12.8281 19.4199 12.8374C19.587 12.8467 19.7443 12.9191 19.86 13.04L20.7 13.91C20.8152 14.0309 20.8804 14.191 20.8822 14.358C20.8841 14.5251 20.8225 14.6866 20.71 14.81C19.99 15.61 18.29 17.27 15.74 18.34C15.74 18.34 11.48 20.31 8.61 18.44C7.93835 18.0357 7.37233 17.4776 6.95856 16.8117C6.54478 16.1459 6.29507 15.3913 6.23 14.61C6.23 14.61 4.15 14.5 2.81 13.98C1.48 13.46 2.82 11.88 2.82 11.88C2.82 11.88 3.24 11.23 4.02 11.88C4.8 12.53 6.26 12.24 6.26 12.24C6.39 11.21 6.61 9.86 7.24 8.43C8.58 5.43 10.62 4.42 12.29 4.38ZM12.62 7.18C11.52 7.25 9.82 8.96 9.74 12.11C9.74 12.11 10.49 12.34 12.15 11.2C13.82 10.06 14.15 8.23 13.26 7.39C13.1743 7.31168 13.0729 7.25246 12.9626 7.21625C12.8522 7.18005 12.7355 7.16769 12.62 7.18Z" fill="#E04E39"/>
</g>
<defs>
<clipPath id="clip0_2_54">
<rect width="24" height="24" fill="white"/>
</clipPath>
</defs>
</svg>
