<svg width="32" height="24" viewBox="0 0 32 24" fill="none" xmlns="http://www.w3.org/2000/svg">
<path d="M8.76977 12.027L8.81158 13.8583L10.6634 15.0545L10.6216 13.2235L8.76977 12.027ZM13.2896 19.653L13.2478 17.8581L11.6233 16.8066C11.6031 16.7918 11.5751 16.7702 11.5547 16.7558L11.5965 18.5576L13.2896 19.653ZM7.50532 22.075L3.26927 19.3358L3.16526 14.744L5.24527 13.8075L5.20443 11.9695L1.88679 13.4618C1.63172 13.5768 1.47971 13.822 1.48613 14.1033L1.61035 19.617C1.61795 19.8982 1.78372 20.1795 2.04639 20.3523L7.12486 23.6395C7.36046 23.7907 7.65092 23.8346 7.88556 23.7546C7.90999 23.7498 7.93334 23.7402 7.95444 23.7262L11.0714 22.328L9.37825 21.2323L7.50532 22.075Z" fill="#B31AAB"/>
<path d="M21.195 11.9188C21.1877 11.5868 20.9947 11.2625 20.6902 11.0613L14.5193 7.07501L14.3262 7.161L14.368 9.0925L19.2534 12.25L19.3706 17.412L21.2373 18.615L21.3402 18.572L21.195 11.9188ZM13.8075 20.9792L8.0788 17.2746L7.94056 11.0537L10.5531 9.87876L10.5048 7.73826L6.44789 9.56151C6.15101 9.69826 5.97098 9.97951 5.97834 10.3115L6.13699 17.6066C6.14435 17.9374 6.33744 18.2627 6.64168 18.457L13.3584 22.8037C13.6349 22.9845 13.9671 23.0272 14.25 22.9405C14.2778 22.9334 14.3056 22.919 14.3326 22.9043L18.2997 21.1243L16.3237 19.8488L13.8075 20.9792Z" fill="#D163CE"/>
<path d="M29.9221 6.81505L21.3117 1.24254C20.9947 1.04054 20.6143 0.983043 20.2896 1.09129C20.2551 1.09829 20.2274 1.11279 20.1931 1.12754L11.7897 4.90505C11.451 5.05629 11.2441 5.38055 11.2505 5.76229L11.465 15.105C11.4721 15.4868 11.693 15.854 12.0457 16.0776L20.656 21.643C20.9733 21.8443 21.3536 21.9018 21.6719 21.7946C21.7063 21.7867 21.7341 21.772 21.7682 21.7582L30.1717 17.9808C30.5104 17.8296 30.7173 17.4976 30.7109 17.1226L30.5031 7.78079C30.4963 7.41255 30.2747 7.03855 29.9221 6.81505ZM21.1736 19.5667L13.6906 14.73L13.503 6.60604L20.8007 3.3258L28.2848 8.16255L28.4712 16.2867L21.1736 19.5667Z" fill="#E13EAF"/>
</svg>
