<svg width="20" height="15" viewBox="0 0 20 15" fill="none" xmlns="http://www.w3.org/2000/svg">
<path d="M5.48111 7.51689L5.50724 8.66143L6.66461 9.40908L6.63848 8.26471L5.48111 7.51689ZM8.30603 12.2831L8.2799 11.1613L7.26459 10.5041C7.25197 10.4949 7.23446 10.4814 7.22169 10.4724L7.24782 11.5985L8.30603 12.2831ZM4.69083 13.7969L2.0433 12.0849L1.97829 9.21502L3.2783 8.62971L3.25277 7.48096L1.17925 8.41361C1.01983 8.48549 0.924825 8.63877 0.928833 8.81455L1.00647 12.2606C1.01122 12.4364 1.11483 12.6122 1.279 12.7202L4.45304 14.7747C4.60029 14.8692 4.78183 14.8966 4.92848 14.8466C4.94375 14.8436 4.95834 14.8376 4.97153 14.8289L6.91962 13.955L5.86141 13.2702L4.69083 13.7969Z" fill="#B31AAB"/>
<path d="M13.2469 7.44922C13.2423 7.24172 13.1217 7.03906 12.9314 6.91328L9.07457 4.42188L8.95389 4.47562L8.98002 5.68281L12.0334 7.65625L12.1066 10.8825L13.2733 11.6344L13.3376 11.6075L13.2469 7.44922ZM8.62971 13.112L5.04925 10.7966L4.96285 6.90859L6.59567 6.17422L6.56553 4.83641L4.02993 5.97594C3.84438 6.06141 3.73186 6.23719 3.73646 6.44469L3.83562 11.0041C3.84022 11.2109 3.9609 11.4142 4.15105 11.5356L8.34901 14.2523C8.52179 14.3653 8.72946 14.392 8.90625 14.3378C8.92361 14.3334 8.94098 14.3244 8.9579 14.3152L11.4373 13.2027L10.2023 12.4055L8.62971 13.112Z" fill="#D163CE"/>
<path d="M18.7013 4.2594L13.3198 0.776586C13.1217 0.650336 12.8839 0.614398 12.681 0.682054C12.6594 0.686429 12.6421 0.695492 12.6207 0.70471L7.36854 3.06565C7.15687 3.16018 7.02758 3.36284 7.03158 3.60143L7.16562 9.44065C7.17008 9.67924 7.30812 9.90877 7.52855 10.0485L12.91 13.5269C13.1083 13.6527 13.346 13.6886 13.5449 13.6216C13.5664 13.6167 13.5838 13.6075 13.6051 13.5989L18.8573 11.238C19.069 11.1435 19.1983 10.936 19.1943 10.7016L19.0644 4.86299C19.0602 4.63284 18.9217 4.39909 18.7013 4.2594ZM13.2335 12.2292L8.55663 9.20627L8.43937 4.12877L13.0004 2.07862L17.678 5.10159L17.7945 10.1792L13.2335 12.2292Z" fill="#E13EAF"/>
</svg>
