<svg width="24" height="24" viewBox="0 0 24 24" fill="none" xmlns="http://www.w3.org/2000/svg">
<g clip-path="url(#clip0_2_46)">
<path d="M24 18.588C23.6507 18.7201 23.2651 18.7198 22.916 18.5872C22.5669 18.4545 22.2784 18.1987 22.105 17.868L18.655 13.097L18.155 12.43L14.152 17.874C13.989 18.1908 13.7161 18.4375 13.3845 18.5678C13.0529 18.6981 12.6851 18.7031 12.35 18.582L17.508 11.662L12.71 5.41099C13.055 5.28667 13.4323 5.28502 13.7784 5.40633C14.1244 5.52763 14.4181 5.76448 14.61 6.07699L18.186 10.907L21.782 6.09699C21.9463 5.78578 22.2192 5.54578 22.5488 5.42262C22.8785 5.29946 23.2419 5.30173 23.57 5.42899L21.708 7.89999L19.186 11.183C19.116 11.2455 19.0599 11.322 19.0215 11.4077C18.9832 11.4933 18.9633 11.5861 18.9633 11.68C18.9633 11.7738 18.9832 11.8666 19.0215 11.9523C19.0599 12.0379 19.116 12.1145 19.186 12.177L23.99 18.589L24 18.588ZM0.00199674 11.576L0.421997 9.50099C1.576 5.39799 6.28 3.69099 9.516 6.23099C11.411 7.71999 11.884 9.82799 11.791 12.204H1.116C0.942997 16.447 4.005 19.009 7.92 17.7C8.55466 17.4715 9.12274 17.0892 9.57335 16.5873C10.024 16.0854 10.343 15.4795 10.502 14.824C10.709 14.158 11.05 14.044 11.676 14.236C11.5717 15.0484 11.2845 15.8265 10.8361 16.5119C10.3876 17.1973 9.78961 17.7721 9.087 18.193C7.92641 18.8278 6.59482 19.0794 5.28262 18.9119C3.97042 18.7443 2.7448 18.1661 1.781 17.26C0.828026 16.1874 0.252073 14.8325 0.140997 13.402C0.140997 13.167 0.0609967 12.947 0.00699674 12.736C0.00212877 12.3497 -0.000204616 11.9633 -3.26251e-06 11.577L0.00199674 11.576ZM1.129 11.29H10.783C10.723 8.21399 8.782 6.03199 6.193 6.01199C3.311 5.97199 1.249 8.10599 1.122 11.276L1.129 11.29Z" fill="black"/>
</g>
<defs>
<clipPath id="clip0_2_46">
<rect width="24" height="24" fill="white"/>
</clipPath>
</defs>
</svg>
