<svg width="24" height="24" viewBox="0 0 24 24" fill="none" xmlns="http://www.w3.org/2000/svg">
<g clip-path="url(#clip0_2_42)">
<path d="M18.144 1.91299C17.326 1.89599 16.44 1.99099 15.518 2.17699C13.058 2.67299 10.303 3.84399 7.788 5.49599C4.911 7.38599 2.751 9.58999 1.442 11.552C0.786 12.533 0.342 13.452 0.133 14.26C-0.076 15.068 -0.059 15.796 0.32 16.327C1.25 17.627 1.632 18.981 2.068 20.074C2.286 20.621 2.517 21.108 2.877 21.483C3.237 21.858 3.745 22.089 4.367 22.089C4.735 22.089 5.052 22.009 5.304 21.842C5.556 21.675 5.726 21.435 5.841 21.177C5.91598 21.0012 5.97553 20.8191 6.019 20.633C9.882 22.373 13.974 22.173 16.314 21.365C17.41 22.612 20.296 22.089 19.572 19.555C22.535 17.021 26.037 12.425 22.535 3.87699C22.2711 3.5973 21.9758 3.34899 21.655 3.13699C21.6137 3.09499 21.5703 3.05332 21.525 3.01199H21.523C20.849 2.42499 19.963 2.09199 18.937 1.96799C18.681 1.93665 18.4167 1.91832 18.144 1.91299ZM18.113 2.64499C18.3623 2.65165 18.6023 2.66832 18.833 2.69499C19.753 2.80699 20.513 3.09299 21.049 3.55799C21.453 3.90999 21.621 4.27299 21.645 4.69399C21.669 5.11499 21.533 5.60999 21.238 6.15699C20.648 7.24799 19.441 8.50599 17.973 9.71599C15.036 12.136 11.051 14.396 8.939 15.236C6.477 16.216 5.831 17.937 5.55 19.279C5.472 19.662 5.41 20.009 5.346 20.306V20.309C5.32558 20.4067 5.30223 20.5037 5.276 20.6C5.24667 20.7067 5.21433 20.8007 5.179 20.882C5.14644 20.9586 5.10445 21.0308 5.054 21.097C5.01115 21.1508 4.96061 21.1979 4.904 21.237C4.792 21.313 4.634 21.365 4.367 21.365C4.25167 21.365 4.14767 21.357 4.055 21.341C3.88592 21.3163 3.72553 21.2504 3.588 21.149C3.52042 21.0987 3.4572 21.0429 3.399 20.982C3.155 20.729 2.947 20.322 2.74 19.806C2.635 19.538 2.527 19.24 2.41 18.925C2.31632 18.6716 2.21898 18.4196 2.118 18.169C2.084 18.087 2.053 18.006 2.016 17.922C1.72305 17.2108 1.35212 16.5344 0.91 15.905C0.883913 15.8667 0.860523 15.8266 0.84 15.785C0.812729 15.7259 0.791294 15.6643 0.776 15.601L0.765 15.551C0.748355 15.4749 0.737656 15.3977 0.733 15.32C0.728027 15.2334 0.728695 15.1465 0.735 15.06L0.739 14.987C0.748226 14.8826 0.762913 14.7788 0.783 14.676V14.674C0.797667 14.5993 0.815333 14.522 0.836 14.442C1.016 13.747 1.422 12.886 2.043 11.954C3.287 10.09 5.388 7.93999 8.187 6.10099C10.63 4.49699 13.317 3.35799 15.661 2.88499C16.467 2.71506 17.2893 2.63457 18.113 2.64499ZM16.106 3.56799C14.505 3.82199 10.732 5.17599 7.715 7.20399C7.036 7.65999 7.034 7.76299 7.424 8.32199C6.841 8.32199 6.416 8.21999 5.771 8.79099C2.195 11.953 1.061 15.394 3.588 15.394C4.755 15.394 6.824 14.832 7.812 14.462C7.982 14.398 8.488 13.079 8.488 12.777C8.488 11.871 9.394 13.627 9.659 13.502C10.613 13.052 12.694 11.954 15.396 10.004C18.247 7.94699 21.875 4.72799 18.511 3.82299C18.216 3.74299 16.995 3.92299 16.698 4.02299C16.698 3.82099 16.371 3.57899 16.106 3.56799ZM10.656 7.07499C10.891 7.41199 11.856 7.51499 12.432 7.58199C11.915 7.90899 11.668 8.19899 11.382 9.10699C10.322 8.66499 9.088 8.88699 8.202 9.41099C8.916 8.86999 9.392 8.67899 9.723 7.58199C10.133 7.66899 10.331 7.52499 10.656 7.07499Z" fill="#F2C94C"/>
</g>
<defs>
<clipPath id="clip0_2_42">
<rect width="24" height="24" fill="white"/>
</clipPath>
</defs>
</svg>
