<svg width="24" height="24" viewBox="0 0 24 24" fill="none" xmlns="http://www.w3.org/2000/svg">
<g clip-path="url(#clip0_2_75)">
<path d="M24 0H0V24H24V0Z" fill="#E91E63"/>
<path d="M20 5H4C3.44772 5 3 5.44772 3 6V18C3 18.5523 3.44772 19 4 19H20C20.5523 19 21 18.5523 21 18V6C21 5.44772 20.5523 5 20 5Z" fill="white"/>
<path d="M21 5H3V8H21V5Z" fill="#E91E63"/>
<path d="M5 7C5.27614 7 5.5 6.77614 5.5 6.5C5.5 6.22386 5.27614 6 5 6C4.72386 6 4.5 6.22386 4.5 6.5C4.5 6.77614 4.72386 7 5 7Z" fill="white"/>
<path d="M7 7C7.27614 7 7.5 6.77614 7.5 6.5C7.5 6.22386 7.27614 6 7 6C6.72386 6 6.5 6.22386 6.5 6.5C6.5 6.77614 6.72386 7 7 7Z" fill="white"/>
<path d="M9 7C9.27614 7 9.5 6.77614 9.5 6.5C9.5 6.22386 9.27614 6 9 6C8.72386 6 8.5 6.22386 8.5 6.5C8.5 6.77614 8.72386 7 9 7Z" fill="white"/>
</g>
<defs>
<clipPath id="clip0_2_75">
<rect width="24" height="24" fill="white"/>
</clipPath>
</defs>
</svg>
