<svg width="24" height="24" viewBox="0 0 24 24" fill="none" xmlns="http://www.w3.org/2000/svg">
<g clip-path="url(#clip0_2_50)">
<path d="M12 0C5.4 0 0 5.4 0 12C0 18.6 5.4 24 12 24C18.6 24 24 18.6 24 12C24 5.4 18.6 0 12 0ZM12 2.571C15.171 2.571 17.915 4.114 19.629 6.429L18.343 7.544C16.886 5.572 14.571 4.286 12 4.286C8.657 4.286 5.829 6.429 4.714 9.429L14.571 19.286C17.057 18.429 18.944 16.286 19.544 13.714H15.429V12H21.429C21.429 16.457 18.257 20.228 14.057 21.17L2.83 9.944C3.772 5.743 7.543 2.57 12 2.57V2.571ZM2.571 12.171L11.915 21.429C9.515 21.343 7.114 20.486 5.314 18.686C3.514 16.886 2.571 14.485 2.571 12.171Z" fill="#663399"/>
</g>
<defs>
<clipPath id="clip0_2_50">
<rect width="24" height="24" fill="white"/>
</clipPath>
</defs>
</svg>
