<svg width="24" height="24" viewBox="0 0 24 24" fill="none" xmlns="http://www.w3.org/2000/svg">
<g clip-path="url(#clip0_2_73)">
<path d="M12 0C5.373 0 0 5.373 0 12C0 18.627 5.373 24 12 24C18.627 24 24 18.627 24 12C24 5.373 18.627 0 12 0ZM12.256 2.313C14.726 2.318 17.372 4.321 18.154 5.275L18.398 5.575C20.038 7.569 21.967 9.915 21.967 12.541C21.967 16.26 18.987 18.349 15.809 20.049C14.376 20.815 12.829 21.557 11.061 21.557C6.518 21.557 2.695 17.988 2.695 13.445C2.695 12.739 2.865 12.02 3.037 11.295C3.159 10.78 3.281 10.262 3.344 9.746C3.892 5.207 6.311 2.951 11.766 2.338C11.9287 2.31999 12.0923 2.31231 12.256 2.313Z" fill="#15171A"/>
</g>
<defs>
<clipPath id="clip0_2_73">
<rect width="24" height="24" fill="white"/>
</clipPath>
</defs>
</svg>
