<svg width="24" height="24" viewBox="0 0 24 24" fill="none" xmlns="http://www.w3.org/2000/svg">
<g clip-path="url(#clip0_2_71)">
<path d="M12.48 10.92V14.2H20.32C20.08 16.04 19.467 17.387 18.533 18.333C17.386 19.48 15.6 20.733 12.48 20.733C7.653 20.733 3.88 16.84 3.88 12.013C3.88 7.186 7.653 3.293 12.48 3.293C15.08 3.293 16.987 4.32 18.387 5.64L20.694 3.333C18.747 1.44 16.133 0 12.48 0C5.867 0 0.307 5.387 0.307 12C0.307 18.613 5.867 24 12.48 24C16.053 24 18.747 22.827 20.853 20.64C23.013 18.48 23.693 15.427 23.693 12.973C23.693 12.213 23.64 11.506 23.52 10.92H12.48Z" fill="#4285F4"/>
</g>
<defs>
<clipPath id="clip0_2_71">
<rect width="24" height="24" fill="white"/>
</clipPath>
</defs>
</svg>
