<svg width="24" height="24" viewBox="0 0 24 24" fill="none" xmlns="http://www.w3.org/2000/svg">
<g clip-path="url(#clip0_2_92)">
<path d="M10.145 20.014C9.879 19.929 9.878 19.892 10.123 19.149C10.367 18.406 10.255 17.717 9.803 17.175C9.186 16.438 8.889 15.809 8.794 15.04C8.714 14.38 8.687 14.327 8.418 14.276C8.238 14.241 7.988 14.31 7.395 14.557C6.531 14.917 6.325 15.077 6.122 15.537C6.014 15.779 6.002 15.924 6.062 16.204C6.137 16.546 6.44 17.096 6.556 17.097C6.586 17.097 6.752 17.211 6.924 17.349C7.211 17.579 7.231 17.619 7.149 17.807C6.973 18.215 6.554 18.709 6.385 18.709C6.29 18.709 5.903 18.437 5.475 18.072C4.639 17.355 4.603 17.282 4.515 16.107C4.415 14.704 4.759 14.049 6.295 12.732L7.259 11.905L7.321 11.405C7.384 10.887 7.295 9.65695 7.144 8.97795C7.054 8.57795 6.762 8.19495 6.484 8.11795C6.181 8.03395 6.004 8.20795 5.772 8.81195C5.522 9.46595 5.286 9.69395 4.852 9.69395C4.582 9.69395 4.332 9.52095 4.158 9.21695C4.033 8.99995 3.96 7.69095 4.035 7.00195C4.071 6.67195 4.073 6.33595 4.04 6.25695C3.986 6.12895 3.52 5.85195 2.42 5.29495C2.24055 5.20602 2.06747 5.10478 1.902 4.99195C1.74716 4.88818 1.58314 4.79881 1.412 4.72495C0.994 4.53995 -0.0949996 3.90295 0.0070004 3.90295C0.2 3.90295 1.017 4.15495 1.453 4.34795C1.719 4.46595 1.973 4.56295 2.018 4.56295C2.063 4.56295 2.576 4.72795 3.158 4.92895C3.738 5.13095 4.269 5.29595 4.338 5.29595C4.498 5.29595 4.523 5.15595 4.472 4.54995C4.448 4.27495 4.449 4.04995 4.474 4.04995C4.499 4.04995 4.606 4.10295 4.712 4.16795C5.036 4.36595 5.732 4.48795 6.552 4.48795C7.335 4.48995 8.358 4.64495 8.748 4.82295C9.308 5.07695 9.959 5.87295 10.784 7.31295C11.358 8.31495 11.974 8.73895 12.857 8.73995C13.214 8.73995 14.167 8.59295 15.457 8.33995C16.52 8.12995 17.924 8.08095 18.469 8.23695C19.134 8.42695 20.014 8.93695 20.739 9.55095C21.419 10.127 21.525 10.255 21.943 11.019C22.443 11.931 22.993 13.226 23.483 14.641C23.553 14.843 23.699 15.181 23.809 15.394C24.103 15.962 24.089 15.997 23.554 15.997C22.974 15.997 22.701 15.905 22.321 15.582C21.956 15.272 21.861 15.082 21.289 13.532C20.997 12.736 20.712 12.259 20.529 12.259C20.405 12.259 20.153 13.111 20.153 13.532C20.153 13.832 20.34 14.234 20.823 14.979C21.611 16.189 22.025 17.901 21.859 19.259L21.789 19.845L21.263 19.867C20.438 19.901 20.446 19.913 20.446 18.732C20.446 17.475 20.361 17.203 19.806 16.697C19.576 16.487 19.058 15.887 18.657 15.367C18.255 14.847 17.871 14.421 17.803 14.421C17.645 14.421 17.567 14.849 17.559 15.753C17.553 16.348 17.529 16.449 17.354 16.633C16.878 17.13 16.544 18.036 16.338 19.387C16.292 19.687 16.253 19.742 16.059 19.785C15.774 19.849 14.984 19.86 14.916 19.8C14.857 19.75 14.96 18.937 15.194 17.61C15.282 17.106 15.379 16.43 15.408 16.107C15.461 15.533 15.343 14.457 15.204 14.24C15.146 14.15 14.851 14.13 13.472 14.124C12.557 14.121 11.554 14.091 11.242 14.058L10.677 13.998V14.248C10.677 14.518 10.747 14.754 11.207 16.07C11.369 16.534 11.604 17.24 11.73 17.64L11.957 18.368L11.765 18.96C11.6713 19.2574 11.555 19.5473 11.417 19.827C11.265 20.093 11.247 20.101 10.822 20.097C10.5939 20.0954 10.3667 20.0675 10.145 20.014Z" fill="#499848"/>
</g>
<defs>
<clipPath id="clip0_2_92">
<rect width="24" height="24" fill="white"/>
</clipPath>
</defs>
</svg>
