<svg width="24" height="24" viewBox="0 0 24 24" fill="none" xmlns="http://www.w3.org/2000/svg">
<g clip-path="url(#clip0_2_82)">
<path d="M24 0H0V24H24V0Z" fill="#546E7A"/>
<path d="M21 4H3C2.44772 4 2 4.44772 2 5V7C2 7.55228 2.44772 8 3 8H21C21.5523 8 22 7.55228 22 7V5C22 4.44772 21.5523 4 21 4Z" fill="white"/>
<path d="M21 10H3C2.44772 10 2 10.4477 2 11V13C2 13.5523 2.44772 14 3 14H21C21.5523 14 22 13.5523 22 13V11C22 10.4477 21.5523 10 21 10Z" fill="white"/>
<path d="M21 16H3C2.44772 16 2 16.4477 2 17V19C2 19.5523 2.44772 20 3 20H21C21.5523 20 22 19.5523 22 19V17C22 16.4477 21.5523 16 21 16Z" fill="white"/>
</g>
<defs>
<clipPath id="clip0_2_82">
<rect width="24" height="24" fill="white"/>
</clipPath>
</defs>
</svg>
