<svg width="24" height="24" viewBox="0 0 24 24" fill="none" xmlns="http://www.w3.org/2000/svg">
<g clip-path="url(#clip0_2_87)">
<path d="M16.719 14.759L14.22 17.26L11.85 19.63L11.388 20.096C10.02 21.461 8.091 21.926 6.341 21.493C6.014 22.917 4.737 23.983 3.211 23.983C1.438 23.983 0 22.547 0 20.772C0 19.254 1.055 17.983 2.469 17.649C2.023 15.889 2.485 13.944 3.865 12.569L4.044 12.389L6.414 14.759L6.23 14.94C5.461 15.719 5.461 16.964 6.23 17.729C7.001 18.509 8.252 18.509 9.017 17.729L9.482 17.264L11.849 14.893L14.351 12.387L16.719 14.759ZM17.643 21.411C15.821 21.974 13.758 21.531 12.315 20.093L12.135 19.908L14.5 17.539L14.68 17.723C15.451 18.491 16.698 18.491 17.467 17.723C18.232 16.958 18.236 15.713 17.463 14.942L16.997 14.477L14.632 12.107L12.13 9.60401L14.5 7.23501L16.999 9.74001L19.366 12.11L19.83 12.574C21.195 13.934 21.676 15.852 21.241 17.595C22.801 17.819 24 19.155 24 20.775C24 22.559 22.561 23.985 20.791 23.985C19.246 23.985 17.94 22.889 17.656 21.42L17.643 21.411ZM6.975 9.46101L9.483 6.95601L11.853 4.58701L12.315 4.12601C13.74 2.70001 15.772 2.25101 17.58 2.79001C17.792 1.22901 19.135 0.0150146 20.759 0.0150146C22.531 0.0150146 23.97 1.45201 23.97 3.22401C23.97 4.85501 22.754 6.20201 21.18 6.41001C21.699 8.20901 21.248 10.226 19.83 11.644L19.648 11.828L17.279 9.45901L17.463 9.27501C18.232 8.50501 18.232 7.25902 17.463 6.49201C16.697 5.72602 15.452 5.72401 14.682 6.49501L14.22 6.95601L11.85 9.32501L9.345 11.827L6.975 9.46101ZM4.322 12.108L3.861 11.646C2.43 10.215 1.986 8.17001 2.529 6.35801C1.1 6.02901 0.03 4.75401 0.03 3.22401C0.03 1.45401 1.47 0.0150146 3.24 0.0150146C4.836 0.0150146 6.16 1.18101 6.41 2.70601C8.14 2.30101 10.036 2.77101 11.389 4.12101L11.573 4.30602L9.203 6.67601L9.02 6.49501C8.25 5.73001 7.004 5.73001 6.235 6.49501C5.464 7.27601 5.465 8.52001 6.23 9.28501L6.695 9.75101L9.065 12.12L11.57 14.625L9.203 16.995L6.693 14.49L4.322 12.12V12.108Z" fill="#5091CD"/>
</g>
<defs>
<clipPath id="clip0_2_87">
<rect width="24" height="24" fill="white"/>
</clipPath>
</defs>
</svg>
