<svg width="24" height="24" viewBox="0 0 24 24" fill="none" xmlns="http://www.w3.org/2000/svg">
<g clip-path="url(#clip0_2_89)">
<path d="M24 0H0V24H24V0Z" fill="#F0DB4F"/>
<path d="M10.1191 7.41016H11.8535L10.7695 12.6133C10.4805 13.9922 10.1016 14.9258 9.63281 15.4141C9.16406 15.9023 8.44336 16.1465 7.4707 16.1465C6.64648 16.1465 6.0293 15.957 5.61914 15.5781C5.20898 15.1992 5.00391 14.6836 5.00391 14.0312C5.00391 13.8945 5.01367 13.7422 5.0332 13.5742L6.66797 13.3984C6.64453 13.5703 6.63281 13.7129 6.63281 13.8262C6.63281 14.0996 6.71094 14.3086 6.86719 14.4531C7.02344 14.5977 7.26367 14.6699 7.58789 14.6699C8.04102 14.6699 8.35938 14.5371 8.54297 14.2715C8.67969 14.0684 8.8457 13.4961 9.04102 12.5547L10.1191 7.41016ZM12.0996 13.2168L13.7812 13.1289C13.8047 13.6641 13.8965 14.0254 14.0566 14.2129C14.3145 14.5176 14.791 14.6699 15.4863 14.6699C16.0645 14.6699 16.4824 14.5664 16.7402 14.3594C16.998 14.1523 17.127 13.9023 17.127 13.6094C17.127 13.3555 17.0215 13.1406 16.8105 12.9648C16.6621 12.8359 16.2539 12.627 15.5859 12.3379C14.9219 12.0488 14.4355 11.8086 14.127 11.6172C13.8223 11.4219 13.582 11.1699 13.4062 10.8613C13.2305 10.5527 13.1426 10.1914 13.1426 9.77734C13.1426 9.05469 13.4043 8.45508 13.9277 7.97852C14.4512 7.50195 15.209 7.26367 16.2012 7.26367C17.209 7.26367 17.9883 7.5 18.5391 7.97266C19.0938 8.44531 19.3984 9.07422 19.4531 9.85938L17.7598 9.93555C17.7168 9.52539 17.5684 9.21094 17.3145 8.99219C17.0605 8.77344 16.6855 8.66406 16.1895 8.66406C15.7012 8.66406 15.3516 8.75 15.1406 8.92188C14.9336 9.09375 14.8301 9.31055 14.8301 9.57227C14.8301 9.81836 14.9258 10.0215 15.1172 10.1816C15.3086 10.3457 15.7324 10.5703 16.3887 10.8555C17.377 11.2812 18.0059 11.627 18.2754 11.8926C18.6777 12.2832 18.8789 12.7852 18.8789 13.3984C18.8789 14.1562 18.5781 14.8047 17.9766 15.3438C17.3789 15.8789 16.5449 16.1465 15.4746 16.1465C14.7363 16.1465 14.0957 16.0234 13.5527 15.7773C13.0137 15.5273 12.6328 15.1816 12.4102 14.7402C12.1875 14.2988 12.084 13.791 12.0996 13.2168Z" fill="#323330"/>
</g>
<defs>
<clipPath id="clip0_2_89">
<rect width="24" height="24" fill="white"/>
</clipPath>
</defs>
</svg>
