<svg width="24" height="24" viewBox="0 0 24 24" fill="none" xmlns="http://www.w3.org/2000/svg">
<g clip-path="url(#clip0_2_94)">
<path d="M24 0H0V24H24V0Z" fill="#F8F8F8"/>
<path d="M7.09766 7.8418H8.54297L7.63965 12.1777C7.39876 13.3268 7.08301 14.1048 6.69238 14.5117C6.30176 14.9186 5.70117 15.1221 4.89062 15.1221C4.20378 15.1221 3.68945 14.9642 3.34766 14.6484C3.00586 14.3327 2.83496 13.903 2.83496 13.3594C2.83496 13.2454 2.8431 13.1185 2.85938 12.9785L4.22168 12.832C4.20215 12.9753 4.19238 13.0941 4.19238 13.1885C4.19238 13.4163 4.25749 13.5905 4.3877 13.7109C4.5179 13.8314 4.7181 13.8916 4.98828 13.8916C5.36589 13.8916 5.63118 13.7809 5.78418 13.5596C5.89811 13.3903 6.03646 12.9134 6.19922 12.1289L7.09766 7.8418ZM8.74805 12.6807L10.1494 12.6074C10.1689 13.0534 10.2454 13.3545 10.3789 13.5107C10.5938 13.7646 10.9909 13.8916 11.5703 13.8916C12.0521 13.8916 12.4004 13.8053 12.6152 13.6328C12.8301 13.4603 12.9375 13.252 12.9375 13.0078C12.9375 12.7962 12.8496 12.6172 12.6738 12.4707C12.5501 12.3633 12.21 12.1891 11.6533 11.9482C11.0999 11.7074 10.6947 11.5072 10.4375 11.3477C10.1836 11.1849 9.9834 10.9749 9.83691 10.7178C9.69043 10.4606 9.61719 10.1595 9.61719 9.81445C9.61719 9.21224 9.83529 8.71257 10.2715 8.31543C10.7077 7.91829 11.3392 7.71973 12.166 7.71973C13.0059 7.71973 13.6553 7.91667 14.1143 8.31055C14.5765 8.70443 14.8304 9.22852 14.876 9.88281L13.4648 9.94629C13.429 9.60449 13.3053 9.34245 13.0938 9.16016C12.8822 8.97786 12.5697 8.88672 12.1562 8.88672C11.7493 8.88672 11.458 8.95833 11.2822 9.10156C11.1097 9.24479 11.0234 9.42546 11.0234 9.64355C11.0234 9.84863 11.1032 10.0179 11.2627 10.1514C11.4222 10.2881 11.7754 10.4753 12.3223 10.7129C13.1458 11.0677 13.6699 11.3558 13.8945 11.5771C14.2298 11.9027 14.3975 12.321 14.3975 12.832C14.3975 13.4635 14.1468 14.0039 13.6455 14.4531C13.1475 14.8991 12.4525 15.1221 11.5605 15.1221C10.9453 15.1221 10.4115 15.0195 9.95898 14.8145C9.50977 14.6061 9.19238 14.318 9.00684 13.9502C8.82129 13.5824 8.73503 13.1592 8.74805 12.6807ZM16.6631 15H15.1885L16.6875 7.8418H19.5977C20.1152 7.8418 20.5238 7.90365 20.8232 8.02734C21.126 8.14779 21.3652 8.34961 21.541 8.63281C21.7168 8.91276 21.8047 9.24805 21.8047 9.63867C21.8047 10 21.7347 10.3516 21.5947 10.6934C21.4548 11.0352 21.2822 11.3086 21.0771 11.5137C20.8753 11.7188 20.6572 11.875 20.4229 11.9824C20.1885 12.0866 19.8727 12.1663 19.4756 12.2217C19.2445 12.2542 18.8115 12.2705 18.1768 12.2705H17.2344L16.6631 15ZM17.4785 11.084H17.9326C18.7106 11.084 19.2298 11.0352 19.4902 10.9375C19.7507 10.8398 19.9557 10.6836 20.1055 10.4688C20.2552 10.2539 20.3301 10.0179 20.3301 9.76074C20.3301 9.58822 20.291 9.44661 20.2129 9.33594C20.138 9.22526 20.0306 9.14551 19.8906 9.09668C19.7539 9.0446 19.4463 9.01855 18.9678 9.01855H17.9131L17.4785 11.084Z" fill="#007396"/>
</g>
<defs>
<clipPath id="clip0_2_94">
<rect width="24" height="24" fill="white"/>
</clipPath>
</defs>
</svg>
