<svg width="24" height="24" viewBox="0 0 24 24" fill="none" xmlns="http://www.w3.org/2000/svg">
<g clip-path="url(#clip0_2_97)">
<path d="M0 0V24H24V0H0ZM11.65 3.417C12.348 3.417 13.216 3.633 13.216 4.696V7.416C13.216 8.916 10.783 8.949 10.783 7.434V3.63C10.7833 3.59636 10.7952 3.56385 10.8167 3.53798C10.8382 3.51211 10.868 3.49445 10.901 3.488C11.051 3.46 11.333 3.416 11.651 3.417H11.65ZM17.158 5.177C17.1863 5.17782 17.2137 5.18686 17.237 5.203C17.645 5.48 19.112 6.6 18.019 7.693L16.091 9.62C15.031 10.68 13.288 8.98 14.358 7.913L17.053 5.218C17.0669 5.20455 17.0834 5.194 17.1014 5.18696C17.1194 5.17992 17.1387 5.17653 17.158 5.177ZM6.888 5.577C7.151 5.587 7.426 5.7 7.699 5.973L9.627 7.903C10.688 8.962 8.987 10.706 7.92 9.633L5.226 6.94C5.20204 6.91665 5.18709 6.88558 5.1838 6.85228C5.18051 6.81899 5.18908 6.78559 5.208 6.758C5.417 6.451 6.099 5.549 6.888 5.577ZM11.992 10.227C11.9947 10.227 11.9973 10.227 12 10.227C12.3507 10.227 12.6935 10.331 12.985 10.5258C13.2766 10.7206 13.5038 10.9975 13.638 11.3215C13.7722 11.6455 13.8073 12.002 13.7389 12.3459C13.6705 12.6898 13.5017 13.0057 13.2537 13.2537C13.0057 13.5017 12.6898 13.6705 12.3459 13.7389C12.002 13.8073 11.6455 13.7722 11.3215 13.638C10.9975 13.5038 10.7206 13.2766 10.5258 12.985C10.331 12.6935 10.227 12.3507 10.227 12C10.227 11.5312 10.4127 11.0814 10.7435 10.7491C11.0742 10.4168 11.5232 10.2291 11.992 10.227ZM4.701 10.777H7.429C8.928 10.777 8.961 13.21 7.446 13.21H3.636C3.6024 13.2101 3.56981 13.1985 3.54388 13.1771C3.51794 13.1558 3.5003 13.126 3.494 13.093C3.402 12.613 3.157 10.777 4.701 10.777ZM16.56 10.777H20.362C20.3957 10.7765 20.4285 10.788 20.4545 10.8094C20.4805 10.8308 20.4981 10.8608 20.504 10.894C20.597 11.374 20.842 13.21 19.298 13.21H16.578C15.078 13.21 15.045 10.777 16.56 10.777ZM15.322 14.017C15.581 14.019 15.845 14.119 16.078 14.354L18.773 17.046C18.7966 17.07 18.8112 17.1014 18.8143 17.135C18.8174 17.1685 18.8088 17.2021 18.79 17.23C18.512 17.64 17.392 19.106 16.3 18.014L14.371 16.084C13.542 15.257 14.399 14.011 15.322 14.017ZM8.665 14.03C9.595 14.019 10.476 15.239 9.64 16.074L6.946 18.766C6.92232 18.7901 6.89091 18.8051 6.85727 18.8084C6.82363 18.8117 6.78991 18.8031 6.762 18.784C6.354 18.506 4.886 17.386 5.979 16.294L7.907 14.364C8.00515 14.2612 8.12263 14.1788 8.25271 14.1214C8.38278 14.0641 8.52289 14.0331 8.665 14.03ZM11.999 15.433C12.607 15.426 13.216 15.797 13.216 16.555V20.357C13.2156 20.3904 13.2036 20.4226 13.1821 20.4482C13.1606 20.4737 13.1309 20.491 13.098 20.497C12.618 20.59 10.782 20.835 10.782 19.291V16.571C10.782 15.822 11.391 15.439 11.999 15.433Z" fill="#F05A22"/>
</g>
<defs>
<clipPath id="clip0_2_97">
<rect width="24" height="24" fill="white"/>
</clipPath>
</defs>
</svg>
