<svg width="24" height="24" viewBox="0 0 24 24" fill="none" xmlns="http://www.w3.org/2000/svg">
<path d="M18.742 1.18201L6.249 1.18401C4.155 4.78401 2.079 8.39301 0 12.002C2.071 15.614 4.162 19.216 6.252 22.818L18.742 22.814L21.831 17.41H23.989V17.408H24L23.996 6.59001H21.828L18.742 1.18201ZM8.327 4.79201H10.408L11.448 6.59201L8.328 12.005L11.445 17.408L10.41 19.218H8.327C6.94255 16.8139 5.55321 14.4125 4.159 12.014C5.547 9.60601 6.937 7.20001 8.327 4.79201ZM14.568 4.79201L16.654 4.79501C18.047 7.20001 19.434 9.60801 20.82 12.017L16.653 19.217H14.573C14.191 18.655 13.535 17.409 13.535 17.409L16.658 12.004L13.534 6.59101L14.568 4.79201Z" fill="#4D4D4D"/>
</svg>
