<svg width="63" height="16" viewBox="0 0 63 16" fill="none" xmlns="http://www.w3.org/2000/svg">
<path fill-rule="evenodd" clip-rule="evenodd" d="M36.5305 0.98947C36.7197 0.654321 37.0096 0.368313 37.388 0.262166C37.559 0.258726 37.7296 0.25971 37.9011 0.260693C38.133 0.367823 38.337 0.535888 38.4633 0.760468C38.563 0.986031 38.509 1.22191 38.4579 1.45092C38.394 1.5903 38.339 1.73359 38.2932 1.87993C38.2529 1.9674 38.2166 2.05684 38.1846 2.14726C38.1453 2.23523 38.1099 2.32417 38.0775 2.4141C38.0388 2.50194 38.0033 2.5911 37.9709 2.68144C37.9325 2.7694 37.8971 2.85835 37.8637 2.94877C37.8259 3.03674 37.79 3.12568 37.7571 3.21561C37.7192 3.30407 37.6834 3.39252 37.65 3.48245C37.6121 3.57091 37.5762 3.65937 37.5438 3.7493C37.5054 3.83706 37.4698 3.92606 37.4372 4.01614C37.3987 4.1039 37.3632 4.1929 37.3305 4.28298C37.2922 4.37144 37.2563 4.45989 37.2239 4.54982C37.1853 4.63758 37.1496 4.72658 37.1168 4.81667C37.0784 4.90512 37.0431 4.99358 37.0101 5.084C36.9723 5.17196 36.9364 5.26091 36.9035 5.35084C36.8652 5.4388 36.8293 5.52775 36.7968 5.61818C36.7581 5.70564 36.7225 5.79448 36.6902 5.88453C36.6519 5.97249 36.6155 6.06144 36.5831 6.15137C36.5452 6.23982 36.5094 6.32828 36.4769 6.4187C36.4138 6.56082 36.3582 6.70616 36.3103 6.8541C36.9836 6.34892 37.645 5.82556 38.3379 5.34789C38.4092 5.31005 38.4814 5.2727 38.5527 5.23437C38.7886 5.13756 39.0461 5.15575 39.2947 5.17245C39.4707 5.2732 39.6378 5.3936 39.741 5.57346C39.8042 5.73723 39.8242 5.91449 39.7991 6.08824C39.7741 6.26198 39.7048 6.42638 39.598 6.56564C39.4628 6.73419 39.2997 6.87621 39.1375 7.01774C39.0623 7.06787 38.9901 7.12094 38.9198 7.17795C38.5522 7.43054 38.2003 7.70573 37.8446 7.97405L38.0229 8.24188C38.0578 8.29642 38.0932 8.35097 38.1301 8.40552C38.2112 8.55245 38.3021 8.69251 38.3969 8.83158C38.5099 9.03503 38.6421 9.22669 38.7714 9.41982C38.8215 9.50876 38.8726 9.59722 38.9281 9.68371C38.965 9.73777 39.0019 9.79182 39.0407 9.84588C39.1449 10.0385 39.2545 10.2302 39.3159 10.442C39.3547 10.5982 39.2879 10.7516 39.2589 10.9039C39.0977 11.159 38.8854 11.3924 38.6028 11.5133C38.4082 11.5772 38.2121 11.586 38.019 11.5118C37.9006 11.4283 37.7763 11.3457 37.6996 11.2194L36.8897 9.9992L36.7826 9.8385C36.7472 9.78445 36.7118 9.73089 36.676 9.67781C36.6401 9.62376 36.6052 9.57019 36.5693 9.51761C36.5334 9.46355 36.4971 9.40901 36.4612 9.35642C36.2347 8.96378 35.9575 8.60454 35.727 8.21485L35.7452 8.28365C35.6975 8.37063 35.6567 8.46105 35.6214 8.55344C35.584 8.64189 35.5486 8.73133 35.5172 8.82126C35.4779 8.90874 35.442 8.99817 35.4101 9.0881C35.3715 9.17574 35.3361 9.26475 35.3039 9.35495C35.2646 9.44242 35.2287 9.53186 35.1973 9.62179C35.0071 10.0714 34.8548 10.5383 34.611 10.9634C34.41 11.186 34.208 11.4361 33.9034 11.5133C33.7682 11.531 33.635 11.6037 33.4974 11.5654C33.3887 11.5395 33.2788 11.5187 33.1682 11.503C33.0075 11.3639 32.8158 11.2307 32.7529 11.0164C32.6193 10.7157 32.7986 10.4036 32.8812 10.1152C32.9205 10.0267 32.9579 9.93827 32.9913 9.84834C33.0281 9.75988 33.0645 9.67142 33.0969 9.58149C33.1343 9.49304 33.1711 9.40458 33.2046 9.31465C33.2414 9.22619 33.2783 9.13774 33.3112 9.04781C33.3485 8.95935 33.3844 8.8704 33.4178 8.77998C33.4557 8.69251 33.4911 8.60307 33.524 8.51363C33.5618 8.42567 33.5977 8.33672 33.6306 8.24679C33.668 8.15833 33.7043 8.06988 33.7377 7.97946C33.7756 7.89198 33.8115 7.80255 33.8444 7.71262C33.8822 7.62514 33.9181 7.5357 33.951 7.44577C33.9889 7.3583 34.0247 7.26886 34.0577 7.17942C34.0955 7.09097 34.1314 7.00251 34.1648 6.91209C34.2021 6.82363 34.2385 6.73518 34.2714 6.64525C34.3093 6.55679 34.3451 6.46834 34.3781 6.37841C34.4159 6.28995 34.4518 6.20149 34.4847 6.11156C34.5225 6.02311 34.5584 5.93465 34.5918 5.84423C34.6297 5.75626 34.6656 5.66732 34.698 5.57739C34.7363 5.48942 34.7717 5.40048 34.8046 5.31054C34.8425 5.22258 34.8783 5.13363 34.9113 5.04321C34.9491 4.95574 34.9855 4.8663 35.0179 4.77637C35.0562 4.6889 35.0916 4.59946 35.125 4.50953C35.1629 4.42205 35.1987 4.33261 35.2317 4.24268C35.2695 4.15521 35.3054 4.06577 35.3383 3.97584C35.3761 3.88837 35.412 3.79893 35.4445 3.709C35.5182 3.53209 35.5909 3.35419 35.6582 3.17482C35.6966 3.08686 35.7319 2.99791 35.7654 2.90798C35.8032 2.82002 35.8391 2.73107 35.872 2.64114C35.9098 2.55268 35.9457 2.46423 35.9781 2.3743C36.0165 2.28584 36.0523 2.19739 36.0853 2.10746C36.1231 2.019 36.159 1.93054 36.1919 1.84061C36.2297 1.75314 36.2656 1.6637 36.2981 1.57377C36.3791 1.38064 36.4573 1.18604 36.5305 0.98947ZM3.43127 1.60571C4.04653 1.39391 4.70454 1.40914 5.34585 1.4401C5.45052 1.46124 5.55372 1.48827 5.66036 1.49858C6.01418 1.60522 6.35818 1.74282 6.6776 1.93005C7.08007 2.22392 7.44176 2.5807 7.68796 3.01757C7.74743 3.17728 7.81229 3.33503 7.87323 3.49425C7.96021 3.86085 7.94842 4.23826 7.93761 4.61223C7.90222 5.02945 7.77642 5.43094 7.65651 5.82949C7.59343 5.96875 7.53926 6.11187 7.49434 6.25801C7.40982 6.42509 7.35183 6.60446 7.25846 6.76761C7.42358 6.55089 7.63194 6.373 7.81426 6.17102C8.11157 5.81278 8.45851 5.50072 8.77401 5.15869C9.14503 4.71248 9.59222 4.33556 9.9603 3.88591C10.6277 3.2333 11.2257 2.51485 11.9122 1.88091C12.0228 1.81015 12.1319 1.73791 12.241 1.66419C12.5147 1.50989 12.8297 1.51578 13.1344 1.54232C13.3732 1.66026 13.6086 1.83373 13.7044 2.09222C13.7929 2.29371 13.7536 2.5173 13.7536 2.73009C13.674 2.87358 13.6037 3.02199 13.5246 3.16549C13.4866 3.21961 13.4498 3.2745 13.414 3.33011C13.1924 3.5542 13.0061 3.81073 12.7752 4.02695C12.5132 4.29969 12.2356 4.55965 11.9953 4.85254C11.6341 5.23781 11.2424 5.59508 10.9033 6.0005C10.6321 6.2811 10.3544 6.55482 10.0866 6.83887C9.8001 7.18532 9.46593 7.48853 9.15781 7.81532L9.25707 8.03155C9.31998 8.23057 9.38386 8.4296 9.46888 8.62076C9.53571 8.81733 9.59665 9.01734 9.68265 9.20801C9.74948 9.40458 9.81042 9.60459 9.89592 9.79526C9.96276 9.99183 10.0237 10.1918 10.1097 10.3815C10.1765 10.5791 10.2375 10.7786 10.323 10.9688C10.3893 11.1653 10.4517 11.3649 10.5362 11.5555C10.5834 11.7015 10.6326 11.8484 10.7014 11.9875L10.7245 12.0843C10.7874 12.245 10.8385 12.4106 10.9053 12.5703C10.9348 12.6421 10.9687 12.7128 11.0036 12.7826C11.1756 13.047 11.5019 13.1723 11.8071 13.1772L59.1556 13.1767C59.2981 13.1748 59.4342 13.2288 59.5762 13.2406C59.6878 13.2971 59.7998 13.3536 59.9128 13.4072C60.0038 13.5084 60.073 13.6249 60.1399 13.7433C60.1477 13.9497 60.1487 14.1571 60.1369 14.364C60.1129 14.4198 60.0909 14.4766 60.0711 14.534C59.9409 14.7635 59.7467 14.9483 59.5227 15.0854C59.2966 15.1537 59.0735 15.2525 58.8352 15.2594H11.0041C10.811 15.2658 10.6272 15.1906 10.4335 15.1984C10.236 15.1238 10.0247 15.0746 9.84875 14.9517C9.62171 14.8181 9.49247 14.5802 9.3416 14.3738C9.27771 14.2461 9.21285 14.1198 9.15093 13.9915C9.11058 13.8837 9.06566 13.7776 9.01628 13.6736C9.01136 13.649 8.99957 13.6013 8.99416 13.5772C8.87868 13.2726 8.77253 12.9635 8.64869 12.6612C8.58088 12.4632 8.52142 12.2617 8.42952 12.0725L8.40642 11.9767C8.34303 11.8145 8.2934 11.6474 8.22165 11.4892C8.17613 11.3435 8.12264 11.2005 8.06144 11.0607C7.99461 10.8641 7.93367 10.6641 7.84718 10.4739C7.78084 10.2773 7.71892 10.0778 7.6344 9.88814C7.58945 9.74074 7.53411 9.59673 7.46879 9.45716L7.4452 9.36035C7.3823 9.19818 7.33267 9.0311 7.26092 8.87335C7.21548 8.72744 7.16183 8.5842 7.10022 8.44434C7.02636 8.21193 6.94191 7.98302 6.84714 7.75832C6.83535 7.82712 6.82208 7.89591 6.80881 7.96471C6.7636 8.0517 6.72527 8.14163 6.69087 8.23303C6.65401 8.32149 6.61814 8.40994 6.5857 8.49987C6.54786 8.58784 6.5115 8.67678 6.47808 8.76622C6.44024 8.85468 6.40437 8.94363 6.37144 9.03356C6.3336 9.12152 6.29773 9.21047 6.26431 9.3004C6.22647 9.38836 6.1906 9.47731 6.15866 9.56822C6.05988 9.77757 5.97487 9.99232 5.89329 10.2085C5.85398 10.297 5.81859 10.3855 5.78616 10.4754C5.74734 10.5634 5.71097 10.6523 5.67854 10.7427C5.64021 10.8302 5.60483 10.9196 5.5719 11.0096C5.53321 11.0971 5.49748 11.186 5.46477 11.2759C5.42595 11.3639 5.39057 11.4528 5.35764 11.5423C5.31931 11.6307 5.28393 11.7192 5.251 11.8101C5.20579 11.9133 5.165 12.0189 5.12323 12.1241L5.02003 12.3403C4.85148 12.6136 4.6608 12.8804 4.38413 13.0539L4.27897 13.1129C4.07159 13.1679 3.86274 13.2608 3.64356 13.2259C3.55265 13.2067 3.46419 13.1817 3.37279 13.1669C3.21169 13.0791 3.06502 12.967 2.93788 12.8347C2.89857 12.758 2.85827 12.6819 2.81601 12.6067C2.76588 12.2445 2.83763 11.8838 2.99046 11.5546C3.02879 11.4671 3.06516 11.3781 3.09857 11.2882C3.13691 11.1997 3.17229 11.1113 3.20521 11.0214C3.24354 10.9329 3.27893 10.8444 3.31185 10.754C3.35018 10.6666 3.38655 10.5781 3.41898 10.4877C3.45682 10.3997 3.49319 10.3108 3.52611 10.2213C3.56395 10.1329 3.59982 10.0444 3.63324 9.95448C3.67059 9.86602 3.70695 9.77757 3.73988 9.68764C3.77772 9.59967 3.81359 9.51073 3.84701 9.4208C3.88436 9.33234 3.92072 9.24389 3.95316 9.15297C4.09026 8.85615 4.20526 8.54951 4.32516 8.24532C4.36349 8.15735 4.40035 8.0684 4.43279 7.97847C4.47062 7.89051 4.50699 7.80156 4.53942 7.71163C4.57775 7.62416 4.61363 7.53472 4.64606 7.44528C4.68488 7.35682 4.72125 7.26837 4.75368 7.17844C4.79152 7.08998 4.8274 7.00153 4.86032 6.9116C4.89816 6.82314 4.93453 6.73469 4.96745 6.64476C5.0048 6.5563 5.04117 6.46784 5.07458 6.37841C5.11242 6.28995 5.1483 6.20149 5.18122 6.11107C5.33749 5.74349 5.47263 5.36804 5.57436 4.98129C5.65053 4.70118 5.6923 4.39011 5.58517 4.11295C5.50257 3.96843 5.39131 3.84231 5.25821 3.74234C5.12511 3.64237 4.97299 3.57066 4.81118 3.5316C4.46964 3.48344 4.11238 3.50997 3.79394 3.652C3.72171 3.68455 3.65088 3.72012 3.58164 3.75863C3.03076 4.10509 2.55801 4.64319 2.42041 5.29433C2.37176 5.44716 2.39142 5.61129 2.36636 5.76855C2.38061 5.98281 2.39338 6.19903 2.50199 6.39069C2.65334 6.6452 2.87713 6.8488 3.14477 6.97548C3.25534 7.02315 3.36591 7.07278 3.48188 7.1062C3.64553 7.19171 3.79492 7.30129 3.92121 7.43545L3.96937 7.55094C3.99198 7.60745 4.01508 7.66396 4.03916 7.7195C4.1168 8.22615 3.77035 8.70037 3.32021 8.89841C2.90987 9.01734 2.46022 8.99572 2.04841 8.8935C1.96116 8.85237 1.87213 8.81514 1.78156 8.78195C1.69225 8.72575 1.60112 8.67249 1.50833 8.62224C1.08817 8.3377 0.784469 7.92442 0.530403 7.49246C0.479295 7.36469 0.431136 7.23544 0.372166 7.11111C0.227251 6.61827 0.170195 6.10377 0.203608 5.59115C0.274864 5.19211 0.329903 4.78423 0.479787 4.4019C0.537283 4.27856 0.586425 4.15079 0.637533 4.024C0.712721 3.90115 0.788891 3.77731 0.858182 3.65101C0.930912 3.54486 1.00217 3.43872 1.07293 3.3306C1.46287 2.82361 1.93613 2.38658 2.4725 2.03817C2.68272 1.92491 2.89574 1.81693 3.11135 1.71432C3.21946 1.68139 3.32561 1.64454 3.43225 1.60621L3.43127 1.60571ZM57.7707 3.06032C58.0391 2.95418 58.33 2.96351 58.6135 2.98268C58.7855 3.06475 58.933 3.18563 59.0592 3.32716L59.1079 3.44216C59.1295 3.49916 59.1536 3.55666 59.1792 3.61317C59.1949 3.78615 59.1585 3.95422 59.1148 4.12081C59.0754 4.22793 59.0388 4.33608 59.0052 4.44515C58.9151 4.6165 58.8356 4.79326 58.7673 4.97441L58.6769 5.13167C58.899 5.17098 59.1261 5.15919 59.3502 5.17393C59.4067 5.19752 59.4642 5.21963 59.5232 5.23978C59.6691 5.33364 59.8298 5.43782 59.877 5.61818C59.9767 5.84226 59.9163 6.09141 59.8632 6.31943C59.7305 6.62461 59.4406 6.7966 59.1477 6.92143C58.7595 7.01676 58.359 6.97892 57.9629 6.98531L57.9432 7.10669C57.8986 7.19487 57.8592 7.28561 57.8253 7.37845C57.787 7.4669 57.7516 7.55536 57.7191 7.64529C57.6808 7.73375 57.6454 7.8222 57.6125 7.91213C57.5742 8.00059 57.5388 8.08954 57.5059 8.17897C57.4675 8.26743 57.4317 8.35638 57.3992 8.44631C57.3609 8.53427 57.325 8.62322 57.2926 8.71364C57.2538 8.8011 57.2183 8.88995 57.1859 8.97999C57.1471 9.06796 57.1113 9.1569 57.0783 9.24634C57.038 9.33765 57.0029 9.43117 56.9732 9.52645C56.9555 9.54464 56.9196 9.58002 56.9024 9.5982C57.3673 9.61786 57.8381 9.55594 58.2946 9.66356C58.4037 9.7186 58.5133 9.77364 58.6224 9.82966C58.6823 9.92401 58.7438 10.0174 58.8042 10.1112C58.8037 10.326 58.8435 10.553 58.7551 10.756C58.7123 10.8705 58.6381 10.9693 58.5732 11.071C58.4332 11.1737 58.2931 11.2764 58.1359 11.3521C57.6857 11.4725 57.2149 11.4115 56.755 11.4268C56.2911 11.4096 55.8168 11.4759 55.3642 11.3521C55.0827 11.2297 54.8369 11.0317 54.7048 10.7491C54.6767 10.526 54.5903 10.298 54.6782 10.0759C54.7234 9.82622 54.8296 9.5982 54.9274 9.36625C54.9647 9.27829 55.0001 9.18934 55.033 9.09941C55.0709 9.01095 55.1067 8.9225 55.1402 8.83257C55.1775 8.74411 55.2134 8.65565 55.2463 8.56572C55.2841 8.47727 55.32 8.38881 55.3529 8.29888C55.3913 8.21043 55.4267 8.12197 55.4596 8.03204C55.607 7.68559 55.7304 7.32832 55.8891 6.98629C55.5323 7.00939 55.0989 6.93322 54.9205 6.58333C54.8959 6.44426 54.834 6.30813 54.8596 6.16562C54.8802 6.05603 54.9067 5.94743 54.9185 5.83686C55.0497 5.55429 55.295 5.35428 55.578 5.23388C55.8866 5.13904 56.21 5.16656 56.5279 5.15181C56.7073 5.08105 56.7048 4.82453 56.7943 4.66924C56.8321 4.58177 56.868 4.49233 56.9009 4.4024C56.9388 4.31394 56.9751 4.22548 57.0085 4.13555C57.0464 4.0471 57.0823 3.95766 57.1137 3.86625C57.1658 3.75814 57.2194 3.65101 57.2724 3.54388C57.4233 3.36795 57.5874 3.20284 57.7707 3.06032ZM16.506 5.06778C16.766 5.04223 17.0269 5.05894 17.2874 5.0668C17.5125 5.14543 17.738 5.22455 17.9449 5.34544C18.1592 5.53512 18.3612 5.74201 18.4958 5.99804C18.5582 6.24326 18.6368 6.49192 18.6118 6.74795C18.5759 7.03888 18.4791 7.31702 18.3833 7.59271C18.0933 8.25318 17.8344 8.9279 17.5724 9.60017C18.0525 9.61442 18.5386 9.5579 19.0103 9.66258C19.1829 9.73887 19.3356 9.85389 19.4565 9.99871C19.5676 10.2729 19.5204 10.5717 19.4438 10.8479C19.3052 11.0218 19.146 11.1796 18.9543 11.2941C18.8425 11.3272 18.7326 11.3662 18.6251 11.4111C17.7798 11.4361 16.9326 11.4351 16.0869 11.412C15.908 11.3172 15.7168 11.2366 15.5664 11.0985C15.4573 10.9786 15.3856 10.8317 15.3094 10.6906C15.3038 10.5741 15.287 10.4585 15.2593 10.3452C15.2932 10.2341 15.3035 10.1181 15.3094 10.0031L15.3424 9.9535C15.3669 9.86357 15.3964 9.7756 15.4229 9.68666C15.5016 9.51122 15.5718 9.33185 15.6402 9.15248C15.6785 9.06452 15.7149 8.97557 15.7473 8.88564C15.7861 8.79768 15.8215 8.70873 15.8544 8.6188C15.8927 8.53133 15.9291 8.44287 15.9615 8.35343C15.9994 8.26448 16.0353 8.17553 16.0687 8.0856C16.1065 7.99715 16.1424 7.90869 16.1758 7.81925C16.2911 7.60188 16.3406 7.35566 16.3183 7.11062C16.2331 7.02197 16.1362 6.94526 16.0303 6.8826C15.9566 6.8772 15.8829 6.87081 15.8097 6.86295C15.3699 6.82609 15.0323 7.15583 14.7974 7.48705C14.7354 7.58878 14.6784 7.69345 14.6224 7.79861C14.2032 8.74804 13.8435 9.72253 13.4514 10.6842C13.3826 10.7924 13.3157 10.9024 13.2563 11.016C13.0774 11.2282 12.8661 11.4125 12.6041 11.5123C12.5083 11.5241 12.4145 11.5423 12.3216 11.5649C12.183 11.6027 12.0498 11.5295 11.9137 11.5138C11.7435 11.4374 11.5936 11.3223 11.4758 11.1776C11.4591 11.1481 11.4247 11.0897 11.4085 11.0602C11.3644 10.757 11.4059 10.4476 11.5284 10.1668C11.5677 10.0793 11.6051 9.98986 11.638 9.89993C11.6759 9.81148 11.7117 9.72302 11.7442 9.63309C11.782 9.54463 11.8179 9.45618 11.8508 9.36625C11.8886 9.27779 11.9245 9.18934 11.9574 9.09941C11.9958 9.01095 12.0312 8.9225 12.0641 8.83257C12.1024 8.74411 12.1378 8.65565 12.1707 8.56572C12.209 8.47727 12.2444 8.38881 12.2769 8.29888C12.5987 7.49786 12.9236 6.69783 13.2366 5.89337C13.272 5.82261 13.3069 5.75135 13.3428 5.68058C13.4867 5.44814 13.7049 5.28597 13.9502 5.17245C14.2317 5.16115 14.5251 5.12331 14.7929 5.23388C14.9689 5.34052 15.106 5.49286 15.2116 5.66781C15.2868 5.61375 15.364 5.56215 15.4397 5.50908C15.5861 5.42849 15.7266 5.33806 15.8736 5.25796C16.0805 5.18327 16.2888 5.10808 16.506 5.06778ZM22.6523 5.12823C23.07 5.03338 23.5 5.05009 23.925 5.06434C24.1609 5.09137 24.3899 5.16115 24.6145 5.23585C24.8435 5.33856 25.0528 5.47664 25.2597 5.61719C25.3875 5.74103 25.5138 5.86732 25.6381 5.99559C25.7074 6.10566 25.7806 6.21378 25.8549 6.32091C25.9099 6.42853 25.9639 6.53615 26.0195 6.64279C26.0907 6.86983 26.1443 7.10227 26.1866 7.33618C26.2003 7.54799 26.1915 7.76077 26.1934 7.97307C26.2082 8.24335 26.1015 8.49791 26.074 8.76377C26.0155 8.92348 25.961 9.08614 25.9104 9.24929C25.6455 9.85571 25.2843 10.4272 24.7786 10.8612C24.4828 11.0754 24.1614 11.2533 23.8081 11.3526C23.1928 11.4617 22.5643 11.4214 21.9417 11.4155C21.5141 11.3708 21.0674 11.2946 20.719 11.0228C20.3924 10.7422 20.1334 10.3914 19.9612 9.99674C19.944 9.94182 19.9257 9.88726 19.9062 9.8331C19.7121 9.12103 19.7519 8.36473 19.9602 7.66101C20.0015 7.57256 20.0379 7.48116 20.0688 7.38877C20.1372 7.2438 20.2089 7.10129 20.2836 6.95976C20.5902 6.45654 21.0011 6.02605 21.4699 5.67125L21.6345 5.56068C21.809 5.46534 21.9869 5.37689 22.1653 5.28991C22.3284 5.2388 22.4911 5.18572 22.6523 5.12823ZM28.6314 5.36755C28.9685 5.22798 29.3145 5.08744 29.682 5.06238C30.1135 5.05058 30.5553 5.02306 30.9661 5.18081C31.291 5.32086 31.5932 5.51596 31.831 5.78083C32.2193 6.2929 32.3244 6.97794 32.1578 7.59123C32.1165 7.67871 32.0792 7.76716 32.0463 7.85709C32.0084 7.91325 31.9719 7.97027 31.9367 8.02811C31.8649 8.10231 31.7917 8.17553 31.7195 8.24925C31.6458 8.28659 31.573 8.32493 31.5003 8.36375C31.1494 8.50135 30.7106 8.43746 30.4668 8.13376C30.3538 7.90181 30.4221 7.63792 30.3799 7.3927C30.3631 7.29689 30.3532 7.19999 30.3504 7.10276C30.2816 6.9745 30.1774 6.84575 30.0236 6.82756C29.8201 6.82265 29.599 6.79316 29.4201 6.91602C29.166 7.03593 28.9936 7.26198 28.8378 7.48705C28.7936 7.55585 28.7523 7.62465 28.7105 7.69394C28.6225 7.88068 28.5424 8.07627 28.5311 8.28463C28.4471 8.61634 28.5026 8.99375 28.7115 9.26895C28.9356 9.50287 29.2786 9.54365 29.5818 9.59624C30.2762 9.60803 30.972 9.59525 31.6669 9.60164C31.8458 9.6213 32.0207 9.67093 32.1947 9.71712C32.2905 9.7874 32.3858 9.85964 32.4748 9.94023C32.4895 9.96972 32.519 10.0302 32.5333 10.0606C32.547 10.1663 32.5721 10.2705 32.5922 10.3756C32.565 10.5348 32.5276 10.692 32.4802 10.8464C32.4188 10.9191 32.3613 10.9938 32.3057 11.071C32.2308 11.1248 32.1574 11.1806 32.0856 11.2386L31.9804 11.2961C31.7858 11.3614 31.5902 11.4381 31.3809 11.4228C30.3769 11.4224 29.3729 11.4435 28.3699 11.4096C28.2977 11.3836 28.2238 11.3623 28.1488 11.3457C28.0434 11.2997 27.9364 11.2576 27.8279 11.2194C27.6775 11.1252 27.5326 11.0225 27.394 10.9118C27.2407 10.7899 27.1409 10.6184 27.0087 10.4774C26.914 10.3013 26.8236 10.123 26.7374 9.94269C26.4519 9.09498 26.532 8.16374 26.846 7.33569C26.9168 7.1922 26.9871 7.0487 27.0633 6.90816C27.1217 6.82167 27.1738 6.73223 27.2254 6.64181C27.529 6.22982 27.893 5.866 28.3051 5.56264C28.4157 5.50122 28.5238 5.43487 28.6314 5.36755ZM43.0875 5.06926C43.6419 5.03977 44.2129 5.02257 44.7377 5.23634C45.2732 5.47268 45.7196 5.87315 46.0125 6.37988C46.0356 6.43197 46.0597 6.48406 46.0837 6.53615C46.1162 6.62805 46.153 6.71847 46.1953 6.80742C46.413 7.55438 46.3314 8.3549 46.0872 9.08614C46.0459 9.1741 46.0086 9.26404 45.9786 9.35642C45.8936 9.53727 45.8046 9.71516 45.7112 9.8906C45.4223 10.3624 45.0508 10.7865 44.5775 11.0798L44.2566 11.2415C44.1456 11.2749 44.0355 11.3118 43.9274 11.3531C43.3156 11.4612 42.69 11.4204 42.0708 11.4165C41.8939 11.4253 41.7268 11.3521 41.5499 11.3536C41.3764 11.2882 41.1926 11.2454 41.0339 11.1486C40.7341 10.9698 40.5051 10.6995 40.2987 10.4243C40.224 10.2828 40.1528 10.1402 40.081 9.99773C39.8609 9.37018 39.8643 8.68956 39.9734 8.04187C39.997 7.96815 40.0142 7.89346 40.0319 7.81876C40.0687 7.71212 40.1036 7.60499 40.137 7.49688C40.2402 7.28115 40.3449 7.06689 40.4599 6.85705L40.572 6.69488C40.6275 6.62362 40.6815 6.55089 40.7322 6.4762C41.0005 6.1897 41.2698 5.89828 41.5921 5.67125C41.6472 5.63537 41.7007 5.59852 41.7553 5.56019C42.1662 5.31764 42.6175 5.15132 43.0875 5.06926ZM48.8023 5.12774C49.1311 5.0211 49.5473 4.9867 49.8205 5.2383C49.9498 5.3415 50.0294 5.48795 50.1041 5.63144C50.1164 5.86045 50.1095 6.08994 50.0377 6.3096C49.9586 6.48553 49.8873 6.6649 49.82 6.84525C49.7807 6.93273 49.7448 7.02217 49.7129 7.1121C49.674 7.1996 49.6386 7.28862 49.6067 7.37894C49.5325 7.55585 49.4598 7.73325 49.393 7.91262C49.3542 8.0001 49.3178 8.08953 49.2858 8.17946C49.2465 8.26792 49.2116 8.35687 49.1807 8.44827C49.1546 8.50479 49.1296 8.56179 49.1045 8.6188L49.0549 8.76917C49.0372 8.82225 49.0205 8.87581 49.0023 8.92839C48.9826 8.98147 48.962 9.03405 48.9414 9.08712C48.8952 9.22472 48.8824 9.37264 48.963 9.50188C49.0922 9.62228 49.2726 9.60262 49.4362 9.60262C49.6824 9.61589 49.9198 9.52498 50.137 9.41637C50.3827 9.25224 50.5753 9.0139 50.6579 8.72789C50.6952 8.63944 50.7306 8.55 50.764 8.46007C50.8014 8.37161 50.8368 8.28315 50.8707 8.19322C50.908 8.10477 50.9439 8.01582 50.9773 7.92589C51.0147 7.83793 51.0505 7.74898 51.084 7.65905C51.1213 7.57109 51.1577 7.48214 51.1911 7.39221C51.2284 7.30375 51.2638 7.2153 51.2977 7.12487C51.3346 7.03642 51.3709 6.94796 51.4039 6.85852C51.4412 6.77007 51.4781 6.68161 51.511 6.59168C51.5489 6.50294 51.5838 6.41296 51.6157 6.32189C51.6987 6.14056 51.7862 5.96119 51.883 5.78722C51.9204 5.73218 51.9567 5.67665 51.9931 5.62063C52.1572 5.42799 52.368 5.2845 52.5936 5.17245C52.8025 5.15771 53.0128 5.15476 53.2221 5.17147C53.3932 5.25403 53.5406 5.37443 53.6669 5.51547L53.716 5.62997C53.7376 5.68648 53.7617 5.743 53.7868 5.79902C53.8172 6.14596 53.659 6.46735 53.5583 6.79169C53.518 6.87867 53.4811 6.96811 53.4482 7.05804C53.4104 7.1465 53.3745 7.23495 53.342 7.32488C53.3036 7.41265 53.268 7.50164 53.2354 7.59172C53.1966 7.68018 53.1612 7.76864 53.1278 7.85808C53.0899 7.94653 53.0541 8.03548 53.0211 8.12541C52.9828 8.21337 52.9474 8.30232 52.916 8.39323C52.7381 8.78932 52.5818 9.19425 52.428 9.60017C52.9636 9.61245 53.5106 9.54758 54.0295 9.71614C54.1288 9.81246 54.2458 9.90092 54.2998 10.0341C54.3298 10.1348 54.3391 10.2415 54.3671 10.3437C54.3293 10.5122 54.3151 10.6852 54.259 10.8489C54.1608 11.0078 54.0269 11.1415 53.8679 11.2395C53.7942 11.2759 53.7209 11.3123 53.6487 11.3501C53.3042 11.4543 52.941 11.4204 52.5862 11.4268C52.1081 11.4229 51.6294 11.4371 51.1518 11.413C50.9513 11.3231 50.7852 11.1791 50.6432 11.014L50.6294 10.9216C50.5193 11.0312 50.4058 11.1368 50.2903 11.2405C50.2177 11.2751 50.1452 11.3101 50.0731 11.3457C50.0164 11.3657 49.9604 11.3875 49.905 11.4111C49.2381 11.436 48.5704 11.4358 47.9035 11.4106C47.8471 11.388 47.7901 11.367 47.7325 11.3477C47.5172 11.2504 47.3015 11.1398 47.1349 10.9688C46.9619 10.8017 46.8558 10.584 46.7531 10.3702C46.6759 10.1112 46.6774 9.84096 46.6936 9.57314C46.7447 9.32055 46.8332 9.0768 46.9177 8.83306C46.9575 8.74558 46.9939 8.65615 47.0268 8.56622C47.0651 8.47776 47.1005 8.3893 47.1334 8.29937C47.1713 8.21092 47.2071 8.12246 47.2405 8.03253C47.2779 7.94408 47.3143 7.85562 47.3472 7.7652C47.385 7.67723 47.4209 7.58829 47.4538 7.49836C47.4917 7.41039 47.5275 7.32144 47.561 7.23151C47.5988 7.14355 47.6347 7.0546 47.6676 6.96467C47.7054 6.87621 47.7413 6.78776 47.7742 6.69783C47.8116 6.60937 47.8479 6.52092 47.8814 6.43148C47.9187 6.34253 47.9551 6.25309 47.9855 6.1612C48.0543 6.01721 48.1261 5.8747 48.1978 5.73218C48.3538 5.48979 48.5599 5.28367 48.8023 5.12774ZM22.637 7.0659C22.8277 6.93322 23.0508 6.85557 23.2803 6.82805C23.4095 6.82511 23.5319 6.87572 23.6592 6.88801C23.8734 6.99121 24.0454 7.16812 24.1545 7.37796C24.3152 7.93769 24.1963 8.56228 23.8666 9.03945C23.7399 9.2426 23.5604 9.4074 23.3471 9.51613C22.9813 9.66384 22.5726 9.66489 22.206 9.51908C22.0621 9.41588 21.9092 9.3004 21.8483 9.12644C21.7092 8.70676 21.7937 8.24482 21.9849 7.85414C22.1387 7.54602 22.3535 7.26444 22.637 7.0659ZM42.9637 6.94059C43.1839 6.87081 43.4222 6.77842 43.6527 6.86491C43.9411 6.90717 44.1525 7.14207 44.2797 7.38877C44.4075 7.82761 44.35 8.30379 44.1682 8.71905C44.1284 8.79276 44.0866 8.86647 44.0429 8.93822C44.007 8.99129 43.9726 9.04388 43.9377 9.09744C43.833 9.25716 43.6944 9.3923 43.5288 9.48763C43.3401 9.5923 43.1264 9.60705 42.917 9.63604C42.5927 9.61245 42.2005 9.55791 42.0275 9.24094C41.7858 8.80603 41.9071 8.27529 42.1091 7.84923C42.2993 7.47378 42.5804 7.12979 42.9637 6.94059ZM60.4868 9.50729C60.7547 9.33775 61.0677 9.30581 61.3778 9.33726C61.4358 9.35986 61.4952 9.38148 61.5557 9.40114C61.8038 9.524 62.0112 9.71565 62.1557 9.95153C62.2903 10.2528 62.3193 10.5899 62.2107 10.9044C62.1724 10.9766 62.1355 11.0504 62.1002 11.1241C61.9793 11.2607 61.8486 11.388 61.7149 11.5113C61.3886 11.6794 60.9925 11.6833 60.65 11.5659L60.5428 11.5059C60.3998 11.4151 60.2765 11.2965 60.1803 11.157C60.0841 11.0175 60.0171 10.8601 59.9831 10.6941C59.9733 10.5403 59.9802 10.3855 59.9831 10.2312C60.0062 10.1741 60.0283 10.1162 60.05 10.0587C60.0844 9.98544 60.1202 9.9132 60.1551 9.84047C60.2632 9.72745 60.3743 9.61638 60.4868 9.50729Z" fill="#E42E16"/>
</svg>
