<svg width="96" height="24" viewBox="0 0 96 24" fill="none" xmlns="http://www.w3.org/2000/svg">
<g clip-path="url(#clip0_2_107)">
<path fill-rule="evenodd" clip-rule="evenodd" d="M55.5857 1.4842C55.871 0.981481 56.3081 0.552469 56.8787 0.393249C57.1366 0.388089 57.3938 0.389565 57.6525 0.391039C58.0021 0.551734 58.3098 0.803832 58.5002 1.1407C58.6506 1.47905 58.5691 1.83286 58.4921 2.17638C58.3957 2.38545 58.3128 2.60038 58.2437 2.81989C58.1829 2.9511 58.1282 3.08526 58.08 3.22089C58.0207 3.35284 57.9673 3.48625 57.9184 3.62115C57.8601 3.75291 57.8066 3.88665 57.7577 4.02216C57.6998 4.1541 57.6464 4.28753 57.5961 4.42315C57.5391 4.55511 57.4849 4.68852 57.4353 4.82341C57.3782 4.95611 57.3242 5.08878 57.2738 5.22367C57.2167 5.35637 57.1625 5.48906 57.1137 5.62395C57.0558 5.75559 57.0021 5.88909 56.9529 6.02421C56.8949 6.15585 56.8413 6.28935 56.792 6.42447C56.7343 6.55716 56.6801 6.68984 56.6313 6.82473C56.5731 6.95637 56.5192 7.08987 56.4698 7.22501C56.4119 7.35768 56.3586 7.49037 56.3089 7.626C56.2519 7.75794 56.1977 7.89137 56.1481 8.02626C56.0904 8.1582 56.0362 8.29162 55.9872 8.42727C55.9289 8.55846 55.8752 8.69172 55.8265 8.8268C55.7687 8.95874 55.7138 9.09216 55.665 9.22705C55.6078 9.35973 55.5539 9.49242 55.5048 9.62805C55.4097 9.84123 55.3259 10.0592 55.2536 10.2812C56.2689 9.52338 57.2663 8.73834 58.3111 8.02183C58.4186 7.96508 58.5275 7.90905 58.635 7.85156C58.9907 7.70634 59.379 7.73362 59.7539 7.75868C60.0193 7.9098 60.2713 8.0904 60.4269 8.36019C60.5222 8.60585 60.5524 8.87174 60.5145 9.13236C60.4768 9.39297 60.3723 9.63957 60.2113 9.84846C60.0074 10.1013 59.7615 10.3143 59.5169 10.5266C59.4035 10.6018 59.2946 10.6814 59.1886 10.7669C58.6343 11.1458 58.1036 11.5586 57.5673 11.9611L57.8361 12.3628C57.8887 12.4446 57.9421 12.5265 57.9978 12.6083C58.1201 12.8287 58.2571 13.0388 58.4001 13.2474C58.5705 13.5525 58.7698 13.84 58.9648 14.1297C59.0404 14.2631 59.1174 14.3958 59.2011 14.5256C59.2567 14.6067 59.3124 14.6877 59.3709 14.7688C59.528 15.0577 59.6933 15.3453 59.7859 15.663C59.8444 15.8973 59.7437 16.1274 59.6999 16.3559C59.4568 16.7385 59.1367 17.0886 58.7106 17.27C58.4171 17.3658 58.1214 17.379 57.8302 17.2677C57.6517 17.1425 57.4643 17.0186 57.3486 16.8291L56.1273 14.9988L55.9658 14.7577C55.9124 14.6767 55.8591 14.5963 55.8051 14.5167C55.7509 14.4356 55.6983 14.3553 55.6442 14.2764C55.59 14.1953 55.5353 14.1135 55.4812 14.0346C55.1396 13.4457 54.7216 12.9068 54.374 12.3223L54.4015 12.4255C54.3296 12.5559 54.268 12.6916 54.2148 12.8302C54.1584 12.9628 54.105 13.097 54.0577 13.2319C53.9984 13.3631 53.9443 13.4973 53.8962 13.6322C53.838 13.7636 53.7846 13.8971 53.736 14.0324C53.6768 14.1636 53.6226 14.2978 53.5753 14.4327C53.2885 15.1071 53.0588 15.8075 52.6912 16.4451C52.3881 16.779 52.0835 17.1542 51.6242 17.27C51.4203 17.2965 51.2194 17.4056 51.0119 17.3481C50.848 17.3092 50.6823 17.278 50.5155 17.2545C50.2732 17.0459 49.9841 16.8461 49.8893 16.5246C49.6878 16.0736 49.9582 15.6054 50.0828 15.1728C50.142 15.0401 50.1984 14.9074 50.2488 14.7725C50.3043 14.6398 50.3592 14.5071 50.408 14.3722C50.4644 14.2396 50.5199 14.1069 50.5704 13.972C50.6259 13.8393 50.6816 13.7066 50.7312 13.5717C50.7874 13.439 50.8416 13.3056 50.8919 13.17C50.9491 13.0388 51.0024 12.9046 51.0521 12.7704C51.1091 12.6385 51.1632 12.5051 51.2128 12.3702C51.2692 12.2375 51.3239 12.1048 51.3743 11.9692C51.4315 11.838 51.4856 11.7038 51.5352 11.5689C51.5922 11.4377 51.6463 11.3035 51.6959 11.1687C51.7531 11.0374 51.8071 10.9033 51.8568 10.7691C51.9138 10.6365 51.968 10.5038 52.0183 10.3681C52.0746 10.2354 52.1295 10.1028 52.1791 9.96787C52.2362 9.83519 52.2902 9.70251 52.34 9.56761C52.397 9.43493 52.4511 9.30223 52.5007 9.16734C52.5577 9.03467 52.6119 8.90198 52.6622 8.76635C52.7194 8.63439 52.7735 8.50098 52.8224 8.36609C52.8801 8.23413 52.9335 8.10072 52.9831 7.96581C53.0403 7.83387 53.0943 7.70045 53.144 7.56482C53.201 7.43361 53.2559 7.29945 53.3048 7.16456C53.3625 7.03335 53.4159 6.89919 53.4663 6.7643C53.5234 6.63308 53.5774 6.49892 53.6272 6.36402C53.6842 6.23282 53.7383 6.09866 53.7879 5.96376C53.8449 5.83256 53.899 5.6984 53.9481 5.5635C54.0592 5.29814 54.1688 5.03128 54.2703 4.76223C54.3282 4.63029 54.3814 4.49686 54.4319 4.36197C54.4889 4.23003 54.5431 4.09661 54.5927 3.96171C54.6497 3.82902 54.7038 3.69635 54.7527 3.56145C54.8106 3.42876 54.8646 3.29608 54.9143 3.16119C54.9713 3.0285 55.0255 2.89581 55.0751 2.76091C55.1321 2.62971 55.1862 2.49555 55.2352 2.36065C55.3574 2.07096 55.4753 1.77906 55.5857 1.4842ZM5.67414 2.40856C6.60191 2.09086 7.59415 2.11371 8.5612 2.16015C8.71904 2.19186 8.87466 2.2324 9.03546 2.24787C9.569 2.40783 10.0877 2.61423 10.5694 2.89507C11.1763 3.33588 11.7217 3.87105 12.093 4.52635C12.1826 4.76592 12.2804 5.00254 12.3723 5.24137C12.5035 5.79128 12.4857 6.35739 12.4694 6.91834C12.416 7.54417 12.2263 8.14641 12.0455 8.74424C11.9504 8.95312 11.8687 9.1678 11.801 9.38701C11.6735 9.63764 11.5861 9.90669 11.4453 10.1514C11.6943 9.82633 12.0085 9.5595 12.2834 9.25653C12.7317 8.71917 13.2549 8.25108 13.7306 7.73804C14.2901 7.06872 14.9645 6.50334 15.5195 5.82887C16.5259 4.84995 17.4276 3.77227 18.4628 2.82136C18.6296 2.71522 18.7941 2.60686 18.9586 2.49628C19.3714 2.26483 19.8464 2.27367 20.3058 2.31348C20.6659 2.49039 21.0209 2.75059 21.1654 3.13833C21.2988 3.44056 21.2396 3.77595 21.2396 4.09513C21.1195 4.31037 21.0135 4.53298 20.8942 4.74823C20.8369 4.82941 20.7814 4.91175 20.7275 4.99516C20.3933 5.3313 20.1124 5.71609 19.7642 6.04042C19.3691 6.44953 18.9505 6.83948 18.5882 7.27881C18.0435 7.85672 17.4528 8.39262 16.9415 9.00075C16.5325 9.42165 16.1138 9.83223 15.71 10.2583C15.2779 10.778 14.774 11.2328 14.3094 11.723L14.4591 12.0473C14.5539 12.3459 14.6503 12.6444 14.7785 12.9311C14.8792 13.226 14.9711 13.526 15.1008 13.812C15.2016 14.1069 15.2935 14.4069 15.4224 14.6929C15.5232 14.9877 15.6151 15.2877 15.7448 15.5723C15.8455 15.8687 15.9375 16.1679 16.0664 16.4532C16.1664 16.7479 16.2605 17.0473 16.3879 17.3333C16.4591 17.5522 16.5333 17.7726 16.637 17.9813L16.6719 18.1264C16.7667 18.3675 16.8438 18.6159 16.9445 18.8554C16.989 18.9632 17.0401 19.0692 17.0927 19.1739C17.3521 19.5705 17.8441 19.7584 18.3044 19.7658L89.7029 19.765C89.9178 19.7622 90.123 19.8432 90.3371 19.8609C90.5054 19.9457 90.6743 20.0304 90.8447 20.1108C90.9819 20.2626 91.0863 20.4374 91.1871 20.615C91.1989 20.9246 91.2004 21.2357 91.1826 21.546C91.1464 21.6297 91.1133 21.7149 91.0834 21.801C90.8871 22.1453 90.5942 22.4224 90.2565 22.6281C89.9155 22.7305 89.5791 22.8787 89.2197 22.8891H17.0935C16.8023 22.8987 16.5251 22.7859 16.2331 22.7976C15.9352 22.6857 15.6166 22.6119 15.3513 22.4276C15.0089 22.2271 14.814 21.8703 14.5865 21.5607C14.4902 21.3692 14.3924 21.1797 14.299 20.9872C14.2382 20.8256 14.1704 20.6664 14.096 20.5104C14.0886 20.4735 14.0708 20.402 14.0626 20.3658C13.8885 19.9089 13.7284 19.4452 13.5417 18.9918C13.4394 18.6948 13.3498 18.3925 13.2112 18.1087L13.1763 17.965C13.0808 17.7218 13.0059 17.4711 12.8977 17.2338C12.8291 17.0152 12.7484 16.8008 12.6561 16.5911C12.5554 16.2962 12.4635 15.9962 12.333 15.7108C12.233 15.4159 12.1396 15.1167 12.0122 14.8322C11.9444 14.6111 11.861 14.3951 11.7625 14.1857L11.7269 14.0405C11.632 13.7973 11.5572 13.5466 11.449 13.31C11.3805 13.0912 11.2996 12.8763 11.2067 12.6665C11.0953 12.3179 10.968 11.9745 10.8251 11.6375C10.8073 11.7407 10.7873 11.8439 10.7673 11.9471C10.6991 12.0775 10.6413 12.2124 10.5894 12.3495C10.5338 12.4822 10.4797 12.6149 10.4308 12.7498C10.3738 12.8818 10.3189 13.0152 10.2685 13.1493C10.2115 13.282 10.1574 13.4154 10.1077 13.5503C10.0507 13.6823 9.99658 13.8157 9.94618 13.9506C9.88912 14.0825 9.83503 14.216 9.78687 14.3523C9.63791 14.6664 9.50972 14.9885 9.38671 15.3127C9.32743 15.4455 9.27406 15.5782 9.22516 15.7131C9.16662 15.8451 9.11178 15.9784 9.06288 16.114C9.00508 16.2453 8.95173 16.3794 8.90207 16.5144C8.84373 16.6456 8.78985 16.779 8.74052 16.9138C8.68199 17.0459 8.62864 17.1792 8.57898 17.3134C8.52118 17.4461 8.46783 17.5788 8.41817 17.7151C8.35 17.8699 8.28849 18.0283 8.2255 18.1861L8.06989 18.5104C7.81572 18.9204 7.52819 19.3206 7.11099 19.5808L6.95241 19.6693C6.6397 19.7519 6.32476 19.8912 5.99426 19.8389C5.85717 19.81 5.72378 19.7725 5.58595 19.7503C5.34302 19.6187 5.12185 19.4505 4.93013 19.252C4.87086 19.137 4.81009 19.0229 4.74636 18.91C4.67077 18.3668 4.77896 17.8257 5.00942 17.3319C5.06722 17.2006 5.12207 17.0672 5.17245 16.9323C5.23026 16.7996 5.28361 16.667 5.33325 16.5321C5.39105 16.3994 5.44442 16.2666 5.49406 16.131C5.55186 15.9999 5.6067 15.8672 5.6556 15.7316C5.71266 15.5996 5.76751 15.4662 5.81715 15.332C5.87421 15.1994 5.9283 15.0666 5.97869 14.9317C6.03502 14.799 6.08984 14.6664 6.1395 14.5315C6.19656 14.3995 6.25065 14.2661 6.30104 14.1312C6.35737 13.9985 6.4122 13.8658 6.46111 13.7295C6.66785 13.2842 6.84126 12.8243 7.02207 12.368C7.07986 12.236 7.13545 12.1026 7.18436 11.9677C7.24141 11.8358 7.29625 11.7023 7.34516 11.5674C7.40296 11.4362 7.45706 11.3021 7.50596 11.1679C7.5645 11.0352 7.61934 10.9026 7.66825 10.7677C7.72531 10.635 7.77941 10.5023 7.82905 10.3674C7.88611 10.2347 7.94096 10.102 7.9906 9.96714C8.04692 9.83445 8.10176 9.70176 8.15214 9.56761C8.2092 9.43493 8.26331 9.30224 8.31295 9.1666C8.54859 8.61524 8.75238 8.05206 8.90578 7.47193C9.02064 7.05177 9.08362 6.58516 8.92208 6.16943C8.79752 5.95264 8.62975 5.76346 8.42905 5.61351C8.22834 5.46356 7.99895 5.35599 7.75495 5.2974C7.23993 5.22516 6.70121 5.26496 6.22102 5.478C6.1121 5.52682 6.00529 5.58018 5.90088 5.63795C5.07019 6.15764 4.35731 6.96479 4.14982 7.94149C4.07646 8.17074 4.10611 8.41693 4.06832 8.65282C4.08981 8.97421 4.10906 9.29854 4.27284 9.58603C4.50107 9.9678 4.83853 10.2732 5.24211 10.4632C5.40884 10.5347 5.57558 10.6092 5.75045 10.6593C5.99723 10.7876 6.2225 10.9519 6.41293 11.1532L6.48556 11.3264C6.51965 11.4112 6.55448 11.4959 6.59079 11.5793C6.70787 12.3392 6.18545 13.0506 5.50666 13.3476C4.8879 13.526 4.20985 13.4936 3.58887 13.3403C3.4573 13.2786 3.32305 13.2227 3.18648 13.1729C3.0518 13.0886 2.91439 13.0087 2.77446 12.9334C2.14089 12.5065 1.68293 11.8866 1.29981 11.2387C1.22274 11.047 1.15012 10.8532 1.0612 10.6667C0.842679 9.92741 0.756642 9.15565 0.807026 8.38672C0.914476 7.78816 0.997471 7.17634 1.22349 6.60285C1.31019 6.41784 1.38429 6.22619 1.46136 6.036C1.57474 5.85173 1.6896 5.66597 1.79408 5.47651C1.90375 5.31729 2.01121 5.15808 2.11791 4.9959C2.70591 4.23541 3.41956 3.57987 4.22837 3.05726C4.54537 2.88736 4.86659 2.72539 5.19172 2.57148C5.35474 2.52208 5.51481 2.46681 5.67561 2.40931L5.67414 2.40856ZM87.6145 4.59048C88.0193 4.43127 88.4579 4.44527 88.8854 4.47402C89.1448 4.59713 89.3672 4.77844 89.5575 4.99074L89.631 5.16324C89.6635 5.24874 89.6999 5.33499 89.7385 5.41975C89.7621 5.67922 89.7073 5.93133 89.6414 6.18122C89.5819 6.3419 89.5268 6.50412 89.4761 6.66772C89.3402 6.92475 89.2203 7.18989 89.1174 7.46162L88.981 7.6975C89.3159 7.75647 89.6584 7.73879 89.9963 7.7609C90.0815 7.79628 90.1682 7.82944 90.2572 7.85967C90.4772 8.00046 90.7195 8.15673 90.7907 8.42727C90.941 8.76339 90.85 9.13711 90.7699 9.47915C90.5698 9.93691 90.1327 10.1949 89.691 10.3821C89.1056 10.5251 88.5017 10.4684 87.9044 10.478L87.8747 10.66C87.8074 10.7923 87.748 10.9284 87.6969 11.0677C87.6391 11.2003 87.5857 11.333 87.5367 11.4679C87.479 11.6006 87.4256 11.7333 87.376 11.8682C87.3182 12.0009 87.2649 12.1343 87.2152 12.2685C87.1573 12.4011 87.1034 12.5346 87.0543 12.6695C86.9966 12.8014 86.9425 12.9348 86.8936 13.0705C86.8351 13.2017 86.7816 13.3349 86.7327 13.47C86.6742 13.6019 86.6202 13.7353 86.5704 13.8695C86.5097 14.0065 86.4568 14.1468 86.412 14.2897C86.3853 14.317 86.3311 14.37 86.3052 14.3973C87.0062 14.4268 87.7162 14.3339 88.4046 14.4953C88.5691 14.5779 88.7343 14.6605 88.8988 14.7445C88.9892 14.886 89.0819 15.0261 89.173 15.1668C89.1722 15.489 89.2323 15.8295 89.099 16.134C89.0344 16.3057 88.9225 16.454 88.8247 16.6065C88.6136 16.7605 88.4023 16.9146 88.1652 17.0282C87.4864 17.2087 86.7764 17.1173 86.0829 17.1402C85.3834 17.1144 84.6682 17.2139 83.9857 17.0282C83.5612 16.8446 83.1906 16.5476 82.9914 16.1236C82.949 15.789 82.8187 15.447 82.9512 15.1138C83.0194 14.7393 83.1796 14.3973 83.327 14.0494C83.3833 13.9174 83.4367 13.784 83.4863 13.6491C83.5434 13.5164 83.5974 13.3837 83.6479 13.2489C83.7042 13.1162 83.7583 12.9835 83.8079 12.8486C83.8649 12.7159 83.919 12.5832 83.9687 12.4483C84.0266 12.3156 84.0799 12.183 84.1295 12.0481C84.3518 11.5284 84.5379 10.9925 84.7772 10.4794C84.2392 10.5141 83.5856 10.3998 83.3166 9.875C83.2795 9.66639 83.1862 9.46219 83.2248 9.24843C83.2559 9.08404 83.2958 8.92115 83.3136 8.75529C83.5115 8.33144 83.8813 8.03142 84.3081 7.85082C84.7734 7.70856 85.2611 7.74984 85.7405 7.72772C86.011 7.62158 86.0072 7.23679 86.1422 7.00386C86.1992 6.87265 86.2533 6.73849 86.3029 6.6036C86.3601 6.47091 86.4148 6.33822 86.4652 6.20333C86.5223 6.07065 86.5765 5.93649 86.6238 5.79938C86.7024 5.63721 86.7832 5.47651 86.8631 5.31582C87.0907 5.05193 87.3381 4.80426 87.6145 4.59048ZM25.39 7.60167C25.7821 7.56334 26.1755 7.58841 26.5683 7.6002C26.9077 7.71815 27.2478 7.83682 27.5598 8.01816C27.8829 8.30268 28.1875 8.61302 28.3905 8.99706C28.4846 9.36489 28.6031 9.73788 28.5654 10.1219C28.5113 10.5583 28.3653 10.9755 28.2208 11.3891C27.7835 12.3798 27.3931 13.3919 26.9981 14.4003C27.722 14.4216 28.455 14.3368 29.1663 14.4939C29.4266 14.6083 29.6569 14.7808 29.8392 14.9981C30.0067 15.4093 29.9355 15.8576 29.82 16.2719C29.611 16.5327 29.371 16.7694 29.0819 16.9412C28.9133 16.9908 28.7476 17.0493 28.5855 17.1166C27.3108 17.1542 26.0333 17.1526 24.758 17.118C24.4883 16.9758 24.1999 16.8549 23.9731 16.6478C23.8086 16.4679 23.7005 16.2476 23.5856 16.0359C23.5772 15.8612 23.5518 15.6877 23.5101 15.5178C23.5612 15.3511 23.5767 15.1772 23.5856 15.0047L23.6354 14.9303C23.6723 14.7954 23.7168 14.6634 23.7568 14.53C23.8754 14.2668 23.9813 13.9978 24.0844 13.7287C24.1422 13.5968 24.1971 13.4634 24.2459 13.3285C24.3044 13.1965 24.3578 13.0631 24.4074 12.9282C24.4652 12.797 24.5201 12.6643 24.5689 12.5301C24.6261 12.3967 24.6802 12.2633 24.7306 12.1284C24.7876 11.9957 24.8417 11.863 24.8921 11.7289C25.0659 11.4028 25.1406 11.0335 25.107 10.6659C24.9785 10.533 24.8324 10.4179 24.6727 10.3239C24.5615 10.3158 24.4504 10.3062 24.34 10.2944C23.6768 10.2391 23.1678 10.7337 22.8135 11.2306C22.72 11.3832 22.6341 11.5402 22.5497 11.6979C21.9175 13.1221 21.3751 14.5838 20.7839 16.0263C20.6801 16.1886 20.5792 16.3536 20.4897 16.524C20.2199 16.8423 19.9013 17.1187 19.5062 17.2684C19.3617 17.2861 19.2203 17.3134 19.0802 17.3474C18.8712 17.4041 18.6703 17.2942 18.4651 17.2707C18.2085 17.1561 17.9824 16.9834 17.8048 16.7664C17.7796 16.7222 17.7277 16.6346 17.7033 16.5903C17.6368 16.1355 17.6994 15.6714 17.8841 15.2502C17.9434 15.1189 17.9998 14.9848 18.0494 14.8499C18.1065 14.7172 18.1605 14.5845 18.2095 14.4496C18.2665 14.3169 18.3206 14.1843 18.3703 14.0494C18.4273 13.9167 18.4814 13.784 18.531 13.6491C18.5889 13.5164 18.6423 13.3837 18.6919 13.2489C18.7496 13.1162 18.803 12.9835 18.8526 12.8486C18.9104 12.7159 18.9638 12.5832 19.0128 12.4483C19.498 11.2468 19.988 10.0467 20.46 8.84006C20.5133 8.73392 20.566 8.62703 20.6201 8.52087C20.8371 8.17221 21.1661 7.92896 21.536 7.75868C21.9605 7.74172 22.4029 7.68497 22.8068 7.85082C23.0721 8.01078 23.2789 8.23929 23.4381 8.50171C23.5515 8.42062 23.6679 8.34323 23.7821 8.26362C24.0028 8.14274 24.2147 8.00709 24.4364 7.88694C24.7484 7.7749 25.0625 7.66212 25.39 7.60167ZM34.6582 7.69235C35.2881 7.55007 35.9365 7.57514 36.5774 7.59651C36.9331 7.63706 37.2784 7.74172 37.6171 7.85378C37.9624 8.00784 38.278 8.21496 38.59 8.42579C38.7827 8.61154 38.9732 8.80098 39.1606 8.99339C39.2651 9.15849 39.3755 9.32067 39.4875 9.48137C39.5705 9.64279 39.6519 9.80422 39.7358 9.96418C39.8431 10.3047 39.9239 10.6534 39.9877 11.0043C40.0084 11.322 39.9951 11.6412 39.998 11.9596C40.0203 12.365 39.8594 12.7469 39.8179 13.1457C39.7297 13.3852 39.6475 13.6292 39.5712 13.8739C39.1718 14.7836 38.6271 15.6408 37.8646 16.2918C37.4185 16.6131 36.9339 16.8799 36.4011 17.0289C35.4733 17.1926 34.5255 17.1321 33.5867 17.1232C32.9419 17.0562 32.2683 16.9419 31.7429 16.5342C31.2504 16.1133 30.8599 15.5871 30.6002 14.9951C30.5743 14.9127 30.5467 14.8309 30.5173 14.7497C30.2246 13.6815 30.2846 12.5471 30.5987 11.4915C30.661 11.3588 30.7159 11.2217 30.7625 11.0832C30.8656 10.8657 30.9737 10.6519 31.0864 10.4396C31.5487 9.68481 32.1683 9.03907 32.8752 8.50688L33.1235 8.34102C33.3866 8.19801 33.6548 8.06533 33.9239 7.93486C34.1698 7.8582 34.4151 7.77858 34.6582 7.69235ZM43.6743 8.05132C44.1827 7.84197 44.7044 7.63116 45.2586 7.59357C45.9092 7.57587 46.5755 7.53459 47.1949 7.77121C47.6848 7.98129 48.1405 8.27394 48.4991 8.67124C49.0847 9.43935 49.2431 10.4669 48.9919 11.3868C48.9296 11.5181 48.8734 11.6507 48.8238 11.7856C48.7666 11.8699 48.7116 11.9554 48.6585 12.0422C48.5502 12.1535 48.4399 12.2633 48.331 12.3739C48.2199 12.4299 48.1101 12.4874 48.0005 12.5456C47.4713 12.752 46.8096 12.6562 46.442 12.2006C46.2716 11.8527 46.3746 11.4569 46.311 11.0891C46.2856 10.9453 46.2707 10.8 46.2665 10.6541C46.1627 10.4618 46.0056 10.2686 45.7737 10.2413C45.4668 10.234 45.1334 10.1897 44.8636 10.374C44.4805 10.5539 44.2205 10.893 43.9856 11.2306C43.9189 11.3338 43.8566 11.437 43.7936 11.5409C43.6609 11.821 43.5401 12.1144 43.5231 12.4269C43.3964 12.9245 43.4801 13.4906 43.7951 13.9034C44.133 14.2543 44.6503 14.3155 45.1075 14.3944C46.1546 14.412 47.2038 14.3929 48.2517 14.4025C48.5214 14.4319 48.7852 14.5064 49.0476 14.5757C49.192 14.6811 49.3357 14.7895 49.4699 14.9103C49.4921 14.9546 49.5366 15.0453 49.5581 15.0909C49.5788 15.2495 49.6167 15.4057 49.647 15.5634C49.606 15.8022 49.5496 16.038 49.4781 16.2696C49.3855 16.3787 49.2988 16.4907 49.2149 16.6065C49.102 16.6872 48.9913 16.7709 48.883 16.8579L48.7244 16.9441C48.431 17.0421 48.136 17.1572 47.8204 17.1342C46.3064 17.1336 44.7925 17.1653 43.28 17.1144C43.1711 17.0754 43.0597 17.0435 42.9466 17.0186C42.7877 16.9496 42.6263 16.8864 42.4627 16.8291C42.2359 16.6878 42.0174 16.5338 41.8084 16.3677C41.5772 16.1849 41.4268 15.9276 41.2274 15.7161C41.0846 15.452 40.9483 15.1845 40.8183 14.914C40.3878 13.6425 40.5086 12.2456 40.9821 11.0035C41.0888 10.7883 41.1948 10.5731 41.3097 10.3622C41.3978 10.2325 41.4764 10.0983 41.5542 9.96272C42.012 9.34473 42.5609 8.799 43.1823 8.34396C43.3491 8.25183 43.5121 8.1523 43.6743 8.05132ZM65.4732 7.60389C66.3092 7.55966 67.1702 7.53385 67.9616 7.85451C68.7691 8.20902 69.4423 8.80972 69.8839 9.56982C69.9188 9.64795 69.9551 9.72609 69.9913 9.80422C70.0403 9.94207 70.0958 10.0777 70.1596 10.2111C70.4879 11.3316 70.3648 12.5323 69.9966 13.6292C69.9343 13.7611 69.878 13.8961 69.8328 14.0346C69.7046 14.3059 69.5704 14.5727 69.4296 14.8359C68.9939 15.5436 68.4337 16.1797 67.72 16.6197L67.2361 16.8622C67.0688 16.9123 66.9027 16.9677 66.7397 17.0296C65.8172 17.1918 64.8738 17.1306 63.9401 17.1248C63.6733 17.138 63.4214 17.0281 63.1546 17.0304C62.893 16.9323 62.6158 16.8681 62.3765 16.7229C61.9244 16.4547 61.5791 16.0493 61.2679 15.6364C61.1552 15.4242 61.0479 15.2103 60.9396 14.9966C60.6077 14.0553 60.6128 13.0343 60.7773 12.0628C60.8129 11.9522 60.8389 11.8402 60.8656 11.7281C60.9211 11.5682 60.9737 11.4075 61.024 11.2453C61.1797 10.9217 61.3375 10.6003 61.511 10.2856L61.68 10.0423C61.7637 9.93543 61.8451 9.82633 61.9216 9.7143C62.3261 9.28455 62.7322 8.84742 63.2182 8.50688C63.3013 8.45305 63.382 8.39778 63.4643 8.34029C64.0839 7.97646 64.7645 7.72698 65.4732 7.60389ZM74.0908 7.69161C74.5866 7.53165 75.2142 7.48005 75.6261 7.85745C75.8211 8.01225 75.9412 8.23193 76.0538 8.44716C76.0723 8.79068 76.0619 9.13491 75.9537 9.4644C75.8344 9.72829 75.7269 9.99735 75.6254 10.2679C75.5661 10.3991 75.512 10.5333 75.4639 10.6681C75.4052 10.7994 75.3519 10.9329 75.3037 11.0684C75.1919 11.3338 75.0822 11.5999 74.9815 11.8689C74.923 12.0001 74.8681 12.1343 74.8199 12.2692C74.7606 12.4019 74.708 12.5353 74.6614 12.6724C74.622 12.7572 74.5843 12.8427 74.5465 12.9282L74.4717 13.1538C74.445 13.2334 74.4198 13.3137 74.3924 13.3926C74.3626 13.4722 74.3316 13.5511 74.3005 13.6307C74.2309 13.8371 74.2116 14.059 74.3331 14.2528C74.5279 14.4334 74.7999 14.4039 75.0466 14.4039C75.4179 14.4238 75.7759 14.2875 76.1034 14.1246C76.4739 13.8784 76.7643 13.5209 76.8889 13.0918C76.9451 12.9592 76.9985 12.825 77.0489 12.6901C77.1053 12.5574 77.1587 12.4247 77.2098 12.2898C77.266 12.1572 77.3202 12.0237 77.3705 11.8888C77.4269 11.7569 77.4809 11.6235 77.5314 11.4886C77.5877 11.3566 77.6426 11.2232 77.6929 11.0883C77.7492 10.9556 77.8026 10.8229 77.8537 10.6873C77.9093 10.5546 77.9641 10.4219 78.0138 10.2878C78.0701 10.1551 78.1257 10.0224 78.1753 9.88752C78.2325 9.75441 78.2851 9.61944 78.3332 9.48283C78.4584 9.21084 78.5903 8.94178 78.7363 8.68083C78.7927 8.59827 78.8474 8.51497 78.9023 8.43094C79.1497 8.14198 79.4676 7.92675 79.8078 7.75868C80.1228 7.73657 80.4399 7.73214 80.7555 7.75721C81.0135 7.88105 81.2358 8.06165 81.4263 8.2732L81.5003 8.44495C81.5329 8.52972 81.5692 8.6145 81.6071 8.69853C81.6529 9.21894 81.4144 9.70103 81.2625 10.1875C81.2017 10.318 81.1461 10.4522 81.0965 10.5871C81.0395 10.7198 80.9854 10.8524 80.9363 10.9873C80.8784 11.119 80.8248 11.2525 80.7756 11.3876C80.7171 11.5203 80.6637 11.653 80.6133 11.7871C80.5562 11.9198 80.5022 12.0532 80.4524 12.1881C80.3947 12.3201 80.3413 12.4535 80.294 12.5898C80.0257 13.184 79.79 13.7914 79.5581 14.4003C80.3657 14.4187 81.1906 14.3214 81.9731 14.5742C82.1228 14.7187 82.2992 14.8514 82.3806 15.0511C82.4259 15.2022 82.4399 15.3623 82.4821 15.5156C82.4251 15.7683 82.4037 16.0278 82.3191 16.2733C82.171 16.5117 81.9691 16.7122 81.7294 16.8592C81.6182 16.9139 81.5077 16.9684 81.3988 17.0252C80.8793 17.1814 80.3317 17.1306 79.7966 17.1402C79.0757 17.1343 78.3539 17.1557 77.6337 17.1195C77.3313 16.9846 77.0809 16.7687 76.8667 16.521L76.8459 16.3824C76.6799 16.5468 76.5087 16.7052 76.3346 16.8608C76.2251 16.9127 76.1158 16.9652 76.0071 17.0186C75.9216 17.0485 75.8371 17.0813 75.7536 17.1166C74.7479 17.154 73.7411 17.1537 72.7354 17.1159C72.6504 17.082 72.5644 17.0505 72.4776 17.0215C72.1529 16.8756 71.8277 16.7097 71.5764 16.4532C71.3156 16.2025 71.1556 15.876 71.0007 15.5553C70.8843 15.1668 70.8866 14.7614 70.911 14.3597C70.988 13.9808 71.1215 13.6152 71.2489 13.2496C71.3089 13.1184 71.3638 12.9842 71.4134 12.8493C71.4712 12.7166 71.5246 12.584 71.5742 12.4491C71.6313 12.3164 71.6853 12.1837 71.7357 12.0488C71.7921 11.9161 71.847 11.7834 71.8966 11.6478C71.9536 11.5158 72.0077 11.3824 72.0573 11.2475C72.1145 11.1156 72.1684 10.9822 72.219 10.8473C72.276 10.7153 72.3301 10.5819 72.3797 10.447C72.4367 10.3143 72.4908 10.1816 72.5405 10.0467C72.5969 9.91405 72.6516 9.78138 72.7021 9.64722C72.7584 9.51379 72.8132 9.37963 72.8591 9.2418C72.9628 9.02582 73.0711 8.81205 73.1792 8.59827C73.4145 8.23468 73.7252 7.9255 74.0908 7.69161ZM34.6352 10.5989C34.9227 10.3998 35.2591 10.2834 35.6052 10.2421C35.8 10.2377 35.9846 10.3136 36.1766 10.332C36.4996 10.4868 36.7589 10.7522 36.9235 11.0669C37.1658 11.9065 36.9865 12.8434 36.4893 13.5592C36.2983 13.8639 36.0276 14.1111 35.7059 14.2742C35.1543 14.4958 34.538 14.4973 33.9852 14.2786C33.7682 14.1238 33.5377 13.9506 33.4459 13.6897C33.2361 13.0601 33.3635 12.3672 33.6518 11.7812C33.8838 11.319 34.2077 10.8967 34.6352 10.5989ZM65.2865 10.4109C65.6186 10.3062 65.9779 10.1676 66.3255 10.2974C66.7604 10.3608 67.0792 10.7131 67.271 11.0832C67.4637 11.7414 67.377 12.4557 67.1028 13.0786C67.0428 13.1891 66.9798 13.2997 66.9139 13.4073C66.8598 13.4869 66.8079 13.5658 66.7553 13.6462C66.5974 13.8857 66.3884 14.0884 66.1387 14.2314C65.8541 14.3884 65.5319 14.4106 65.2161 14.4541C64.7271 14.4187 64.1357 14.3369 63.8748 13.8614C63.5103 13.209 63.6932 12.4129 63.9978 11.7738C64.2847 11.2107 64.7085 10.6947 65.2865 10.4109ZM91.7103 14.2609C92.1142 14.0066 92.5862 13.9587 93.0538 14.0059C93.1413 14.0398 93.2309 14.0722 93.3221 14.1017C93.6962 14.286 94.0089 14.5735 94.2268 14.9273C94.4298 15.3792 94.4735 15.8848 94.3098 16.3566C94.252 16.4649 94.1964 16.5756 94.1432 16.6861C93.9608 16.8911 93.7638 17.082 93.5621 17.267C93.0701 17.5191 92.4728 17.525 91.9564 17.3489L91.7947 17.2589C91.5791 17.1227 91.3931 16.9447 91.2481 16.7355C91.103 16.5262 91.002 16.2902 90.9507 16.0412C90.9359 15.8105 90.9463 15.5782 90.9507 15.3468C90.9855 15.2612 91.0189 15.1743 91.0516 15.088C91.1035 14.9782 91.1574 14.8698 91.2101 14.7607C91.3731 14.5912 91.5406 14.4246 91.7103 14.2609Z" fill="#E42E16"/>
</g>
<defs>
<clipPath id="clip0_2_107">
<rect width="95" height="24" fill="white" transform="translate(0.5)"/>
</clipPath>
</defs>
</svg>
