<svg width="26" height="24" viewBox="0 0 26 24" fill="none" xmlns="http://www.w3.org/2000/svg">
<g clip-path="url(#clip0_2_111)">
<path d="M8.15129 20.409L8.74279 19.6113H13.12L15.4014 22.6567L14.9958 23.6899H9.3512L9.4864 22.6567L8.15129 20.409Z" fill="#169FCC"/>
<path d="M9.48975 10.025L11.6033 6.21033H14.0661L25.1055 19.6065L24.2496 23.6898H19.516L19.8129 22.5436L9.48975 10.025Z" fill="#14B59A"/>
<path d="M12.0551 5.48548L13.0671 3.5303L16.1032 0.966431L21.3053 5.22724L20.6306 5.94661L21.5361 7.25622V8.65804L18.9439 10.8714L14.5941 5.48548H12.0551Z" fill="#1BC263"/>
<path d="M4.01595 14.005H5.39099L8.97654 10.8716L13.7283 16.6398L12.388 18.7406H8.00183L4.97326 22.7641L4.27704 23.6899H0.343384V18.7584L4.01595 14.005Z" fill="#16BDCC"/>
</g>
<defs>
<clipPath id="clip0_2_111">
<rect width="26" height="24" fill="white"/>
</clipPath>
</defs>
</svg>
