<svg width="21" height="19" viewBox="0 0 21 19" fill="none" xmlns="http://www.w3.org/2000/svg">
<path d="M6.58374 16.1571L7.06149 15.5256H10.5969L12.4396 17.9365L12.112 18.7545H7.5529L7.6621 17.9365L6.58374 16.1571Z" fill="#169FCC"/>
<path d="M7.66479 7.93645L9.37188 4.9165H11.3611L20.2775 15.5218L19.5862 18.7544H15.7629L16.0027 17.847L7.66479 7.93645Z" fill="#14B59A"/>
<path d="M9.73682 4.34272L10.5542 2.79487L13.0064 0.765137L17.2081 4.13828L16.6632 4.70778L17.3945 5.74455V6.85433L15.3008 8.60661L11.7875 4.34272H9.73682Z" fill="#1BC263"/>
<path d="M3.24365 11.0873H4.35426L7.25028 8.60669L11.0882 13.1732L10.0057 14.8363H6.46301L4.01686 18.0216L3.45453 18.7545H0.277344V14.8504L3.24365 11.0873Z" fill="#16BDCC"/>
</svg>
