<svg width="24" height="24" viewBox="0 0 24 24" fill="none" xmlns="http://www.w3.org/2000/svg">
<g clip-path="url(#clip0_2_135)">
<path d="M0 0.234009L21.912 20.771C21.912 20.771 22.324 21.346 21.788 21.922C21.253 22.498 20.552 22.005 20.552 22.005L0 0.234009ZM6.508 2.29201L23.518 17.93C23.518 17.93 23.931 18.506 23.395 19.082C22.861 19.658 22.16 19.165 22.16 19.165L6.508 2.29201ZM1.936 6.69601L18.946 22.334C18.946 22.334 19.358 22.91 18.823 23.486C18.288 24.062 17.588 23.568 17.588 23.568L1.936 6.69601ZM12.009 4.06101L23.895 14.988C23.895 14.988 24.182 15.389 23.808 15.793C23.434 16.197 22.945 15.851 22.945 15.851L12.009 4.06101ZM3.442 11.798L15.328 22.724C15.328 22.724 15.613 23.124 15.24 23.527C14.865 23.93 14.377 23.586 14.377 23.586L3.442 11.798ZM17.629 6.61301L23.055 11.568C23.055 11.568 23.197 11.756 23.011 11.945C22.826 12.133 22.583 11.972 22.583 11.972L17.629 6.61301ZM6.178 17.231L11.603 22.187C11.603 22.187 11.747 22.375 11.561 22.564C11.375 22.753 11.134 22.59 11.134 22.59L6.178 17.231Z" fill="#DE4F4F"/>
</g>
<defs>
<clipPath id="clip0_2_135">
<rect width="24" height="24" fill="white"/>
</clipPath>
</defs>
</svg>
