<svg width="24" height="24" viewBox="0 0 24 24" fill="none" xmlns="http://www.w3.org/2000/svg">
<path d="M19.3411 15.6739C19.3313 19.7149 16.0206 23 11.9529 23C7.8788 23 4.56402 19.7051 4.56402 15.6555C4.56402 15.6428 4.56633 15.6308 4.56633 15.6181C2.43243 14.3288 1 12.0025 1 9.34451C1 5.29431 4.3142 2 8.38885 2C9.70042 2 10.9304 2.34547 11.9997 2.94386C13.069 2.34547 14.2996 2 15.6112 2C19.6858 2 23 5.29488 23 9.34451C23 12.041 21.5265 14.3966 19.3411 15.6739ZM11.9997 4.48726C10.6627 5.47193 9.7409 6.98256 9.55931 8.71336C10.3111 8.45583 11.1143 8.30983 11.9529 8.30983C12.8284 8.30983 13.6646 8.46963 14.4436 8.74899C14.2712 7.00326 13.346 5.47883 11.9997 4.48726ZM5.92532 14.8703C6.67884 15.2031 7.51158 15.3928 8.38885 15.3928C9.24183 15.3928 10.0538 15.2163 10.7911 14.8996C9.56857 13.85 8.69245 12.4135 8.36514 10.7798C7.05646 11.7352 6.14565 13.1941 5.92532 14.8703ZM11.9529 9.60663C11.1103 9.60663 10.307 9.77793 9.57666 10.0878C9.78543 11.7708 10.6922 13.2389 11.9997 14.2018C13.2968 13.2464 14.1984 11.795 14.417 10.1291C13.6629 9.79517 12.8301 9.60663 11.9529 9.60663ZM13.2083 14.9002C13.9457 15.2163 14.7576 15.3934 15.6106 15.3934C16.4531 15.3934 17.2564 15.2221 17.9874 14.9122C17.7815 13.2539 16.8984 11.8059 15.6227 10.8413C15.2861 12.4503 14.4158 13.8632 13.2083 14.9002ZM11.9529 21.7038C15.0942 21.7038 17.6866 19.3257 18.0053 16.2861C17.2535 16.543 16.4503 16.6896 15.6112 16.6896C14.2996 16.6896 13.069 16.3441 11.9997 15.7457C10.931 16.3441 9.701 16.6896 8.38885 16.6896C7.51331 16.6896 6.6771 16.5298 5.89814 16.251C6.20059 19.3073 8.80002 21.7038 11.9529 21.7038ZM8.38885 3.29565C5.03302 3.29565 2.30347 6.00881 2.30347 9.34451C2.30347 11.3093 3.25476 13.0527 4.719 14.1587C5.14925 12.1002 6.4533 10.3608 8.22288 9.32554C8.22924 7.1142 9.22622 5.13336 10.7917 3.78942C10.0538 3.47212 9.24241 3.29565 8.38885 3.29565ZM15.6112 3.29565C14.7582 3.29565 13.9462 3.47212 13.2089 3.78885C14.779 5.13681 15.7789 7.12512 15.7789 9.34394C15.7789 9.35658 15.7765 9.36923 15.7765 9.3813C17.5155 10.4327 18.7889 12.1703 19.1989 14.219C20.71 13.1171 21.6965 11.3455 21.6965 9.34451C21.6959 6.00939 18.9664 3.29565 15.6112 3.29565Z" fill="#010002"/>
</svg>
