<svg width="24" height="24" viewBox="0 0 24 24" fill="none" xmlns="http://www.w3.org/2000/svg">
<path d="M20.939 12.4847C20.9762 12.9171 20.977 13.4767 20.977 14.2998V15.6451C20.977 16.4682 20.9762 17.0278 20.939 17.4602C20.9028 17.8815 20.8371 18.097 20.7565 18.2473C20.5625 18.6089 20.2531 18.9029 19.8725 19.0871C19.7142 19.1637 19.4874 19.2261 19.044 19.2605C18.5888 19.2958 18.5561 19.2605 17.6896 19.2605L17.1333 21.2184H17.1759C17.9898 21.2184 18.6615 21.2184 19.2087 21.176C19.7773 21.1318 20.2999 21.0371 20.7908 20.7995C21.5522 20.431 22.1711 19.843 22.559 19.1197L22.582 19.0759C22.8153 18.6223 22.9103 18.14 22.9553 17.6167C23 17.0966 23 16.458 23 15.6842V14.2607C23 13.4869 23 12.8483 22.9553 12.3281C22.9088 11.788 22.8091 11.2915 22.559 10.8251C22.1711 10.1019 21.5521 9.51383 20.7908 9.14535C20.5263 9.01736 20.2519 8.93068 19.9655 8.87101V7.76553C19.9655 4.58133 17.2483 2.00001 13.8966 2C12.3125 2 10.8702 2.57653 9.78949 3.52075L11.7718 4.4939C12.3893 4.13117 13.1172 3.92183 13.8966 3.92183C16.1311 3.92183 17.9425 5.64274 17.9425 7.76553V8.72802C17.6904 8.72637 15.7013 8.69494 15.4138 8.69494L17.1333 10.6483C17.9011 10.6483 18.4534 10.6487 18.8924 10.6742C19.4365 10.7057 19.6954 10.7721 19.8725 10.8578C20.2531 11.042 20.5625 11.336 20.7565 11.6976L20.764 11.7119C20.8412 11.8616 20.9039 12.0766 20.939 12.4847Z" fill="#2196F3"/>
<path d="M17.1839 15.0814C17.1839 14.2582 17.1831 13.6987 17.1459 13.2662C17.1108 12.8581 17.0481 12.6432 16.9709 12.4935L16.9634 12.4792C16.7694 12.1176 16.46 11.8236 16.0794 11.6394C15.9023 11.5537 15.6434 11.4873 15.0993 11.4557C14.6603 11.4303 14.108 11.4299 13.3402 11.4299H6.86665C6.09889 11.4299 5.54662 11.4303 5.10763 11.4557C4.56342 11.4873 4.30454 11.5537 4.1275 11.6394C3.74687 11.8236 3.4374 12.1176 3.24347 12.4791C3.16284 12.6295 3.09719 12.845 3.06096 13.2662C3.02376 13.6987 3.02297 14.2582 3.02297 15.0814V16.4267C3.02297 17.2498 3.02376 17.8093 3.06096 18.2418C3.09719 18.6631 3.16287 18.8785 3.2435 19.0289C3.43138 19.3792 3.72766 19.666 4.09206 19.8511L4.12753 19.8687C4.28572 19.9452 4.51255 20.0077 4.956 20.0421C5.41126 20.0774 6.00024 20.0782 6.86665 20.0782H13.3402C14.2067 20.0782 14.7956 20.0774 15.2509 20.0421C15.6943 20.0077 15.9211 19.9453 16.0794 19.8687C16.46 19.6844 16.7694 19.3905 16.9634 19.0289C17.044 18.8786 17.1097 18.6631 17.1459 18.2418C17.1831 17.8093 17.1839 17.2498 17.1839 16.4267V15.0814ZM9.09193 16.7149V14.7931C9.09194 14.2624 9.54481 13.8322 10.1034 13.8322C10.6621 13.8322 11.1149 14.2624 11.1149 14.7931V16.7149C11.1149 17.2456 10.6621 17.6758 10.1034 17.6759C9.54481 17.6759 9.09193 17.2456 9.09193 16.7149ZM14.1494 8.54711C14.1494 6.42431 12.3379 4.70341 10.1034 4.7034C7.86892 4.7034 6.05745 6.4243 6.05745 8.54711V9.5096C6.30962 9.50795 6.57912 9.50802 6.86665 9.50802H13.3402C13.6277 9.50802 13.8972 9.50795 14.1494 9.5096V8.54711ZM16.1724 9.65258C16.4588 9.71226 16.7332 9.79894 16.9977 9.92693C17.759 10.2954 18.378 10.8834 18.7659 11.6067C19.016 12.0731 19.1157 12.5696 19.1622 13.1097C19.2077 13.6386 19.2069 14.29 19.2069 15.0814V16.4267C19.2069 17.2181 19.2077 17.8694 19.1622 18.3983C19.1172 18.9216 19.0222 19.4039 18.7889 19.8575L18.7659 19.9013C18.378 20.6246 17.7591 21.2126 16.9977 21.581C16.5068 21.8187 15.9842 21.9134 15.4156 21.9575C14.8589 22.0008 14.1733 22 13.3402 22H6.86665C6.03361 22 5.34799 22.0008 4.79124 21.9575C4.22267 21.9134 3.70001 21.8187 3.2091 21.581C2.44783 21.2126 1.82888 20.6246 1.44098 19.9013C1.19087 19.4349 1.09114 18.9385 1.04469 18.3983C0.9992 17.8694 1 17.2181 1 16.4267V15.0814C1 14.29 0.9992 13.6386 1.04469 13.1097C1.09114 12.5696 1.19084 12.0731 1.44095 11.6067C1.82886 10.8834 2.44786 10.2954 3.20916 9.92695C3.47363 9.79895 3.74806 9.71226 4.03448 9.65258V8.54711C4.03448 5.3629 6.75165 2.78158 10.1034 2.78158C13.4552 2.78158 16.1724 5.3629 16.1724 8.54711V9.65258Z" fill="#2196F3"/>
</svg>
