<svg width="18" height="18" viewBox="0 0 20 20" fill="none" xmlns="http://www.w3.org/2000/svg">
  <path d="M19.165 16.085V5.435L9.873 0.109L0.58 5.435V16.085L9.873 21.41L19.165 16.085Z" fill="#43A047"/>
  <path d="M14.03 5.271C13.355 5.271 12.808 5.818 12.808 6.493V12.008L7.42 5.981L7.356 5.907C6.747 5.24 6.052 5.271 5.716 5.271C5.04 5.271 4.493 5.818 4.493 6.493V14.808C4.493 15.483 5.04 16.031 5.716 16.031C6.391 16.031 6.939 15.483 6.939 14.808V9.252L12.454 15.428L12.508 15.497C13.111 16.096 13.93 16.031 14.03 16.031C14.706 16.031 15.253 15.483 15.253 14.808V6.493C15.253 5.818 14.706 5.271 14.03 5.271Z" fill="white"/>
</svg>