<svg width="24" height="24" viewBox="0 0 24 24" fill="none" xmlns="http://www.w3.org/2000/svg">
<path d="M21.306 17.7362V7.24605L12.1535 2L3 7.24605V17.7362L12.1535 22.9812L21.306 17.7362Z" fill="#43A047"/>
<path d="M16.2481 7.08445C15.5832 7.08445 15.0444 7.62324 15.0444 8.2881V13.7203L9.73732 7.78379L9.67428 7.7109C9.07442 7.05391 8.38985 7.08445 8.0589 7.08445C7.39305 7.08445 6.85426 7.62324 6.85426 8.2881V16.4783C6.85426 17.1431 7.39305 17.6829 8.0589 17.6829C8.72376 17.6829 9.26354 17.1431 9.26354 16.4783V11.0057L14.6957 17.089L14.7489 17.1569C15.3429 17.7469 16.1496 17.6829 16.2481 17.6829C16.9139 17.6829 17.4527 17.1431 17.4527 16.4783V8.2881C17.4527 7.62324 16.9139 7.08445 16.2481 7.08445Z" fill="white"/>
</svg>
