<svg width="32" height="24" viewBox="0 0 32 24" fill="none" xmlns="http://www.w3.org/2000/svg">
<path d="M9.60131 22.179L9.5337 22.0461C9.39869 21.7801 9.39869 21.514 9.46632 21.1815H2.17067L12.9792 2.29657L17.5054 10.3428L18.9912 9.27876L14.4652 1.23248C14.3979 1.09959 13.8574 0.301758 12.9792 0.301758C12.5738 0.301758 11.9659 0.434652 11.493 1.29905L0.549442 20.3836C0.481821 20.5835 0.00895326 21.4478 0.4142 22.179C0.684445 22.5781 1.08993 22.9771 2.03566 22.9771H11.2228C10.277 22.9771 9.80418 22.578 9.60131 22.179Z" fill="#00C58E"/>
<path d="M30.4073 20.4492L21.6254 4.88887C21.4904 4.75599 21.0176 3.89136 20.1391 3.89136C19.7339 3.89136 19.1261 4.09081 18.6533 4.88887L17.5048 6.75079V10.3417L20.1394 5.8864L28.8536 21.1806H25.5436C25.5989 21.4972 25.5517 21.823 25.4083 22.1116L25.3408 22.1782C24.9355 22.9095 23.9221 22.9759 23.7871 22.9759H28.921C29.1237 22.9759 30.0695 22.9096 30.5423 22.1782C30.7448 21.8455 30.8802 21.2472 30.4073 20.4492Z" fill="#108775"/>
<path d="M25.6119 22.179V22.1124L25.6795 21.9795C25.7469 21.7135 25.8145 21.4475 25.7469 21.1815L25.4769 20.3836L18.5867 8.54718L17.5733 6.75183H17.5057L16.4923 8.54718L9.60221 20.3833L9.33221 21.1815C9.26676 21.5196 9.31412 21.8696 9.46722 22.179C9.73747 22.5779 10.1427 22.977 11.0884 22.977H23.9235C24.1262 22.977 25.139 22.9106 25.6119 22.179ZM17.5055 10.3425L23.788 21.1815H11.2232L17.5055 10.3425Z" fill="#2F495E"/>
</svg>
