<svg width="21" height="16" viewBox="0 0 21 16" fill="none" xmlns="http://www.w3.org/2000/svg">
<path d="M6.30086 14.786L6.25649 14.6974C6.16789 14.5201 6.16789 14.3427 6.21227 14.121H1.4245L8.51763 1.53105L11.4879 6.89523L12.463 6.18584L9.49281 0.821655C9.44859 0.733059 9.09389 0.201172 8.51763 0.201172C8.25153 0.201172 7.85262 0.289768 7.5423 0.866031L0.36057 13.5891C0.316194 13.7223 0.00587454 14.2985 0.271818 14.786C0.449166 15.0521 0.715266 15.3181 1.3359 15.3181H7.36495C6.74431 15.3181 6.43399 15.052 6.30086 14.786Z" fill="#00C58E"/>
<path d="M19.9548 13.6328L14.1917 3.25925C14.1031 3.17066 13.7928 2.59424 13.2163 2.59424C12.9504 2.59424 12.5515 2.72721 12.2412 3.25925L11.4875 4.50053V6.89449L13.2165 3.92427L18.9352 14.1204H16.763C16.7993 14.3315 16.7683 14.5487 16.6742 14.7411L16.6299 14.7855C16.3639 15.273 15.6989 15.3173 15.6103 15.3173H18.9794C19.1124 15.3173 19.7331 15.2731 20.0434 14.7855C20.1763 14.5637 20.2651 14.1648 19.9548 13.6328Z" fill="#108775"/>
<path d="M16.8078 14.786V14.7416L16.8522 14.653C16.8964 14.4757 16.9408 14.2983 16.8964 14.121L16.7192 13.5891L12.1975 5.69812L11.5325 4.50122H11.4881L10.8231 5.69812L6.30146 13.5889L6.12427 14.121C6.08132 14.3464 6.1124 14.5797 6.21287 14.786C6.39022 15.0519 6.65616 15.318 7.2768 15.318H15.6998C15.8328 15.318 16.4978 15.2737 16.8081 14.786H16.8078ZM11.488 6.89503L15.6109 14.121H7.36524L11.488 6.89503Z" fill="#2F495E"/>
</svg>
