<svg width="24" height="24" viewBox="0 0 24 24" fill="none" xmlns="http://www.w3.org/2000/svg">
<path fill-rule="evenodd" clip-rule="evenodd" d="M7.905 1.08995C8.121 1.17498 8.316 1.31495 8.493 1.49997C8.78799 1.80597 9.03699 2.24397 9.22702 2.76297C9.41799 3.28497 9.54202 3.86298 9.58899 4.44297C10.2186 4.08678 10.9173 3.86989 11.638 3.80697L11.689 3.80298C12.559 3.73295 13.419 3.88998 14.169 4.27698C14.27 4.33012 14.369 4.38681 14.466 4.44695C14.516 3.87798 14.638 3.31295 14.826 2.80295C15.016 2.28297 15.265 1.84595 15.559 1.53897C15.7233 1.36122 15.9243 1.22132 16.148 1.12895C16.405 1.02897 16.678 1.01097 16.944 1.08695C17.345 1.20095 17.689 1.45497 17.96 1.82397C18.208 2.161 18.394 2.59295 18.521 3.11097C18.751 4.04495 18.791 5.27397 18.636 6.75597L18.689 6.79595L18.715 6.81498C19.472 7.39098 19.999 8.21195 20.278 9.16497C20.713 10.652 20.494 12.32 19.744 13.253L19.726 13.274L19.728 13.277C20.145 14.039 20.398 14.844 20.452 15.677L20.454 15.707C20.518 16.772 20.254 17.844 19.64 18.897L19.633 18.907L19.643 18.931C20.115 20.088 20.263 21.253 20.081 22.417L20.075 22.456C20.0468 22.626 19.9524 22.7779 19.8123 22.8784C19.6723 22.9789 19.4981 23.0197 19.328 22.992C19.2012 22.9721 19.0831 22.9151 18.9887 22.828C18.8943 22.741 18.8279 22.6279 18.7979 22.5031C18.778 22.4202 18.7746 22.3342 18.788 22.25C18.955 21.217 18.798 20.181 18.308 19.127C18.2623 19.0291 18.242 18.9212 18.249 18.8134C18.2559 18.7055 18.29 18.6012 18.348 18.51L18.352 18.504C18.956 17.58 19.206 16.674 19.152 15.784C19.106 15.005 18.827 14.24 18.352 13.511C18.2596 13.3693 18.2266 13.1969 18.2603 13.0311C18.294 12.8653 18.3916 12.7194 18.532 12.625L18.541 12.619C18.784 12.46 19.008 12.054 19.121 11.499C19.2457 10.8427 19.2131 10.1662 19.026 9.52497C18.821 8.82498 18.446 8.24097 17.921 7.84197C17.326 7.38798 16.538 7.16898 15.541 7.23198C15.4106 7.24046 15.2807 7.20963 15.168 7.14349C15.0554 7.07735 14.9652 6.97893 14.909 6.86097C14.595 6.19595 14.137 5.71998 13.566 5.42495C13.0178 5.15136 12.4041 5.03638 11.794 5.09298C10.549 5.19198 9.45099 5.89398 9.12399 6.77898C9.07772 6.90353 8.99451 7.01097 8.8855 7.08692C8.77648 7.16287 8.64687 7.2037 8.514 7.20395C7.44699 7.20597 6.621 7.45595 6.01702 7.90698C5.49502 8.29698 5.139 8.84195 4.95099 9.49497C4.78087 10.1096 4.75759 10.7557 4.88302 11.381C4.995 11.939 5.214 12.401 5.46502 12.65L5.47299 12.657C5.685 12.864 5.73 13.187 5.58202 13.442C5.22202 14.064 4.953 14.991 4.90899 15.882C4.85902 16.9 5.09499 17.784 5.628 18.418L5.64399 18.437C5.72446 18.5307 5.77622 18.6456 5.79307 18.768C5.80992 18.8904 5.79115 19.015 5.739 19.127C5.163 20.363 4.986 21.379 5.17702 22.179C5.21101 22.3452 5.17887 22.5181 5.08743 22.661C4.99598 22.8039 4.85243 22.9056 4.68726 22.9444C4.52209 22.9831 4.34831 22.956 4.20281 22.8687C4.05732 22.7815 3.95157 22.6409 3.90802 22.477C3.66502 21.459 3.83002 20.293 4.38099 18.979L4.395 18.944L4.38704 18.932C4.11622 18.532 3.9141 18.0895 3.789 17.623L3.78399 17.604C3.6322 17.0218 3.57248 16.4196 3.60699 15.819C3.651 14.909 3.885 13.977 4.22902 13.229L4.24102 13.203L4.239 13.201C3.94604 12.783 3.729 12.248 3.609 11.656L3.60399 11.632C3.43865 10.8062 3.47052 9.95308 3.69699 9.14195C3.95902 8.22695 4.47399 7.44095 5.23299 6.87297C5.29299 6.82797 5.35599 6.78297 5.41899 6.74097C5.25999 5.24795 5.30002 4.01097 5.53102 3.07098C5.658 2.55297 5.84499 2.12097 6.093 1.78398C6.363 1.41597 6.70702 1.16195 7.10799 1.04697C7.374 0.970983 7.64799 0.987952 7.905 1.08897V1.08995ZM12.021 10.18C12.957 10.18 13.821 10.493 14.467 11.035C15.097 11.562 15.472 12.27 15.472 12.975C15.472 13.863 15.066 14.555 14.339 14.997C13.719 15.372 12.888 15.554 11.936 15.554C10.927 15.554 10.065 15.295 9.44302 14.82C8.826 14.35 8.48002 13.69 8.48002 12.975C8.48002 12.268 8.87799 11.558 9.53602 11.029C10.204 10.492 11.086 10.18 12.021 10.18ZM12.021 11.076C11.3272 11.0699 10.6519 11.299 10.105 11.726C9.64402 12.096 9.38302 12.561 9.38302 12.976C9.38302 13.404 9.59302 13.805 9.993 14.11C10.448 14.457 11.117 14.658 11.936 14.658C12.735 14.658 13.409 14.511 13.868 14.232C14.331 13.952 14.568 13.546 14.568 12.975C14.568 12.552 14.322 12.085 13.885 11.719C13.401 11.314 12.745 11.076 12.021 11.076ZM12.683 12.286L12.687 12.29C12.7155 12.3258 12.7367 12.3669 12.7494 12.411C12.762 12.455 12.7658 12.5011 12.7606 12.5466C12.7554 12.5921 12.7413 12.6362 12.7191 12.6762C12.6968 12.7162 12.6669 12.7515 12.631 12.78L12.339 13.01V13.456C12.3385 13.5552 12.2986 13.6503 12.2281 13.7202C12.1577 13.7901 12.0623 13.8293 11.963 13.829C11.8637 13.8292 11.7684 13.7901 11.6979 13.7202C11.6275 13.6502 11.5876 13.5552 11.587 13.456V12.996L11.316 12.778C11.2802 12.7493 11.2505 12.7139 11.2285 12.6737C11.2065 12.6335 11.1927 12.5894 11.1879 12.5438C11.1831 12.4982 11.1873 12.4522 11.2004 12.4083C11.2134 12.3644 11.2351 12.3235 11.264 12.288C11.323 12.2161 11.408 12.1705 11.5005 12.1609C11.593 12.1514 11.6855 12.1787 11.758 12.237L11.973 12.409L12.193 12.235C12.2652 12.1779 12.3568 12.1513 12.4484 12.1609C12.5399 12.1704 12.6241 12.2153 12.683 12.286ZM7.64302 10.367C8.121 10.367 8.51002 10.757 8.51002 11.238C8.51023 11.4685 8.41894 11.6897 8.25619 11.853C8.09344 12.0163 7.87254 12.1084 7.64199 12.109C7.41177 12.1082 7.19124 12.0162 7.02873 11.8531C6.86622 11.69 6.77497 11.4692 6.77499 11.239C6.77449 11.0084 6.86551 10.787 7.02807 10.6235C7.19103 10.46 7.41216 10.3678 7.64302 10.367ZM16.349 10.367C16.829 10.367 17.217 10.757 17.217 11.238C17.2173 11.4685 17.126 11.6898 16.9633 11.8531C16.8005 12.0164 16.5796 12.1084 16.349 12.109C16.1188 12.1082 15.8983 12.0161 15.7358 11.8531C15.5733 11.69 15.482 11.4692 15.482 11.239C15.4815 11.0084 15.5725 10.7871 15.7351 10.6236C15.8976 10.4601 16.1185 10.3678 16.349 10.367ZM7.44 2.29998L7.437 2.30195C7.32115 2.35234 7.22223 2.43496 7.152 2.53998L7.14699 2.54598C7.00899 2.73498 6.88899 3.01295 6.79899 3.37797C6.62902 4.06998 6.58299 5.00898 6.675 6.15995C7.10499 6.03198 7.57402 5.95197 8.079 5.92295L8.08899 5.92197L8.10802 5.88798C8.15388 5.80622 8.20326 5.72647 8.256 5.64897C8.379 4.87797 8.27799 3.95697 8.00302 3.20495C7.869 2.84097 7.70602 2.55498 7.55002 2.39195C7.51781 2.35806 7.48191 2.32788 7.443 2.30195L7.44 2.29998ZM16.614 2.33997L16.612 2.34095C16.5731 2.36688 16.5372 2.39706 16.505 2.43095C16.349 2.59398 16.185 2.88095 16.052 3.24498C15.762 4.03895 15.665 5.02098 15.822 5.81697L15.88 5.91395L15.888 5.92797H15.918C16.4143 5.9281 16.908 5.9995 17.384 6.13998C17.47 5.01597 17.422 4.09698 17.256 3.41795C17.166 3.05298 17.046 2.77497 16.907 2.58597L16.903 2.57997C16.8329 2.47457 16.734 2.39159 16.618 2.34095H16.614V2.33997Z" fill="black"/>
</svg>
