<svg width="26" height="24" viewBox="0 0 26 24" fill="none" xmlns="http://www.w3.org/2000/svg">
<path d="M12.9972 1.02686C6.69649 1.02686 1.57588 5.9449 1.57588 12.0085C1.57588 18.082 6.68623 23 12.9972 23C19.3082 23 24.4185 18.082 24.4185 12.0085C24.4185 5.9449 19.3082 1.02686 12.9972 1.02686Z" fill="#1C1F2A"/>
<path d="M14.7006 15.8992C14.7006 16.1066 14.5878 16.2152 14.3723 16.2152H12.3199C12.1044 16.2152 11.9915 16.1066 11.9915 15.8992V11.1391H10.4215C10.206 11.1391 10.0931 11.0305 10.0931 10.8231V8.848C10.0931 8.64061 10.206 8.53198 10.4215 8.53198H14.4236C14.6391 8.53198 14.6904 8.64061 14.6904 8.78875V15.8992H14.7006Z" fill="white"/>
</svg>
