<svg width="26" height="24" viewBox="0 0 26 24" fill="none" xmlns="http://www.w3.org/2000/svg">
<g clip-path="url(#clip0_2_164)">
<path d="M10.0886 8.73595V6.45594C10.0886 6.2639 10.163 6.11982 10.3364 6.02392L15.0688 3.38396C15.7131 3.02399 16.4812 2.85606 17.2739 2.85606C20.2472 2.85606 22.1303 5.08811 22.1303 7.46402C22.1303 7.63197 22.1303 7.824 22.1054 8.01602L17.1996 5.23197C16.9023 5.06404 16.6049 5.06404 16.3076 5.23197L10.0886 8.73595ZM21.1391 17.6161V12.1679C21.1391 11.8318 20.9903 11.5918 20.693 11.4239L14.4741 7.91991L16.5058 6.79184C16.6792 6.69594 16.828 6.69594 17.0013 6.79184L21.7338 9.43181C23.0967 10.1999 24.0132 11.8318 24.0132 13.4157C24.0132 15.2397 22.8984 16.9197 21.1391 17.6158V17.6161ZM8.62679 12.816L6.5951 11.6641C6.42172 11.5682 6.34735 11.4241 6.34735 11.2321V5.95214C6.34735 3.38419 8.37904 1.44005 11.1293 1.44005C12.1701 1.44005 13.1362 1.77617 13.954 2.37611L9.07302 5.11221C8.77577 5.28015 8.62702 5.52013 8.62702 5.85624V12.8162L8.62679 12.816ZM13 15.264L10.0886 13.68V10.3201L13 8.73619L15.9111 10.3201V13.68L13 15.264ZM14.8706 22.5601C13.8299 22.5601 12.8638 22.224 12.0459 21.6241L16.9269 18.8879C17.2241 18.72 17.3729 18.4801 17.3729 18.1439V11.1839L19.4295 12.3358C19.6029 12.4317 19.6772 12.5758 19.6772 12.7679V18.0478C19.6772 20.6157 17.6206 22.5599 14.8706 22.5599V22.5601ZM8.9984 17.2081L4.26591 14.5681C2.90307 13.8 1.98647 12.1681 1.98647 10.5842C1.98647 8.73619 3.12621 7.08021 4.88526 6.38415V11.8561C4.88526 12.1922 5.03401 12.4322 5.33126 12.6002L11.5256 16.08L9.4939 17.2081C9.32052 17.304 9.17176 17.304 8.9984 17.2081ZM8.72601 21.1442C5.92622 21.1442 3.86966 19.104 3.86966 16.584C3.86966 16.392 3.89451 16.2 3.91916 16.008L8.80015 18.7441C9.0974 18.912 9.39489 18.912 9.69214 18.7441L15.9111 15.2642V17.5443C15.9111 17.7363 15.8367 17.8803 15.6633 17.9762L10.9309 20.6162C10.2866 20.9761 9.51852 21.1442 8.72579 21.1442L8.72601 21.1442ZM14.8706 24C17.8686 24 20.3709 21.936 20.941 19.1999C23.7159 18.5039 25.5 15.9839 25.5 13.416C25.5 11.7359 24.7567 10.104 23.4187 8.928C23.5426 8.42395 23.6171 7.91991 23.6171 7.4161C23.6171 3.98416 20.7428 1.41599 17.4227 1.41599C16.7538 1.41599 16.1096 1.51189 15.4653 1.72801C14.3502 0.671971 12.814 0 11.1293 0C8.1313 0 5.62898 2.0639 5.05888 4.79998C2.28396 5.49603 0.5 8.01604 0.5 10.584C0.5 12.264 1.24323 13.8959 2.5812 15.0719C2.45731 15.576 2.38295 16.08 2.38295 16.5839C2.38295 20.0157 5.2571 22.5839 8.57728 22.5839C9.24613 22.5839 9.89037 22.4881 10.5346 22.272C11.6494 23.328 13.1856 24 14.8706 24Z" fill="black"/>
</g>
<defs>
<clipPath id="clip0_2_164">
<rect width="25" height="24" fill="white" transform="translate(0.5)"/>
</clipPath>
</defs>
</svg>
