<svg width="24" height="24" viewBox="0 0 24 24" fill="none" xmlns="http://www.w3.org/2000/svg">
<g clip-path="url(#clip0_2_176)">
<path d="M21.039 0C20.5355 0.000126991 20.0403 0.128748 19.6004 0.373688C19.1604 0.618629 18.7903 0.971786 18.5249 1.39973C18.2596 1.82768 18.1078 2.31626 18.084 2.81923C18.0603 3.3222 18.1652 3.82292 18.389 4.274L11.942 10.721C11.3132 10.4086 10.5939 10.3299 9.91242 10.499C9.23097 10.668 8.6318 11.0738 8.22191 11.6438C7.81201 12.2139 7.61808 12.911 7.67475 13.6108C7.73142 14.3106 8.035 14.9675 8.53128 15.4642C9.02755 15.9608 9.6842 16.2649 10.384 16.3221C11.0837 16.3793 11.7811 16.1859 12.3514 15.7764C12.9217 15.3669 13.3279 14.7681 13.4975 14.0867C13.667 13.4054 13.5889 12.686 13.277 12.057L19.724 5.61C20.1235 5.80809 20.5626 5.91332 21.0085 5.91785C21.4544 5.92237 21.8955 5.82606 22.2989 5.63612C22.7024 5.44618 23.0576 5.16751 23.3382 4.82095C23.6188 4.4744 23.8174 4.0689 23.9193 3.63478C24.0211 3.20066 24.0235 2.74913 23.9263 2.31395C23.8291 1.87877 23.6348 1.47118 23.3579 1.12165C23.0811 0.772123 22.7288 0.48969 22.3274 0.29546C21.926 0.101231 21.4859 0.000227894 21.04 0H21.039ZM10.628 2.745C10.556 2.745 10.485 2.748 10.414 2.749C10.342 2.751 10.271 2.751 10.199 2.754C9.752 2.772 9.306 2.818 8.864 2.892L8.834 2.897L8.649 2.93L8.544 2.95C8.44728 2.96882 8.35093 2.98949 8.255 3.012L8.223 3.02C7.336 3.22675 6.47906 3.546 5.673 3.97L5.518 4.059C5.455 4.093 5.393 4.129 5.331 4.164C5.285 4.191 5.238 4.215 5.191 4.243L5.18 4.248L5.144 4.268V4.27L5.255 4.454L8.405 9.684C8.5281 9.61017 8.65494 9.54274 8.785 9.482C9.29519 9.23851 9.84844 9.09816 10.413 9.069C10.484 9.065 10.556 9.061 10.627 9.061L10.628 2.745ZM11.056 2.755V9.088C11.381 9.122 11.703 9.191 12.016 9.297L16.676 4.637C16.503 4.517 16.328 4.4 16.148 4.29L16.122 4.275C16.066 4.24 16.01 4.208 15.954 4.175L15.856 4.119L15.757 4.064C15.7002 4.0329 15.6432 4.00223 15.586 3.972L15.559 3.958C15.0997 3.71786 14.6234 3.51164 14.134 3.341C13.444 3.1 12.731 2.931 12.006 2.836L11.917 2.824L11.827 2.814C11.7704 2.80693 11.7137 2.80059 11.657 2.795L11.608 2.791L11.404 2.774C11.3191 2.76731 11.2341 2.76231 11.149 2.759C11.118 2.756 11.087 2.756 11.056 2.755ZM4.782 4.498C4.29868 4.81183 3.84363 5.16717 3.422 5.56L7.883 10.021L7.901 10.039C7.95 9.999 7.999 9.961 8.05 9.923L8.039 9.905L4.782 4.498ZM3.112 5.858C3.062 5.908 3.014 5.961 2.965 6.012L2.816 6.167C2.486 6.524 2.186 6.897 1.914 7.285L1.875 7.341C1.801 7.44833 1.72899 7.55701 1.659 7.667C0.652029 9.24877 0.0826673 11.0693 0.009 12.943L0.003 13.158L0 13.372H6.317C6.317 13.3 6.324 13.229 6.327 13.158C6.332 13.086 6.333 13.014 6.34 12.943C6.421 12.121 6.739 11.318 7.292 10.643C7.337 10.588 7.388 10.537 7.436 10.483C7.484 10.431 7.529 10.376 7.58 10.325L3.112 5.858ZM19.367 7.322L14.704 11.985C14.81 12.297 14.879 12.619 14.914 12.944H21.246L21.242 12.85C21.2343 12.6978 21.2237 12.5458 21.21 12.394L21.205 12.342C21.1971 12.2616 21.1884 12.1813 21.179 12.101V12.092L21.146 11.852V11.843C21.073 11.3381 20.9637 10.8392 20.819 10.35L20.816 10.34C20.7932 10.2638 20.7699 10.1878 20.746 10.112L20.736 10.082C20.7135 10.0138 20.6905 9.94582 20.667 9.878L20.647 9.823C20.6012 9.68609 20.5502 9.551 20.494 9.418C20.4642 9.34185 20.4332 9.26618 20.401 9.191C20.3802 9.1429 20.3592 9.0949 20.338 9.047L20.301 8.966C20.2747 8.90882 20.2481 8.85182 20.221 8.795L20.197 8.743L20.101 8.549L20.087 8.522C20.0504 8.45094 20.0131 8.38027 19.975 8.31L19.971 8.302C19.7875 7.96465 19.5859 7.6375 19.367 7.322ZM14.937 13.372C14.937 13.443 14.931 13.514 14.927 13.586C14.924 13.658 14.922 13.729 14.915 13.8C14.8321 14.6443 14.5009 15.445 13.963 16.101C13.918 16.156 13.867 16.208 13.819 16.261C13.771 16.314 13.726 16.369 13.675 16.42L18.142 20.887C18.193 20.836 18.241 20.783 18.29 20.732C18.34 20.68 18.39 20.629 18.438 20.577C18.769 20.219 19.071 19.844 19.343 19.455L19.375 19.409L19.473 19.265L19.558 19.135L19.598 19.072C20.6034 17.4911 21.1717 15.672 21.245 13.8C21.248 13.729 21.249 13.657 21.251 13.586C21.252 13.515 21.255 13.443 21.255 13.372H14.937ZM0.01 13.8L0.014 13.893L0.024 14.072L0.029 14.148L0.046 14.354L0.051 14.4C0.058 14.476 0.066 14.553 0.075 14.628L0.078 14.65C0.0879229 14.7328 0.0989238 14.8155 0.111 14.898C0.183 15.403 0.293 15.903 0.438 16.395L0.44 16.401C0.462 16.478 0.487 16.555 0.511 16.631L0.515 16.645L0.52 16.659C0.568836 16.8061 0.619841 16.9524 0.673 17.098L0.703 17.178L0.762 17.326C0.791783 17.4025 0.822787 17.4785 0.855 17.554L0.917 17.694L0.955 17.778L1.033 17.947L1.06 18.001C1.13158 18.1497 1.2066 18.2968 1.285 18.442L1.31 18.485L6.718 15.227L6.738 15.215C6.52651 14.7697 6.39291 14.2914 6.343 13.801H6.318L0.01 13.8ZM0.515 16.645L0.309 16.704L0.311 16.709L0.515 16.645ZM6.94 15.594L1.525 18.856C1.608 18.995 1.695 19.129 1.784 19.262L1.792 19.276L1.796 19.281L1.804 19.295C1.811 19.307 1.819 19.317 1.827 19.327L1.828 19.329C1.92397 19.4704 2.02333 19.6104 2.126 19.747L2.132 19.755C2.22577 19.8799 2.32246 20.0026 2.422 20.123L2.455 20.163C2.498 20.215 2.541 20.266 2.585 20.316L2.642 20.381L2.754 20.508L2.818 20.577L2.847 20.608L2.93 20.698L2.965 20.733C3.014 20.784 3.063 20.836 3.114 20.886L7.58 16.42C7.47912 16.3184 7.38397 16.2112 7.295 16.099C7.1647 15.9392 7.04675 15.7704 6.94 15.594ZM13.356 16.705C13.306 16.745 13.256 16.784 13.206 16.821L13.217 16.839L16.474 22.246C16.625 22.147 16.774 22.046 16.92 21.939C17.235 21.707 17.54 21.455 17.834 21.183L13.374 16.723L13.356 16.705ZM7.899 16.708L7.884 16.723L3.424 21.183C3.48814 21.2426 3.55314 21.3013 3.619 21.359C3.641 21.379 3.662 21.399 3.684 21.417L3.836 21.547C3.90691 21.6059 3.97858 21.6639 4.051 21.721L4.074 21.738L4.265 21.886L4.273 21.891C4.541 22.091 4.82 22.28 5.107 22.455L5.137 22.473L5.301 22.57L5.402 22.627C5.49059 22.6789 5.58063 22.7282 5.672 22.775C5.68 22.779 5.688 22.785 5.697 22.788C5.859 22.873 6.024 22.952 6.19 23.028L6.348 22.643L8.591 17.195L8.6 17.175C8.35171 17.0425 8.11693 16.8861 7.899 16.708ZM12.85 17.061C12.789 17.098 12.726 17.131 12.663 17.165C11.6597 17.704 10.484 17.8248 9.392 17.501C9.323 17.481 9.257 17.454 9.189 17.43C9.122 17.406 9.053 17.386 8.987 17.358L6.745 22.802L6.657 23.015L6.582 23.198L6.599 23.206C6.60515 23.2088 6.6115 23.2111 6.618 23.213L6.623 23.216C6.675 23.237 6.729 23.256 6.782 23.276C6.849 23.303 6.915 23.329 6.982 23.353L7.084 23.393C7.786 23.64 8.514 23.813 9.252 23.911L9.339 23.923L9.429 23.933L9.601 23.952C9.68486 23.9608 9.76888 23.9681 9.853 23.974C9.876 23.975 9.901 23.975 9.924 23.977L10.108 23.988L10.22 23.993C10.3393 23.9984 10.4586 24.0007 10.578 24H10.628C11.2288 24.0006 11.8286 23.9504 12.421 23.85L12.606 23.816L12.711 23.796L12.82 23.773L13 23.733L13.032 23.725C13.919 23.5183 14.776 23.1991 15.582 22.775C15.634 22.747 15.686 22.715 15.738 22.686C15.801 22.652 15.863 22.616 15.925 22.581C15.968 22.557 16.012 22.534 16.055 22.508L16.058 22.506L16.06 22.505L16.062 22.504L16.069 22.5L16.111 22.475L16.001 22.292L15.891 22.108L12.85 17.061ZM16.111 22.475L16.069 22.5L16.112 22.476L16.111 22.475Z" fill="black"/>
</g>
<defs>
<clipPath id="clip0_2_176">
<rect width="24" height="24" fill="white"/>
</clipPath>
</defs>
</svg>
