<svg width="24" height="24" viewBox="0 0 24 24" fill="none" xmlns="http://www.w3.org/2000/svg">
<path d="M22.3628 4.00097H1.63721C1.42028 3.99336 1.20411 4.03047 1.00215 4.11C0.800182 4.18953 0.61675 4.30978 0.463266 4.46327C0.309782 4.61675 0.189532 4.80018 0.11 5.00215C0.0304678 5.20411 -0.0066439 5.42028 0.000974631 5.63721V17.6362C-0.0066439 17.8532 0.0304678 18.0693 0.11 18.2713C0.189532 18.4733 0.309782 18.6567 0.463266 18.8102C0.61675 18.9637 0.800182 19.0839 1.00215 19.1634C1.20411 19.243 1.42028 19.2801 1.63721 19.2725H22.3628C22.5797 19.2801 22.7959 19.243 22.9979 19.1634C23.1998 19.0839 23.3832 18.9637 23.5367 18.8102C23.6902 18.6567 23.8105 18.4733 23.89 18.2713C23.9695 18.0693 24.0066 17.8532 23.999 17.6362V5.63721C24.0066 5.42028 23.9695 5.20411 23.89 5.00215C23.8105 4.80018 23.6902 4.61675 23.5367 4.46327C23.3832 4.30978 23.1998 4.18953 22.9979 4.11C22.7959 4.03047 22.5797 3.99336 22.3628 4.00097ZM21.8174 17.0908H2.18262V6.18262H21.8174V17.0908Z" fill="#43A047"/>
<path d="M6.00049 13.8184C7.20537 13.8184 8.18213 12.8416 8.18213 11.6367C8.18213 10.4318 7.20537 9.45508 6.00049 9.45508C4.7956 9.45508 3.81885 10.4318 3.81885 11.6367C3.81885 12.8416 4.7956 13.8184 6.00049 13.8184Z" fill="#43A047"/>
<path d="M12 13.8184C13.2049 13.8184 14.1816 12.8416 14.1816 11.6367C14.1816 10.4318 13.2049 9.45508 12 9.45508C10.7951 9.45508 9.81836 10.4318 9.81836 11.6367C9.81836 12.8416 10.7951 13.8184 12 13.8184Z" fill="#43A047"/>
<path d="M17.9995 13.8184C19.2044 13.8184 20.1812 12.8416 20.1812 11.6367C20.1812 10.4318 19.2044 9.45508 17.9995 9.45508C16.7946 9.45508 15.8179 10.4318 15.8179 11.6367C15.8179 12.8416 16.7946 13.8184 17.9995 13.8184Z" fill="#43A047"/>
</svg>
