<svg width="24" height="24" viewBox="0 0 24 24" fill="none" xmlns="http://www.w3.org/2000/svg">
<g clip-path="url(#clip0_2_180)">
<path fill-rule="evenodd" clip-rule="evenodd" d="M0 24H24V0H0V24Z" fill="#B8232F"/>
<path fill-rule="evenodd" clip-rule="evenodd" d="M7.81364 2.76265C10.7644 2.76265 11.6652 3.07978 12.6419 3.66294C14.2655 4.61683 15.1399 6.31146 15.1399 8.43168C15.1399 10.8676 14.0408 12.8279 12.1407 13.7811C11.3402 14.1784 10.5891 14.3907 8.66412 14.3907H6.73916V21.1714H3.23763V2.76265H7.81364ZM8.96308 5.75474H6.73916V11.3707H8.56453C9.98974 11.3707 10.4154 11.1851 10.8891 10.417C11.1909 9.91514 11.3145 9.3845 11.3145 8.50957C11.3145 6.78814 10.4397 5.75474 8.96308 5.75474Z" fill="white"/>
</g>
<defs>
<clipPath id="clip0_2_180">
<rect width="24" height="24" fill="white"/>
</clipPath>
</defs>
</svg>
