<svg width="24" height="24" viewBox="0 0 24 24" fill="none" xmlns="http://www.w3.org/2000/svg">
<g clip-path="url(#clip0_7_55)">
<path d="M23.9019 13.5237C24.7417 6.94891 20.0985 0.937994 13.5357 0.0981452C6.97291 -0.741704 0.937994 3.90146 0.0981451 10.4643C-0.741703 17.0271 3.90146 23.05 10.4643 23.9019C17.0391 24.7417 23.05 20.0985 23.9019 13.5237Z" fill="#FF6C37"/>
<path d="M16.3312 7.70478L11.2681 12.7679L9.84039 11.3401C14.8195 6.36102 15.3114 6.79294 16.3312 7.70478Z" fill="white"/>
<path d="M11.2681 12.8878C11.2321 12.8878 11.2081 12.8759 11.1841 12.8519L9.74441 11.4241C9.69641 11.3761 9.69641 11.3041 9.74441 11.2561C14.8075 6.19305 15.3354 6.67297 16.4032 7.63279C16.4272 7.65679 16.4392 7.68079 16.4392 7.71678C16.4392 7.75277 16.4272 7.77677 16.4032 7.80076L11.3401 12.8519C11.3281 12.8759 11.2921 12.8878 11.2681 12.8878ZM10.0084 11.3401L11.2681 12.5999L16.1513 7.71678C15.2634 6.92492 14.6635 6.68496 10.0084 11.3401Z" fill="#FF6C37"/>
<path d="M12.7199 14.2196L11.3401 12.8399L16.4032 7.77677C17.759 9.14452 15.7313 11.3641 12.7199 14.2196Z" fill="white"/>
<path d="M12.7199 14.3396C12.6839 14.3396 12.6599 14.3276 12.6359 14.3036L11.2561 12.9238C11.2321 12.8998 11.2321 12.8758 11.2321 12.8399C11.2321 12.8039 11.2441 12.7799 11.2681 12.7559L16.3312 7.69278C16.3792 7.64479 16.4512 7.64479 16.4992 7.69278C16.8111 7.98073 16.9791 8.38866 16.9671 8.80858C16.9431 10.1403 15.4314 11.832 12.8159 14.3036C12.7799 14.3276 12.7439 14.3396 12.7199 14.3396ZM11.5081 12.8399C12.2759 13.6197 12.5999 13.9317 12.7199 14.0516C14.7355 12.132 16.6912 10.1643 16.7032 8.80858C16.7151 8.49664 16.5952 8.18469 16.3912 7.94474L11.5081 12.8399Z" fill="#FF6C37"/>
<path d="M9.86438 11.3761L10.8842 12.3959C10.9082 12.4199 10.9082 12.4439 10.8842 12.4679C10.8722 12.4799 10.8722 12.4799 10.8602 12.4799L8.74859 12.9358C8.64061 12.9478 8.54462 12.8758 8.52063 12.7679C8.50863 12.7079 8.53262 12.6479 8.56862 12.6119L9.7924 11.3881C9.81639 11.3641 9.85239 11.3521 9.86438 11.3761Z" fill="white"/>
<path d="M8.71259 13.0558C8.53262 13.0558 8.40065 12.9118 8.40065 12.7319C8.40065 12.6479 8.43664 12.5639 8.49663 12.5039L9.72041 11.2801C9.7924 11.2201 9.88838 11.2201 9.96037 11.2801L10.9802 12.3C11.0522 12.3599 11.0522 12.4679 10.9802 12.5399C10.9562 12.5639 10.9322 12.5759 10.8962 12.5879L8.78458 13.0438C8.76058 13.0438 8.73659 13.0558 8.71259 13.0558ZM9.82839 11.5081L8.6526 12.6839C8.62861 12.7079 8.61661 12.7439 8.64061 12.7799C8.6526 12.8159 8.6886 12.8279 8.72459 12.8159L10.7042 12.3839L9.82839 11.5081Z" fill="#FF6C37"/>
<path d="M19.0067 4.89729C18.2389 4.15342 17.0031 4.17742 16.2592 4.95728C15.5154 5.73714 15.5394 6.96091 16.3192 7.70478C16.9551 8.31667 17.9149 8.42465 18.6708 7.96873L17.303 6.60098L19.0067 4.89729Z" fill="white"/>
<path d="M17.663 8.36466C16.5232 8.36466 15.5994 7.44083 15.5994 6.30103C15.5994 5.16124 16.5232 4.23741 17.663 4.23741C18.1909 4.23741 18.7068 4.44137 19.0907 4.8133C19.1147 4.8373 19.1267 4.86129 19.1267 4.89729C19.1267 4.93328 19.1147 4.95728 19.0907 4.98127L17.471 6.60098L18.7428 7.87275C18.7908 7.92074 18.7908 7.99273 18.7428 8.04072C18.7308 8.05272 18.7308 8.05272 18.7188 8.06472C18.4068 8.25668 18.0349 8.36466 17.663 8.36466ZM17.663 4.48936C16.6552 4.48936 15.8393 5.30521 15.8513 6.31303C15.8513 7.32085 16.6672 8.1367 17.675 8.12471C17.9509 8.12471 18.2269 8.06472 18.4788 7.93274L17.2191 6.68496C17.1951 6.66097 17.1831 6.63697 17.1831 6.60098C17.1831 6.56499 17.1951 6.54099 17.2191 6.517L18.8268 4.90928C18.5028 4.63333 18.0949 4.48936 17.663 4.48936Z" fill="#FF6C37"/>
<path d="M19.0427 4.93328L19.0187 4.90928L17.303 6.60098L18.6588 7.95674C18.7908 7.87275 18.9228 7.77677 19.0307 7.66879C19.7986 6.91292 19.7986 5.68914 19.0427 4.93328Z" fill="white"/>
<path d="M18.6708 8.08871C18.6348 8.08871 18.6108 8.07671 18.5868 8.05272L17.2191 6.68496C17.1951 6.66097 17.1831 6.63697 17.1831 6.60098C17.1831 6.56499 17.1951 6.54099 17.2191 6.517L18.9228 4.8133C18.9707 4.76531 19.0427 4.76531 19.0907 4.8133L19.1267 4.8373C19.9306 5.64115 19.9306 6.93692 19.1387 7.75277C19.0187 7.87275 18.8868 7.98073 18.7428 8.06472C18.7068 8.07671 18.6828 8.08871 18.6708 8.08871ZM17.471 6.60098L18.6828 7.81276C18.7788 7.75277 18.8748 7.66879 18.9467 7.5968C19.6306 6.91292 19.6666 5.79712 19.0067 5.07725L17.471 6.60098Z" fill="#FF6C37"/>
<path d="M16.5352 7.92074C16.2472 7.63279 15.7793 7.63279 15.4914 7.92074L10.9682 12.4439L11.724 13.1998L16.5112 9.00055C16.8231 8.7366 16.8471 8.26868 16.5832 7.95674C16.5592 7.94474 16.5472 7.93274 16.5352 7.92074Z" fill="white"/>
<path d="M11.7121 13.3198C11.6761 13.3198 11.6521 13.3078 11.6281 13.2838L10.8722 12.5279C10.8242 12.4799 10.8242 12.4079 10.8722 12.3599L15.3954 7.83676C15.7313 7.50082 16.2712 7.50082 16.6072 7.83676C16.9431 8.1727 16.9431 8.7126 16.6072 9.04854C16.5952 9.06054 16.5832 9.07253 16.5712 9.08453L11.784 13.2838C11.772 13.3078 11.748 13.3198 11.7121 13.3198ZM11.1362 12.4439L11.724 13.0318L16.4272 8.90456C16.6912 8.6886 16.7151 8.29268 16.4992 8.02872C16.2832 7.76477 15.8873 7.74078 15.6233 7.95674C15.6113 7.96873 15.5994 7.98073 15.5754 7.99273L11.1362 12.4439Z" fill="#FF6C37"/>
<path d="M7.50081 17.591C7.45282 17.615 7.42882 17.663 7.44082 17.711L7.64478 18.5748C7.69278 18.6948 7.62079 18.8388 7.48881 18.8748C7.39283 18.9108 7.28485 18.8748 7.22486 18.8028L5.9051 17.495L10.2123 13.1878L11.7001 13.2118L12.7079 14.2196C12.4679 14.4236 11.0162 15.8273 7.50081 17.591Z" fill="white"/>
<path d="M7.40483 18.9947C7.30884 18.9947 7.21286 18.9588 7.15287 18.8868L5.84511 17.579C5.82111 17.555 5.80912 17.531 5.80912 17.495C5.80912 17.459 5.82111 17.435 5.84511 17.411L10.1523 13.1038C10.1763 13.0798 10.2123 13.0678 10.2363 13.0678L11.724 13.0918C11.76 13.0918 11.784 13.1038 11.808 13.1278L12.8159 14.1356C12.8398 14.1596 12.8518 14.1956 12.8518 14.2316C12.8518 14.2676 12.8398 14.2916 12.8039 14.3156L12.7199 14.3876C11.4481 15.5034 9.72041 16.6192 7.5728 17.687L7.77676 18.5388C7.81275 18.6948 7.74077 18.8628 7.59679 18.9468C7.52481 18.9828 7.46482 18.9947 7.40483 18.9947ZM6.08507 17.495L7.32084 18.7188C7.35684 18.7788 7.42882 18.8028 7.48881 18.7668C7.5488 18.7308 7.5728 18.6588 7.5368 18.5988L7.33284 17.735C7.30884 17.627 7.35684 17.531 7.45282 17.483C9.57644 16.4152 11.2921 15.3114 12.5519 14.2196L11.6641 13.3318L10.2843 13.3078L6.08507 17.495Z" fill="#FF6C37"/>
<path d="M4.88528 18.5268L5.9171 17.495L7.45282 19.0307L5.00526 18.8628C4.89728 18.8508 4.82529 18.7548 4.83729 18.6468C4.83729 18.5988 4.84929 18.5508 4.88528 18.5268Z" fill="white"/>
<path d="M7.45282 19.1387L4.99326 18.9708C4.81329 18.9588 4.69332 18.8028 4.70531 18.6228C4.71731 18.5508 4.74131 18.4788 4.8013 18.4309L5.83311 17.399C5.8811 17.351 5.95309 17.351 6.00108 17.399L7.5368 18.9348C7.5728 18.9708 7.5848 19.0187 7.5608 19.0667C7.5368 19.1147 7.50081 19.1387 7.45282 19.1387ZM5.9171 17.663L4.96927 18.6108C4.93327 18.6348 4.93327 18.6948 4.96927 18.7188C4.98126 18.7308 4.99326 18.7428 5.01726 18.7428L7.14088 18.8868L5.9171 17.663Z" fill="#FF6C37"/>
<path d="M9.7924 13.7397C9.72041 13.7397 9.67242 13.6797 9.67242 13.6197C9.67242 13.5837 9.68442 13.5597 9.70841 13.5357L10.8722 12.3719C10.9202 12.324 10.9922 12.324 11.0402 12.3719L11.796 13.1278C11.832 13.1638 11.844 13.1998 11.832 13.2478C11.82 13.2838 11.784 13.3198 11.736 13.3318L9.81639 13.7397C9.8044 13.7397 9.7924 13.7397 9.7924 13.7397ZM10.9562 12.6239L10.1643 13.4158L11.4601 13.1398L10.9562 12.6239Z" fill="#FF6C37"/>
<path d="M11.7001 13.2118L10.3803 13.4997C10.2843 13.5237 10.1883 13.4637 10.1643 13.3678C10.1523 13.3078 10.1643 13.2478 10.2123 13.1998L10.9442 12.4679L11.7001 13.2118Z" fill="white"/>
<path d="M10.3563 13.6197C10.1883 13.6197 10.0564 13.4877 10.0564 13.3198C10.0564 13.2358 10.0923 13.1638 10.1403 13.1038L10.8722 12.3719C10.9202 12.324 10.9922 12.324 11.0402 12.3719L11.796 13.1278C11.832 13.1638 11.844 13.1998 11.832 13.2478C11.82 13.2838 11.784 13.3198 11.736 13.3318L10.4163 13.6197C10.3923 13.6197 10.3683 13.6197 10.3563 13.6197ZM10.9562 12.6239L10.3083 13.2718C10.2843 13.2958 10.2843 13.3198 10.2963 13.3438C10.3083 13.3678 10.3323 13.3798 10.3683 13.3798L11.4721 13.1398L10.9562 12.6239Z" fill="#FF6C37"/>
<path d="M19.0547 6.08507C19.0307 6.01309 18.9467 5.97709 18.8748 6.00109C18.8028 6.02508 18.7668 6.10907 18.7908 6.18106C18.7908 6.19305 18.8028 6.20505 18.8028 6.21705C18.8748 6.36102 18.8508 6.54099 18.7548 6.67297C18.7068 6.73296 18.7188 6.81694 18.7668 6.86493C18.8268 6.91292 18.9108 6.90093 18.9587 6.84094C19.1387 6.61298 19.1747 6.32503 19.0547 6.08507Z" fill="#FF6C37"/>
</g>
<defs>
<clipPath id="clip0_7_55">
<rect width="24" height="24" fill="white"/>
</clipPath>
</defs>
</svg>
