<svg width="24" height="24" viewBox="0 0 24 24" fill="none" xmlns="http://www.w3.org/2000/svg">
<path d="M12 10.406C11.5772 10.406 11.1718 10.5739 10.8729 10.8729C10.5739 11.1718 10.406 11.5772 10.406 12C10.406 12.4228 10.5739 12.8282 10.8729 13.1271C11.1718 13.4261 11.5772 13.594 12 13.594C12.4227 13.594 12.8282 13.4261 13.1271 13.1271C13.4261 12.8282 13.594 12.4228 13.594 12C13.594 11.5772 13.4261 11.1718 13.1271 10.8729C12.8282 10.5739 12.4227 10.406 12 10.406ZM17.499 6.076C17.7146 6.07082 17.9302 6.08892 18.142 6.13C18.3099 6.1624 18.4718 6.22041 18.622 6.302C18.7315 6.36299 18.8296 6.4425 18.912 6.537C18.9919 6.63016 19.0546 6.73683 19.097 6.852C19.1488 6.99726 19.1771 7.14983 19.181 7.304C19.188 7.499 19.166 7.702 19.123 7.907C19.069 8.168 18.983 8.428 18.879 8.685C18.742 9.019 18.575 9.345 18.389 9.663C18.144 10.08 17.869 10.481 17.572 10.87C17.427 11.061 17.272 11.246 17.117 11.431C16.897 11.193 16.674 10.959 16.444 10.731C15.7958 10.093 15.1114 9.49302 14.394 8.934L14.376 8.92L13.915 9.512L13.933 9.526C14.6273 10.0673 15.2897 10.6483 15.917 11.266C16.158 11.503 16.392 11.746 16.62 11.996C16.521 12.104 16.426 12.216 16.324 12.322C16.225 12.426 16.124 12.529 16.023 12.63L16.553 13.16C16.659 13.055 16.763 12.948 16.866 12.84C16.951 12.752 17.03 12.658 17.114 12.568C17.179 12.646 17.249 12.72 17.312 12.799C17.6393 13.2016 17.9428 13.623 18.221 14.061C18.432 14.397 18.625 14.742 18.785 15.097C18.9046 15.3572 19.0026 15.6268 19.078 15.903C19.1346 16.1111 19.1688 16.3246 19.18 16.54C19.188 16.718 19.173 16.891 19.13 17.048C19.096 17.171 19.043 17.287 18.973 17.386C18.905 17.484 18.815 17.572 18.712 17.642C18.591 17.725 18.448 17.788 18.294 17.833C18.106 17.887 17.904 17.914 17.694 17.923C17.428 17.933 17.156 17.913 16.88 17.873C16.523 17.822 16.167 17.739 15.813 17.635C15.349 17.498 14.893 17.328 14.444 17.135H14.443C13.859 16.882 13.29 16.592 12.733 16.275L12.708 16.26C13.286 15.883 13.852 15.49 14.394 15.066L14.184 14.796L14.395 15.066L14.413 15.051L13.95 14.461L13.933 14.475C13.238 15.017 12.515 15.522 11.765 15.98C11.1748 16.3415 10.5649 16.6697 9.93799 16.963C9.46499 17.182 8.984 17.378 8.494 17.539C8.12048 17.6635 7.73893 17.7623 7.35199 17.835C7.066 17.887 6.78099 17.921 6.49899 17.925C6.27699 17.928 6.06099 17.912 5.85599 17.87C5.68099 17.834 5.51799 17.778 5.37599 17.698C5.26499 17.635 5.16599 17.556 5.08599 17.464C5.00699 17.373 4.94399 17.265 4.90099 17.149C4.84999 17.012 4.82299 16.857 4.81699 16.696C4.8122 16.4934 4.83168 16.291 4.87499 16.093C4.92999 15.832 5.01499 15.573 5.11999 15.316C5.25995 14.9788 5.42369 14.652 5.60999 14.338C5.97967 13.712 6.40506 13.1206 6.88099 12.571C7.11299 12.822 7.34999 13.068 7.59299 13.308C8.23239 13.9341 8.9068 14.5234 9.61299 15.073L10.074 14.482C9.39053 13.9498 8.73781 13.3792 8.119 12.773C7.865 12.523 7.61799 12.267 7.37799 12.004C7.47699 11.896 7.57299 11.785 7.67299 11.679C7.77599 11.572 7.87899 11.466 7.98299 11.362L7.45299 10.832C7.345 10.94 7.23799 11.05 7.13199 11.16C7.04699 11.249 6.96699 11.343 6.88399 11.433C6.82899 11.367 6.76999 11.305 6.71499 11.238C6.38599 10.832 6.07699 10.411 5.79899 9.975C5.58499 9.637 5.391 9.292 5.22799 8.935C5.10199 8.66 4.99499 8.38 4.91999 8.097C4.86299 7.882 4.82599 7.669 4.81799 7.46C4.80863 7.28944 4.8255 7.11845 4.86799 6.953C4.90199 6.829 4.95499 6.714 5.02499 6.614C5.09299 6.516 5.18399 6.428 5.28599 6.358C5.41463 6.27271 5.55608 6.20857 5.70499 6.168C5.89199 6.113 6.09399 6.086 6.30399 6.078C6.57622 6.06958 6.84865 6.08564 7.11799 6.126C7.4789 6.18063 7.83546 6.26084 8.185 6.366C8.65097 6.50499 9.10813 6.67196 9.55399 6.866C10.1486 7.12447 10.7282 7.41627 11.29 7.74C10.7082 8.11604 10.1431 8.51708 9.59599 8.942L10.058 9.532C10.741 8.998 11.451 8.501 12.188 8.048C12.782 7.685 13.391 7.351 14.018 7.058C14.492 6.836 14.974 6.638 15.466 6.475C15.8408 6.3484 16.2236 6.24718 16.612 6.172C16.91 6.116 17.207 6.08 17.499 6.076ZM17.489 5.326C17.143 5.331 16.804 5.373 16.474 5.434C16.0521 5.51552 15.6361 5.62543 15.229 5.763C14.7078 5.93856 14.1973 6.14424 13.7 6.379C13.117 6.651 12.554 6.961 12.004 7.289C11.883 7.216 11.761 7.144 11.637 7.074C11.06 6.745 10.466 6.442 9.85199 6.177C9.37999 5.974 8.897 5.792 8.397 5.646C8.01699 5.534 7.62499 5.442 7.22499 5.384C6.91599 5.34 6.59899 5.316 6.27499 5.329C6.02099 5.339 5.759 5.372 5.49899 5.446C5.28099 5.51 5.06299 5.602 4.86299 5.74C4.50963 5.98057 4.25502 6.34065 4.14599 6.754C4.07799 7.001 4.05899 7.251 4.06899 7.491C4.08229 7.76082 4.12487 8.02839 4.19599 8.289C4.2856 8.61804 4.40303 8.93886 4.54699 9.248C4.72805 9.63752 4.93519 10.0144 5.16699 10.376C5.46321 10.8393 5.78609 11.2851 6.13399 11.711C6.21399 11.809 6.29999 11.901 6.38199 11.997C6.19299 12.219 6.00699 12.443 5.82999 12.676C5.51899 13.084 5.22599 13.51 4.96299 13.958C4.75834 14.3031 4.57855 14.6623 4.42499 15.033C4.30354 15.3265 4.20882 15.6304 4.14199 15.941C4.08899 16.19 4.05899 16.453 4.06899 16.723C4.07501 16.9578 4.11891 17.1902 4.19899 17.411V17.412C4.34711 17.8126 4.6347 18.1463 5.00899 18.352C5.22684 18.4719 5.46197 18.5572 5.70599 18.605C5.97097 18.6577 6.24091 18.6811 6.51099 18.675C6.83891 18.6679 7.16568 18.6338 7.48799 18.573L7.48899 18.572C7.90911 18.4936 8.32341 18.3867 8.72899 18.252C9.252 18.079 9.75999 17.872 10.255 17.642C10.854 17.364 11.433 17.049 11.997 16.712C12.118 16.784 12.24 16.856 12.363 16.926C12.9409 17.2582 13.5368 17.558 14.148 17.824C14.6219 18.0298 15.1078 18.2068 15.603 18.354C15.983 18.466 16.375 18.558 16.775 18.616C17.0893 18.6632 17.4073 18.6819 17.725 18.672C17.979 18.662 18.241 18.628 18.501 18.554C18.719 18.491 18.937 18.398 19.137 18.26C19.4903 18.0194 19.7449 17.6593 19.854 17.246C19.922 16.998 19.941 16.749 19.931 16.51C19.92 16.233 19.871 15.966 19.804 15.711C19.719 15.389 19.602 15.082 19.469 14.788C19.291 14.395 19.082 14.021 18.857 13.661C18.563 13.195 18.239 12.753 17.898 12.328C17.808 12.217 17.71 12.112 17.618 12.004C17.807 11.782 17.992 11.557 18.17 11.325C18.481 10.916 18.774 10.49 19.037 10.042C19.2416 9.69691 19.4214 9.33766 19.575 8.967C19.6964 8.67379 19.7911 8.37023 19.858 8.06C19.911 7.81 19.941 7.547 19.931 7.277C19.924 7.051 19.886 6.817 19.801 6.589V6.588C19.6529 6.18742 19.3653 5.85368 18.991 5.648C18.767 5.522 18.529 5.444 18.294 5.396C18.029 5.34335 17.7591 5.31988 17.489 5.326ZM12 0L22.392 6V18L12 24L1.60699 18V6L12 0Z" fill="#673AB8"/>
</svg>
