<svg width="24" height="24" viewBox="0 0 24 24" fill="none" xmlns="http://www.w3.org/2000/svg">
<path d="M11.558 1.03394C5.174 1.03394 0 6.20994 0 12.5919C0 13.8499 0.201 15.0619 0.574 16.1889L0.576 16.1819C0.707638 15.5738 0.884804 14.9765 1.106 14.3949L1.117 14.3649C1.202 14.1429 1.296 13.9229 1.394 13.7049L1.478 13.5239C1.558 13.3529 1.643 13.1839 1.731 13.0169C1.767 12.9489 1.801 12.8809 1.839 12.8139C1.859 12.7759 1.883 12.7409 1.903 12.7039C1.997 12.5379 2.093 12.3719 2.193 12.2109L2.268 12.0969C2.393 11.9019 2.524 11.7109 2.661 11.5239L2.696 11.4739C2.84 11.2809 2.991 11.0939 3.147 10.9109L3.247 10.7929C3.402 10.6159 3.562 10.4429 3.728 10.2759L3.827 10.1789C4.00291 10.0048 4.18503 9.837 4.373 9.67593C5.113 7.19593 7.378 5.39094 10.059 5.39094C11.138 5.39094 12.211 5.70094 13.13 6.26394C14.075 6.8469 14.8402 7.67997 15.341 8.67094L15.348 8.68594L15.388 8.75994V8.76294L15.392 8.76494C15.9528 9.11125 16.4777 9.51256 16.959 9.96294C16.999 9.99994 17.04 10.0339 17.079 10.0719C17.081 10.0719 17.085 10.0769 17.086 10.0779L17.084 10.0719L17.083 10.0679V10.0649L17.125 9.98094C17.502 7.59694 18.555 5.87894 19.795 5.87894C20.729 5.87894 21.557 6.85394 22.071 8.35494L22.076 8.37094L22.077 8.37294C22.222 8.53094 22.364 8.70394 22.501 8.89394L22.508 8.90394L22.529 8.97094L22.509 8.89294C20.967 4.32394 16.646 1.03594 11.557 1.03594L11.558 1.03394ZM9.927 5.47694C7.586 5.51994 5.34 7.13194 4.574 9.36493L4.562 9.39894C4.97622 9.06663 5.41591 8.76737 5.877 8.50394C8.683 6.84794 12.356 6.85794 15.155 8.51994C14.26 6.86694 12.524 5.70094 10.655 5.51594C10.4136 5.48572 10.1703 5.47269 9.927 5.47694ZM19.761 5.97694C19.6284 5.98014 19.497 6.00271 19.371 6.04394C18.106 6.60594 17.652 8.11694 17.34 9.34694L17.324 9.41893C17.689 8.79893 18.132 8.20394 18.72 7.77694C19.555 7.08994 20.825 7.12194 21.636 7.82994C21.944 8.15594 21.777 7.83794 21.667 7.60994C21.325 6.85994 20.642 5.95694 19.761 5.97594V5.97694ZM12.35 8.31494L11.28 11.5849L11.278 11.5899L11.272 11.5919L6.774 12.7039H6.765L11.221 13.7909C11.326 13.9009 11.448 13.9959 11.581 14.0709H11.583C11.625 14.0949 11.668 14.1159 11.712 14.1359L11.722 14.1409C11.763 14.1589 11.805 14.1739 11.848 14.1879L11.869 14.1959C11.909 14.2089 11.949 14.2189 11.989 14.2279L12.022 14.2359C12.1267 14.257 12.2332 14.2681 12.34 14.2689C12.6453 14.2698 12.9441 14.1802 13.1986 14.0115C13.4531 13.8428 13.6519 13.6025 13.77 13.3209C13.85 13.1349 13.893 12.9309 13.893 12.7169V12.7059L13.892 12.6939C13.891 12.6399 13.888 12.5869 13.882 12.5339L13.881 12.5319C13.875 12.4805 13.8663 12.4295 13.855 12.3789L13.854 12.3749C13.8317 12.276 13.7996 12.1795 13.758 12.0869V12.0839C13.6757 11.8991 13.5574 11.7325 13.41 11.5939V11.5909L12.35 8.31494ZM15.498 8.94094C15.546 9.94894 15.534 10.9869 15.398 11.9979C15.228 14.0159 14.208 15.7959 13.426 17.6139L13.396 17.6939L13.361 17.7799C14.871 16.2579 16.531 14.7399 17.33 12.6979C17.713 12.0619 17.448 11.3559 17.215 10.7219C17.045 9.84494 16.146 9.44394 15.498 8.94094ZM21.67 9.51293L21.082 12.2009C21.0625 12.2666 21.0468 12.3334 21.035 12.4009C21.033 12.4209 21.028 12.4409 21.025 12.4609C21.015 12.5345 21.0096 12.6087 21.009 12.6829L21.007 12.7139H21.01C21.01 13.3419 21.307 13.8499 21.673 13.8509C21.7363 13.8502 21.7986 13.8348 21.855 13.8059L21.882 13.7909C21.9065 13.7771 21.9299 13.7614 21.952 13.7439C21.965 13.7339 21.976 13.7219 21.988 13.7109C22.0415 13.6618 22.0877 13.6053 22.125 13.5429L22.155 13.4889C22.1741 13.4538 22.1914 13.4178 22.207 13.3809L22.224 13.3409C22.244 13.2879 22.262 13.2329 22.277 13.1749L22.279 13.1729L22.28 13.1699L22.684 12.7189L22.277 12.2629V12.2639L22.257 12.2009L21.67 9.51293ZM17.289 10.3689C17.979 12.0849 18.139 14.0759 17.38 15.7989C16.89 17.1669 15.793 18.2619 15.506 19.7039C16.236 19.8189 16.974 19.8799 17.716 19.8899C19.882 19.9189 22.048 19.4699 24 18.5249C21.96 15.6559 19.879 12.7699 17.289 10.3689ZM12.341 11.3459C12.4956 11.3459 12.6439 11.4074 12.7532 11.5167C12.8626 11.626 12.924 11.7743 12.924 11.9289C12.924 12.0836 12.8626 12.2318 12.7532 12.3412C12.6439 12.4505 12.4956 12.5119 12.341 12.5119C12.1864 12.5119 12.0381 12.4505 11.9288 12.3412C11.8194 12.2318 11.758 12.0836 11.758 11.9289C11.758 11.7743 11.8194 11.626 11.9288 11.5167C12.0381 11.4074 12.1864 11.3459 12.341 11.3459ZM21.693 11.7159C21.831 11.7159 21.942 11.9059 21.942 12.1419C21.942 12.3779 21.831 12.5679 21.693 12.5679C21.556 12.5679 21.445 12.3779 21.445 12.1419C21.445 11.9069 21.555 11.7159 21.693 11.7159ZM17.649 11.8999C17.633 12.0119 17.616 12.1089 17.599 12.1899L17.593 12.2129C17.583 12.2629 17.571 12.3069 17.56 12.3409C17.08 13.7579 16.285 14.8609 15.2 16.0379C15.053 16.1979 14.899 16.3579 14.741 16.5219C14.3481 16.9293 13.9494 17.331 13.545 17.7269C13.433 17.8369 13.286 17.9879 13.12 18.1629C13.017 18.4499 12.9 18.7729 12.802 19.1129C12.758 19.0969 12.716 19.0819 12.671 19.0639C10.563 18.2489 9.152 17.1599 9.152 17.1599C9.152 17.1599 10.238 18.5739 12.067 19.8999C12.244 20.0289 12.418 20.1399 12.589 20.2389C12.514 21.4329 13.041 22.5789 15.419 22.9209C15.8263 22.9761 16.239 22.9787 16.647 22.9289L16.637 22.8999C16.636 22.8965 16.6346 22.8931 16.633 22.8899C16.633 22.8899 16.466 22.7569 16.254 22.5129C16.0184 22.2426 15.8219 21.9407 15.67 21.6159C15.5432 21.3418 15.4538 21.0519 15.404 20.7539C15.3521 20.4322 15.3501 20.1043 15.398 19.7819C15.415 19.6619 15.438 19.5409 15.47 19.4159C15.563 19.0419 15.725 18.6439 15.977 18.2239L15.979 18.2209L16.22 17.8169C17.323 15.9569 18.017 14.5419 17.726 12.3759C17.7043 12.2166 17.6793 12.0579 17.649 11.8999ZM22.33 12.6789L22.333 12.7149V12.7249C22.333 12.7379 22.33 12.7499 22.33 12.7629C22.33 12.7489 22.333 12.7349 22.333 12.7199C22.333 12.7059 22.331 12.6939 22.33 12.6799V12.6789ZM22.318 12.9539L22.316 12.9649L22.314 12.9789L22.318 12.9539ZM23.671 18.8819C21.118 20.0199 18.231 20.3219 15.479 19.8889C15.339 20.9969 15.863 22.1069 16.693 22.8189L16.705 22.8289C19.408 22.3959 21.68 20.6599 23.671 18.8819Z" fill="#DF0067"/>
</svg>
