<svg width="124" height="124" viewBox="0 0 124 124" fill="none" xmlns="http://www.w3.org/2000/svg">
<g clip-path="url(#clip0_25_1592)">
<path d="M124 0H0V124H124V0Z"/>
<path d="M43.5677 13.4054H40.2163V16.7567H43.5677V13.4054Z" fill="black" fill-opacity="0.78"/>
<path d="M46.9187 13.4054H43.5674V16.7567H46.9187V13.4054Z" fill="black" fill-opacity="0.78"/>
<path d="M53.6219 13.4054H50.2705V16.7567H53.6219V13.4054Z" fill="black" fill-opacity="0.78"/>
<path d="M56.9729 13.4054H53.6216V16.7567H56.9729V13.4054Z" fill="black" fill-opacity="0.78"/>
<path d="M60.3245 13.4054H56.9731V16.7567H60.3245V13.4054Z" fill="black" fill-opacity="0.78"/>
<path d="M67.0271 13.4054H63.6758V16.7567H67.0271V13.4054Z" fill="black" fill-opacity="0.78"/>
<path d="M70.3782 13.4054H67.0269V16.7567H70.3782V13.4054Z" fill="black" fill-opacity="0.78"/>
<path d="M73.7298 13.4054H70.3784V16.7567H73.7298V13.4054Z" fill="black" fill-opacity="0.78"/>
<path d="M43.5677 16.7567H40.2163V20.1081H43.5677V16.7567Z" fill="black" fill-opacity="0.78"/>
<path d="M46.9187 16.7567H43.5674V20.1081H46.9187V16.7567Z" fill="black" fill-opacity="0.78"/>
<path d="M50.2703 16.7567H46.9189V20.1081H50.2703V16.7567Z" fill="black" fill-opacity="0.78"/>
<path d="M73.7298 16.7567H70.3784V20.1081H73.7298V16.7567Z" fill="black" fill-opacity="0.78"/>
<path d="M83.784 16.7567H80.4326V20.1081H83.784V16.7567Z" fill="black" fill-opacity="0.78"/>
<path d="M43.5677 20.1082H40.2163V23.4595H43.5677V20.1082Z" fill="black" fill-opacity="0.78"/>
<path d="M46.9187 20.1082H43.5674V23.4595H46.9187V20.1082Z" fill="black" fill-opacity="0.78"/>
<path d="M50.2703 20.1082H46.9189V23.4595H50.2703V20.1082Z" fill="black" fill-opacity="0.78"/>
<path d="M53.6219 20.1082H50.2705V23.4595H53.6219V20.1082Z" fill="black" fill-opacity="0.78"/>
<path d="M56.9729 20.1082H53.6216V23.4595H56.9729V20.1082Z" fill="black" fill-opacity="0.78"/>
<path d="M60.3245 20.1082H56.9731V23.4595H60.3245V20.1082Z" fill="black" fill-opacity="0.78"/>
<path d="M63.6756 20.1082H60.3242V23.4595H63.6756V20.1082Z" fill="black" fill-opacity="0.78"/>
<path d="M73.7298 20.1082H70.3784V23.4595H73.7298V20.1082Z" fill="black" fill-opacity="0.78"/>
<path d="M77.0808 20.1082H73.7295V23.4595H77.0808V20.1082Z" fill="black" fill-opacity="0.78"/>
<path d="M83.784 20.1082H80.4326V23.4595H83.784V20.1082Z" fill="black" fill-opacity="0.78"/>
<path d="M50.2703 23.4595H46.9189V26.8108H50.2703V23.4595Z" fill="black" fill-opacity="0.78"/>
<path d="M63.6756 23.4595H60.3242V26.8108H63.6756V23.4595Z" fill="black" fill-opacity="0.78"/>
<path d="M70.3782 23.4595H67.0269V26.8108H70.3782V23.4595Z" fill="black" fill-opacity="0.78"/>
<path d="M43.5677 26.8108H40.2163V30.1621H43.5677V26.8108Z" fill="black" fill-opacity="0.78"/>
<path d="M56.9729 26.8108H53.6216V30.1621H56.9729V26.8108Z" fill="black" fill-opacity="0.78"/>
<path d="M63.6756 26.8108H60.3242V30.1621H63.6756V26.8108Z" fill="black" fill-opacity="0.78"/>
<path d="M67.0271 26.8108H63.6758V30.1621H67.0271V26.8108Z" fill="black" fill-opacity="0.78"/>
<path d="M70.3782 26.8108H67.0269V30.1621H70.3782V26.8108Z" fill="black" fill-opacity="0.78"/>
<path d="M73.7298 26.8108H70.3784V30.1621H73.7298V26.8108Z" fill="black" fill-opacity="0.78"/>
<path d="M80.4324 26.8108H77.0811V30.1621H80.4324V26.8108Z" fill="black" fill-opacity="0.78"/>
<path d="M83.784 26.8108H80.4326V30.1621H83.784V26.8108Z" fill="black" fill-opacity="0.78"/>
<path d="M50.2703 30.1621H46.9189V33.5135H50.2703V30.1621Z" fill="black" fill-opacity="0.78"/>
<path d="M60.3245 30.1621H56.9731V33.5135H60.3245V30.1621Z" fill="black" fill-opacity="0.78"/>
<path d="M63.6756 30.1621H60.3242V33.5135H63.6756V30.1621Z" fill="black" fill-opacity="0.78"/>
<path d="M67.0271 30.1621H63.6758V33.5135H67.0271V30.1621Z" fill="black" fill-opacity="0.78"/>
<path d="M70.3782 30.1621H67.0269V33.5135H70.3782V30.1621Z" fill="black" fill-opacity="0.78"/>
<path d="M77.0808 30.1621H73.7295V33.5135H77.0808V30.1621Z" fill="black" fill-opacity="0.78"/>
<path d="M43.5677 33.5135H40.2163V36.8649H43.5677V33.5135Z" fill="black" fill-opacity="0.78"/>
<path d="M50.2703 33.5135H46.9189V36.8649H50.2703V33.5135Z" fill="black" fill-opacity="0.78"/>
<path d="M56.9729 33.5135H53.6216V36.8649H56.9729V33.5135Z" fill="black" fill-opacity="0.78"/>
<path d="M63.6756 33.5135H60.3242V36.8649H63.6756V33.5135Z" fill="black" fill-opacity="0.78"/>
<path d="M70.3782 33.5135H67.0269V36.8649H70.3782V33.5135Z" fill="black" fill-opacity="0.78"/>
<path d="M77.0808 33.5135H73.7295V36.8649H77.0808V33.5135Z" fill="black" fill-opacity="0.78"/>
<path d="M83.784 33.5135H80.4326V36.8649H83.784V33.5135Z" fill="black" fill-opacity="0.78"/>
<path d="M46.9187 36.8649H43.5674V40.2162H46.9187V36.8649Z" fill="black" fill-opacity="0.78"/>
<path d="M50.2703 36.8649H46.9189V40.2162H50.2703V36.8649Z" fill="black" fill-opacity="0.78"/>
<path d="M60.3245 36.8649H56.9731V40.2162H60.3245V36.8649Z" fill="black" fill-opacity="0.78"/>
<path d="M67.0271 36.8649H63.6758V40.2162H67.0271V36.8649Z" fill="black" fill-opacity="0.78"/>
<path d="M70.3782 36.8649H67.0269V40.2162H70.3782V36.8649Z" fill="black" fill-opacity="0.78"/>
<path d="M73.7298 36.8649H70.3784V40.2162H73.7298V36.8649Z" fill="black" fill-opacity="0.78"/>
<path d="M77.0808 36.8649H73.7295V40.2162H77.0808V36.8649Z" fill="black" fill-opacity="0.78"/>
<path d="M16.7566 40.2162H13.4053V43.5675H16.7566V40.2162Z" fill="black" fill-opacity="0.78"/>
<path d="M26.8108 40.2162H23.4595V43.5675H26.8108V40.2162Z" fill="black" fill-opacity="0.78"/>
<path d="M30.1624 40.2162H26.811V43.5675H30.1624V40.2162Z" fill="black" fill-opacity="0.78"/>
<path d="M33.5135 40.2162H30.1621V43.5675H33.5135V40.2162Z" fill="black" fill-opacity="0.78"/>
<path d="M36.865 40.2162H33.5137V43.5675H36.865V40.2162Z" fill="black" fill-opacity="0.78"/>
<path d="M40.2161 40.2162H36.8647V43.5675H40.2161V40.2162Z" fill="black" fill-opacity="0.78"/>
<path d="M43.5677 40.2162H40.2163V43.5675H43.5677V40.2162Z" fill="black" fill-opacity="0.78"/>
<path d="M60.3245 40.2162H56.9731V43.5675H60.3245V40.2162Z" fill="black" fill-opacity="0.78"/>
<path d="M67.0271 40.2162H63.6758V43.5675H67.0271V40.2162Z" fill="black" fill-opacity="0.78"/>
<path d="M73.7298 40.2162H70.3784V43.5675H73.7298V40.2162Z" fill="black" fill-opacity="0.78"/>
<path d="M80.4324 40.2162H77.0811V43.5675H80.4324V40.2162Z" fill="black" fill-opacity="0.78"/>
<path d="M87.135 40.2162H83.7837V43.5675H87.135V40.2162Z" fill="black" fill-opacity="0.78"/>
<path d="M97.1892 40.2162H93.8379V43.5675H97.1892V40.2162Z" fill="black" fill-opacity="0.78"/>
<path d="M103.892 40.2162H100.541V43.5675H103.892V40.2162Z" fill="black" fill-opacity="0.78"/>
<path d="M107.243 40.2162H103.892V43.5675H107.243V40.2162Z" fill="black" fill-opacity="0.78"/>
<path d="M110.595 40.2162H107.243V43.5675H110.595V40.2162Z" fill="black" fill-opacity="0.78"/>
<path d="M16.7566 43.5676H13.4053V46.919H16.7566V43.5676Z" fill="black" fill-opacity="0.78"/>
<path d="M23.4593 43.5676H20.1079V46.919H23.4593V43.5676Z" fill="black" fill-opacity="0.78"/>
<path d="M26.8108 43.5676H23.4595V46.919H26.8108V43.5676Z" fill="black" fill-opacity="0.78"/>
<path d="M30.1624 43.5676H26.811V46.919H30.1624V43.5676Z" fill="black" fill-opacity="0.78"/>
<path d="M46.9187 43.5676H43.5674V46.919H46.9187V43.5676Z" fill="black" fill-opacity="0.78"/>
<path d="M63.6756 43.5676H60.3242V46.919H63.6756V43.5676Z" fill="black" fill-opacity="0.78"/>
<path d="M70.3782 43.5676H67.0269V46.919H70.3782V43.5676Z" fill="black" fill-opacity="0.78"/>
<path d="M80.4324 43.5676H77.0811V46.919H80.4324V43.5676Z" fill="black" fill-opacity="0.78"/>
<path d="M87.135 43.5676H83.7837V46.919H87.135V43.5676Z" fill="black" fill-opacity="0.78"/>
<path d="M93.8377 43.5676H90.4863V46.919H93.8377V43.5676Z" fill="black" fill-opacity="0.78"/>
<path d="M97.1892 43.5676H93.8379V46.919H97.1892V43.5676Z" fill="black" fill-opacity="0.78"/>
<path d="M100.54 43.5676H97.189V46.919H100.54V43.5676Z" fill="black" fill-opacity="0.78"/>
<path d="M103.892 43.5676H100.541V46.919H103.892V43.5676Z" fill="black" fill-opacity="0.78"/>
<path d="M110.595 43.5676H107.243V46.919H110.595V43.5676Z" fill="black" fill-opacity="0.78"/>
<path d="M16.7566 46.9189H13.4053V50.2703H16.7566V46.9189Z" fill="black" fill-opacity="0.78"/>
<path d="M23.4593 46.9189H20.1079V50.2703H23.4593V46.9189Z" fill="black" fill-opacity="0.78"/>
<path d="M33.5135 46.9189H30.1621V50.2703H33.5135V46.9189Z" fill="black" fill-opacity="0.78"/>
<path d="M36.865 46.9189H33.5137V50.2703H36.865V46.9189Z" fill="black" fill-opacity="0.78"/>
<path d="M40.2161 46.9189H36.8647V50.2703H40.2161V46.9189Z" fill="black" fill-opacity="0.78"/>
<path d="M50.2703 46.9189H46.9189V50.2703H50.2703V46.9189Z" fill="black" fill-opacity="0.78"/>
<path d="M53.6219 46.9189H50.2705V50.2703H53.6219V46.9189Z" fill="black" fill-opacity="0.78"/>
<path d="M56.9729 46.9189H53.6216V50.2703H56.9729V46.9189Z" fill="black" fill-opacity="0.78"/>
<path d="M60.3245 46.9189H56.9731V50.2703H60.3245V46.9189Z" fill="black" fill-opacity="0.78"/>
<path d="M67.0271 46.9189H63.6758V50.2703H67.0271V46.9189Z" fill="black" fill-opacity="0.78"/>
<path d="M80.4324 46.9189H77.0811V50.2703H80.4324V46.9189Z" fill="black" fill-opacity="0.78"/>
<path d="M83.784 46.9189H80.4326V50.2703H83.784V46.9189Z" fill="black" fill-opacity="0.78"/>
<path d="M87.135 46.9189H83.7837V50.2703H87.135V46.9189Z" fill="black" fill-opacity="0.78"/>
<path d="M100.54 46.9189H97.189V50.2703H100.54V46.9189Z" fill="black" fill-opacity="0.78"/>
<path d="M20.1082 50.2703H16.7568V53.6216H20.1082V50.2703Z" fill="black" fill-opacity="0.78"/>
<path d="M26.8108 50.2703H23.4595V53.6216H26.8108V50.2703Z" fill="black" fill-opacity="0.78"/>
<path d="M33.5135 50.2703H30.1621V53.6216H33.5135V50.2703Z" fill="black" fill-opacity="0.78"/>
<path d="M40.2161 50.2703H36.8647V53.6216H40.2161V50.2703Z" fill="black" fill-opacity="0.78"/>
<path d="M43.5677 50.2703H40.2163V53.6216H43.5677V50.2703Z" fill="black" fill-opacity="0.78"/>
<path d="M56.9729 50.2703H53.6216V53.6216H56.9729V50.2703Z" fill="black" fill-opacity="0.78"/>
<path d="M63.6756 50.2703H60.3242V53.6216H63.6756V50.2703Z" fill="black" fill-opacity="0.78"/>
<path d="M67.0271 50.2703H63.6758V53.6216H67.0271V50.2703Z" fill="black" fill-opacity="0.78"/>
<path d="M73.7298 50.2703H70.3784V53.6216H73.7298V50.2703Z" fill="black" fill-opacity="0.78"/>
<path d="M77.0808 50.2703H73.7295V53.6216H77.0808V50.2703Z" fill="black" fill-opacity="0.78"/>
<path d="M80.4324 50.2703H77.0811V53.6216H80.4324V50.2703Z" fill="black" fill-opacity="0.78"/>
<path d="M97.1892 50.2703H93.8379V53.6216H97.1892V50.2703Z" fill="black" fill-opacity="0.78"/>
<path d="M100.54 50.2703H97.189V53.6216H100.54V50.2703Z" fill="black" fill-opacity="0.78"/>
<path d="M107.243 50.2703H103.892V53.6216H107.243V50.2703Z" fill="black" fill-opacity="0.78"/>
<path d="M16.7566 53.6216H13.4053V56.9729H16.7566V53.6216Z" fill="black" fill-opacity="0.78"/>
<path d="M26.8108 53.6216H23.4595V56.9729H26.8108V53.6216Z" fill="black" fill-opacity="0.78"/>
<path d="M36.865 53.6216H33.5137V56.9729H36.865V53.6216Z" fill="black" fill-opacity="0.78"/>
<path d="M50.2703 53.6216H46.9189V56.9729H50.2703V53.6216Z" fill="black" fill-opacity="0.78"/>
<path d="M53.6219 53.6216H50.2705V56.9729H53.6219V53.6216Z" fill="black" fill-opacity="0.78"/>
<path d="M56.9729 53.6216H53.6216V56.9729H56.9729V53.6216Z" fill="black" fill-opacity="0.78"/>
<path d="M63.6756 53.6216H60.3242V56.9729H63.6756V53.6216Z" fill="black" fill-opacity="0.78"/>
<path d="M67.0271 53.6216H63.6758V56.9729H67.0271V53.6216Z" fill="black" fill-opacity="0.78"/>
<path d="M70.3782 53.6216H67.0269V56.9729H70.3782V53.6216Z" fill="black" fill-opacity="0.78"/>
<path d="M80.4324 53.6216H77.0811V56.9729H80.4324V53.6216Z" fill="black" fill-opacity="0.78"/>
<path d="M100.54 53.6216H97.189V56.9729H100.54V53.6216Z" fill="black" fill-opacity="0.78"/>
<path d="M103.892 53.6216H100.541V56.9729H103.892V53.6216Z" fill="black" fill-opacity="0.78"/>
<path d="M110.595 53.6216H107.243V56.9729H110.595V53.6216Z" fill="black" fill-opacity="0.78"/>
<path d="M16.7566 56.973H13.4053V60.3244H16.7566V56.973Z" fill="black" fill-opacity="0.78"/>
<path d="M20.1082 56.973H16.7568V60.3244H20.1082V56.973Z" fill="black" fill-opacity="0.78"/>
<path d="M23.4593 56.973H20.1079V60.3244H23.4593V56.973Z" fill="black" fill-opacity="0.78"/>
<path d="M50.2703 56.973H46.9189V60.3244H50.2703V56.973Z" fill="black" fill-opacity="0.78"/>
<path d="M60.3245 56.973H56.9731V60.3244H60.3245V56.973Z" fill="black" fill-opacity="0.78"/>
<path d="M70.3782 56.973H67.0269V60.3244H70.3782V56.973Z" fill="black" fill-opacity="0.78"/>
<path d="M77.0808 56.973H73.7295V60.3244H77.0808V56.973Z" fill="black" fill-opacity="0.78"/>
<path d="M83.784 56.973H80.4326V60.3244H83.784V56.973Z" fill="black" fill-opacity="0.78"/>
<path d="M90.4866 56.973H87.1353V60.3244H90.4866V56.973Z" fill="black" fill-opacity="0.78"/>
<path d="M93.8377 56.973H90.4863V60.3244H93.8377V56.973Z" fill="black" fill-opacity="0.78"/>
<path d="M97.1892 56.973H93.8379V60.3244H97.1892V56.973Z" fill="black" fill-opacity="0.78"/>
<path d="M103.892 56.973H100.541V60.3244H103.892V56.973Z" fill="black" fill-opacity="0.78"/>
<path d="M16.7566 60.3243H13.4053V63.6757H16.7566V60.3243Z" fill="black" fill-opacity="0.78"/>
<path d="M30.1624 60.3243H26.811V63.6757H30.1624V60.3243Z" fill="black" fill-opacity="0.78"/>
<path d="M36.865 60.3243H33.5137V63.6757H36.865V60.3243Z" fill="black" fill-opacity="0.78"/>
<path d="M50.2703 60.3243H46.9189V63.6757H50.2703V60.3243Z" fill="black" fill-opacity="0.78"/>
<path d="M53.6219 60.3243H50.2705V63.6757H53.6219V60.3243Z" fill="black" fill-opacity="0.78"/>
<path d="M56.9729 60.3243H53.6216V63.6757H56.9729V60.3243Z" fill="black" fill-opacity="0.78"/>
<path d="M63.6756 60.3243H60.3242V63.6757H63.6756V60.3243Z" fill="black" fill-opacity="0.78"/>
<path d="M67.0271 60.3243H63.6758V63.6757H67.0271V60.3243Z" fill="black" fill-opacity="0.78"/>
<path d="M73.7298 60.3243H70.3784V63.6757H73.7298V60.3243Z" fill="black" fill-opacity="0.78"/>
<path d="M80.4324 60.3243H77.0811V63.6757H80.4324V60.3243Z" fill="black" fill-opacity="0.78"/>
<path d="M83.784 60.3243H80.4326V63.6757H83.784V60.3243Z" fill="black" fill-opacity="0.78"/>
<path d="M90.4866 60.3243H87.1353V63.6757H90.4866V60.3243Z" fill="black" fill-opacity="0.78"/>
<path d="M93.8377 60.3243H90.4863V63.6757H93.8377V60.3243Z" fill="black" fill-opacity="0.78"/>
<path d="M103.892 60.3243H100.541V63.6757H103.892V60.3243Z" fill="black" fill-opacity="0.78"/>
<path d="M107.243 60.3243H103.892V63.6757H107.243V60.3243Z" fill="black" fill-opacity="0.78"/>
<path d="M16.7566 63.6757H13.4053V67.027H16.7566V63.6757Z" fill="black" fill-opacity="0.78"/>
<path d="M20.1082 63.6757H16.7568V67.027H20.1082V63.6757Z" fill="black" fill-opacity="0.78"/>
<path d="M30.1624 63.6757H26.811V67.027H30.1624V63.6757Z" fill="black" fill-opacity="0.78"/>
<path d="M50.2703 63.6757H46.9189V67.027H50.2703V63.6757Z" fill="black" fill-opacity="0.78"/>
<path d="M56.9729 63.6757H53.6216V67.027H56.9729V63.6757Z" fill="black" fill-opacity="0.78"/>
<path d="M63.6756 63.6757H60.3242V67.027H63.6756V63.6757Z" fill="black" fill-opacity="0.78"/>
<path d="M67.0271 63.6757H63.6758V67.027H67.0271V63.6757Z" fill="black" fill-opacity="0.78"/>
<path d="M73.7298 63.6757H70.3784V67.027H73.7298V63.6757Z" fill="black" fill-opacity="0.78"/>
<path d="M77.0808 63.6757H73.7295V67.027H77.0808V63.6757Z" fill="black" fill-opacity="0.78"/>
<path d="M80.4324 63.6757H77.0811V67.027H80.4324V63.6757Z" fill="black" fill-opacity="0.78"/>
<path d="M87.135 63.6757H83.7837V67.027H87.135V63.6757Z" fill="black" fill-opacity="0.78"/>
<path d="M93.8377 63.6757H90.4863V67.027H93.8377V63.6757Z" fill="black" fill-opacity="0.78"/>
<path d="M97.1892 63.6757H93.8379V67.027H97.1892V63.6757Z" fill="black" fill-opacity="0.78"/>
<path d="M103.892 63.6757H100.541V67.027H103.892V63.6757Z" fill="black" fill-opacity="0.78"/>
<path d="M16.7566 67.027H13.4053V70.3783H16.7566V67.027Z" fill="black" fill-opacity="0.78"/>
<path d="M23.4593 67.027H20.1079V70.3783H23.4593V67.027Z" fill="black" fill-opacity="0.78"/>
<path d="M26.8108 67.027H23.4595V70.3783H26.8108V67.027Z" fill="black" fill-opacity="0.78"/>
<path d="M30.1624 67.027H26.811V70.3783H30.1624V67.027Z" fill="black" fill-opacity="0.78"/>
<path d="M36.865 67.027H33.5137V70.3783H36.865V67.027Z" fill="black" fill-opacity="0.78"/>
<path d="M43.5677 67.027H40.2163V70.3783H43.5677V67.027Z" fill="black" fill-opacity="0.78"/>
<path d="M46.9187 67.027H43.5674V70.3783H46.9187V67.027Z" fill="black" fill-opacity="0.78"/>
<path d="M53.6219 67.027H50.2705V70.3783H53.6219V67.027Z" fill="black" fill-opacity="0.78"/>
<path d="M56.9729 67.027H53.6216V70.3783H56.9729V67.027Z" fill="black" fill-opacity="0.78"/>
<path d="M67.0271 67.027H63.6758V70.3783H67.0271V67.027Z" fill="black" fill-opacity="0.78"/>
<path d="M70.3782 67.027H67.0269V70.3783H70.3782V67.027Z" fill="black" fill-opacity="0.78"/>
<path d="M87.135 67.027H83.7837V70.3783H87.135V67.027Z" fill="black" fill-opacity="0.78"/>
<path d="M103.892 67.027H100.541V70.3783H103.892V67.027Z" fill="black" fill-opacity="0.78"/>
<path d="M16.7566 70.3784H13.4053V73.7298H16.7566V70.3784Z" fill="black" fill-opacity="0.78"/>
<path d="M20.1082 70.3784H16.7568V73.7298H20.1082V70.3784Z" fill="black" fill-opacity="0.78"/>
<path d="M26.8108 70.3784H23.4595V73.7298H26.8108V70.3784Z" fill="black" fill-opacity="0.78"/>
<path d="M30.1624 70.3784H26.811V73.7298H30.1624V70.3784Z" fill="black" fill-opacity="0.78"/>
<path d="M46.9187 70.3784H43.5674V73.7298H46.9187V70.3784Z" fill="black" fill-opacity="0.78"/>
<path d="M56.9729 70.3784H53.6216V73.7298H56.9729V70.3784Z" fill="black" fill-opacity="0.78"/>
<path d="M63.6756 70.3784H60.3242V73.7298H63.6756V70.3784Z" fill="black" fill-opacity="0.78"/>
<path d="M67.0271 70.3784H63.6758V73.7298H67.0271V70.3784Z" fill="black" fill-opacity="0.78"/>
<path d="M73.7298 70.3784H70.3784V73.7298H73.7298V70.3784Z" fill="black" fill-opacity="0.78"/>
<path d="M87.135 70.3784H83.7837V73.7298H87.135V70.3784Z" fill="black" fill-opacity="0.78"/>
<path d="M90.4866 70.3784H87.1353V73.7298H90.4866V70.3784Z" fill="black" fill-opacity="0.78"/>
<path d="M97.1892 70.3784H93.8379V73.7298H97.1892V70.3784Z" fill="black" fill-opacity="0.78"/>
<path d="M100.54 70.3784H97.189V73.7298H100.54V70.3784Z" fill="black" fill-opacity="0.78"/>
<path d="M107.243 70.3784H103.892V73.7298H107.243V70.3784Z" fill="black" fill-opacity="0.78"/>
<path d="M110.595 70.3784H107.243V73.7298H110.595V70.3784Z" fill="black" fill-opacity="0.78"/>
<path d="M16.7566 73.7297H13.4053V77.0811H16.7566V73.7297Z" fill="black" fill-opacity="0.78"/>
<path d="M20.1082 73.7297H16.7568V77.0811H20.1082V73.7297Z" fill="black" fill-opacity="0.78"/>
<path d="M30.1624 73.7297H26.811V77.0811H30.1624V73.7297Z" fill="black" fill-opacity="0.78"/>
<path d="M33.5135 73.7297H30.1621V77.0811H33.5135V73.7297Z" fill="black" fill-opacity="0.78"/>
<path d="M36.865 73.7297H33.5137V77.0811H36.865V73.7297Z" fill="black" fill-opacity="0.78"/>
<path d="M43.5677 73.7297H40.2163V77.0811H43.5677V73.7297Z" fill="black" fill-opacity="0.78"/>
<path d="M50.2703 73.7297H46.9189V77.0811H50.2703V73.7297Z" fill="black" fill-opacity="0.78"/>
<path d="M53.6219 73.7297H50.2705V77.0811H53.6219V73.7297Z" fill="black" fill-opacity="0.78"/>
<path d="M56.9729 73.7297H53.6216V77.0811H56.9729V73.7297Z" fill="black" fill-opacity="0.78"/>
<path d="M70.3782 73.7297H67.0269V77.0811H70.3782V73.7297Z" fill="black" fill-opacity="0.78"/>
<path d="M90.4866 73.7297H87.1353V77.0811H90.4866V73.7297Z" fill="black" fill-opacity="0.78"/>
<path d="M107.243 73.7297H103.892V77.0811H107.243V73.7297Z" fill="black" fill-opacity="0.78"/>
<path d="M16.7566 77.0811H13.4053V80.4324H16.7566V77.0811Z" fill="black" fill-opacity="0.78"/>
<path d="M20.1082 77.0811H16.7568V80.4324H20.1082V77.0811Z" fill="black" fill-opacity="0.78"/>
<path d="M23.4593 77.0811H20.1079V80.4324H23.4593V77.0811Z" fill="black" fill-opacity="0.78"/>
<path d="M26.8108 77.0811H23.4595V80.4324H26.8108V77.0811Z" fill="black" fill-opacity="0.78"/>
<path d="M46.9187 77.0811H43.5674V80.4324H46.9187V77.0811Z" fill="black" fill-opacity="0.78"/>
<path d="M50.2703 77.0811H46.9189V80.4324H50.2703V77.0811Z" fill="black" fill-opacity="0.78"/>
<path d="M53.6219 77.0811H50.2705V80.4324H53.6219V77.0811Z" fill="black" fill-opacity="0.78"/>
<path d="M60.3245 77.0811H56.9731V80.4324H60.3245V77.0811Z" fill="black" fill-opacity="0.78"/>
<path d="M63.6756 77.0811H60.3242V80.4324H63.6756V77.0811Z" fill="black" fill-opacity="0.78"/>
<path d="M67.0271 77.0811H63.6758V80.4324H67.0271V77.0811Z" fill="black" fill-opacity="0.78"/>
<path d="M70.3782 77.0811H67.0269V80.4324H70.3782V77.0811Z" fill="black" fill-opacity="0.78"/>
<path d="M87.135 77.0811H83.7837V80.4324H87.135V77.0811Z" fill="black" fill-opacity="0.78"/>
<path d="M90.4866 77.0811H87.1353V80.4324H90.4866V77.0811Z" fill="black" fill-opacity="0.78"/>
<path d="M93.8377 77.0811H90.4863V80.4324H93.8377V77.0811Z" fill="black" fill-opacity="0.78"/>
<path d="M97.1892 77.0811H93.8379V80.4324H97.1892V77.0811Z" fill="black" fill-opacity="0.78"/>
<path d="M100.54 77.0811H97.189V80.4324H100.54V77.0811Z" fill="black" fill-opacity="0.78"/>
<path d="M103.892 77.0811H100.541V80.4324H103.892V77.0811Z" fill="black" fill-opacity="0.78"/>
<path d="M110.595 77.0811H107.243V80.4324H110.595V77.0811Z" fill="black" fill-opacity="0.78"/>
<path d="M16.7566 80.4325H13.4053V83.7838H16.7566V80.4325Z" fill="black" fill-opacity="0.78"/>
<path d="M20.1082 80.4325H16.7568V83.7838H20.1082V80.4325Z" fill="black" fill-opacity="0.78"/>
<path d="M33.5135 80.4325H30.1621V83.7838H33.5135V80.4325Z" fill="black" fill-opacity="0.78"/>
<path d="M36.865 80.4325H33.5137V83.7838H36.865V80.4325Z" fill="black" fill-opacity="0.78"/>
<path d="M40.2161 80.4325H36.8647V83.7838H40.2161V80.4325Z" fill="black" fill-opacity="0.78"/>
<path d="M46.9187 80.4325H43.5674V83.7838H46.9187V80.4325Z" fill="black" fill-opacity="0.78"/>
<path d="M67.0271 80.4325H63.6758V83.7838H67.0271V80.4325Z" fill="black" fill-opacity="0.78"/>
<path d="M70.3782 80.4325H67.0269V83.7838H70.3782V80.4325Z" fill="black" fill-opacity="0.78"/>
<path d="M73.7298 80.4325H70.3784V83.7838H73.7298V80.4325Z" fill="black" fill-opacity="0.78"/>
<path d="M77.0808 80.4325H73.7295V83.7838H77.0808V80.4325Z" fill="black" fill-opacity="0.78"/>
<path d="M80.4324 80.4325H77.0811V83.7838H80.4324V80.4325Z" fill="black" fill-opacity="0.78"/>
<path d="M83.784 80.4325H80.4326V83.7838H83.784V80.4325Z" fill="black" fill-opacity="0.78"/>
<path d="M87.135 80.4325H83.7837V83.7838H87.135V80.4325Z" fill="black" fill-opacity="0.78"/>
<path d="M90.4866 80.4325H87.1353V83.7838H90.4866V80.4325Z" fill="black" fill-opacity="0.78"/>
<path d="M93.8377 80.4325H90.4863V83.7838H93.8377V80.4325Z" fill="black" fill-opacity="0.78"/>
<path d="M97.1892 80.4325H93.8379V83.7838H97.1892V80.4325Z" fill="black" fill-opacity="0.78"/>
<path d="M103.892 80.4325H100.541V83.7838H103.892V80.4325Z" fill="black" fill-opacity="0.78"/>
<path d="M107.243 80.4325H103.892V83.7838H107.243V80.4325Z" fill="black" fill-opacity="0.78"/>
<path d="M110.595 80.4325H107.243V83.7838H110.595V80.4325Z" fill="black" fill-opacity="0.78"/>
<path d="M43.5677 83.7838H40.2163V87.1352H43.5677V83.7838Z" fill="black" fill-opacity="0.78"/>
<path d="M50.2703 83.7838H46.9189V87.1352H50.2703V83.7838Z" fill="black" fill-opacity="0.78"/>
<path d="M53.6219 83.7838H50.2705V87.1352H53.6219V83.7838Z" fill="black" fill-opacity="0.78"/>
<path d="M77.0808 83.7838H73.7295V87.1352H77.0808V83.7838Z" fill="black" fill-opacity="0.78"/>
<path d="M83.784 83.7838H80.4326V87.1352H83.784V83.7838Z" fill="black" fill-opacity="0.78"/>
<path d="M97.1892 83.7838H93.8379V87.1352H97.1892V83.7838Z" fill="black" fill-opacity="0.78"/>
<path d="M103.892 83.7838H100.541V87.1352H103.892V83.7838Z" fill="black" fill-opacity="0.78"/>
<path d="M110.595 83.7838H107.243V87.1352H110.595V83.7838Z" fill="black" fill-opacity="0.78"/>
<path d="M43.5677 87.1351H40.2163V90.4865H43.5677V87.1351Z" fill="black" fill-opacity="0.78"/>
<path d="M46.9187 87.1351H43.5674V90.4865H46.9187V87.1351Z" fill="black" fill-opacity="0.78"/>
<path d="M50.2703 87.1351H46.9189V90.4865H50.2703V87.1351Z" fill="black" fill-opacity="0.78"/>
<path d="M53.6219 87.1351H50.2705V90.4865H53.6219V87.1351Z" fill="black" fill-opacity="0.78"/>
<path d="M60.3245 87.1351H56.9731V90.4865H60.3245V87.1351Z" fill="black" fill-opacity="0.78"/>
<path d="M63.6756 87.1351H60.3242V90.4865H63.6756V87.1351Z" fill="black" fill-opacity="0.78"/>
<path d="M67.0271 87.1351H63.6758V90.4865H67.0271V87.1351Z" fill="black" fill-opacity="0.78"/>
<path d="M70.3782 87.1351H67.0269V90.4865H70.3782V87.1351Z" fill="black" fill-opacity="0.78"/>
<path d="M83.784 87.1351H80.4326V90.4865H83.784V87.1351Z" fill="black" fill-opacity="0.78"/>
<path d="M90.4866 87.1351H87.1353V90.4865H90.4866V87.1351Z" fill="black" fill-opacity="0.78"/>
<path d="M97.1892 87.1351H93.8379V90.4865H97.1892V87.1351Z" fill="black" fill-opacity="0.78"/>
<path d="M100.54 87.1351H97.189V90.4865H100.54V87.1351Z" fill="black" fill-opacity="0.78"/>
<path d="M43.5677 90.4865H40.2163V93.8378H43.5677V90.4865Z" fill="black" fill-opacity="0.78"/>
<path d="M46.9187 90.4865H43.5674V93.8378H46.9187V90.4865Z" fill="black" fill-opacity="0.78"/>
<path d="M50.2703 90.4865H46.9189V93.8378H50.2703V90.4865Z" fill="black" fill-opacity="0.78"/>
<path d="M56.9729 90.4865H53.6216V93.8378H56.9729V90.4865Z" fill="black" fill-opacity="0.78"/>
<path d="M60.3245 90.4865H56.9731V93.8378H60.3245V90.4865Z" fill="black" fill-opacity="0.78"/>
<path d="M67.0271 90.4865H63.6758V93.8378H67.0271V90.4865Z" fill="black" fill-opacity="0.78"/>
<path d="M77.0808 90.4865H73.7295V93.8378H77.0808V90.4865Z" fill="black" fill-opacity="0.78"/>
<path d="M80.4324 90.4865H77.0811V93.8378H80.4324V90.4865Z" fill="black" fill-opacity="0.78"/>
<path d="M83.784 90.4865H80.4326V93.8378H83.784V90.4865Z" fill="black" fill-opacity="0.78"/>
<path d="M97.1892 90.4865H93.8379V93.8378H97.1892V90.4865Z" fill="black" fill-opacity="0.78"/>
<path d="M103.892 90.4865H100.541V93.8378H103.892V90.4865Z" fill="black" fill-opacity="0.78"/>
<path d="M43.5677 93.8379H40.2163V97.1892H43.5677V93.8379Z" fill="black" fill-opacity="0.78"/>
<path d="M46.9187 93.8379H43.5674V97.1892H46.9187V93.8379Z" fill="black" fill-opacity="0.78"/>
<path d="M50.2703 93.8379H46.9189V97.1892H50.2703V93.8379Z" fill="black" fill-opacity="0.78"/>
<path d="M67.0271 93.8379H63.6758V97.1892H67.0271V93.8379Z" fill="black" fill-opacity="0.78"/>
<path d="M73.7298 93.8379H70.3784V97.1892H73.7298V93.8379Z" fill="black" fill-opacity="0.78"/>
<path d="M83.784 93.8379H80.4326V97.1892H83.784V93.8379Z" fill="black" fill-opacity="0.78"/>
<path d="M87.135 93.8379H83.7837V97.1892H87.135V93.8379Z" fill="black" fill-opacity="0.78"/>
<path d="M90.4866 93.8379H87.1353V97.1892H90.4866V93.8379Z" fill="black" fill-opacity="0.78"/>
<path d="M93.8377 93.8379H90.4863V97.1892H93.8377V93.8379Z" fill="black" fill-opacity="0.78"/>
<path d="M97.1892 93.8379H93.8379V97.1892H97.1892V93.8379Z" fill="black" fill-opacity="0.78"/>
<path d="M100.54 93.8379H97.189V97.1892H100.54V93.8379Z" fill="black" fill-opacity="0.78"/>
<path d="M107.243 93.8379H103.892V97.1892H107.243V93.8379Z" fill="black" fill-opacity="0.78"/>
<path d="M43.5677 97.1892H40.2163V100.541H43.5677V97.1892Z" fill="black" fill-opacity="0.78"/>
<path d="M67.0271 97.1892H63.6758V100.541H67.0271V97.1892Z" fill="black" fill-opacity="0.78"/>
<path d="M70.3782 97.1892H67.0269V100.541H70.3782V97.1892Z" fill="black" fill-opacity="0.78"/>
<path d="M80.4324 97.1892H77.0811V100.541H80.4324V97.1892Z" fill="black" fill-opacity="0.78"/>
<path d="M87.135 97.1892H83.7837V100.541H87.135V97.1892Z" fill="black" fill-opacity="0.78"/>
<path d="M93.8377 97.1892H90.4863V100.541H93.8377V97.1892Z" fill="black" fill-opacity="0.78"/>
<path d="M100.54 97.1892H97.189V100.541H100.54V97.1892Z" fill="black" fill-opacity="0.78"/>
<path d="M103.892 97.1892H100.541V100.541H103.892V97.1892Z" fill="black" fill-opacity="0.78"/>
<path d="M107.243 97.1892H103.892V100.541H107.243V97.1892Z" fill="black" fill-opacity="0.78"/>
<path d="M50.2703 100.541H46.9189V103.892H50.2703V100.541Z" fill="black" fill-opacity="0.78"/>
<path d="M56.9729 100.541H53.6216V103.892H56.9729V100.541Z" fill="black" fill-opacity="0.78"/>
<path d="M60.3245 100.541H56.9731V103.892H60.3245V100.541Z" fill="black" fill-opacity="0.78"/>
<path d="M63.6756 100.541H60.3242V103.892H63.6756V100.541Z" fill="black" fill-opacity="0.78"/>
<path d="M70.3782 100.541H67.0269V103.892H70.3782V100.541Z" fill="black" fill-opacity="0.78"/>
<path d="M73.7298 100.541H70.3784V103.892H73.7298V100.541Z" fill="black" fill-opacity="0.78"/>
<path d="M90.4866 100.541H87.1353V103.892H90.4866V100.541Z" fill="black" fill-opacity="0.78"/>
<path d="M93.8377 100.541H90.4863V103.892H93.8377V100.541Z" fill="black" fill-opacity="0.78"/>
<path d="M100.54 100.541H97.189V103.892H100.54V100.541Z" fill="black" fill-opacity="0.78"/>
<path d="M103.892 100.541H100.541V103.892H103.892V100.541Z" fill="black" fill-opacity="0.78"/>
<path d="M107.243 100.541H103.892V103.892H107.243V100.541Z" fill="black" fill-opacity="0.78"/>
<path d="M110.595 100.541H107.243V103.892H110.595V100.541Z" fill="black" fill-opacity="0.78"/>
<path d="M46.9187 103.892H43.5674V107.243H46.9187V103.892Z" fill="black" fill-opacity="0.78"/>
<path d="M50.2703 103.892H46.9189V107.243H50.2703V103.892Z" fill="black" fill-opacity="0.78"/>
<path d="M56.9729 103.892H53.6216V107.243H56.9729V103.892Z" fill="black" fill-opacity="0.78"/>
<path d="M63.6756 103.892H60.3242V107.243H63.6756V103.892Z" fill="black" fill-opacity="0.78"/>
<path d="M67.0271 103.892H63.6758V107.243H67.0271V103.892Z" fill="black" fill-opacity="0.78"/>
<path d="M70.3782 103.892H67.0269V107.243H70.3782V103.892Z" fill="black" fill-opacity="0.78"/>
<path d="M80.4324 103.892H77.0811V107.243H80.4324V103.892Z" fill="black" fill-opacity="0.78"/>
<path d="M83.784 103.892H80.4326V107.243H83.784V103.892Z" fill="black" fill-opacity="0.78"/>
<path d="M87.135 103.892H83.7837V107.243H87.135V103.892Z" fill="black" fill-opacity="0.78"/>
<path d="M90.4866 103.892H87.1353V107.243H90.4866V103.892Z" fill="black" fill-opacity="0.78"/>
<path d="M100.54 103.892H97.189V107.243H100.54V103.892Z" fill="black" fill-opacity="0.78"/>
<path d="M107.243 103.892H103.892V107.243H107.243V103.892Z" fill="black" fill-opacity="0.78"/>
<path d="M43.5677 107.243H40.2163V110.595H43.5677V107.243Z" fill="black" fill-opacity="0.78"/>
<path d="M53.6219 107.243H50.2705V110.595H53.6219V107.243Z" fill="black" fill-opacity="0.78"/>
<path d="M56.9729 107.243H53.6216V110.595H56.9729V107.243Z" fill="black" fill-opacity="0.78"/>
<path d="M67.0271 107.243H63.6758V110.595H67.0271V107.243Z" fill="black" fill-opacity="0.78"/>
<path d="M70.3782 107.243H67.0269V110.595H70.3782V107.243Z" fill="black" fill-opacity="0.78"/>
<path d="M77.0808 107.243H73.7295V110.595H77.0808V107.243Z" fill="black" fill-opacity="0.78"/>
<path d="M83.784 107.243H80.4326V110.595H83.784V107.243Z" fill="black" fill-opacity="0.78"/>
<path d="M87.135 107.243H83.7837V110.595H87.135V107.243Z" fill="black" fill-opacity="0.78"/>
<path d="M90.4866 107.243H87.1353V110.595H90.4866V107.243Z" fill="black" fill-opacity="0.78"/>
<path d="M93.8377 107.243H90.4863V110.595H93.8377V107.243Z" fill="black" fill-opacity="0.78"/>
<path d="M97.1892 107.243H93.8379V110.595H97.1892V107.243Z" fill="black" fill-opacity="0.78"/>
<path d="M100.54 107.243H97.189V110.595H100.54V107.243Z" fill="black" fill-opacity="0.78"/>
<path fill-rule="evenodd" clip-rule="evenodd" d="M13.4053 13.4054H36.8647V36.8649H13.4053V13.4054ZM16.7566 16.7567H33.5134V33.5135H16.7566V16.7567Z" fill="black" fill-opacity="0.78"/>
<path fill-rule="evenodd" clip-rule="evenodd" d="M87.1353 13.4054H110.595V36.8649H87.1353V13.4054ZM90.4866 16.7567H107.243V33.5135H90.4866V16.7567Z" fill="black" fill-opacity="0.78"/>
<path d="M30.162 20.1082H20.1079V30.1622H30.162V20.1082Z" fill="black" fill-opacity="0.78"/>
<path d="M103.892 20.1082H93.8379V30.1622H103.892V20.1082Z" fill="black" fill-opacity="0.78"/>
<path fill-rule="evenodd" clip-rule="evenodd" d="M13.4053 87.1351H36.8647V110.595H13.4053V87.1351ZM16.7566 90.4865H33.5134V107.243H16.7566V90.4865Z" fill="black" fill-opacity="0.78"/>
<path d="M30.162 93.8379H20.1079V103.892H30.162V93.8379Z" fill="black" fill-opacity="0.78"/>
</g>
<defs>
<clipPath id="clip0_25_1592">
<rect width="124" height="124" fill="white"/>
</clipPath>
</defs>
</svg>
