<svg width="74" height="24" viewBox="0 0 74 24" fill="none" xmlns="http://www.w3.org/2000/svg">
<path fill-rule="evenodd" clip-rule="evenodd" d="M24.5205 11.1271C24.5205 8.04587 27.0411 5.53906 30.1394 5.53906C33.2377 5.53906 35.7298 8.04595 35.7583 11.1271C35.7806 13.5485 34.1124 15.7839 31.8368 16.4187C31.3989 16.5408 31.1808 16.5496 31.1808 16.5496C31.1808 16.5496 31.962 16.8396 33.6655 17.1319C33.4664 17.5494 32.8411 18.1589 32.5106 18.3395C30.1986 17.9568 28.1961 17.1311 26.7997 15.9333C25.3087 14.6541 24.5205 12.9922 24.5205 11.1271ZM26.1384 11.1239C26.1384 13.3181 27.9334 15.1032 30.1397 15.1032C32.3461 15.1032 34.141 13.3181 34.141 11.1239C34.141 8.92971 32.3461 7.14453 30.1397 7.14453C27.9334 7.14453 26.1384 8.92971 26.1384 11.1239Z" fill="#262626"/>
<mask id="mask0_25_1973" style="mask-type:luminance" maskUnits="userSpaceOnUse" x="69" y="14" width="2" height="2">
<path fill-rule="evenodd" clip-rule="evenodd" d="M70.9349 15.8129V14.25H69.3799V15.8129H70.9349V15.8129Z" fill="white"/>
</mask>
<g mask="url(#mask0_25_1973)">
<path fill-rule="evenodd" clip-rule="evenodd" d="M70.1575 14.25C69.9313 14.25 69.7453 14.3226 69.5992 14.4682C69.4529 14.6134 69.3799 14.8008 69.3799 15.0299C69.3799 15.2611 69.4529 15.4494 69.5992 15.5949C69.7453 15.7404 69.9313 15.8129 70.1575 15.8129C70.3833 15.8129 70.5694 15.7404 70.7157 15.5949C70.8618 15.4494 70.9349 15.2611 70.9349 15.0299C70.9349 14.8008 70.8618 14.6134 70.7157 14.4682C70.5694 14.3226 70.3833 14.25 70.1575 14.25ZM69.7128 15.4864C69.8279 15.6031 69.9763 15.6615 70.1581 15.6615C70.3397 15.6615 70.488 15.6031 70.6032 15.4864C70.7184 15.3695 70.7761 15.2175 70.7761 15.0304C70.7761 14.843 70.7184 14.6915 70.6032 14.5759C70.488 14.4602 70.3397 14.4023 70.1581 14.4023C69.9763 14.4023 69.8279 14.4602 69.7128 14.5759C69.5975 14.6915 69.54 14.843 69.54 15.0304C69.54 15.2175 69.5975 15.3695 69.7128 15.4864ZM70.4393 14.9922C70.4735 14.9473 70.4908 14.8927 70.4908 14.8289C70.4908 14.7517 70.4653 14.69 70.4144 14.6438C70.3634 14.5975 70.297 14.5742 70.215 14.5742H69.896V15.4336H70.0422V15.0965H70.1452L70.3479 15.4336H70.5208L70.2981 15.0866C70.3579 15.069 70.4049 15.0375 70.4393 14.9922ZM70.0425 14.9622V14.7109H70.1957C70.2911 14.7109 70.3387 14.7529 70.3387 14.8365C70.3387 14.8741 70.326 14.9043 70.3005 14.9274C70.2749 14.9505 70.24 14.9622 70.1957 14.9622H70.0425Z" fill="#262626"/>
</g>
<path d="M59.6267 13.6376L57.7763 8.68359H56.1274L58.8274 15.5985C58.8274 15.5985 57.633 18.4632 57.6335 18.463C58.4192 18.463 59.2788 18.407 59.6153 17.5716C60.4041 15.6121 63.1512 8.68359 63.1512 8.68359H61.502L59.6267 13.6376Z" fill="#262626"/>
<path d="M53.668 15.67C53.668 15.67 55.0727 15.6433 55.0727 14.6663V5.89062H53.668V15.67Z" fill="#262626"/>
<path fill-rule="evenodd" clip-rule="evenodd" d="M48.4388 8.66016C49.6243 8.66016 50.4295 9.21508 50.8417 9.78683V8.85697H52.3219V14.9109C52.3219 15.9129 50.8417 15.9362 50.8417 15.9362V14.8187C50.3316 15.5273 49.4584 15.941 48.4388 15.941C47.3863 15.941 46.4838 15.5597 45.8288 14.8386C45.2231 14.1718 44.8896 13.2704 44.8896 12.3004C44.8896 10.2251 46.4155 8.66016 48.4388 8.66016ZM46.3709 12.3251C46.3916 13.9614 47.7304 14.5555 48.6253 14.5555C49.5308 14.5555 50.2794 14.0802 50.628 13.2842C50.7646 13.0008 50.8427 12.6694 50.8551 12.3222C50.8673 11.9806 50.8022 11.6514 50.6665 11.3705C50.3216 10.5396 49.5501 10.0467 48.6007 10.0467C47.3295 10.0467 46.3709 11.0212 46.3709 12.3133V12.3251Z" fill="#262626"/>
<path d="M42.0235 12.4673C42.0235 13.6395 41.4108 14.2911 40.2994 14.302C39.172 14.302 38.6239 13.6661 38.6239 12.3582V8.68359H37.1631V12.6494C37.1631 13.2218 37.2601 14.0381 37.7229 14.6767C38.1958 15.3292 38.9433 15.6629 39.9442 15.6687C39.9579 15.6688 39.9716 15.6689 39.9852 15.6689C41.1822 15.6689 41.7987 15.1297 42.0968 14.7107V15.664C42.0968 15.664 43.4845 15.6405 43.4845 14.7014V8.68359H42.0235V12.4673Z" fill="#262626"/>
<path d="M66.7903 11.5061C66.0541 11.1874 65.5188 10.9119 65.5283 10.4844C65.5345 10.2016 65.9065 9.93083 66.2934 9.94423C66.7074 9.95849 67.0143 10.2444 67.1857 10.4731C67.1857 10.4731 67.9596 9.8107 68.0533 9.73976C67.6524 9.07516 66.9713 8.70094 66.2074 8.68409C65.1181 8.6601 64.2125 9.5157 64.1889 10.5913C64.1684 11.5231 64.7134 11.9076 65.4282 12.3135L66.6048 12.9758C66.8762 13.1659 67.0043 13.3079 66.9978 13.6002C66.9877 14.0584 66.6051 14.3554 66.1093 14.3848C65.7447 14.4063 65.4453 14.1952 65.1615 13.8979C64.6094 13.3193 63.7617 13.5975 63.5024 13.6811C64.0417 14.9227 65.0619 15.6457 66.0811 15.6683C67.3646 15.6966 68.3913 14.7481 68.4186 13.5089C68.4316 12.9124 68.1705 12.1715 66.7903 11.5061" fill="#262626"/>
<path d="M9.63174 0C15.9048 0 19.059 3.3081 19.059 3.3081C19.059 3.3081 19.4197 5.75679 19.1895 10.6872C18.8418 18.1353 9.63394 22.6082 9.63315 22.6087C9.63237 22.6091 0.424606 18.1353 0.0768184 10.6872C-0.153423 5.75679 0.207278 3.3081 0.207278 3.3081C0.207278 3.3081 3.35858 0 9.63174 0" fill="#ED2E26"/>
<path d="M4.92455 9.79257C4.92455 7.15907 7.03687 5.01661 9.63322 5.01661C12.2318 5.01661 14.3458 7.10022 14.3458 9.66129C14.3458 11.7059 12.5626 13.3881 11.1882 14.2525C11.7214 14.5523 12.8981 14.8672 14.0247 14.9689C15.6699 13.714 16.6733 11.7742 16.6733 9.66129C16.6733 5.83531 13.5152 2.72266 9.63322 2.72266C5.75137 2.72266 2.59326 5.83531 2.59326 9.66129C2.59326 11.9721 3.56948 14.0248 5.41626 15.5979C7.14291 17.0684 9.66859 18.05 12.5443 18.5148C13.1673 18.1754 14.2328 17.1736 14.6324 16.5872C12.2307 16.2827 9.95769 15.7055 8.43396 14.9176C6.10534 13.7137 4.92455 11.9893 4.92455 9.79257Z" fill="white"/>
</svg>
