<svg width="24" height="24" viewBox="0 0 24 24" fill="none" xmlns="http://www.w3.org/2000/svg">
<g clip-path="url(#clip0_2_550)">
<path d="M7.5469 0C7.02788 4.16208e-05 6.51801 0.136693 6.06853 0.396222C5.61906 0.655751 5.24581 1.02901 4.9863 1.4785L0.5332 9.1915C0.273669 9.64102 0.137037 10.1509 0.137037 10.67C0.137037 11.1891 0.273669 11.699 0.5332 12.1485L4.9863 19.8613C5.24589 20.3106 5.61922 20.6836 6.06873 20.9429C6.51825 21.2021 7.0281 21.3384 7.547 21.338H12L20.5938 23.9864C20.8347 24.0606 21.045 23.8082 20.9297 23.5841L19.0137 19.8614L23.4668 12.1485C23.7263 11.699 23.863 11.1891 23.863 10.67C23.863 10.1509 23.7263 9.64102 23.4668 9.1915L19.0137 1.4786C18.7542 1.02908 18.3809 0.655788 17.9314 0.39624C17.4819 0.136693 16.972 3.42033e-05 16.453 0L7.5469 0ZM7.5469 0.7656L17.7324 10.67L15.8359 12.5685L16.4141 20.1017L6.2676 10.67L8.6386 8.297L7.5469 0.7656Z" fill="#AC7EF4"/>
</g>
<defs>
<clipPath id="clip0_2_550">
<rect width="24" height="24" fill="white"/>
</clipPath>
</defs>
</svg>
