<svg width="24" height="24" viewBox="0 0 24 24" fill="none" xmlns="http://www.w3.org/2000/svg">
<path d="M0.741 19.365H9.101C9.101 19.365 7.503 12.074 12.794 9.12201L12.928 9.05601C14.214 8.41901 17.835 6.62501 23.63 10.91C23.82 10.751 24 10.624 24 10.624C24 10.624 18.497 5.13201 12.37 5.74601C9.291 6.02101 5.503 8.82501 3.28 12.529C1.058 16.233 0.741 19.365 0.741 19.365ZM9.545 18.582C9.47483 18.1408 9.43242 17.6956 9.418 17.249L10.561 17.661C10.624 18.159 10.72 18.624 10.815 19.037L9.545 18.582ZM1.746 14.265L0.529 13.82C0.328 14.275 0.106 14.804 0 15.09L1.217 15.534C1.354 15.175 1.577 14.656 1.746 14.265ZM9.577 14.561L10.434 15.238C10.476 14.825 10.55 14.413 10.656 14L9.894 13.397C9.757 13.788 9.661 14.18 9.577 14.561ZM11.619 11.915L11.111 11.153C11.302 10.91 11.524 10.667 11.767 10.444L12.243 11.164C12.0148 11.3968 11.8061 11.648 11.619 11.915ZM4.19 8.87801L4.942 9.53401C4.688 9.79901 4.444 10.085 4.222 10.37L3.407 9.67201C3.651 9.40701 3.915 9.14301 4.19 8.87801ZM13.989 9.90501L13.746 9.17501C14.011 9.05801 14.317 8.94201 14.677 8.83601L14.91 9.53401C14.5944 9.63513 14.2866 9.75913 13.989 9.90501ZM17.111 9.24901L17.153 8.58201C17.492 8.60301 17.841 8.64601 18.201 8.72001L18.159 9.37601C17.8142 9.30223 17.4634 9.25972 17.111 9.24901ZM8.942 6.39201L8.466 5.66101C8.201 5.79901 7.926 5.94701 7.64 6.11601L8.127 6.85701C8.402 6.68801 8.667 6.52901 8.942 6.39201ZM18.159 6.33901L18.201 5.63001C18.106 5.57701 17.841 5.45001 17.175 5.25901L17.132 5.95801C17.481 6.07401 17.82 6.20101 18.159 6.33901ZM13.238 5.28001H13.344L13.132 4.63501C12.804 4.63501 12.466 4.65601 12.116 4.69801L12.317 5.32301C12.623 5.29272 12.9305 5.27837 13.238 5.28001Z" fill="#CC0000"/>
</svg>
