<svg width="28" height="24" viewBox="0 0 28 24" fill="none" xmlns="http://www.w3.org/2000/svg">
<g clip-path="url(#clip0_2_560)">
<path d="M13.8401 14.6277C15.1623 14.6277 16.2342 13.5842 16.2342 12.297C16.2342 11.0098 15.1623 9.96631 13.8401 9.96631C12.5179 9.96631 11.4461 11.0098 11.4461 12.297C11.4461 13.5842 12.5179 14.6277 13.8401 14.6277Z" fill="#61DAFB"/>
<path d="M22.9332 8.45338C22.4713 8.28982 21.9882 8.12626 21.4843 7.98315C21.6102 7.49248 21.7153 7.00181 21.7992 6.53158C22.2403 3.83288 21.7572 1.93153 20.4132 1.19552C20.0142 0.970631 19.5733 0.868408 19.0692 0.868408C17.5992 0.868408 15.7302 1.93153 13.8402 3.71022C11.9502 1.93153 10.0811 0.868408 8.61112 0.868408C8.10711 0.868408 7.66611 0.970631 7.26711 1.19552C5.92309 1.95198 5.44009 3.85333 5.88109 6.53158C5.96508 7.00181 6.07009 7.49248 6.19609 7.98315C5.69209 8.12626 5.20908 8.26937 4.74708 8.45338C2.12205 9.43472 0.694031 10.7841 0.694031 12.297C0.694031 13.8099 2.14305 15.1592 4.74708 16.1406C5.20908 16.3041 5.69209 16.4676 6.19609 16.6108C6.07009 17.1015 5.96508 17.5921 5.88109 18.0624C5.44009 20.761 5.92309 22.6624 7.26711 23.3984C7.66611 23.6233 8.10711 23.7256 8.61112 23.7256C10.1021 23.7256 11.9712 22.6624 13.8402 20.8838C15.7302 22.6624 17.5992 23.7256 19.0692 23.7256C19.5733 23.7256 20.0142 23.6233 20.4132 23.3984C21.7572 22.6419 22.2403 20.7407 21.7992 18.0624C21.7153 17.5921 21.6102 17.1015 21.4843 16.6108C21.9882 16.4676 22.4713 16.3246 22.9332 16.1406C25.5583 15.1592 26.9863 13.8099 26.9863 12.297C26.9863 10.7841 25.5583 9.43472 22.9332 8.45338ZM19.8252 2.21776C20.6863 2.70842 20.9802 4.22134 20.6232 6.36802C20.5603 6.79736 20.4552 7.24714 20.3293 7.71737C19.2372 7.47204 18.0822 7.30848 16.8642 7.20625C16.1503 6.22492 15.4152 5.3458 14.6802 4.54845C16.2342 3.05599 17.8092 2.03375 19.0902 2.03375C19.3633 2.03375 19.6152 2.09509 19.8252 2.21776ZM17.4733 14.3415C17.0953 14.9956 16.6542 15.6499 16.1922 16.3041C15.4152 16.3655 14.6381 16.3859 13.8402 16.3859C13.0212 16.3859 12.2442 16.3655 11.4881 16.3041C11.0261 15.6499 10.6061 14.9956 10.2281 14.3415C9.82914 13.6667 9.45112 12.9716 9.11513 12.297C9.45112 11.6223 9.82914 10.9272 10.2281 10.2525C10.6061 9.59829 11.0471 8.94406 11.5091 8.28982C12.2862 8.22849 13.0632 8.20805 13.8611 8.20805C14.6802 8.20805 15.4572 8.22849 16.2132 8.28982C16.6752 8.94406 17.0953 9.59829 17.4733 10.2525C17.8723 10.9272 18.2503 11.6223 18.5862 12.297C18.2293 12.9716 17.8723 13.6463 17.4733 14.3415ZM19.2163 13.6667C19.5312 14.3824 19.7833 15.0775 20.0142 15.7726C19.3002 15.9361 18.5442 16.0588 17.7462 16.161C17.9982 15.7726 18.2712 15.3636 18.5022 14.9344C18.7542 14.505 18.9853 14.0756 19.2163 13.6667ZM13.8402 19.2073C13.3362 18.6758 12.8532 18.1033 12.3912 17.5104C12.8742 17.5308 13.3572 17.5513 13.8402 17.5513C14.3232 17.5513 14.8061 17.5308 15.2892 17.5104C14.8271 18.1033 14.3442 18.6758 13.8402 19.2073ZM9.93413 16.1406C9.13613 16.0384 8.38012 15.9156 7.66611 15.7521C7.89711 15.0775 8.14911 14.3619 8.46412 13.6463C8.69512 14.0552 8.92612 14.4846 9.17812 14.8935C9.43012 15.3432 9.68213 15.7316 9.93413 16.1406ZM8.46412 10.9272C8.14911 10.2116 7.89711 9.5165 7.66611 8.82138C8.38012 8.65783 9.13613 8.53515 9.93413 8.43294C9.68213 8.82138 9.40912 9.23028 9.17812 9.65961C8.92612 10.0889 8.69512 10.5183 8.46412 10.9272ZM13.8402 5.38668C14.3442 5.91824 14.8271 6.49069 15.2892 7.08359C14.8061 7.06314 14.3232 7.0427 13.8402 7.0427C13.3572 7.0427 12.8742 7.06314 12.3912 7.08359C12.8532 6.49069 13.3362 5.91824 13.8402 5.38668ZM18.5022 9.68006L17.7462 8.45338C18.5442 8.5556 19.3002 8.67827 20.0142 8.84183C19.7833 9.5165 19.5312 10.2321 19.2163 10.9476C18.9853 10.5183 18.7542 10.0889 18.5022 9.68006ZM7.05711 6.36802C6.70009 4.22134 6.9941 2.70842 7.85511 2.21776C8.06511 2.09509 8.31711 2.03375 8.59012 2.03375C9.85013 2.03375 11.4252 3.03554 13.0002 4.54845C12.2652 5.32535 11.5301 6.22492 10.8161 7.20625C9.59813 7.30848 8.44312 7.49248 7.3511 7.71737C7.2251 7.24714 7.1411 6.79736 7.05711 6.36802ZM1.87004 12.297C1.87004 11.3361 3.06706 10.3138 5.16708 9.55739C5.58708 9.39383 6.04909 9.25072 6.5111 9.12806C6.8471 10.1503 7.26711 11.2339 7.7711 12.3175C7.26711 13.401 6.8261 14.4641 6.5111 15.4864C3.61307 14.6686 1.87004 13.4419 1.87004 12.297ZM7.85511 22.3762C6.9941 21.8855 6.70009 20.3727 7.05711 18.2259C7.1201 17.7966 7.2251 17.3468 7.3511 16.8766C8.44312 17.1219 9.59813 17.2855 10.8161 17.3876C11.5301 18.369 12.2652 19.2482 13.0002 20.0455C11.4462 21.5379 9.87113 22.5602 8.59012 22.5602C8.31711 22.5602 8.06511 22.4988 7.85511 22.3762ZM20.6232 18.2259C20.9802 20.3727 20.6863 21.8855 19.8252 22.3762C19.6152 22.4988 19.3633 22.5602 19.0902 22.5602C17.8302 22.5602 16.2552 21.5584 14.6802 20.0455C15.4152 19.2686 16.1503 18.369 16.8642 17.3876C18.0822 17.2855 19.2372 17.1015 20.3293 16.8766C20.4552 17.3468 20.5393 17.7966 20.6232 18.2259ZM22.5132 15.0366C22.0933 15.2001 21.6313 15.3432 21.1692 15.4659C20.8332 14.4436 20.4132 13.3601 19.9092 12.2766C20.4132 11.193 20.8542 10.1298 21.1692 9.10761C24.0672 9.9254 25.8103 11.1521 25.8103 12.297C25.8103 13.2579 24.5923 14.2801 22.5132 15.0366Z" fill="#61DAFB"/>
</g>
<defs>
<clipPath id="clip0_2_560">
<rect width="27" height="24" fill="white" transform="translate(0.5)"/>
</clipPath>
</defs>
</svg>
