<svg width="23" height="21" viewBox="0 0 23 21" fill="none" xmlns="http://www.w3.org/2000/svg">
<path d="M11.3638 12.7992C12.4901 12.7992 13.4032 11.8861 13.4032 10.7598C13.4032 9.63351 12.4901 8.72046 11.3638 8.72046C10.2375 8.72046 9.32446 9.63351 9.32446 10.7598C9.32446 11.8861 10.2375 12.7992 11.3638 12.7992Z" fill="#61DAFB"/>
<path d="M19.1098 7.39662C18.7163 7.2535 18.3048 7.11039 17.8755 6.98517C17.9828 6.55583 18.0723 6.12649 18.1438 5.71504C18.5195 3.35368 18.108 1.69 16.9631 1.04599C16.6232 0.849211 16.2476 0.759766 15.8182 0.759766C14.566 0.759766 12.9739 1.69 11.3639 3.24635C9.75383 1.69 8.1617 0.759766 6.90947 0.759766C6.48013 0.759766 6.10446 0.849211 5.76457 1.04599C4.61967 1.70789 4.20822 3.37157 4.58389 5.71504C4.65544 6.12649 4.74489 6.55583 4.85222 6.98517C4.42289 7.11039 4.01144 7.23561 3.61788 7.39662C1.38174 8.25529 0.165283 9.43597 0.165283 10.7598C0.165283 12.0836 1.39963 13.2642 3.61788 14.1229C4.01144 14.266 4.42289 14.4091 4.85222 14.5344C4.74489 14.9637 4.65544 15.393 4.58389 15.8045C4.20822 18.1658 4.61967 19.8295 5.76457 20.4735C6.10446 20.6703 6.48013 20.7598 6.90947 20.7598C8.17959 20.7598 9.77172 19.8295 11.3639 18.2732C12.9739 19.8295 14.566 20.7598 15.8182 20.7598C16.2476 20.7598 16.6232 20.6703 16.9631 20.4735C18.108 19.8116 18.5195 18.148 18.1438 15.8045C18.0723 15.393 17.9828 14.9637 17.8755 14.5344C18.3048 14.4091 18.7163 14.2839 19.1098 14.1229C21.346 13.2642 22.5624 12.0836 22.5624 10.7598C22.5624 9.43597 21.346 8.25529 19.1098 7.39662ZM16.4622 1.94045C17.1957 2.36978 17.4461 3.69358 17.142 5.57193C17.0884 5.9476 16.9989 6.34116 16.8916 6.75261C15.9613 6.53794 14.9774 6.39483 13.9399 6.30538C13.3317 5.44671 12.7055 4.67748 12.0794 3.9798C13.4032 2.6739 14.7449 1.77944 15.8361 1.77944C16.0687 1.77944 16.2833 1.83311 16.4622 1.94045ZM14.4587 12.5487C14.1367 13.1211 13.761 13.6936 13.3674 14.266C12.7055 14.3197 12.0436 14.3376 11.3639 14.3376C10.6662 14.3376 10.0043 14.3197 9.36027 14.266C8.96671 13.6936 8.60893 13.1211 8.28693 12.5487C7.94704 11.9583 7.62503 11.3501 7.33881 10.7598C7.62503 10.1694 7.94704 9.5612 8.28693 8.97086C8.60893 8.39841 8.9846 7.82596 9.37816 7.2535C10.0401 7.19984 10.702 7.18195 11.3817 7.18195C12.0794 7.18195 12.7413 7.19984 13.3853 7.2535C13.7789 7.82596 14.1367 8.39841 14.4587 8.97086C14.7986 9.5612 15.1206 10.1694 15.4068 10.7598C15.1027 11.3501 14.7986 11.9404 14.4587 12.5487ZM15.9435 11.9583C16.2118 12.5845 16.4265 13.1927 16.6232 13.8009C16.015 13.944 15.371 14.0514 14.6912 14.1408C14.9059 13.8009 15.1384 13.4431 15.3352 13.0675C15.5499 12.6918 15.7467 12.3161 15.9435 11.9583ZM11.3639 16.8063C10.9345 16.3412 10.5231 15.8403 10.1295 15.3215C10.541 15.3394 10.9524 15.3573 11.3639 15.3573C11.7753 15.3573 12.1867 15.3394 12.5982 15.3215C12.2046 15.8403 11.7932 16.3412 11.3639 16.8063ZM8.03648 14.1229C7.3567 14.0335 6.71269 13.9261 6.10446 13.783C6.30124 13.1927 6.51591 12.5666 6.78425 11.9404C6.98103 12.2982 7.1778 12.6739 7.39247 13.0317C7.60714 13.4252 7.82181 13.7651 8.03648 14.1229ZM6.78425 9.5612C6.51591 8.93508 6.30124 8.32685 6.10446 7.71862C6.71269 7.57551 7.3567 7.46817 8.03648 7.37873C7.82181 7.71862 7.58925 8.0764 7.39247 8.45207C7.1778 8.82774 6.98103 9.20341 6.78425 9.5612ZM11.3639 4.71325C11.7932 5.17837 12.2046 5.67926 12.5982 6.19805C12.1867 6.18016 11.7753 6.16227 11.3639 6.16227C10.9524 6.16227 10.541 6.18016 10.1295 6.19805C10.5231 5.67926 10.9345 5.17837 11.3639 4.71325ZM15.3352 8.46996L14.6912 7.39662C15.371 7.48606 16.015 7.5934 16.6232 7.73651C16.4265 8.32685 16.2118 8.95297 15.9435 9.57909C15.7467 9.20341 15.5499 8.82774 15.3352 8.46996ZM5.58568 5.57193C5.28156 3.69358 5.53201 2.36978 6.26546 1.94045C6.44435 1.83311 6.65902 1.77944 6.89158 1.77944C7.96492 1.77944 9.30661 2.65601 10.6483 3.9798C10.0222 4.65959 9.39605 5.44671 8.78782 6.30538C7.75026 6.39483 6.76636 6.55583 5.83612 6.75261C5.72879 6.34116 5.65723 5.9476 5.58568 5.57193ZM1.16707 10.7598C1.16707 9.91898 2.18675 9.02452 3.97566 8.36263C4.33344 8.21951 4.727 8.09429 5.12056 7.98696C5.40679 8.88141 5.76457 9.82953 6.1939 10.7777C5.76457 11.7258 5.3889 12.656 5.12056 13.5505C2.65187 12.8349 1.16707 11.7616 1.16707 10.7598ZM6.26546 19.5791C5.53201 19.1497 5.28156 17.826 5.58568 15.9476C5.63934 15.5719 5.72879 15.1784 5.83612 14.7669C6.76636 14.9816 7.75026 15.1247 8.78782 15.2141C9.39605 16.0728 10.0222 16.8421 10.6483 17.5397C9.3245 18.8456 7.98281 19.7401 6.89158 19.7401C6.65902 19.7401 6.44435 19.6864 6.26546 19.5791ZM17.142 15.9476C17.4461 17.826 17.1957 19.1497 16.4622 19.5791C16.2833 19.6864 16.0687 19.7401 15.8361 19.7401C14.7628 19.7401 13.4211 18.8635 12.0794 17.5397C12.7055 16.8599 13.3317 16.0728 13.9399 15.2141C14.9774 15.1247 15.9613 14.9637 16.8916 14.7669C16.9989 15.1784 17.0705 15.5719 17.142 15.9476ZM18.752 13.1569C18.3943 13.3 18.0007 13.4252 17.6071 13.5326C17.3209 12.6381 16.9631 11.69 16.5338 10.7419C16.9631 9.79375 17.3388 8.86352 17.6071 7.96907C20.0758 8.68463 21.5606 9.75798 21.5606 10.7598C21.5606 11.6006 20.5231 12.495 18.752 13.1569Z" fill="#61DAFB"/>
</svg>
