<svg width="24" height="24" viewBox="0 0 24 24" fill="none" xmlns="http://www.w3.org/2000/svg">
<path d="M21.511 18.508C21.727 21.281 21.727 22.581 21.727 24H15.31C15.31 23.691 15.316 23.408 15.321 23.122C15.339 22.23 15.357 21.301 15.212 19.424C15.022 16.677 13.838 16.066 11.662 16.066H1.574V11.066H11.97C14.718 11.066 16.092 10.231 16.092 8.017C16.092 6.071 14.718 4.892 11.97 4.892H1.573V0H13.114C19.335 0 22.427 2.938 22.427 7.632C22.427 11.143 20.251 13.432 17.313 13.814C19.793 14.311 21.243 15.723 21.511 18.508ZM1.573 24V20.273H8.357C9.49 20.273 9.736 21.113 9.736 21.615V24H1.573Z" fill="black"/>
</svg>
