<svg width="24" height="24" viewBox="0 0 24 24" fill="none" xmlns="http://www.w3.org/2000/svg">
<g clip-path="url(#clip0_2_563)">
<path d="M24 0H0V24H24V0Z" fill="#455A64"/>
<path d="M6 14C7.10457 14 8 13.1046 8 12C8 10.8954 7.10457 10 6 10C4.89543 10 4 10.8954 4 12C4 13.1046 4.89543 14 6 14Z" fill="white"/>
<path d="M18 14C19.1046 14 20 13.1046 20 12C20 10.8954 19.1046 10 18 10C16.8954 10 16 10.8954 16 12C16 13.1046 16.8954 14 18 14Z" fill="white"/>
<path d="M8 12H16" stroke="white" stroke-width="2"/>
</g>
<defs>
<clipPath id="clip0_2_563">
<rect width="24" height="24" fill="white"/>
</clipPath>
</defs>
</svg>
