<svg width="24" height="24" viewBox="0 0 24 24" fill="none" xmlns="http://www.w3.org/2000/svg">
<path d="M11.6483 3L12.3098 3.58573C12.7998 4.02002 13.2912 4.45289 13.7755 4.8929C16.9142 7.74297 19.5714 10.9502 21.5714 14.6417C21.6743 14.8303 21.7671 15.0246 21.86 15.2174L22 15.5074L21.8457 15.5889L21.73 15.4246L21.43 14.9974L21.22 14.6917C19.7642 12.5788 18.3056 10.463 16.3027 8.77014C15.6967 8.25713 15.028 7.82317 14.3127 7.47868C12.8641 6.78581 11.5755 7.06296 10.4697 8.20013C9.41826 9.28158 8.87254 10.6245 8.37967 11.9902C8.31538 12.1659 8.24823 12.3402 8.18109 12.5145L8.06394 12.8217L7.81822 12.7431C7.96108 12.2459 8.09252 11.7459 8.22395 11.2445C8.52396 10.1087 8.82396 8.973 9.24112 7.87869C9.68398 6.71295 10.244 5.58863 10.8026 4.46432C11.044 3.97717 11.2855 3.49001 11.5169 3H11.6483Z" fill="#C22E33"/>
<path d="M12.6398 17.0318C10.3169 18.1318 4.69672 19.2661 2.03094 18.9747C1.59522 16.6804 5.87103 5.92866 7.97108 4.30005L7.83537 4.61148C7.77485 4.75809 7.70909 4.90247 7.63822 5.04435L7.54393 5.22864C6.45819 7.31727 5.37388 9.40875 4.81815 11.7002C4.61803 12.4895 4.50874 13.2991 4.49243 14.1131C4.47814 16.0275 5.6696 17.3304 7.65965 17.4118C8.61681 17.4504 9.58398 17.3504 10.5497 17.2489C10.9697 17.2061 11.3883 17.1618 11.8069 17.1289C11.9612 17.1175 12.1126 17.0989 12.3098 17.0732L12.6398 17.0332V17.0318Z" fill="#C22E33"/>
<path d="M6.03532 21.2591C5.39959 21.3077 4.76386 21.3563 4.13099 21.4134C9.98399 21.9706 15.6027 21.0177 21.1457 19.0648C19.3385 15.879 16.9027 13.3632 14.0712 11.176C14.1084 11.316 14.1912 11.4175 14.2727 11.5175L14.3412 11.6032C14.5841 11.926 14.8384 12.2432 15.0941 12.5603C15.6784 13.2875 16.2627 14.0147 16.7027 14.8147C17.8142 16.8433 17.2113 18.5976 15.0341 19.5234C13.6027 20.1334 12.0383 20.5491 10.4911 20.7977C9.01968 21.032 7.52679 21.1448 6.03532 21.2591Z" fill="#C22E33"/>
</svg>
