<svg width="24" height="24" viewBox="0 0 24 24" fill="none" xmlns="http://www.w3.org/2000/svg">
<path d="M0 6.06396V17.936H12.13L24 6.06396H0ZM3.264 8.27197H3.269C4.132 8.27296 5.184 8.51696 5.945 8.90496L5.125 10.335C4.29 9.93096 3.87 9.89296 3.395 9.86796C2.687 9.82996 2.331 10.083 2.326 10.356C2.319 10.688 2.995 10.989 3.631 11.194C4.595 11.5 5.821 11.909 6.008 13.094L7.77 8.43696H9.816L11.88 14.013L11.873 8.43796H14.243C16.5 8.43796 17.561 9.20196 17.561 10.957C17.561 12.532 16.471 13.471 14.625 13.471H13.862L13.852 15.565L10.264 15.562L10.014 14.654C9.644 14.776 9.227 14.843 8.784 14.843C8.328 14.843 7.899 14.772 7.521 14.643L7.163 15.562L5.163 15.568L5.253 15.106C5.224 15.131 5.196 15.156 5.166 15.18C4.631 15.61 3.958 15.809 3.129 15.824L2.916 15.826C2.01087 15.8352 1.11974 15.6021 0.335 15.151L1.065 13.703C1.855 14.17 2.351 14.275 3.021 14.261C3.368 14.254 3.619 14.191 3.782 14.022C3.87796 13.9226 3.93356 13.7911 3.938 13.653C3.945 13.277 3.408 13.1 2.753 12.897C2.222 12.733 1.618 12.508 1.147 12.162C0.588 11.752 0.322 11.238 0.335 10.512C0.338396 9.99702 0.541276 9.50344 0.901 9.13496C1.42 8.59797 2.258 8.27197 3.264 8.27197ZM13.861 9.94197V11.846H14.382C15.076 11.846 15.629 11.616 15.63 10.882C15.63 10.173 15.076 9.94197 14.382 9.94197H13.861ZM8.774 10.709L8.026 13.071C8.249 13.156 8.507 13.204 8.783 13.204C9.051 13.204 9.303 13.157 9.525 13.078L8.789 10.708L8.774 10.709Z" fill="#0FAAFF"/>
</svg>
