<svg width="24" height="24" viewBox="0 0 24 24" fill="none" xmlns="http://www.w3.org/2000/svg">
<g clip-path="url(#clip0_2_570)">
<path d="M11.9794 17.8649C17.2894 25.1035 22.4854 15.8446 22.4777 10.2766C22.4691 3.69461 15.7971 0.0148926 11.9751 0.0148926C8.80387 0.0473764 5.77214 1.32369 3.53248 3.56911C1.29283 5.81454 0.0243226 8.84955 0 12.0209C0 19.73 6.696 24.0003 11.9751 24.0003C10.7803 23.8289 6.79886 22.9717 6.74657 13.8055C6.71057 7.60318 8.76943 5.12603 11.9674 6.21546C13.0715 6.7258 13.9974 7.55499 14.6261 8.59623C15.2547 9.63747 15.5572 10.8431 15.4946 12.0577C15.5481 13.2647 15.2427 14.4605 14.6171 15.4941C13.9915 16.5276 13.0736 17.3526 11.9794 17.8649Z" fill="url(#paint0_linear_2_570)"/>
<path d="M11.9734 6.21027C8.46514 5.00084 4.16657 7.89284 4.16657 13.6846C4.16743 23.1431 11.1754 24.0003 12.0249 24.0003C15.196 23.9678 18.2276 22.6916 20.4672 20.4464C22.7068 18.2011 23.9755 15.1663 24 11.9951C24 4.28598 17.304 0.0148429 12.0249 0.0148429C13.4871 -0.187443 19.9063 1.59713 19.9063 10.37C19.9063 16.0914 15.1131 19.2054 11.9957 17.8751C10.8917 17.3648 9.9657 16.5356 9.33708 15.4944C8.70845 14.4531 8.40596 13.2475 8.46857 12.0328C8.41539 10.8252 8.71954 9.62868 9.34295 8.59302C9.96636 7.55736 10.8813 6.72854 11.9734 6.21027Z" fill="url(#paint1_linear_2_570)"/>
</g>
<defs>
<linearGradient id="paint0_linear_2_570" x1="3.23989" y1="3.91242" x2="20.1498" y2="20.8249" gradientUnits="userSpaceOnUse">
<stop/>
<stop offset="1" stop-color="white"/>
</linearGradient>
<linearGradient id="paint1_linear_2_570" x1="20.9153" y1="20.0594" x2="4.00541" y2="3.14685" gradientUnits="userSpaceOnUse">
<stop/>
<stop offset="1" stop-color="white"/>
</linearGradient>
<clipPath id="clip0_2_570">
<rect width="24" height="24" fill="white"/>
</clipPath>
</defs>
</svg>
