<svg width="24" height="24" viewBox="0 0 24 24" fill="none" xmlns="http://www.w3.org/2000/svg">
<g clip-path="url(#clip0_2_578)">
<path d="M21.8537 1.41572C21.5205 2.21506 21.0892 2.96988 20.5697 3.66282C19.4574 2.51262 18.1256 1.59718 16.6533 0.97065C15.181 0.344119 13.598 0.0192216 11.9979 0.015175C10.3979 0.0111284 8.81321 0.328015 7.33775 0.947091C5.86228 1.56617 4.52595 2.47486 3.40781 3.61941C2.28966 4.76397 1.41241 6.12115 0.827948 7.61066C0.243482 9.10017 -0.0363292 10.6918 0.00506601 12.2913C0.0464613 13.8909 0.408222 15.4659 1.06895 16.9232C1.72968 18.3804 2.67595 19.6904 3.8518 20.7756L4.2963 21.1707C5.98307 22.5933 8.03066 23.5212 10.2123 23.8518C12.394 24.1824 14.6245 23.9027 16.657 23.0437C18.6895 22.1847 20.4446 20.7799 21.7279 18.9849C23.0112 17.1899 23.7726 15.0747 23.9279 12.8736C24.2736 9.86102 23.36 6.00882 21.8537 1.41572ZM5.5805 20.8744C5.45354 21.0304 5.28317 21.1453 5.09093 21.2045C4.89869 21.2638 4.69321 21.2647 4.50046 21.2072C4.3077 21.1497 4.13632 21.0363 4.00797 20.8814C3.87963 20.7265 3.80008 20.537 3.77937 20.337C3.75867 20.1369 3.79774 19.9351 3.89166 19.7573C3.98557 19.5794 4.13011 19.4333 4.30701 19.3375C4.4839 19.2418 4.68522 19.2006 4.88551 19.2192C5.0858 19.2378 5.27608 19.3154 5.4323 19.4421C5.63711 19.6156 5.7669 19.8615 5.79452 20.1285C5.82215 20.3954 5.74546 20.6627 5.5805 20.8744ZM21.7796 17.2938C18.8411 21.2201 12.5195 19.8866 8.4944 20.0842C8.4944 20.0842 7.7783 20.1336 7.0621 20.2323C7.0621 20.2323 7.3338 20.1089 7.6795 19.9854C10.5193 18.9977 11.8527 18.8001 13.5813 17.9111C16.8162 16.2566 20.0511 12.6267 20.6931 8.87322C19.4584 12.4785 15.705 15.5899 12.2972 16.8493C9.9513 17.7136 5.7287 18.5532 5.7287 18.5532L5.5558 18.4544C2.6913 17.0468 2.5926 10.824 7.8276 8.82382C10.1242 7.93482 12.2972 8.42882 14.7913 7.83612C17.4335 7.21872 20.4956 5.24322 21.7303 2.65042C23.1131 6.82362 24.7923 13.2934 21.7796 17.2938Z" fill="#6DB33F"/>
</g>
<defs>
<clipPath id="clip0_2_578">
<rect width="24" height="24" fill="white"/>
</clipPath>
</defs>
</svg>
