<svg width="24" height="24" viewBox="0 0 24 24" fill="none" xmlns="http://www.w3.org/2000/svg">
<path d="M22.655 8.7191C20.853 6.9181 17.929 6.9181 16.091 8.7191L8.74 16.0691C8.29 16.5191 8.29 17.2691 8.74 17.7191C9.19 18.1681 9.94 18.1681 10.39 17.7191L17.741 10.3681C18.64 9.4691 20.103 9.4691 21.005 10.3681C21.905 11.2681 21.905 12.7321 21.005 13.6321L13.766 20.8711C14.666 21.7701 16.128 21.7701 17.029 20.8711L22.618 15.2821C24.454 13.4441 24.454 10.5191 22.655 8.7191ZM20.18 11.1561C19.729 10.7061 18.979 10.7061 18.53 11.1561L11.176 18.5451C10.276 19.4441 8.815 19.4441 7.914 18.5451C7.464 18.0951 6.714 18.0951 6.264 18.5451C5.814 18.9951 5.814 19.7451 6.264 20.1941C8.065 21.9951 10.99 21.9951 12.828 20.1941L20.179 12.8441C20.628 12.3571 20.628 11.6051 20.18 11.1561ZM17.741 3.8061C15.94 2.0051 13.015 2.0051 11.177 3.8061L3.826 11.1571C3.376 11.6061 3.376 12.3561 3.826 12.8061C4.276 13.2561 5.026 13.2561 5.476 12.8061L12.871 5.4551C13.771 4.5561 15.242 4.5561 16.141 5.4551C16.592 5.9051 17.342 5.9051 17.791 5.4551C18.212 4.9681 18.212 4.2561 17.762 3.8061H17.741ZM15.266 6.2431C14.816 5.7931 14.066 5.7931 13.616 6.2431L6.265 13.6321C5.366 14.5321 3.902 14.5321 3 13.6321C2.1 12.7331 2.1 11.2691 3 10.3681L10.239 3.1291C9.339 2.2291 7.877 2.2291 6.976 3.1291L1.35 8.7191C-0.45 10.5191 -0.45 13.4441 1.35 15.2821C3.151 17.0831 6.075 17.0831 7.914 15.2821L15.264 7.9311C15.715 7.4431 15.715 6.6931 15.264 6.2431H15.266Z" fill="black"/>
</svg>
