<svg width="24" height="24" viewBox="0 0 24 24" fill="none" xmlns="http://www.w3.org/2000/svg">
<g clip-path="url(#clip0_2_582)">
<path d="M10.354 21.1249C9.47438 21.3535 8.54581 21.3066 7.69369 20.9906C6.84156 20.6746 6.10693 20.1047 5.589 19.3579C5.27091 18.9129 5.04488 18.4088 4.92416 17.8753C4.80344 17.3418 4.79047 16.7895 4.886 16.2509C4.91857 16.074 4.96334 15.8996 5.02 15.7289L5.125 15.4079L5.412 15.6179C6.07323 16.1036 6.81251 16.4729 7.598 16.7099L7.806 16.7729L7.786 16.9809C7.76103 17.2756 7.84108 17.5696 8.012 17.8109C8.16785 18.036 8.38904 18.2078 8.64567 18.3031C8.9023 18.3984 9.18201 18.4127 9.447 18.3439C9.56831 18.3117 9.68398 18.2611 9.79 18.1939L15.38 14.6319C15.5165 14.5457 15.6336 14.432 15.7238 14.298C15.814 14.1641 15.8754 14.0128 15.904 13.8539C15.9328 13.6915 15.929 13.5251 15.8927 13.3642C15.8565 13.2033 15.7886 13.0513 15.693 12.9169C15.5371 12.6919 15.3159 12.5202 15.0593 12.4249C14.8027 12.3296 14.523 12.3153 14.258 12.3839C14.1367 12.4161 14.021 12.4667 13.915 12.5339L11.782 13.8939C11.4313 14.1171 11.0486 14.2854 10.647 14.3929C9.76748 14.6216 8.83898 14.5748 7.98687 14.259C7.13475 13.9432 6.40006 13.3735 5.882 12.6269C5.5639 12.1817 5.33794 11.6775 5.2174 11.1437C5.09685 10.61 5.08413 10.0576 5.18 9.51891C5.27478 8.99103 5.47867 8.48874 5.77862 8.04414C6.07858 7.59955 6.468 7.22243 6.922 6.93691L12.511 3.37391C12.8616 3.15061 13.2444 2.98233 13.646 2.87491C14.5256 2.64636 15.4542 2.69324 16.3063 3.00924C17.1584 3.32523 17.8931 3.8951 18.411 4.64191C18.7291 5.08693 18.9551 5.59098 19.0758 6.12451C19.1966 6.65804 19.2095 7.2103 19.114 7.74891C19.0813 7.92576 19.0365 8.10017 18.98 8.27091L18.875 8.59191L18.589 8.38191C17.9276 7.89563 17.188 7.52597 16.402 7.28891L16.194 7.22591L16.214 7.01891C16.239 6.72392 16.159 6.42958 15.988 6.18791C15.832 5.96302 15.6108 5.79141 15.3541 5.69627C15.0975 5.60114 14.8179 5.58705 14.553 5.65591C14.4317 5.68813 14.316 5.73871 14.21 5.80591L8.62 9.36791C8.48339 9.45405 8.36623 9.56773 8.27601 9.70168C8.18579 9.83564 8.12448 9.98693 8.096 10.1459C8.06709 10.3083 8.07086 10.4748 8.10709 10.6357C8.14333 10.7966 8.21129 10.9486 8.307 11.0829C8.46295 11.3079 8.68414 11.4796 8.94075 11.5749C9.19735 11.6702 9.47701 11.6845 9.742 11.6159C9.8637 11.5834 9.97971 11.5325 10.086 11.4649L12.218 10.1049C12.5687 9.88189 12.9514 9.71394 13.353 9.60691C14.2325 9.37826 15.161 9.42499 16.0131 9.7408C16.8652 10.0566 17.5999 10.6263 18.118 11.3729C18.4361 11.8181 18.6621 12.3224 18.7826 12.8561C18.9032 13.3898 18.9159 13.9422 18.82 14.4809C18.7252 15.0089 18.5214 15.5114 18.2214 15.9561C17.9215 16.4009 17.532 16.7782 17.078 17.0639L11.489 20.6259C11.1384 20.8492 10.7556 21.0175 10.354 21.1249ZM20.712 3.17491C18.484 -0.0150933 14.082 -0.960093 10.9 1.06791L5.31 4.62991C4.5551 5.10501 3.90763 5.73239 3.40897 6.47194C2.91031 7.21149 2.57143 8.04695 2.414 8.92491C2.14728 10.4041 2.38165 11.93 3.08 13.2609C2.60134 13.9865 2.27476 14.8016 2.12 15.6569C1.96095 16.5525 1.98234 17.4709 2.18291 18.3582C2.38347 19.2455 2.75918 20.0838 3.288 20.8239C5.517 24.0139 9.918 24.9589 13.1 22.9319L18.69 19.3699C19.445 18.8949 20.0925 18.2675 20.5912 17.528C21.0899 16.7884 21.4287 15.9529 21.586 15.0749C21.8528 13.5958 21.6188 12.07 20.921 10.7389C21.399 10.0132 21.7249 9.19811 21.879 8.34291C22.0384 7.44718 22.0173 6.52862 21.8169 5.64116C21.6165 4.7537 21.2409 3.91521 20.712 3.17491Z" fill="#FF3E00"/>
</g>
<defs>
<clipPath id="clip0_2_582">
<rect width="24" height="24" fill="white"/>
</clipPath>
</defs>
</svg>
