<svg width="24" height="24" viewBox="0 0 24 24" fill="none" xmlns="http://www.w3.org/2000/svg">
<g clip-path="url(#clip0_2_584)">
<path d="M11.9118 23.9997C5.51725 23.9556 -0.0428507 18.6486 0.000248912 11.9061C0.0416859 5.41836 5.43297 -0.0439657 12.1041 0.00026677C18.5875 0.0433487 24.0575 5.42501 23.9995 12.0182C24.0533 18.5516 18.5563 24.0459 11.9118 23.9997ZM11.9118 23.9997C5.51725 23.9556 -0.0428507 18.6486 0.000248912 11.9061C0.0416859 5.41836 5.43297 -0.0439657 12.1041 0.00026677C18.5875 0.0433487 24.0575 5.42501 23.9995 12.0182C24.0533 18.5516 18.5563 24.0459 11.9118 23.9997Z" fill="white"/>
<path d="M11.9236 22.406C6.37804 22.3677 1.55659 17.7655 1.59397 11.9186C1.62994 6.29237 6.30519 1.55547 12.0903 1.59398C17.7126 1.63135 22.4561 6.29836 22.4059 12.0159C22.4524 17.6815 17.6857 22.446 11.9236 22.406ZM11.9236 22.406C6.37804 22.3677 1.55659 17.7655 1.59397 11.9186C1.62994 6.29237 6.30519 1.55547 12.0903 1.59398C17.7126 1.63135 22.4561 6.29836 22.4059 12.0159C22.4524 17.6815 17.6857 22.446 11.9236 22.406Z" fill="#49A32B"/>
<path d="M15.8744 11.9959C15.8478 12.4918 15.4145 12.9037 14.9875 12.8318C14.9854 12.8318 14.9832 12.8318 14.9811 12.8318C14.5081 12.8324 14.1242 12.4495 14.1237 11.9765C14.1398 11.5022 14.5331 11.1284 15.0075 11.1365C15.4805 11.1388 15.9 11.5385 15.8744 11.9959ZM8.26886 16.8019C8.4472 16.8071 8.62567 16.8033 8.83133 16.8033V18.0957C7.55307 18.3118 6.50014 17.9489 6.24176 16.8684C6.15329 16.4711 6.0989 16.067 6.07899 15.6604C6.05154 15.2299 6.09903 14.7946 6.06622 14.3649C5.97533 13.1825 5.82214 12.7788 4.6875 12.7229V11.2514C4.76882 11.2324 4.85129 11.2183 4.93427 11.209C5.55635 11.1784 5.81856 10.9876 5.95771 10.3749C6.02103 10.0306 6.05856 9.68206 6.06967 9.33215C6.11895 8.65555 6.10146 7.96798 6.21418 7.30236C6.37707 6.33981 6.97465 5.87219 7.96171 5.81985C8.24256 5.80478 8.52431 5.81755 8.84256 5.81755V7.13857C8.71159 7.14789 8.59158 7.16691 8.47235 7.16334C7.66797 7.1387 7.62635 7.41266 7.56763 8.07853C7.53099 8.4961 7.58154 8.92083 7.55307 9.33981C7.52333 9.75674 7.46754 10.1715 7.3861 10.5815C7.27005 11.1758 6.90469 11.6178 6.39839 11.9928C7.38124 12.6324 7.49307 13.6262 7.5569 14.6354C7.59124 15.1777 7.57554 15.7238 7.63056 16.2634C7.67346 16.6823 7.83635 16.7891 8.26886 16.8019ZM9.09724 11.1365C9.10235 11.1365 9.10733 11.1365 9.11244 11.1365C9.58235 11.1443 9.95716 11.5315 9.94937 12.0015C9.94937 12.017 9.94886 12.0323 9.94797 12.0476C9.92154 12.5069 9.52784 12.8577 9.06852 12.8313C9.05001 12.8317 9.03163 12.8313 9.01312 12.8304C8.54537 12.8072 8.18499 12.4091 8.20822 11.9414C8.23146 11.4736 8.6295 11.1133 9.09724 11.1365ZM12.0256 11.1365C12.5396 11.1325 12.8809 11.4656 12.8836 11.9737C12.8864 12.4954 12.5628 12.8293 12.0522 12.8314C11.5329 12.8337 11.191 12.5053 11.1882 12.0002C11.1866 11.9744 11.1863 11.9487 11.187 11.9229C11.2015 11.4741 11.5769 11.1221 12.0256 11.1365ZM18.1569 10.4928C18.2936 11.0035 18.5598 11.183 19.0973 11.2075C19.1854 11.2115 19.2731 11.2265 19.3939 11.2399V12.711C19.3285 12.7325 19.2615 12.7486 19.1935 12.759C18.4731 12.8038 18.1447 13.0994 18.072 13.8217C18.0255 14.2828 18.0293 14.749 17.9974 15.2118C17.984 15.7198 17.9378 16.2265 17.859 16.7286C17.6752 17.6383 17.1072 18.0921 16.1688 18.1476C15.8668 18.1654 15.5626 18.1504 15.2369 18.1504V16.8355C15.4122 16.8246 15.5669 16.8097 15.722 16.806C16.2827 16.7926 16.4809 16.6118 16.5084 16.055C16.5388 15.4432 16.5521 14.8307 16.5794 14.2188C16.6191 13.3344 16.8612 12.5443 17.6852 11.9927C17.2137 11.6566 16.8352 11.2495 16.7372 10.7005C16.6186 10.0352 16.5803 9.35512 16.5164 8.68044C16.4849 8.34317 16.4864 8.00295 16.4535 7.66593C16.418 7.3021 16.1681 7.17623 15.8369 7.16806C15.6472 7.16346 15.4567 7.16717 15.2142 7.16717V5.88317C16.7619 5.62619 17.8311 6.14117 17.9304 7.62202C17.972 8.24385 17.9659 8.86861 18.0057 9.49044C18.0232 9.82874 18.0738 10.1645 18.1569 10.4928Z" fill="white"/>
</g>
<defs>
<clipPath id="clip0_2_584">
<rect width="24" height="24" fill="white"/>
</clipPath>
</defs>
</svg>
