<svg width="24" height="24" viewBox="0 0 24 24" fill="none" xmlns="http://www.w3.org/2000/svg">
<path d="M19 14.8C19 13.9434 18.9992 13.3611 18.9624 12.911C18.9277 12.4864 18.8657 12.2627 18.7894 12.1068L18.782 12.092C18.5902 11.7157 18.2843 11.4098 17.908 11.218V11.218C17.7329 11.1288 17.477 11.0598 16.9391 11.0269H16.939C16.505 11.0004 15.959 11 15.2 11H8.79999C8.04095 11 7.49496 11.0004 7.06096 11.0269H7.0609C6.52287 11.0598 6.26699 11.1289 6.09196 11.218L6.09193 11.218C5.71563 11.4097 5.40971 11.7157 5.21798 12.0919C5.13827 12.2484 5.07336 12.4726 5.03754 12.911C5.00077 13.3611 4.99998 13.9434 4.99998 14.8V16.2C4.99998 17.0566 5.00077 17.6389 5.03754 18.089C5.07336 18.5274 5.1383 18.7516 5.21801 18.9081C5.40375 19.2726 5.69667 19.5711 6.05692 19.7637L6.09199 19.782L6.09202 19.782C6.24841 19.8617 6.47263 19.9266 6.91105 19.9625C7.36113 19.9992 7.94342 20 8.79999 20H15.2C16.0566 20 16.6389 19.9992 17.089 19.9625C17.5273 19.9266 17.7516 19.8617 17.908 19.782H17.908C18.2843 19.5903 18.5902 19.2844 18.782 18.9081V18.908C18.8617 18.7516 18.9266 18.5274 18.9624 18.089C18.9992 17.6389 19 17.0566 19 16.2V14.8ZM11 16.5V14.5C11 13.9477 11.4477 13.5 12 13.5C12.5523 13.5 13 13.9477 13 14.5V16.5C13 17.0523 12.5523 17.5 12 17.5C11.4477 17.5 11 17.0523 11 16.5ZM16 8.00001C16 5.79087 14.2091 3.99999 12 3.99998C9.79087 3.99998 7.99998 5.79087 7.99998 8.00001V9.00164C8.24928 8.99992 8.51572 9 8.79999 9H15.2C15.4842 9 15.7507 8.99992 16 9.00164V8.00001ZM18 9.15044C18.2832 9.21253 18.5544 9.30275 18.8159 9.43593L18.8159 9.43596C19.5686 9.81944 20.1805 10.4313 20.564 11.184H20.564C20.8113 11.6694 20.9099 12.186 20.9558 12.7482C21.0008 13.2986 21 13.9764 21 14.8V16.2C21 17.0236 21.0008 17.7014 20.9558 18.2518C20.9113 18.7964 20.8174 19.2983 20.5868 19.7704L20.564 19.816C20.1805 20.5687 19.5686 21.1805 18.8159 21.564C18.3306 21.8113 17.8139 21.9099 17.2518 21.9558C16.7014 22.0008 16.0236 22 15.2 22H8.79999C7.97641 22 7.29858 22.0008 6.74815 21.9558C6.18605 21.9099 5.66933 21.8113 5.18399 21.564V21.564C4.43138 21.1805 3.81946 20.5686 3.43597 19.816H3.43594C3.18867 19.3306 3.09011 18.8139 3.04418 18.2518C2.99921 17.7014 3 17.0236 3 16.2V14.8C3 13.9764 2.99921 13.2986 3.04418 12.7482C3.09011 12.1861 3.18867 11.6694 3.43594 11.1841L3.43597 11.184C3.81948 10.4313 4.4314 9.81943 5.18405 9.43596H5.18408C5.44555 9.30276 5.71683 9.21254 6 9.15044V8.00001C6 4.6863 8.6863 2 12 2C15.3137 2.00001 18 4.6863 18 8.00001V9.15044Z" fill="#C22E33"/>
</svg>
