<svg width="23" height="21" viewBox="0 0 23 21" fill="none" xmlns="http://www.w3.org/2000/svg">
<path d="M11.6705 0.759766C12.6783 0.759766 13.5739 1.47061 13.5739 2.34594C13.5739 3.22127 12.7213 3.93212 11.6703 3.93212C11.5504 3.93212 11.3941 3.91226 11.2007 3.87289C11.0503 3.84228 10.8938 3.8673 10.7605 3.94331L3.93677 7.82416C3.88796 7.85201 3.8474 7.8923 3.81924 7.94094C3.79108 7.98958 3.77632 8.04481 3.77646 8.10101C3.77661 8.15721 3.79166 8.21237 3.82007 8.26085C3.84849 8.30934 3.88926 8.34943 3.93822 8.37702L11.3354 12.5291C11.4297 12.5821 11.5361 12.6102 11.6444 12.6106C11.7527 12.6109 11.8592 12.5836 11.954 12.5312L19.3905 8.39688C19.4399 8.36974 19.4812 8.32987 19.5101 8.2814C19.539 8.23293 19.5543 8.17762 19.5546 8.12121C19.5549 8.0648 19.5401 8.00933 19.5118 7.96056C19.4834 7.91179 19.4425 7.87149 19.3934 7.84384L17.0729 6.52705C16.9783 6.47328 16.8715 6.44471 16.7627 6.44407C16.6539 6.44344 16.5468 6.47077 16.4516 6.52344L14.0027 7.88194C13.9724 7.89881 13.9466 7.92264 13.9274 7.95146C13.9081 7.98028 13.896 8.01326 13.892 8.04769L13.8913 8.07116C13.8913 8.94685 13.0387 9.65715 11.9877 9.65715C10.9376 9.65715 10.0849 8.94703 10.0849 8.07098C10.0849 7.19565 10.9376 6.4848 11.9879 6.4848C12.0273 6.4848 12.0717 6.48769 12.1224 6.49112L12.2029 6.49961L12.2918 6.51026C12.4272 6.5285 12.5648 6.50304 12.6847 6.43678L16.3075 4.4272C16.4437 4.3517 16.5963 4.3108 16.752 4.3081C16.9077 4.30539 17.0616 4.34096 17.2003 4.41167L17.2392 4.43153L22.2976 7.30344C22.9317 7.66311 22.9386 8.56949 22.3236 8.94324L22.2898 8.9631L18.9051 10.8439C18.8553 10.872 18.8139 10.9129 18.7854 10.9624C18.7568 11.0119 18.7421 11.0683 18.7428 11.1254C18.745 11.2419 18.8098 11.3475 18.9122 11.4019L22.2636 13.1652C22.9295 13.5149 22.9451 14.4621 22.2925 14.8338L12.1136 20.6349C11.9698 20.7167 11.8071 20.7598 11.6417 20.7598C11.4762 20.7598 11.3136 20.7167 11.1698 20.6349L1.0488 14.8579C0.395188 14.4847 0.413244 13.5355 1.08057 13.1877L4.46887 11.4201C4.51949 11.3935 4.56201 11.3538 4.59195 11.3051C4.6219 11.2564 4.63816 11.2005 4.63903 11.1434C4.6399 11.0862 4.62534 11.0299 4.59689 10.9803C4.56844 10.9307 4.52714 10.8897 4.47736 10.8616L1.04789 8.93692C0.413966 8.58069 0.400605 7.67863 1.00998 7.30001L1.04374 7.27943L9.46573 2.49057C9.59855 2.41466 9.69966 2.29355 9.75064 2.14932L9.76112 2.11537C10.0572 1.23517 10.7296 0.759766 11.6705 0.759766ZM16.3698 12.4444L12.2114 14.8353L12.1726 14.8564C12.033 14.9283 11.8778 14.9643 11.7209 14.9614C11.5639 14.9584 11.4102 14.9165 11.2734 14.8394L7.12808 12.5022C7.0362 12.4505 6.93285 12.4226 6.82743 12.421C6.72202 12.4194 6.61788 12.4442 6.52449 12.4931L4.13484 13.742C4.08436 13.7685 4.04193 13.808 4.01199 13.8565C3.98206 13.905 3.96573 13.9607 3.96471 14.0177C3.9637 14.0747 3.97803 14.1309 4.00622 14.1804C4.03441 14.2299 4.0754 14.271 4.12491 14.2992L11.4255 18.4767C11.5211 18.5312 11.6293 18.5598 11.7394 18.5598C11.8494 18.5598 11.9576 18.5312 12.0533 18.4767L19.4163 14.2698C19.5174 14.2126 19.5788 14.1046 19.5772 13.9888C19.5762 13.9319 19.5599 13.8763 19.5301 13.8277C19.5002 13.7792 19.4579 13.7397 19.4074 13.7131L16.9797 12.4323C16.8852 12.3827 16.7797 12.3579 16.673 12.36C16.5663 12.3621 16.4619 12.3911 16.3694 12.4444H16.3698Z" fill="#24A1C1"/>
</svg>
