<svg width="28" height="24" viewBox="0 0 28 24" fill="none" xmlns="http://www.w3.org/2000/svg">
<g clip-path="url(#clip0_2_593)">
<path d="M14.2002 0.868408C15.3832 0.868408 16.4346 1.6808 16.4346 2.68118C16.4346 3.68156 15.4337 4.49396 14.1999 4.49396C14.0592 4.49396 13.8757 4.47126 13.6486 4.42626C13.4721 4.39128 13.2884 4.41988 13.1319 4.50674L5.12143 8.942C5.06413 8.97383 5.01651 9.01987 4.98346 9.07546C4.9504 9.13105 4.93307 9.19417 4.93324 9.2584C4.93341 9.32263 4.95108 9.38567 4.98443 9.44108C5.01779 9.49649 5.06565 9.54231 5.12313 9.57384L13.8068 14.3191C13.9175 14.3796 14.0424 14.4118 14.1695 14.4122C14.2966 14.4126 14.4217 14.3814 14.533 14.3215L23.2628 9.59654C23.3208 9.56552 23.3692 9.51995 23.4032 9.46456C23.4371 9.40917 23.455 9.34595 23.4554 9.28149C23.4558 9.21702 23.4384 9.15362 23.4052 9.09789C23.3718 9.04215 23.3238 8.99609 23.2662 8.96449L20.5421 7.45959C20.431 7.39814 20.3057 7.36549 20.178 7.36476C20.0502 7.36404 19.9245 7.39527 19.8127 7.45546L16.938 9.00803C16.9024 9.02732 16.8721 9.05455 16.8496 9.08749C16.8269 9.12042 16.8127 9.15812 16.808 9.19746L16.8072 9.22429C16.8072 10.2251 15.8063 11.0368 14.5725 11.0368C13.3398 11.0368 12.3388 10.2253 12.3388 9.22408C12.3388 8.2237 13.3398 7.4113 14.5728 7.4113C14.619 7.4113 14.6711 7.41461 14.7306 7.41853L14.8251 7.42823L14.9295 7.4404C15.0885 7.46125 15.25 7.43215 15.3907 7.35642L19.6436 5.05976C19.8035 4.97347 19.9826 4.92673 20.1654 4.92365C20.3482 4.92055 20.5288 4.9612 20.6917 5.04201L20.7373 5.06471L26.6754 8.34689C27.4198 8.75794 27.4279 9.79381 26.706 10.221L26.6663 10.2436L22.6929 12.3931C22.6345 12.4252 22.5859 12.472 22.5524 12.5286C22.5189 12.5851 22.5016 12.6496 22.5024 12.7148C22.505 12.848 22.5811 12.9687 22.7013 13.0308L26.6355 15.046C27.4172 15.4457 27.4356 16.5282 26.6695 16.953L14.7203 23.5828C14.5515 23.6763 14.3605 23.7256 14.1663 23.7256C13.9721 23.7256 13.7812 23.6763 13.6124 23.5828L1.7312 16.9806C0.963917 16.554 0.985113 15.4692 1.7685 15.0718L5.74607 13.0516C5.80549 13.0212 5.8554 12.9759 5.89055 12.9202C5.92571 12.8646 5.9448 12.8007 5.94582 12.7354C5.94684 12.67 5.92975 12.6057 5.89635 12.549C5.86295 12.4923 5.81447 12.4455 5.75603 12.4134L1.73013 10.2137C0.98596 9.80661 0.970276 8.77568 1.68563 8.34297L1.72526 8.31945L11.6119 2.84647C11.7679 2.75972 11.8866 2.6213 11.9464 2.45647L11.9587 2.41767C12.3063 1.41173 13.0956 0.868408 14.2002 0.868408ZM19.7167 14.2223L14.8351 16.9547L14.7896 16.9788C14.6257 17.061 14.4435 17.1022 14.2593 17.0988C14.075 17.0954 13.8946 17.0475 13.734 16.9594L8.86775 14.2883C8.75989 14.2292 8.63856 14.1974 8.51481 14.1955C8.39107 14.1937 8.26882 14.222 8.15918 14.2779L5.35394 15.7052C5.29468 15.7355 5.24487 15.7807 5.20973 15.8361C5.17459 15.8915 5.15542 15.9552 5.15423 16.0203C5.15304 16.0855 5.16986 16.1497 5.20295 16.2063C5.23605 16.2628 5.28417 16.3098 5.34229 16.342L13.9125 21.1163C14.0248 21.1786 14.1518 21.2113 14.281 21.2113C14.4102 21.2113 14.5372 21.1786 14.6495 21.1163L23.293 16.3084C23.4117 16.2431 23.4838 16.1196 23.4819 15.9873C23.4808 15.9223 23.4616 15.8587 23.4266 15.8032C23.3915 15.7478 23.3419 15.7026 23.2826 15.6722L20.4327 14.2084C20.3218 14.1518 20.1979 14.1234 20.0727 14.1258C19.9474 14.1282 19.8253 14.1614 19.7167 14.2223Z" fill="#24A1C1"/>
</g>
<defs>
<clipPath id="clip0_2_593">
<rect width="27" height="24" fill="white" transform="translate(0.5)"/>
</clipPath>
</defs>
</svg>
