<svg xmlns="http://www.w3.org/2000/svg" width="205" height="231" fill="none" viewBox="0 0 205 231"><path fill="url(#paint0_linear_79_281)" d="M169.398 25.781C150.88 9.637 125.821 0 102.368 0 78.915 0 53.855 9.637 35.338 25.78 22.704 36.791 8.176 55.01 2.473 83.074h15.35c5.296-22.226 16.982-36.772 27.215-45.688C60.93 23.534 82.362 15.26 102.368 15.26s41.438 8.275 57.329 22.127c13.734 11.975 30.104 34.056 30.104 71.271 0 24.924-13.031 49.352-38.74 72.589-19.862 17.958-41.781 29.833-48.693 33.362-6.922-3.538-28.84-15.413-48.702-33.362-24.257-21.928-37.224-44.912-38.614-68.375h15.54v.009h14.663a45.718 45.718 0 0 1-.253-4.575c0-24.49 10.73-38.983 19.736-46.834 10.44-9.096 24.5-14.537 37.621-14.537 13.121 0 27.18 5.432 37.621 14.537 7.652 6.678 16.559 18.156 19.049 36.511h-16.162c-2.355-11.217-8.194-18.553-13.292-22.993-7.517-6.552-17.687-10.459-27.225-10.459-9.539 0-19.709 3.907-27.217 10.459-6.56 5.712-14.375 16.18-14.375 33.605 0 12.011 5.929 23.453 17.615 34.02 8.347 7.544 17.29 12.435 20.746 14.186l3.231 1.633 3.23-1.633c2.022-1.029 6.146-3.24 10.955-6.524l1.182-.803-1.29-.605c-3.799-1.787-9.259-4.431-13.68-6.876l-.614-.352c-3.664-2.112-9.087-5.577-14.131-10.134-8.447-7.634-12.724-15.341-12.724-22.921 0-11.776 5.044-18.643 9.276-22.334 4.964-4.323 11.614-6.913 17.796-6.913 6.181 0 12.832 2.581 17.795 6.913 4.232 3.69 9.277 10.558 9.277 22.334 0 7.58-4.278 15.296-12.724 22.921a71.652 71.652 0 0 1-4.187 3.501l-1.065.821 14.808 6.832.388-.352c10.098-9.223 15.81-19.113 17.046-29.455h15.774c-1.462 14.737-9.971 29.247-25.393 43.198-12.435 11.244-26.016 18.905-31.71 21.892-5.694-2.978-19.275-10.648-31.71-21.892-10.207-9.222-17.372-18.698-21.486-28.317H33.578c4.963 15.241 15.729 29.978 31.855 43.396 16.125 13.428 32.053 21.017 33.83 21.847l.632.28.596.171c.234.063.469.118.767.163l.189.027c.307.036.623.063.939.063.316 0 .613-.027 1.019-.081l.154-.027c.235-.036.469-.091.767-.172l.18-.054c.298-.09.587-.198.867-.334.695-.316 17.199-7.959 33.948-21.901 22.903-19.068 35.013-40.797 35.013-62.843 0-30.167-13.518-48.287-24.852-58.168-13.004-11.334-30.609-18.102-47.096-18.102-16.487 0-34.093 6.768-47.096 18.102-9.98 8.699-21.64 23.778-24.293 47.845H15.422v-.01H.424C.154 101.376 0 104.93 0 108.622c0 31.331 17.362 62.338 50.2 89.68 23.372 19.456 46.392 30.429 48.937 31.62l.388.172c.226.09.451.171.695.252l.208.054c.243.064.487.127.776.172l.198.027c.316.045.641.072.957.072.316 0 .631-.027.983-.072l.217-.036c.244-.045.487-.09.794-.181l.171-.045c.298-.09.596-.198.903-.343 1.011-.46 24.924-11.559 49.108-31.701 32.847-27.342 50.2-58.349 50.2-89.68 0-43.026-19.221-68.816-35.346-82.867l.009.036 Z"/><defs><linearGradient id="paint0_linear_79_281" x1="-.009" x2="204.744" y1="115.353" y2="115.353" gradientUnits="userSpaceOnUse"><stop stop-color="#EC3027"/><stop offset=".6" stop-color="#D31F26"/></linearGradient></defs></svg>