<svg width="24" height="24" viewBox="0 0 24 24" fill="none" xmlns="http://www.w3.org/2000/svg">
<g clip-path="url(#clip0_2_597)">
<path d="M18.08 16.539C17.724 16.644 17.44 16.683 17.068 16.683C14.02 16.683 9.54401 6.031 9.54401 2.486C9.54401 1.181 9.85401 0.746 10.289 0.372C6.56001 0.808 2.08201 2.177 0.651007 3.917C0.341007 4.353 0.154007 5.037 0.154007 5.907C0.154007 11.442 6.06001 24 10.228 24C12.156 24 15.406 20.832 18.08 16.54M16.134 0C19.989 0 23.847 0.622 23.847 2.798C23.847 7.213 21.047 12.563 19.617 12.563C17.068 12.563 13.897 5.473 13.897 1.928C13.897 0.31 14.518 0 16.134 0Z" fill="#FF8700"/>
</g>
<defs>
<clipPath id="clip0_2_597">
<rect width="24" height="24" fill="white"/>
</clipPath>
</defs>
</svg>
