<svg width="24" height="24" viewBox="0 0 24 24" fill="none" xmlns="http://www.w3.org/2000/svg">
<path d="M2 21.95C2 17.3108 5.78069 13.55 10.4444 13.55C11.2811 13.55 12.0911 13.6714 12.8567 13.898C13.4154 14.0635 13.7335 14.6481 13.5672 15.2039C13.4009 15.7597 12.8132 16.0762 12.2544 15.9108C11.6822 15.7414 11.075 15.65 10.4444 15.65C6.94663 15.65 4.11109 18.4706 4.11109 21.95C4.11109 22.5299 3.63851 23 3.05555 23C2.47258 23 2 22.5299 2 21.95ZM15.7222 21.95V19.85H13.6111C13.0281 19.85 12.5555 19.3799 12.5555 18.8C12.5555 18.2201 13.0281 17.75 13.6111 17.75H15.7222V15.65C15.7222 15.0701 16.1948 14.6 16.7778 14.6C17.3607 14.6 17.8333 15.0701 17.8333 15.65V17.75H19.9444C20.5274 17.75 21 18.2201 21 18.8C21 19.3799 20.5274 19.85 19.9444 19.85H17.8333V21.95C17.8333 22.5299 17.3607 23 16.7778 23C16.1948 23 15.7222 22.5299 15.7222 21.95ZM13.6111 7.24998C13.6111 5.5103 12.1933 4.09998 10.4444 4.09998C8.69553 4.09999 7.27776 5.51029 7.27776 7.24998C7.27776 8.98968 8.69553 10.4 10.4444 10.4C12.1933 10.4 13.6111 8.98968 13.6111 7.24998ZM15.7222 7.24998C15.7222 10.1495 13.3592 12.5 10.4444 12.5C7.52959 12.5 5.16667 10.1495 5.16667 7.24998C5.16667 4.35049 7.52959 2.00001 10.4444 2C13.3592 2 15.7222 4.35048 15.7222 7.24998Z" fill="#61DAFB"/>
</svg>
