<svg width="24" height="24" viewBox="0 0 24 24" fill="none" xmlns="http://www.w3.org/2000/svg">
<g clip-path="url(#clip0_2_609)">
<path d="M24 0H0V24H24V0Z" fill="#37474F"/>
<path d="M12 2L4 6V12C4 16 6.5 19.5 12 21C17.5 19.5 20 16 20 12V6L12 2Z" fill="white"/>
<path d="M7.20264 15L7.94971 11.4209H10.6035L10.479 12.019H8.5625L8.3916 12.832H10.2446L10.1201 13.4302H8.26709L8.04248 14.4019H10.125L9.99805 15H7.20264ZM13.3989 15H12.7129L11.7461 12.5952L11.2432 15H10.5571L11.3042 11.4209H11.9927L12.9619 13.8159L13.4624 11.4209H14.146L13.3989 15ZM15.7085 15H14.9712L15.5962 12.019H14.5464L14.6709 11.4209H17.4907L17.3662 12.019H16.3311L15.7085 15Z" fill="#37474F"/>
</g>
<defs>
<clipPath id="clip0_2_609">
<rect width="24" height="24" fill="white"/>
</clipPath>
</defs>
</svg>
