<svg width="24" height="24" viewBox="0 0 24 24" fill="none" xmlns="http://www.w3.org/2000/svg">
<path fill-rule="evenodd" clip-rule="evenodd" d="M20 6H4C3.46957 6 2.96086 6.21071 2.58579 6.58579C2.21071 6.96086 2 7.46957 2 8V16C2 16.5304 2.21071 17.0391 2.58579 17.4142C2.96086 17.7893 3.46957 18 4 18H20C20.5304 18 21.0391 17.7893 21.4142 17.4142C21.7893 17.0391 22 16.5304 22 16V8C22 7.46957 21.7893 6.96086 21.4142 6.58579C21.0391 6.21071 20.5304 6 20 6ZM9.29 14.8L9 13.73H7.16L6.87 14.8H5.17L7 9.07H9.09L11 14.8H9.29ZM15.63 11.66C15.5581 11.897 15.4352 12.1154 15.27 12.3C15.0821 12.4946 14.8533 12.6449 14.6 12.74C14.2801 12.8582 13.941 12.9158 13.6 12.91H13.16V14.8H11.6V9.09H13.6C14.1788 9.04821 14.7534 9.21492 15.22 9.56C15.4078 9.72881 15.5548 9.93799 15.6501 10.1718C15.7453 10.4057 15.7863 10.658 15.77 10.91C15.7643 11.1659 15.717 11.4192 15.63 11.66ZM18.21 14.8H16.66V9.09H18.21V14.8ZM8.45 11.53L8.69 12.46H7.48L7.72 11.53C7.72 11.4 7.8 11.25 7.84 11.06C7.88 10.87 7.93 10.68 7.97 10.49C8.01179 10.3319 8.04517 10.1717 8.07 10.01C8.07 10.14 8.14 10.3 8.18 10.51L8.33 11.09L8.45 11.53ZM14.04 10.53C14.095 10.5867 14.1376 10.6542 14.1652 10.7282C14.1927 10.8022 14.2046 10.8812 14.2 10.96C14.2055 11.1078 14.1673 11.2539 14.09 11.38C14.0242 11.4788 13.9301 11.5555 13.82 11.6C13.703 11.6492 13.5769 11.673 13.45 11.67H13.14V10.34H13.54C13.6241 10.3361 13.7082 10.3492 13.7872 10.3784C13.8662 10.4076 13.9386 10.4524 14 10.51L14.04 10.53Z" fill="#61DAFB"/>
</svg>
