<svg width="24" height="24" viewBox="0 0 24 24" fill="none" xmlns="http://www.w3.org/2000/svg">
<path d="M12 9C16.9706 9 21 7.65685 21 6C21 4.34315 16.9706 3 12 3C7.02944 3 3 4.34315 3 6C3 7.65685 7.02944 9 12 9Z" stroke="#7C3AED" stroke-width="1.5"/>
<path d="M12 15C16.9706 15 21 13.6569 21 12C21 10.3431 16.9706 9 12 9C7.02944 9 3 10.3431 3 12C3 13.6569 7.02944 15 12 15Z" stroke="#7C3AED" stroke-width="1.5"/>
<path d="M12 21C16.9706 21 21 19.6569 21 18C21 16.3431 16.9706 15 12 15C7.02944 15 3 16.3431 3 18C3 19.6569 7.02944 21 12 21Z" stroke="#7C3AED" stroke-width="1.5"/>
<path d="M3 6V18C3 19.66 7.03 21 12 21C16.97 21 21 19.66 21 18V6" stroke="#7C3AED" stroke-width="1.5"/>
<path d="M8 7C8.55228 7 9 6.55228 9 6C9 5.44772 8.55228 5 8 5C7.44772 5 7 5.44772 7 6C7 6.55228 7.44772 7 8 7Z" fill="#7C3AED"/>
<path d="M12 7C12.5523 7 13 6.55228 13 6C13 5.44772 12.5523 5 12 5C11.4477 5 11 5.44772 11 6C11 6.55228 11.4477 7 12 7Z" fill="#7C3AED"/>
<path d="M16 7C16.5523 7 17 6.55228 17 6C17 5.44772 16.5523 5 16 5C15.4477 5 15 5.44772 15 6C15 6.55228 15.4477 7 16 7Z" fill="#7C3AED"/>
</svg>
