<svg width="24" height="24" viewBox="0 0 24 24" fill="none" xmlns="http://www.w3.org/2000/svg">
<g clip-path="url(#clip0_2_629)">
<path d="M24 0H0V24H24V0Z" fill="#00ACC1"/>
<path d="M6.74316 15H5.70068L5.58789 11.3359L3.7627 15H2.69971L2.51172 9.98926H3.52002L3.56445 13.4961L5.28369 9.98926H6.40137L6.51758 13.4585L8.16846 9.98926H9.1665L6.74316 15ZM11.4805 13.8926H9.49463L8.89307 15H7.8335L10.667 9.98926H11.812L12.6255 15H11.6479L11.4805 13.8926ZM11.354 13.0586L11.0635 11.042L9.85352 13.0586H11.354ZM13.2749 15L14.3242 9.98926H15.6743C16.0503 9.98926 16.2907 9.99495 16.3955 10.0063C16.6029 10.0269 16.7874 10.069 16.9492 10.1328C17.1133 10.1966 17.2614 10.2866 17.3936 10.4028C17.528 10.5168 17.6431 10.6546 17.7388 10.8164C17.8368 10.9782 17.9119 11.165 17.9644 11.377C18.0168 11.5866 18.043 11.8167 18.043 12.0674C18.043 12.6074 17.9393 13.0871 17.7319 13.5063C17.5269 13.9233 17.2682 14.2549 16.9561 14.501C16.7168 14.6924 16.408 14.8337 16.0298 14.9248C15.8156 14.9749 15.4863 15 15.042 15H13.2749ZM14.4746 14.1934H14.9976C15.3758 14.1934 15.6493 14.1706 15.8179 14.125C15.9888 14.0771 16.1449 13.9894 16.2861 13.8618C16.4889 13.6772 16.6598 13.4312 16.7988 13.1235C16.9378 12.8159 17.0073 12.4536 17.0073 12.0366C17.0073 11.6812 16.9492 11.4146 16.833 11.2368C16.7191 11.0568 16.5778 10.9372 16.4092 10.8779C16.2907 10.8369 16.0799 10.8164 15.7769 10.8164H15.1787L14.4746 14.1934ZM18.3438 15L19.3931 9.98926H20.4219L19.5503 14.1626H22.1001L21.9258 15H18.3438Z" fill="white"/>
</g>
<defs>
<clipPath id="clip0_2_629">
<rect width="24" height="24" fill="white"/>
</clipPath>
</defs>
</svg>
