<svg width="24" height="24" viewBox="0 0 24 24" fill="none" xmlns="http://www.w3.org/2000/svg">
<g clip-path="url(#clip0_2_632)">
<path d="M24 0H0V24H24V0Z" fill="#78909C"/>
<path d="M20 6H4C3.44772 6 3 6.44772 3 7V9C3 9.55228 3.44772 10 4 10H20C20.5523 10 21 9.55228 21 9V7C21 6.44772 20.5523 6 20 6Z" fill="white"/>
<path d="M20 12H4C3.44772 12 3 12.4477 3 13V15C3 15.5523 3.44772 16 4 16H20C20.5523 16 21 15.5523 21 15V13C21 12.4477 20.5523 12 20 12Z" fill="white"/>
<path d="M6 8.79995C6.44182 8.79995 6.8 8.44178 6.8 7.99995C6.8 7.55812 6.44182 7.19995 6 7.19995C5.55817 7.19995 5.2 7.55812 5.2 7.99995C5.2 8.44178 5.55817 8.79995 6 8.79995Z" fill="#78909C"/>
<path d="M8.5 8.79995C8.94182 8.79995 9.3 8.44178 9.3 7.99995C9.3 7.55812 8.94182 7.19995 8.5 7.19995C8.05817 7.19995 7.7 7.55812 7.7 7.99995C7.7 8.44178 8.05817 8.79995 8.5 8.79995Z" fill="#78909C"/>
<path d="M6 14.8C6.44182 14.8 6.8 14.4418 6.8 14C6.8 13.5581 6.44182 13.2 6 13.2C5.55817 13.2 5.2 13.5581 5.2 14C5.2 14.4418 5.55817 14.8 6 14.8Z" fill="#78909C"/>
<path d="M8.5 14.8C8.94182 14.8 9.3 14.4418 9.3 14C9.3 13.5581 8.94182 13.2 8.5 13.2C8.05817 13.2 7.7 13.5581 7.7 14C7.7 14.4418 8.05817 14.8 8.5 14.8Z" fill="#78909C"/>
</g>
<defs>
<clipPath id="clip0_2_632">
<rect width="24" height="24" fill="white"/>
</clipPath>
</defs>
</svg>
