<svg width="24" height="24" viewBox="0 0 24 24" fill="none" xmlns="http://www.w3.org/2000/svg">
<path d="M0 7.35403L2.113 16.646H2.914C3.26652 16.646 3.60836 16.5251 3.88246 16.3034C4.15655 16.0818 4.34629 15.7728 4.42 15.428L5.771 9.08803C5.77882 9.04946 5.79971 9.01478 5.83013 8.98982C5.86055 8.96486 5.89865 8.95116 5.938 8.95103C6.018 8.95103 6.088 9.00903 6.105 9.08803L7.457 15.428C7.53071 15.7728 7.72045 16.0818 7.99454 16.3034C8.26864 16.5251 8.61049 16.646 8.963 16.646H9.768L11.881 7.35403H11.316C10.696 7.35403 10.157 7.78403 10.02 8.38903L8.76 13.934L7.654 8.75803C7.60334 8.52385 7.5054 8.30248 7.36618 8.10749C7.22696 7.9125 7.04939 7.74798 6.84436 7.62402C6.63932 7.50007 6.41114 7.41928 6.17378 7.38661C5.93643 7.35394 5.6949 7.37007 5.464 7.43403C4.825 7.61003 4.351 8.15003 4.213 8.79903L3.119 13.926L1.859 8.38903C1.79217 8.09521 1.62754 7.8328 1.39209 7.64477C1.15664 7.45673 0.86432 7.35422 0.563 7.35403H0ZM13.992 7.35403C13.74 7.35403 13.4982 7.45408 13.3199 7.63222C13.1416 7.81035 13.0413 8.05198 13.041 8.30403V16.646H13.676C13.928 16.6458 14.1696 16.5456 14.3478 16.3675C14.5261 16.1895 14.6265 15.948 14.627 15.696V7.35303L13.992 7.35403ZM15.77 7.35403L18.928 12.014L15.788 16.646H17.113C17.481 16.646 17.825 16.465 18.031 16.16L19.787 13.57C19.7981 13.5541 19.8128 13.5412 19.8299 13.5322C19.8471 13.5232 19.8661 13.5186 19.8855 13.5186C19.9049 13.5186 19.9239 13.5232 19.9411 13.5322C19.9582 13.5412 19.9729 13.5541 19.984 13.57L21.738 16.16C21.944 16.465 22.288 16.646 22.656 16.646H23.982L20.842 12.014L24 7.35403H22.674C22.306 7.35403 21.962 7.53503 21.756 7.84003L19.984 10.457C19.9729 10.4729 19.9582 10.4859 19.9411 10.4948C19.9239 10.5038 19.9049 10.5085 19.8855 10.5085C19.8661 10.5085 19.8471 10.5038 19.8299 10.4948C19.8128 10.4859 19.7981 10.4729 19.787 10.457L18.014 7.84003C17.9123 7.69017 17.7755 7.56751 17.6155 7.48279C17.4554 7.39806 17.2771 7.35385 17.096 7.35403H15.77Z" fill="#0C6EFC"/>
</svg>
