<svg width="24" height="24" viewBox="0 0 24 24" fill="none" xmlns="http://www.w3.org/2000/svg">
<path d="M2.22613 6C1.9328 6 1.64236 6.05679 1.3715 6.16712C1.10065 6.27745 0.854719 6.43913 0.647851 6.64288C0.440984 6.84664 0.277257 7.08843 0.166082 7.35438C0.0549065 7.62033 -0.00152481 7.90518 3.1328e-05 8.19256V15.4963C3.1328e-05 16.7112 1.00089 17.6888 2.23794 17.6888H11.4937L15.7185 20L14.7561 17.6888H21.7621C22.0561 17.6892 22.3473 17.6328 22.619 17.5227C22.8906 17.4127 23.1375 17.2512 23.3454 17.0475C23.5533 16.8438 23.7181 16.602 23.8304 16.3358C23.9428 16.0696 24.0004 15.7843 24 15.4963V8.19256C24.0004 7.90453 23.9428 7.61924 23.8304 7.35306C23.7181 7.08687 23.5533 6.84501 23.3454 6.64134C23.1375 6.43767 22.8906 6.27618 22.619 6.16613C22.3473 6.05607 22.0561 5.99962 21.7621 6H2.22613ZM10.2242 7.28719H10.3127C10.5046 7.29008 10.6788 7.35372 10.8412 7.48099C10.9292 7.54588 11.0018 7.62854 11.0543 7.72336C11.1068 7.81819 11.1378 7.92296 11.1453 8.03058C11.1588 8.19081 11.1249 8.35146 11.0479 8.49339C10.6641 9.18471 10.3511 10.3446 10.0972 11.9616C9.85215 13.5264 9.76063 14.7529 9.81968 15.6264C9.84453 15.8441 9.80454 16.0641 9.70453 16.2599C9.65664 16.3574 9.58341 16.4408 9.49219 16.5017C9.40098 16.5626 9.295 16.5989 9.18491 16.607C8.93101 16.6244 8.66234 16.5087 8.40843 16.2483C7.49319 15.3343 6.76986 13.969 6.23843 12.1525C5.60071 13.3818 5.13128 14.3045 4.82719 14.9207C4.24852 16.0083 3.75547 16.5636 3.34509 16.5926C3.07937 16.6128 2.85499 16.393 2.65718 15.9331C2.15527 14.6719 1.61794 12.2393 1.03927 8.63223C1.02126 8.52018 1.02608 8.40575 1.05344 8.29554C1.0808 8.18532 1.13017 8.08151 1.1987 7.99008C1.33746 7.80496 1.54118 7.71529 1.8187 7.69504C2.31766 7.65744 2.60109 7.88306 2.66899 8.38347C2.97309 10.3938 3.30966 12.0975 3.66099 13.4917L5.80738 9.47975C6.00224 9.11529 6.25024 8.92438 6.54548 8.90413C6.97653 8.87521 7.24519 9.14422 7.35148 9.71405C7.59653 10.9897 7.90653 12.0773 8.28148 13C8.53539 10.5587 8.96939 8.79711 9.58053 7.7124C9.63827 7.59093 9.7287 7.48717 9.84209 7.41226C9.95549 7.33734 10.0876 7.29411 10.2242 7.28719ZM14.0416 8.32851C14.2069 8.32851 14.3841 8.34587 14.573 8.38636C15.258 8.53099 15.7865 8.89835 16.1378 9.5029C16.4537 10.0236 16.6131 10.6455 16.6131 11.3946C16.6131 12.3868 16.3563 13.2864 15.8455 14.1136C15.255 15.074 14.4904 15.5599 13.5397 15.5599C13.3608 15.5567 13.1827 15.5354 13.0083 15.4963C12.6791 15.4369 12.3677 15.3063 12.0965 15.1142C11.8253 14.9221 11.6012 14.6731 11.4405 14.3855C11.114 13.8024 10.9529 13.1442 10.9741 12.4793C10.9741 11.4901 11.225 10.5847 11.7358 9.76901C12.3322 8.80579 13.1027 8.32851 14.0416 8.32851ZM20.1944 8.32851C20.3597 8.32851 20.5368 8.34587 20.7258 8.38636C21.4226 8.53099 21.9392 8.89835 22.2906 9.5029C22.6065 10.0236 22.7629 10.6455 22.7629 11.3946C22.7629 12.3868 22.509 13.2864 21.9983 14.1136C21.4078 15.074 20.6431 15.5599 19.6925 15.5599C19.5136 15.5567 19.3355 15.5354 19.161 15.4963C18.8319 15.4369 18.5204 15.3063 18.2493 15.1142C17.9781 14.9221 17.754 14.6731 17.5933 14.3855C17.2647 13.8029 17.1016 13.1447 17.1209 12.4793C17.1209 11.4901 17.3778 10.5847 17.8886 9.76901C18.4849 8.80579 19.2555 8.32851 20.1944 8.32851ZM14.0888 9.93678C13.7818 9.93678 13.4836 10.1364 13.2002 10.5471C12.8081 11.0862 12.6013 11.7336 12.6097 12.3955C12.6097 12.6731 12.6687 12.974 12.7868 13.2719C12.9315 13.6479 13.1323 13.8446 13.3655 13.8938C13.6105 13.9401 13.8763 13.836 14.1626 13.5872C14.5258 13.269 14.7679 12.7975 14.9066 12.1641C14.9539 11.9413 14.9745 11.7012 14.9745 11.4525C14.9745 11.1719 14.9155 10.874 14.7974 10.576C14.6498 10.2 14.4549 10.0033 14.2187 9.95413C14.1751 9.94435 14.1336 9.93854 14.0888 9.93678ZM20.2387 9.93678C19.9346 9.93678 19.6364 10.1364 19.3529 10.5471C18.9609 11.0862 18.754 11.7336 18.7625 12.3955C18.7625 12.6731 18.8215 12.974 18.9396 13.2719C19.0843 13.6479 19.285 13.8446 19.5183 13.8938C19.7633 13.9401 20.029 13.836 20.3154 13.5872C20.6786 13.269 20.9207 12.7975 21.0594 12.1641C21.0978 11.9413 21.1273 11.7012 21.1273 11.4525C21.1273 11.1719 21.0683 10.874 20.9502 10.576C20.8026 10.2 20.6077 10.0033 20.3715 9.95413C20.3279 9.94435 20.2834 9.93854 20.2387 9.93678Z" fill="#96588A"/>
</svg>
