<svg width="24" height="24" viewBox="0 0 24 24" fill="none" xmlns="http://www.w3.org/2000/svg">
<path d="M12.0693 1.11792C5.9041 1.11792 0.890347 6.13503 0.890347 12.2969C0.890347 18.4588 5.9041 23.4758 12.0687 23.4758C18.2345 23.4758 23.2482 18.4588 23.2482 12.2969C23.2482 6.13503 18.2345 1.11792 12.0693 1.11792Z" fill="url(#paint0_linear_2_647)"/>
<path opacity="0.05" d="M12.0695 22.9177C6.2123 22.9177 1.44671 18.1533 1.44671 12.2971C1.44671 6.44164 6.21174 1.67773 12.0689 1.67773C17.9267 1.67773 22.6923 6.44164 22.6923 12.2971C22.6923 18.1533 17.9267 22.9177 12.0695 22.9177ZM10.2686 20.4863C10.8566 20.616 11.4614 20.6814 12.0701 20.6814C12.8213 20.6814 13.5691 20.5802 14.2969 20.3801L12.2422 14.7504L10.2686 20.4863ZM3.91782 10.3341C3.76354 10.9736 3.68585 11.6309 3.68585 12.2971C3.68585 15.0159 4.94851 17.4864 7.10158 19.0566L3.91782 10.3341ZM20.3157 10.7819C20.1977 11.2821 20.0322 11.7981 19.8165 12.3374L17.6763 18.5317C19.4303 16.9487 20.4537 14.6811 20.4537 12.2971C20.4537 11.7874 20.4073 11.281 20.3157 10.7819ZM9.84769 16.0271L11.2126 11.9311L9.94662 8.40522C9.60399 8.37672 9.3396 8.34263 9.3396 8.34263C8.86226 8.31299 8.50118 7.90497 8.51795 7.39577C8.53472 6.88097 8.92878 6.4925 9.43519 6.4925L9.55927 6.50033C10.5793 6.5702 11.3412 6.60541 11.8235 6.60541C12.7213 6.60541 14.1499 6.49642 14.1645 6.4953H14.1661C14.7285 6.4953 15.1247 6.85135 15.1554 7.36111C15.1806 7.78591 14.9011 8.27387 14.3321 8.34317C14.2886 8.34821 14.1678 8.36218 13.999 8.37784L16.5048 15.8683L16.8921 14.5783C17.3314 13.4514 17.5499 12.5398 17.5499 11.8461C17.5499 11.0714 17.1901 10.4828 16.8731 9.96356C16.8077 9.85681 16.7456 9.75508 16.6903 9.65839L16.5802 9.48064C16.1454 8.77636 15.7357 8.11178 15.7357 7.28341C15.7357 6.54057 16.2001 5.82456 16.891 5.43498C15.4909 4.45011 13.7973 3.91296 12.0701 3.91296C9.73199 3.91296 7.53533 4.87379 5.95071 6.56852C6.70081 6.53666 7.44645 6.47964 7.45595 6.47909L7.53085 6.47629C8.02384 6.47629 8.41846 6.84968 8.44808 7.3449C8.47323 7.7697 8.19264 8.25821 7.62195 8.32697C7.58395 8.33144 7.46266 8.34541 7.29106 8.36162L9.84769 16.0271Z" fill="black"/>
<path opacity="0.07" d="M12.0696 22.6384C6.3661 22.6384 1.72629 17.9996 1.72629 12.2972C1.72629 6.59597 6.3661 1.95728 12.069 1.95728C17.7726 1.95728 22.4129 6.59597 22.4129 12.2972C22.4129 17.9996 17.7731 22.6384 12.0696 22.6384ZM9.90424 20.6865C10.6074 20.8686 11.3346 20.9609 12.0702 20.9609C12.9482 20.9609 13.8185 20.8278 14.6621 20.5646L12.2345 13.9142L9.90424 20.6865ZM3.88941 9.44213C3.56857 10.3588 3.40648 11.3163 3.40648 12.2972C3.40648 15.4011 5.01625 18.1964 7.65392 19.753L3.88941 9.44213ZM20.2425 9.41866C20.1833 10.3152 19.9619 11.2224 19.5578 12.2336L17.0962 19.3562C19.3577 17.7409 20.7333 15.1037 20.7333 12.2972C20.7333 11.3163 20.5656 10.3409 20.2425 9.41866ZM9.84834 16.9102L11.509 11.9272L10.1491 8.14035C9.73153 8.11129 9.37547 8.06545 9.37547 8.06545C9.03675 8.04365 8.78578 7.7653 8.79753 7.40477C8.80927 7.04369 9.0837 6.77204 9.43529 6.77204C9.50181 6.77484 10.9674 6.88496 11.8231 6.88496C12.7376 6.88496 14.1707 6.7754 14.1853 6.77428H14.1897C14.5888 6.77428 14.8554 7.0286 14.8767 7.3785C14.8951 7.68313 14.7023 8.01738 14.2987 8.06601C14.2831 8.06769 13.9974 8.10178 13.6218 8.12973L16.52 16.7923L17.1605 14.6594C17.6077 13.5146 17.8302 12.5756 17.8302 11.8467C17.8302 10.9932 17.4321 10.3415 17.1119 9.8183C17.0481 9.71379 16.9872 9.61485 16.933 9.51984L16.8184 9.33426C16.4054 8.6652 16.0152 8.03302 16.0152 7.28348C16.0152 6.48363 16.6469 5.74246 17.4445 5.49988C15.9224 4.292 14.0371 3.63355 12.0702 3.63355C9.44591 3.63355 6.96082 4.83306 5.32143 6.86707C6.22749 6.85365 7.46443 6.75862 7.47785 6.75752L7.53039 6.75584C7.87918 6.75584 8.14748 7.01072 8.16871 7.36117C8.18716 7.66636 7.99376 8.00061 7.58797 8.04924C7.57287 8.05092 7.28893 8.08501 6.91275 8.11296L9.84834 16.9102Z" fill="black"/>
<path d="M12.0689 2.23657C6.51853 2.23657 2.00558 6.75007 2.00558 12.2971C2.00558 17.8441 6.52019 22.3587 12.0695 22.3587C17.6192 22.3587 22.1333 17.8441 22.1333 12.2971C22.1333 6.75007 17.6192 2.23657 12.0689 2.23657ZM3.12683 12.2971C3.12683 10.9981 3.40463 9.77007 3.90041 8.6572L8.16742 20.3459C5.18376 18.896 3.12683 15.8386 3.12683 12.2971ZM12.0699 21.2402C11.1924 21.2402 10.3462 21.1139 9.54354 20.8757L12.2265 13.0773L14.9754 20.6103C14.9938 20.6533 15.019 20.6936 15.0414 20.7332C14.1096 21.0592 13.1102 21.2402 12.0699 21.2402ZM13.2405 7.87299C13.7782 7.84673 14.2645 7.78803 14.2645 7.78803C14.7457 7.72991 14.6875 7.02061 14.2063 7.05247C14.2063 7.05247 12.7592 7.16425 11.823 7.16425C10.9459 7.16425 9.46585 7.05247 9.46585 7.05247C8.98516 7.01949 8.92926 7.75673 9.41107 7.78803C9.41107 7.78803 9.8683 7.84729 10.3495 7.87299L11.8045 11.9242L9.84817 17.7938L6.53305 7.85679C7.07187 7.83051 7.55481 7.77183 7.55481 7.77183C8.03886 7.7137 7.98017 7.00439 7.49947 7.03625C7.49947 7.03625 6.04901 7.14805 5.11613 7.14805C4.94621 7.14805 4.90205 7.16761 4.77461 7.12624C6.39499 4.84406 9.05782 3.35391 12.0699 3.35391C14.3991 3.35391 16.5192 4.23928 18.1088 5.70037C18.0691 5.69926 18.0334 5.6959 17.9937 5.6959C17.1161 5.6959 16.2939 6.46445 16.2939 7.2833C16.2939 8.01832 16.7205 8.63763 17.1749 9.38048C17.5142 9.97408 18.1083 10.7415 18.1083 11.8466C18.1083 12.6151 17.8819 13.5765 17.427 14.7391L16.5331 17.7161L13.2405 7.87299ZM16.5673 20.0301L19.2977 12.1293C19.808 10.8516 19.9791 9.83266 19.9791 8.9227C19.9791 8.59515 19.9584 8.2883 19.9187 8.00323C20.6152 9.28098 21.0126 10.7426 21.0126 12.2971C21.0126 15.596 19.2267 18.4806 16.5673 20.0301Z" fill="white"/>
<defs>
<linearGradient id="paint0_linear_2_647" x1="4.58387" y1="1.55167" x2="18.6766" y2="21.781" gradientUnits="userSpaceOnUse">
<stop stop-color="#0D61A9"/>
<stop offset="1" stop-color="#16528C"/>
</linearGradient>
</defs>
</svg>
