<svg width="21" height="21" viewBox="0 0 21 21" fill="none" xmlns="http://www.w3.org/2000/svg">
<path d="M10.5606 0.978271C5.16609 0.978271 0.779053 5.36824 0.779053 10.7599C0.779053 16.1515 5.16609 20.5414 10.5601 20.5414C15.9552 20.5414 20.3422 16.1515 20.3422 10.7599C20.3422 5.36824 15.9552 0.978271 10.5606 0.978271Z" fill="url(#paint0_linear_0_16310)"/>
<path opacity="0.05" d="M10.5608 20.053C5.43576 20.053 1.26587 15.8841 1.26587 10.76C1.26587 5.63644 5.43527 1.46802 10.5603 1.46802C15.6859 1.46802 19.8558 5.63644 19.8558 10.76C19.8558 15.8841 15.6859 20.053 10.5608 20.053ZM8.985 17.9255C9.49951 18.039 10.0287 18.0962 10.5613 18.0962C11.2186 18.0962 11.873 18.0077 12.5098 17.8326L10.7119 12.9066L8.985 17.9255ZM3.42809 9.04238C3.2931 9.60189 3.22512 10.177 3.22512 10.76C3.22512 13.1389 4.32995 15.3006 6.21388 16.6745L3.42809 9.04238ZM17.7762 9.43414C17.673 9.87186 17.5282 10.3233 17.3394 10.7952L15.4668 16.2152C17.0015 14.8301 17.897 12.846 17.897 10.76C17.897 10.314 17.8564 9.87088 17.7762 9.43414ZM8.61673 14.0237L9.81106 10.4397L8.70329 7.35457C8.40349 7.32963 8.17215 7.2998 8.17215 7.2998C7.75448 7.27387 7.43853 6.91685 7.45321 6.4713C7.46788 6.02085 7.81268 5.68094 8.25579 5.68094L8.36436 5.68779C9.25693 5.74893 9.92354 5.77974 10.3456 5.77974C11.1311 5.77974 12.3812 5.68437 12.3939 5.68339H12.3953C12.8874 5.68339 13.2341 5.99493 13.261 6.44097C13.283 6.81267 13.0385 7.23964 12.5406 7.30028C12.5025 7.30469 12.3968 7.31691 12.2491 7.33061L14.4417 13.8848L14.7806 12.756C15.165 11.77 15.3562 10.9723 15.3562 10.3653C15.3562 9.68748 15.0413 9.17248 14.764 8.71812C14.7067 8.62471 14.6524 8.5357 14.604 8.45109L14.5077 8.29556C14.1272 7.67932 13.7687 7.09781 13.7687 6.37299C13.7687 5.723 14.1751 5.09649 14.7796 4.75561C13.5545 3.89385 12.0726 3.42384 10.5613 3.42384C8.51549 3.42384 6.59341 4.26457 5.20687 5.74746C5.86321 5.71958 6.51564 5.66969 6.52396 5.66921L6.58949 5.66676C7.02086 5.66676 7.36615 5.99347 7.39207 6.42679C7.41408 6.79849 7.16856 7.22594 6.66921 7.2861C6.63596 7.29001 6.52983 7.30224 6.37968 7.31642L8.61673 14.0237Z" fill="black"/>
<path opacity="0.07" d="M10.5609 19.8086C5.57034 19.8086 1.5105 15.7497 1.5105 10.7601C1.5105 5.77151 5.57034 1.71265 10.5604 1.71265C15.551 1.71265 19.6113 5.77151 19.6113 10.7601C19.6113 15.7497 15.5515 19.8086 10.5609 19.8086ZM8.66621 18.1007C9.28147 18.2601 9.91777 18.3408 10.5614 18.3408C11.3297 18.3408 12.0912 18.2244 12.8293 17.9941L10.7052 12.175L8.66621 18.1007ZM3.40323 8.2619C3.1225 9.06399 2.98067 9.90178 2.98067 10.7601C2.98067 13.476 4.38922 15.9219 6.69718 17.2839L3.40323 8.2619ZM17.7122 8.24136C17.6604 9.02584 17.4667 9.81962 17.1131 10.7044L14.9592 16.9367C16.938 15.5233 18.1416 13.2158 18.1416 10.7601C18.1416 9.90178 17.9949 9.04834 17.7122 8.24136ZM8.6173 14.7965L10.0704 10.4363L8.88043 7.12284C8.51509 7.09741 8.20354 7.0573 8.20354 7.0573C7.90716 7.03823 7.68756 6.79467 7.69784 6.47921C7.70811 6.16326 7.94824 5.92557 8.25588 5.92557C8.31408 5.92802 9.59644 6.02437 10.3452 6.02437C11.1454 6.02437 12.3994 5.92851 12.4121 5.92753C12.4135 5.92753 12.4145 5.92753 12.416 5.92753C12.7652 5.92753 12.9985 6.15006 13.0171 6.45622C13.0332 6.72277 12.8645 7.01524 12.5114 7.05779C12.4977 7.05926 12.2477 7.08909 11.9191 7.11355L14.455 14.6933L15.0154 12.827C15.4067 11.8253 15.6014 11.0037 15.6014 10.3659C15.6014 9.6191 15.2531 9.04883 14.9729 8.59105C14.9171 8.4996 14.8638 8.41303 14.8164 8.32989L14.7161 8.16751C14.3547 7.58208 14.0133 7.02893 14.0133 6.37308C14.0133 5.67321 14.566 5.02469 15.2639 4.81243C13.9321 3.75553 12.2825 3.17939 10.5614 3.17939C8.26517 3.17939 6.09072 4.22896 4.65625 6.00872C5.44905 5.99698 6.53138 5.91383 6.54312 5.91286L6.58909 5.91139C6.89428 5.91139 7.12904 6.13441 7.14762 6.44106C7.16376 6.7081 6.99454 7.00057 6.63947 7.04312C6.62626 7.04459 6.37781 7.07442 6.04866 7.09887L8.6173 14.7965Z" fill="black"/>
<path d="M10.5603 1.95703C5.70371 1.95703 1.75488 5.90634 1.75488 10.76C1.75488 15.6136 5.70517 19.5639 10.5608 19.5639C15.4168 19.5639 19.3666 15.6136 19.3666 10.76C19.3666 5.90634 15.4168 1.95703 10.5603 1.95703ZM2.73598 10.76C2.73598 9.62334 2.97905 8.54884 3.41286 7.57508L7.14649 17.8027C4.53579 16.534 2.73598 13.8588 2.73598 10.76ZM10.5612 18.5852C9.79338 18.5852 9.05292 18.4747 8.3506 18.2663L10.6982 11.4427L13.1035 18.034C13.1196 18.0717 13.1416 18.1069 13.1612 18.1416C12.3459 18.4268 11.4714 18.5852 10.5612 18.5852ZM11.5854 6.8889C12.0559 6.86592 12.4814 6.81456 12.4814 6.81456C12.9025 6.7637 12.8516 6.14306 12.4305 6.17094C12.4305 6.17094 11.1643 6.26875 10.3451 6.26875C9.5777 6.26875 8.28262 6.17094 8.28262 6.17094C7.86201 6.14208 7.8131 6.78717 8.23469 6.81456C8.23469 6.81456 8.63476 6.86641 9.05585 6.8889L10.3289 10.4337L8.61715 15.5696L5.71642 6.87472C6.18789 6.85173 6.61046 6.80038 6.61046 6.80038C7.034 6.74952 6.98265 6.12887 6.56204 6.15675C6.56204 6.15675 5.29288 6.25457 4.47661 6.25457C4.32793 6.25457 4.28929 6.27169 4.17778 6.23549C5.59562 4.23858 7.92559 2.9347 10.5612 2.9347C12.5992 2.9347 14.4543 3.7094 15.8452 4.98785C15.8105 4.98688 15.7792 4.98394 15.7445 4.98394C14.9766 4.98394 14.2572 5.65642 14.2572 6.37292C14.2572 7.01606 14.6304 7.55796 15.028 8.20795C15.3249 8.72735 15.8448 9.39886 15.8448 10.3658C15.8448 11.0382 15.6467 11.8795 15.2486 12.8967L14.4665 15.5016L11.5854 6.8889ZM14.4964 17.5264L16.8855 10.6132C17.332 9.49521 17.4817 8.60361 17.4817 7.80739C17.4817 7.52079 17.4636 7.25229 17.4289 7.00286C18.0383 8.12089 18.386 9.39983 18.386 10.76C18.386 13.6465 16.8234 16.1706 14.4964 17.5264Z" fill="white"/>
<defs>
<linearGradient id="paint0_linear_0_16310" x1="4.01089" y1="1.3578" x2="16.342" y2="19.0585" gradientUnits="userSpaceOnUse">
<stop stop-color="#0D61A9"/>
<stop offset="1" stop-color="#16528C"/>
</linearGradient>
</defs>
</svg>
