<svg width="24" height="24" viewBox="0 0 24 24" fill="none" xmlns="http://www.w3.org/2000/svg">
<g clip-path="url(#clip0_2_652)">
<path d="M24 0H0V24H24V0Z" fill="#0277BD"/>
<path d="M6.74316 15H5.70068L5.58789 11.3359L3.7627 15H2.69971L2.51172 9.98926H3.52002L3.56445 13.4961L5.28369 9.98926H6.40137L6.51758 13.4585L8.16846 9.98926H9.1665L6.74316 15ZM8.74609 13.3765L9.72705 13.3252C9.74072 13.6374 9.79427 13.8481 9.8877 13.9575C10.0381 14.1353 10.3161 14.2241 10.7217 14.2241C11.0589 14.2241 11.3027 14.1637 11.4531 14.043C11.6035 13.9222 11.6787 13.7764 11.6787 13.6055C11.6787 13.4574 11.6172 13.332 11.4941 13.2295C11.4076 13.1543 11.1694 13.0324 10.7798 12.8638C10.3924 12.6951 10.1087 12.555 9.92871 12.4434C9.75098 12.3294 9.61084 12.1825 9.5083 12.0024C9.40576 11.8224 9.35449 11.6117 9.35449 11.3701C9.35449 10.9486 9.50716 10.5988 9.8125 10.3208C10.1178 10.0428 10.5599 9.90381 11.1387 9.90381C11.7266 9.90381 12.1812 10.0417 12.5024 10.3174C12.826 10.5931 13.0037 10.96 13.0356 11.418L12.0479 11.4624C12.0228 11.2231 11.9362 11.0397 11.7881 10.9121C11.64 10.7845 11.4212 10.7207 11.1318 10.7207C10.847 10.7207 10.6431 10.7708 10.52 10.8711C10.3993 10.9714 10.3389 11.0978 10.3389 11.2505C10.3389 11.394 10.3947 11.5125 10.5063 11.606C10.618 11.7017 10.8652 11.8327 11.248 11.999C11.8245 12.2474 12.1914 12.4491 12.3486 12.604C12.5833 12.8319 12.7007 13.1247 12.7007 13.4824C12.7007 13.9245 12.5252 14.3027 12.1743 14.6172C11.8257 14.9294 11.3392 15.0854 10.7148 15.0854C10.2842 15.0854 9.91048 15.0137 9.59375 14.8701C9.2793 14.7243 9.05713 14.5226 8.92725 14.2651C8.79736 14.0076 8.73698 13.7114 8.74609 13.3765ZM13.2749 15L14.3242 9.98926H15.6743C16.0503 9.98926 16.2907 9.99495 16.3955 10.0063C16.6029 10.0269 16.7874 10.069 16.9492 10.1328C17.1133 10.1966 17.2614 10.2866 17.3936 10.4028C17.528 10.5168 17.6431 10.6546 17.7388 10.8164C17.8368 10.9782 17.9119 11.165 17.9644 11.377C18.0168 11.5866 18.043 11.8167 18.043 12.0674C18.043 12.6074 17.9393 13.0871 17.7319 13.5063C17.5269 13.9233 17.2682 14.2549 16.9561 14.501C16.7168 14.6924 16.408 14.8337 16.0298 14.9248C15.8156 14.9749 15.4863 15 15.042 15H13.2749ZM14.4746 14.1934H14.9976C15.3758 14.1934 15.6493 14.1706 15.8179 14.125C15.9888 14.0771 16.1449 13.9894 16.2861 13.8618C16.4889 13.6772 16.6598 13.4312 16.7988 13.1235C16.9378 12.8159 17.0073 12.4536 17.0073 12.0366C17.0073 11.6812 16.9492 11.4146 16.833 11.2368C16.7191 11.0568 16.5778 10.9372 16.4092 10.8779C16.2907 10.8369 16.0799 10.8164 15.7769 10.8164H15.1787L14.4746 14.1934ZM18.3438 15L19.3931 9.98926H20.4219L19.5503 14.1626H22.1001L21.9258 15H18.3438Z" fill="white"/>
</g>
<defs>
<clipPath id="clip0_2_652">
<rect width="24" height="24" fill="white"/>
</clipPath>
</defs>
</svg>
